<svg width="90" height="90" viewBox="0 0 90 90" fill="none" xmlns="http://www.w3.org/2000/svg">
<rect width="90" height="90" rx="20" fill="white"/>
<path d="M42.8719 34.2189C46.3689 34.2189 49.2038 31.3857 49.2038 27.8907C49.2038 24.3958 46.3689 21.5625 42.8719 21.5625C39.3749 21.5625 36.54 24.3958 36.54 27.8907C36.54 31.3857 39.3749 34.2189 42.8719 34.2189Z" fill="#EE7581" stroke="#105286" stroke-width="2" stroke-miterlimit="2.948"/>
<path d="M25.189 47.8334C27.2787 47.8334 28.9728 46.14 28.9728 44.0513C28.9728 41.9627 27.2787 40.2695 25.189 40.2695C23.0993 40.2695 21.4053 41.9627 21.4053 44.0513C21.4053 46.14 23.0993 47.8334 25.189 47.8334Z" fill="#406B95" stroke="#105286" stroke-width="2" stroke-miterlimit="2.948"/>
<path d="M38.0536 67.4998C39.7249 67.4998 41.0798 66.1449 41.0798 64.4735C41.0798 62.8022 39.7249 61.4473 38.0536 61.4473C36.3822 61.4473 35.0273 62.8022 35.0273 64.4735C35.0273 66.1449 36.3822 67.4998 38.0536 67.4998Z" fill="#EE7581" stroke="#105286" stroke-width="2" stroke-miterlimit="2.948"/>
<path d="M26.7002 41.0262L37.2977 31.9492M35.7827 62.206L26.7021 47.0767M28.2152 45.0593L41.3064 47.285M41.0946 64.5031L50.6214 63.9329" stroke="#105286" stroke-width="2" stroke-miterlimit="2.948"/>
<path d="M44.2597 51.0842C46.1247 51.0842 47.6366 49.5738 47.6366 47.7109C47.6366 45.848 46.1247 44.3379 44.2597 44.3379C42.3947 44.3379 40.8828 45.848 40.8828 47.7109C40.8828 49.5738 42.3947 51.0842 44.2597 51.0842Z" fill="#406B95" stroke="#105286" stroke-width="2" stroke-miterlimit="2.948"/>
<path d="M39.0605 61.5069L43.5512 51.4043" stroke="#105286" stroke-width="2" stroke-miterlimit="2.948"/>
<path d="M62.7788 47.8334C60.689 47.8334 58.995 46.14 58.995 44.0513C58.995 41.9627 60.689 40.2695 62.7788 40.2695C64.8685 40.2695 66.5625 41.9627 66.5625 44.0513C66.5625 46.14 64.8685 47.8334 62.7788 47.8334Z" fill="#406B95" stroke="#105286" stroke-width="2" stroke-miterlimit="2.948"/>
<path d="M54.1612 67.4998C52.4899 67.4998 51.135 66.1449 51.135 64.4735C51.135 62.8022 52.4899 61.4473 54.1612 61.4473C55.8326 61.4473 57.1875 62.8022 57.1875 64.4735C57.1875 66.1449 55.8326 67.4998 54.1612 67.4998Z" fill="#EE7581" stroke="#105286" stroke-width="2" stroke-miterlimit="2.948"/>
<path d="M61.2656 41.0269L49.02 30.6094M55.7344 61.4963L62.2125 47.61M59.7506 45.0601L46.6612 47.2857M51.7481 62.9286L46.5469 50.2799" stroke="#105286" stroke-width="2" stroke-miterlimit="2.948"/>
</svg>
