<svg width="64" height="64" viewBox="0 0 64 64" fill="none" xmlns="http://www.w3.org/2000/svg">
<path d="M61.7932 46.6073C61.946 46.4087 62.0185 46.1599 61.9962 45.9103C61.0282 37.6483 49.1442 38.3043 49.0132 46.5573C48.6602 46.8833 48.2862 47.2563 48.0002 47.6643V43.4833C54.1122 38.4393 52.4722 32.9183 47.5882 29.1903C47.4173 29.0661 47.2114 28.9992 47.0002 28.9992C46.7889 28.9992 46.583 29.0661 46.4122 29.1903C41.5102 32.9323 39.9032 38.4543 46.0002 43.4833V47.6643C45.7142 47.2563 45.3402 46.8833 44.9882 46.5573C44.8562 38.3013 32.9722 37.6513 32.0042 45.9103C31.9812 46.1603 32.0542 46.4083 32.2072 46.6073C34.2832 49.4923 39.5972 51.6073 43.9222 48.3253C45.0312 49.3693 45.6562 50.9753 45.8522 51.9993H18.1482C18.3442 50.9773 18.9702 49.3673 20.0782 48.3253C24.4132 51.6113 29.7252 49.4833 31.7932 46.6073C31.946 46.4087 32.0185 46.1599 31.9962 45.9103C31.0282 37.6483 19.1432 38.3043 19.0132 46.5573C18.6602 46.8833 18.2862 47.2563 18.0002 47.6643V43.4833C24.1122 38.4393 22.4722 32.9183 17.5882 29.1903C17.4173 29.0661 17.2114 28.9992 17.0002 28.9992C16.7889 28.9992 16.583 29.0661 16.4122 29.1903C11.5102 32.9323 9.90316 38.4543 16.0002 43.4833V47.6643C15.7142 47.2563 15.3402 46.8833 14.9882 46.5573C14.8562 38.3013 2.97216 37.6513 2.00416 45.9103C1.98116 46.1603 2.05416 46.4083 2.20716 46.6073C4.28316 49.4923 9.59716 51.6073 13.9222 48.3253C15.0312 49.3693 15.6562 50.9753 15.8522 51.9993H5.50016C0.888161 52.1403 0.864161 58.8493 5.50016 58.9993H58.5002C63.1072 58.8593 63.1402 52.1493 58.5002 51.9993H48.1482C48.3442 50.9773 48.9702 49.3673 50.0782 48.3253C54.4132 51.6113 59.7252 49.4833 61.7932 46.6073ZM55.0932 41.9953C57.3382 41.7303 59.5972 43.4693 59.9512 45.6933C58.3532 47.6533 54.6582 48.9763 51.7372 47.0333C53.1672 46.2253 54.5532 46.0333 55.0722 45.9963C56.3792 45.8813 56.2442 43.9303 54.9282 44.0023C54.1922 44.0543 52.7812 44.2673 51.2682 45.0073C51.8332 43.3933 53.2842 42.1643 55.0932 41.9953ZM38.9282 45.9963C39.4482 46.0343 40.8332 46.2253 42.2632 47.0343C39.3392 48.9803 35.6372 47.6463 34.0492 45.6943C34.8802 41.1543 41.2472 40.6743 42.7322 45.0073C41.5855 44.4471 40.3441 44.1063 39.0722 44.0023C37.7582 43.9173 37.6202 45.8853 38.9282 45.9963ZM25.0932 41.9963C27.3412 41.7303 29.5962 43.4683 29.9512 45.6933C28.4042 47.6083 24.6242 48.9873 21.7372 47.0333C23.1672 46.2253 24.5532 46.0333 25.0722 45.9963C26.3802 45.8813 26.2442 43.9303 24.9282 44.0023C24.1922 44.0543 22.7812 44.2673 21.2682 45.0073C21.8332 43.3933 23.2842 42.1643 25.0932 41.9953V41.9963ZM8.92816 45.9963C9.44816 46.0343 10.8332 46.2253 12.2632 47.0343C9.33916 48.9803 5.63716 47.6463 4.04916 45.6943C4.88116 41.1543 11.2472 40.6743 12.7322 45.0073C11.5855 44.4471 10.3441 44.1063 9.07216 44.0023C7.75716 43.9173 7.62016 45.8853 8.92816 45.9963ZM44.0002 36.4993C44.0002 34.2373 45.9812 32.1943 47.0002 31.2933C49.9942 33.8933 51.3542 37.2393 48.0002 40.7133V37.9993C48.0002 37.7341 47.8948 37.4797 47.7073 37.2922C47.5197 37.1047 47.2654 36.9993 47.0002 36.9993C46.7349 36.9993 46.4806 37.1047 46.2931 37.2922C46.1055 37.4797 46.0002 37.7341 46.0002 37.9993V40.7133C45.0402 39.6553 44.0002 38.1383 44.0002 36.4993ZM14.0002 36.4993C14.0002 34.2373 15.9812 32.1943 17.0002 31.2933C19.9942 33.8933 21.3542 37.2393 18.0002 40.7133V37.9993C18.0002 37.7341 17.8948 37.4797 17.7073 37.2922C17.5197 37.1047 17.2654 36.9993 17.0002 36.9993C16.7349 36.9993 16.4806 37.1047 16.2931 37.2922C16.1055 37.4797 16.0002 37.7341 16.0002 37.9993V40.7133C15.0402 39.6553 14.0002 38.1383 14.0002 36.4993ZM58.5002 53.9993C60.4532 54.0293 60.4862 56.9623 58.5002 56.9993H5.50016C3.54716 56.9693 3.51416 54.0363 5.50016 53.9993H58.5002ZM32.0002 24.9993C35.8602 24.9993 39.0002 21.8593 39.0002 17.9993C38.6482 8.7253 25.3502 8.7283 25.0002 17.9993C25.0002 21.8593 28.1402 24.9993 32.0002 24.9993ZM32.0002 12.9993C34.7572 12.9993 37.0002 15.2423 37.0002 17.9993C36.7652 24.6163 27.2342 24.6153 27.0002 17.9993C27.0002 15.2423 29.2432 12.9993 32.0002 12.9993Z" fill="#008744"/>
<path d="M32 10C32.2653 10 32.5196 9.89464 32.7071 9.70711C32.8947 9.51957 33 9.26522 33 9V6C33 5.73478 32.8947 5.48043 32.7071 5.29289C32.5196 5.10536 32.2653 5 32 5C31.7348 5 31.4805 5.10536 31.2929 5.29289C31.1054 5.48043 31 5.73478 31 6V9C31 9.26522 31.1054 9.51957 31.2929 9.70711C31.4805 9.89464 31.7348 10 32 10ZM24.93 12.343C25.857 13.263 27.264 11.858 26.343 10.929L24.222 8.808C23.294 7.888 21.886 9.293 22.808 10.222L24.93 12.343ZM20 19H23C24.314 18.978 24.315 17.022 23 17H20C18.686 17.022 18.685 18.978 20 19ZM24.93 23.657L22.808 25.778C21.89 26.698 23.294 28.121 24.222 27.192L26.343 25.071C27.263 24.143 25.859 22.735 24.93 23.657ZM31 27V30C31.022 31.314 32.978 31.315 33 30V27C32.978 25.686 31.022 25.685 31 27ZM37.657 23.657C37.4696 23.8445 37.3642 24.0988 37.3642 24.364C37.3642 24.6292 37.4696 24.8835 37.657 25.071L39.778 27.192C39.8703 27.2875 39.9806 27.3637 40.1026 27.4161C40.2246 27.4685 40.3559 27.4961 40.4886 27.4972C40.6214 27.4984 40.7531 27.4731 40.876 27.4228C40.9989 27.3725 41.1105 27.2983 41.2044 27.2044C41.2983 27.1105 41.3726 26.9989 41.4229 26.876C41.4731 26.7531 41.4984 26.6214 41.4973 26.4886C41.4961 26.3558 41.4685 26.2246 41.4161 26.1026C41.3637 25.9806 41.2875 25.8702 41.192 25.778L39.071 23.657C38.8835 23.4695 38.6292 23.3642 38.364 23.3642C38.0989 23.3642 37.8446 23.4695 37.657 23.657ZM40 18C40 18.2652 40.1054 18.5196 40.2929 18.7071C40.4805 18.8946 40.7348 19 41 19H44C44.2653 19 44.5196 18.8946 44.7071 18.7071C44.8947 18.5196 45 18.2652 45 18C45 17.7348 44.8947 17.4804 44.7071 17.2929C44.5196 17.1054 44.2653 17 44 17H41C40.7348 17 40.4805 17.1054 40.2929 17.2929C40.1054 17.4804 40 17.7348 40 18ZM38.364 12.636C38.4954 12.6361 38.6254 12.6103 38.7468 12.56C38.8681 12.5098 38.9783 12.436 39.071 12.343L41.192 10.222C42.112 9.294 40.707 7.886 39.778 8.808L37.657 10.929C37.019 11.523 37.508 12.667 38.364 12.636Z" fill="#008744"/>
</svg>
