<svg width="64" height="64" viewBox="0 0 64 64" fill="none" xmlns="http://www.w3.org/2000/svg">
<path d="M53.3333 16H10.6667V58.6667H53.3333V16ZM42.6667 29.3333H37.3333V42.6667C37.3381 44.3658 36.8017 46.0224 35.802 47.3963C34.8022 48.7702 33.3909 49.7901 31.7727 50.3082C30.1544 50.8263 28.4132 50.8157 26.8014 50.2779C25.1896 49.7401 23.7909 48.7031 22.8079 47.3171C21.8249 45.9312 21.3088 44.2682 21.3343 42.5692C21.3597 40.8702 21.9255 39.2235 22.9496 37.8676C23.9736 36.5117 25.4028 35.5171 27.0301 35.0279C28.6573 34.5387 30.398 34.5803 32 35.1467V24H42.6667V29.3333ZM16 8H48V13.3333H16V8Z" fill="#0098DA"/>
</svg>
