<svg width="173" height="50" viewBox="0 0 173 50" fill="none" xmlns="http://www.w3.org/2000/svg">
<g clip-path="url(#clip0_1933_17452)">
<path d="M0.892868 34.3581C0.892868 31.8746 0.84947 29.7955 0.715332 27.9353H5.41214L5.63505 31.127H5.76524C6.82848 29.4424 8.77743 27.4461 12.411 27.4461C15.2476 27.4461 17.4609 29.0439 18.392 31.4347H18.4827C19.2363 30.2393 20.12 29.3516 21.1379 28.7342C22.3352 27.8899 23.7121 27.4461 25.4816 27.4461C29.0717 27.4461 32.7014 29.8822 32.7014 36.7983V49.5098H27.3852V37.5912C27.3852 34.005 26.1444 31.8746 23.5307 31.8746C21.6705 31.8746 20.2956 33.2081 19.7215 34.7586C19.5618 35.3503 19.4724 35.9588 19.4552 36.5714V49.5118H14.139V37.0133C14.139 34.007 12.9436 31.8766 10.4167 31.8766C8.38291 31.8766 7.00996 33.4744 6.51681 34.9775C6.29785 35.5101 6.20711 36.1335 6.20711 36.7489V49.5118H0.892868V34.3581ZM53.4159 44.3297C53.4159 46.2767 53.5046 48.1803 53.7236 49.5118H48.8058L48.4527 47.121H48.3186C46.9891 48.8056 44.7284 49.9971 41.9431 49.9971C37.5994 49.9971 35.1632 46.8547 35.1632 43.5742C35.1632 38.1199 39.9882 35.378 47.9675 35.4214V35.0683C47.9675 33.648 47.3895 31.3006 43.5784 31.3006C41.4499 31.3006 39.2367 31.9673 37.7749 32.8944L36.7117 29.3496C38.3076 28.3732 41.0988 27.4441 44.5075 27.4441C51.4215 27.4441 53.4178 31.8351 53.4178 36.526L53.4159 44.3297ZM48.0977 38.9701C44.2412 38.8794 40.5662 39.7217 40.5662 43.0002C40.5662 45.1267 41.9431 46.1031 43.6691 46.1031C45.837 46.1031 47.4349 44.6808 47.9221 43.1323C48.0414 42.7451 48.1013 42.3421 48.0996 41.9369L48.0977 38.9701ZM57.1796 34.3581C57.1796 31.8746 57.1342 29.7955 57.006 27.9353H61.7857L62.05 31.1743H62.1841C63.1133 29.4877 65.4626 27.4461 69.0508 27.4461C72.8185 27.4461 76.7145 29.8822 76.7145 36.7095V49.5098H71.2661V37.3289C71.2661 34.2279 70.1121 31.8726 67.1453 31.8726C64.9774 31.8726 63.4663 33.4251 62.8923 35.0663C62.7148 35.5516 62.6714 36.2183 62.6714 36.8338V49.5078H57.1776L57.1796 34.3581ZM100.343 19.2676V43.442C100.343 45.6573 100.433 48.054 100.52 49.5118H95.6496L95.4267 46.1031H95.336C94.0538 48.4939 91.4361 49.999 88.2937 49.999C83.1531 49.999 79.0796 45.6139 79.0796 38.9721C79.0323 31.7483 83.5496 27.448 88.7376 27.448C91.7044 27.448 93.8309 28.6888 94.8054 30.2906H94.8981V19.2696H100.344L100.343 19.2676ZM94.8961 36.9284C94.8961 36.4886 94.8527 35.9559 94.762 35.5101C94.2747 33.3876 92.5507 31.6576 90.0671 31.6576C86.5677 31.6576 84.6148 34.7605 84.6148 38.7906C84.6148 42.7299 86.5657 45.6119 90.0237 45.6119C92.235 45.6119 94.186 44.1029 94.7166 41.7554C94.8507 41.2702 94.8981 40.7356 94.8981 40.1616L94.8961 36.9284ZM104.197 49.5118V27.9353H109.695V49.5118H104.197ZM113.545 34.8927C113.545 31.9693 113.504 29.8842 113.372 27.9372H118.112L118.285 32.0541H118.465C119.528 28.9985 122.051 27.9372 124.361 27.9372C124.892 27.9372 125.199 27.8465 125.641 27.9372V32.7248C125.119 32.6091 124.585 32.5496 124.049 32.5473C121.43 32.5473 119.658 34.2319 119.173 36.6641C119.066 37.2208 119.007 37.7858 118.998 38.3527V49.5138H113.545V34.8927ZM128.17 49.5118V27.9353H133.66V49.5118H128.17Z" fill="white"/>
<path d="M167.857 5.11692C165.137 2.01399 162.245 3.4185 159.947 4.56064C158.98 5.03802 152.003 8.99312 152.003 8.99312C148.18 10.5692 145.204 8.84912 144.036 7.40122C143.924 7.26391 143.823 7.11816 143.734 6.96527L143.462 6.49381C143.002 5.69805 142.49 4.93304 141.931 4.2036C141.592 3.76146 141.224 3.34173 140.83 2.94704C138.215 0.305701 134.035 -1.54264 127.048 1.81475C123.74 3.73214 112.963 9.88869 112.963 9.88869C108.913 11.5556 105.816 9.52572 104.81 8.0364C104.765 7.98063 104.725 7.9205 104.692 7.85689L104.56 7.63201L103.877 6.51551C103.569 6.02642 103.239 5.55183 102.887 5.09325C102.544 4.65393 102.176 4.23502 101.784 3.83866C99.1863 1.21311 95.0281 -0.631294 88.1022 2.66298C83.9143 5.0538 74.1735 10.6225 74.1735 10.6225L74.1696 10.6264L67.0405 14.6999L70.7293 19.229C72.2818 20.7085 75.1993 23.1348 79.7126 21.0892C79.7126 21.0892 92.1697 13.8754 92.219 13.8537C102.869 8.00878 108.124 13.5933 110.448 17.3156C110.529 17.432 110.594 17.5582 110.667 17.6707L110.671 17.6766C110.701 17.722 110.718 17.7634 110.744 17.8068L111.006 18.2368C112.139 19.953 113.924 21.0616 116.052 21.0103C117.226 20.9866 118.023 20.604 119.183 19.9589L131.235 12.9679L131.261 12.9561C142.045 7.04023 147.389 12.9896 149.672 16.712C149.849 17.0335 150.05 17.3412 150.257 17.6273C151.388 19.16 152.946 20.1641 154.927 20.1148C156.235 20.0891 157.7 19.304 157.919 19.16L172.369 10.8198C172.373 10.8237 170.897 8.59268 167.857 5.11692Z" fill="#FDD213"/>
</g>
<defs>
<clipPath id="clip0_1933_17452">
<rect width="171.703" height="50" fill="white" transform="translate(0.691406)"/>
</clipPath>
</defs>
</svg>
