<svg width="173" height="50" viewBox="0 0 173 50" fill="none" xmlns="http://www.w3.org/2000/svg">
<g clip-path="url(#clip0_1572_16399)">
<path d="M1.05864 34.3591C1.05864 31.8756 1.01524 29.7964 0.881104 27.9362H5.57791L5.80082 31.1279H5.93101C6.99425 29.4433 8.9432 27.447 12.5768 27.447C15.4134 27.447 17.6267 29.0449 18.5578 31.4357H18.6485C19.402 30.2403 20.2858 29.3526 21.3036 28.7352C22.501 27.8909 23.8779 27.447 25.6473 27.447C29.2375 27.447 32.8671 29.8832 32.8671 36.7992V49.5108H27.5509V37.5922C27.5509 34.006 26.3101 31.8756 23.6964 31.8756C21.8362 31.8756 20.4613 33.2091 19.8873 34.7595C19.7276 35.3512 19.6382 35.9597 19.621 36.5724V49.5128H14.3048V37.0142C14.3048 34.008 13.1094 31.8775 10.5824 31.8775C8.54868 31.8775 7.17573 33.4754 6.68258 34.9785C6.46362 35.5111 6.37288 36.1345 6.37288 36.7499V49.5128H1.05864V34.3591ZM53.5816 44.3307C53.5816 46.2777 53.6704 48.1812 53.8893 49.5128H48.9716L48.6185 47.122H48.4844C47.1548 48.8066 44.8942 49.998 42.1089 49.998C37.7652 49.998 35.329 46.8556 35.329 43.5752C35.329 38.1209 40.154 35.3789 48.1332 35.4223V35.0692C48.1332 33.649 47.5553 31.3015 43.7442 31.3015C41.6157 31.3015 39.4024 31.9683 37.9407 32.8954L36.8775 29.3506C38.4733 28.3742 41.2646 27.4451 44.6733 27.4451C51.5873 27.4451 53.5836 31.8361 53.5836 36.527L53.5816 44.3307ZM48.2634 38.9711C44.407 38.8803 40.732 39.7227 40.732 43.0011C40.732 45.1276 42.1089 46.1041 43.8349 46.1041C46.0028 46.1041 47.6006 44.6818 48.0879 43.1333C48.2072 42.7461 48.267 42.3431 48.2654 41.9379L48.2634 38.9711ZM57.3454 34.3591C57.3454 31.8756 57.3 29.7964 57.1718 27.9362H61.9515L62.2158 31.1753H62.3499C63.279 29.4887 65.6284 27.447 69.2166 27.447C72.9843 27.447 76.8802 29.8832 76.8802 36.7105V49.5108H71.4319V37.3299C71.4319 34.2289 70.2779 31.8736 67.3111 31.8736C65.1432 31.8736 63.6321 33.4261 63.0581 35.0673C62.8805 35.5525 62.8372 36.2193 62.8372 36.8347V49.5088H57.3434L57.3454 34.3591ZM100.508 19.2686V43.443C100.508 45.6583 100.599 48.055 100.686 49.5128H95.8154L95.5925 46.1041H95.5018C94.2196 48.4949 91.6019 50 88.4595 50C83.3189 50 79.2454 45.6149 79.2454 38.9731C79.1981 31.7493 83.7154 27.449 88.9034 27.449C91.8702 27.449 93.9967 28.6898 94.9711 30.2916H95.0639V19.2705H100.51L100.508 19.2686ZM95.0619 36.9294C95.0619 36.4895 95.0185 35.9569 94.9277 35.5111C94.4405 33.3886 92.7164 31.6586 90.2329 31.6586C86.7335 31.6586 84.7806 34.7615 84.7806 38.7916C84.7806 42.7309 86.7315 45.6129 90.1895 45.6129C92.4008 45.6129 94.3517 44.1038 94.8824 41.7564C95.0165 41.2712 95.0639 40.7366 95.0639 40.1625L95.0619 36.9294ZM104.363 49.5128V27.9362H109.86V49.5128H104.363ZM113.711 34.8937C113.711 31.9703 113.67 29.8852 113.537 27.9382H118.278L118.451 32.0551H118.631C119.694 28.9995 122.217 27.9382 124.527 27.9382C125.058 27.9382 125.365 27.8475 125.807 27.9382V32.7258C125.284 32.6101 124.751 32.5506 124.215 32.5482C121.596 32.5482 119.824 34.2329 119.339 36.6651C119.232 37.2218 119.173 37.7868 119.163 38.3537V49.5147H113.711V34.8937ZM128.336 49.5128V27.9362H133.826V49.5128H128.336Z" fill="#0D2B5B"/>
<path d="M168.023 5.11698C165.303 2.01405 162.411 3.41856 160.113 4.5607C159.146 5.03808 152.169 8.99318 152.169 8.99318C148.346 10.5693 145.37 8.84918 144.202 7.40128C144.09 7.26397 143.989 7.11822 143.9 6.96533L143.628 6.49387C143.168 5.69812 142.656 4.9331 142.097 4.20366C141.758 3.76152 141.39 3.34179 140.996 2.9471C138.381 0.305762 134.201 -1.54258 127.214 1.81482C123.906 3.7322 113.129 9.88875 113.129 9.88875C109.079 11.5556 105.982 9.52579 104.976 8.03646C104.931 7.9807 104.891 7.92056 104.858 7.85695L104.726 7.63207L104.043 6.51557C103.735 6.02648 103.405 5.55189 103.053 5.09331C102.71 4.65399 102.342 4.23508 101.95 3.83872C99.3524 1.21317 95.1941 -0.631233 88.2682 2.66304C84.0803 5.05386 74.3395 10.6226 74.3395 10.6226L74.3356 10.6265L67.2065 14.7L70.8953 19.2291C72.4478 20.7086 75.3653 23.1349 79.8787 21.0893C79.8787 21.0893 92.3357 13.8754 92.3851 13.8537C103.035 8.00884 108.29 13.5933 110.614 17.3157C110.695 17.432 110.76 17.5583 110.833 17.6707L110.837 17.6767C110.867 17.722 110.884 17.7634 110.91 17.8068L111.172 18.2369C112.305 19.9531 114.09 21.0617 116.218 21.0104C117.392 20.9867 118.189 20.604 119.349 19.959L131.402 12.968L131.427 12.9562C142.211 7.04029 147.555 12.9897 149.838 16.712C150.015 17.0336 150.216 17.3413 150.423 17.6273C151.554 19.1601 153.112 20.1641 155.093 20.1148C156.401 20.0892 157.866 19.3041 158.085 19.1601L172.535 10.8198C172.539 10.8238 171.063 8.59274 168.023 5.11698Z" fill="#FDD213"/>
</g>
<defs>
<clipPath id="clip0_1572_16399">
<rect width="171.703" height="50" fill="white" transform="translate(0.857178)"/>
</clipPath>
</defs>
</svg>
