<svg width="20" height="15" viewBox="0 0 20 15" fill="none" xmlns="http://www.w3.org/2000/svg">
<path d="M0.0255682 15V10.9091C0.0255682 9.7017 0.252841 8.4304 0.707386 7.09517C1.16193 5.75994 1.79403 4.48153 2.60369 3.25994C3.41335 2.03835 4.36506 0.994316 5.45881 0.127841L8.61222 2.38636C7.74574 3.65057 7.0071 4.97159 6.39631 6.34943C5.78551 7.72727 5.48011 9.22585 5.48011 10.8452V15H0.0255682ZM10.892 15V10.9091C10.892 9.7017 11.1193 8.4304 11.5739 7.09517C12.0284 5.75994 12.6605 4.48153 13.4702 3.25994C14.2798 2.03835 15.2315 0.994316 16.3253 0.127841L19.4787 2.38636C18.6122 3.65057 17.8736 4.97159 17.2628 6.34943C16.652 7.72727 16.3466 9.22585 16.3466 10.8452V15H10.892Z" fill="#001476"/>
</svg>
