<svg width="20" height="15" viewBox="0 0 20 15" fill="none" xmlns="http://www.w3.org/2000/svg">
<path d="M19.9744 -2.64504e-07L19.9744 4.09091C19.9744 5.2983 19.7472 6.5696 19.2926 7.90483C18.8381 9.24006 18.206 10.5185 17.3963 11.7401C16.5866 12.9616 15.6349 14.0057 14.5412 14.8722L11.3878 12.6136C12.2543 11.3494 12.9929 10.0284 13.6037 8.65057C14.2145 7.27273 14.5199 5.77415 14.5199 4.15483L14.5199 -7.41355e-07L19.9744 -2.64504e-07ZM9.10796 -1.21448e-06L9.10796 4.09091C9.10796 5.29829 8.88068 6.5696 8.42614 7.90483C7.97159 9.24006 7.33949 10.5185 6.52983 11.7401C5.72017 12.9616 4.76847 14.0057 3.67472 14.8722L0.521307 12.6136C1.38778 11.3494 2.12642 10.0284 2.73722 8.65057C3.34801 7.27273 3.65341 5.77415 3.65341 4.15483L3.65341 -1.69133e-06L9.10796 -1.21448e-06Z" fill="#001476"/>
</svg>
