<svg width="64" height="64" viewBox="0 0 64 64" fill="none" xmlns="http://www.w3.org/2000/svg">
<path d="M10 22V56C10 58.76 12.24 61 15 61C17.76 61 20 58.76 20 56V22H10Z" fill="#94DAF0"/>
<path d="M20 37V56C20 57.38 19.44 58.63 18.54 59.54C17.63 60.44 16.38 61 15 61C12.24 61 10 58.76 10 56V48L11.91 44.18C12.41 43.18 13.79 43.06 14.46 43.95C14.77 44.36 15.22 44.55 15.66 44.55C16.22 44.55 16.78 44.24 17.04 43.66L20 37Z" fill="#FF9933"/>
<path d="M22 18H8C6.89543 18 6 18.8954 6 20C6 21.1046 6.89543 22 8 22H22C23.1046 22 24 21.1046 24 20C24 18.8954 23.1046 18 22 18Z" fill="#94DAF0"/>
<path d="M21.2713 3.87882L27.1303 2.58529C28.0832 6.90135 25.3591 11.169 21.0431 12.1219L15.1842 13.4154C14.2313 9.09933 16.9553 4.83171 21.2713 3.87882Z" fill="#008744"/>
<path d="M3 6H7C11.42 6 15 9.58 15 14H11C6.58 14 3 10.42 3 6Z" fill="#008744"/>
<path d="M46 23H40L37 28L40 33H46L49 28L46 23Z" fill="#82AFF9"/>
<path d="M53.6101 39.7207L47.6201 39.9507L44.8101 45.0607L47.9901 49.9407L53.9901 49.7207L56.8001 44.6107L53.6101 39.7207Z" fill="#82AFF9"/>
<path d="M44.81 45.0605L38.81 45.2805L36 50.3905L39.19 55.2805L45.18 55.0505L47.99 49.9405L44.81 45.0605Z" fill="#82AFF9"/>
<path d="M21.26 13.1009C26.11 12.0309 29.18 7.2209 28.11 2.3709C28.05 2.1109 27.9 1.8909 27.67 1.7409C27.45 1.6009 27.18 1.5509 26.92 1.6109L21.06 2.9009C17.83 3.6109 15.39 6.0009 14.44 8.9409C12.82 6.5609 10.09 4.9909 7 4.9909H3C2.45 4.9909 2 5.4409 2 5.9909C2 10.9509 6.04 14.9909 11 14.9909H14V16.9909H8C6.35 16.9909 5 18.3409 5 19.9909C5 21.6409 6.35 22.9909 8 22.9909H9V56.0009C9 59.3109 11.69 62.0009 15 62.0009C18.31 62.0009 21 59.3109 21 56.0009V29.0009H36.43L39.14 33.5109C39.32 33.8109 39.65 34.0009 40 34.0009H46C46.35 34.0009 46.68 33.8209 46.86 33.5109L49.57 29.0009H54.42L57.72 34.7709L52.94 38.7509L47.58 38.9509C47.23 38.9609 46.91 39.1609 46.74 39.4709L44.2 44.0809L39.33 44.2609L37.38 41.2909C37.08 40.8309 36.46 40.7009 36 41.0009C35.54 41.3009 35.41 41.9209 35.71 42.3809L37.64 45.3209L35.12 49.9009C34.94 50.2209 34.96 50.6209 35.16 50.9309L38.35 55.8109C38.53 56.0909 38.85 56.2609 39.19 56.2609C39.2 56.2609 39.21 56.2609 39.23 56.2609L45.23 56.0309C45.58 56.0209 45.9 55.8209 46.07 55.5109L48.61 50.9009L54.04 50.7009C54.39 50.6909 54.71 50.4909 54.88 50.1809L57.69 45.0709C57.87 44.7509 57.85 44.3509 57.65 44.0409L54.85 39.7509L59.65 35.7509C60.02 35.4409 60.12 34.9109 59.88 34.4909L55.88 27.4909C55.7 27.1809 55.37 26.9909 55.01 26.9909H49.58L46.87 22.4809C46.69 22.1809 46.36 21.9909 46.01 21.9909H40.01C39.66 21.9909 39.33 22.1709 39.15 22.4809L36.44 26.9909H21.01V22.9909H22.01C23.66 22.9909 25.01 21.6409 25.01 19.9909C25.01 18.3409 23.66 16.9909 22.01 16.9909H16.01V14.2509L21.27 13.0909L21.26 13.1009ZM21.49 4.8609L26.3 3.8009C26.55 7.2109 24.26 10.3909 20.83 11.1509L18.14 11.7409L21.02 9.4109C21.45 9.0609 21.51 8.4309 21.17 8.0009C20.82 7.5709 20.19 7.5109 19.76 7.8509L16.06 10.8509C16.41 7.9809 18.52 5.5109 21.5 4.8509L21.49 4.8609ZM9.28 11.3909L11.7 13.0009H11C7.48 13.0009 4.56 10.3909 4.07 7.0009H7C10.13 7.0009 12.79 9.0709 13.68 11.9209L10.39 9.7309C9.93 9.4209 9.31 9.5509 9 10.0109C8.69 10.4709 8.82 11.0909 9.28 11.4009V11.3909ZM44.58 54.0709L39.72 54.2509L37.17 50.3409L39.42 46.2509L44.28 46.0709L46.83 49.9809L44.58 54.0709ZM55.63 44.6509L53.38 48.7409L48.52 48.9209L45.97 45.0109L48.22 40.9209L53.08 40.7409L55.63 44.6509ZM40.56 24.0009H45.43L47.83 28.0009L45.43 32.0009H40.56L38.16 28.0009L40.56 24.0009ZM7.99 21.0009C7.44 21.0009 6.99 20.5509 6.99 20.0009C6.99 19.4509 7.44 19.0009 7.99 19.0009H13.99V21.0009H7.99ZM13.99 23.0009V42.4809C13.68 42.3809 13.36 42.3309 13.02 42.3609C12.15 42.4409 11.4 42.9509 11 43.7409L10.98 43.7709V23.0009H13.98H13.99ZM18.99 56.0009C18.99 58.2109 17.2 60.0009 14.99 60.0009C12.78 60.0009 10.99 58.2109 10.99 56.0009V48.2409L12.8 44.6309C12.91 44.4009 13.12 44.3609 13.21 44.3509C13.29 44.3509 13.51 44.3509 13.66 44.5509C13.76 44.6809 13.88 44.7909 14 44.9009V45.0009H14.1C14.61 45.4109 15.26 45.6109 15.95 45.5409C16.84 45.4409 17.59 44.8909 17.96 44.0709L19 41.7209V56.0109L18.99 56.0009ZM18.99 36.7909L16.12 43.2509C16.09 43.3309 16.04 43.3809 15.99 43.4209V23.0009H18.99V36.7909ZM21.99 19.0009C22.54 19.0009 22.99 19.4509 22.99 20.0009C22.99 20.5509 22.54 21.0009 21.99 21.0009H15.99V19.0009H21.99Z" fill="black"/>
<path d="M33.6102 39.7207C33.9202 40.1807 34.5402 40.3007 35.0002 40.0007C35.4602 39.7007 35.5802 39.0707 35.2802 38.6107L34.3902 37.2707C34.0802 36.8107 33.4602 36.6907 33.0002 36.9907C32.5402 37.2907 32.4202 37.9207 32.7202 38.3807L33.6102 39.7207Z" fill="black"/>
</svg>
