<svg width="40" height="40" viewBox="0 0 40 40" fill="none" xmlns="http://www.w3.org/2000/svg">
<g clip-path="url(#clip0_918_6356)">
<path d="M35.295 13.7851C35.8375 13.9438 36.2225 14.4251 36.25 15.0001V30.0001C36.22 30.6151 35.775 31.0651 35.1537 31.2638C30.2162 32.8551 24.825 32.8538 19.9063 31.2838C17.4238 30.4913 14.8262 30.0013 12.2187 30.0338C9.90375 30.0626 7.58875 30.4576 5.395 31.1851C5.395 31.1851 4.965 31.3138 4.5825 31.1776C4.09875 31.0063 3.775 30.5176 3.75 30.0001V10.0001C3.78 9.38384 4.225 8.93509 4.84625 8.73509C9.77375 7.14759 15.175 7.14509 20.0938 8.71509C21.165 9.05759 22.25 9.37384 23.3575 9.58134C27.0838 10.2813 31.0025 10.0101 34.605 8.81384L34.8362 8.76009C34.9412 8.75134 34.9675 8.74509 35.0738 8.75134C36.1688 8.81634 36.8437 10.7063 35.335 11.2051C35.295 11.2188 35.255 11.2313 35.2137 11.2451C30.2487 12.8588 24.8175 12.8526 19.9063 11.2838C17.6163 10.5526 15.2375 10.0713 12.8375 10.0351C10.6213 10.0013 8.4025 10.3001 6.265 10.9151L6.25 28.3276C10.8288 27.1476 15.6375 27.2926 20.0938 28.7151C24.4938 30.1201 29.2725 30.3676 33.735 29.0838L33.75 15.0001C33.75 15.0001 34.0775 13.5501 35.295 13.7851ZM30.0625 25.0288C30.9587 25.0913 31.57 26.2401 31.0125 27.0101C30.675 27.4751 30.04 27.5388 29.3887 27.5913C27.9137 27.7101 26.4138 27.6813 24.9513 27.5288C24.135 27.4438 23.5275 26.5426 23.85 25.7863C24.0862 25.2326 24.7225 24.9938 25.3612 25.0576C26.8587 25.2013 28.3663 25.1988 29.8638 25.0351C29.8638 25.0351 29.9275 25.0251 30.0625 25.0288ZM20.0325 15.0213C22.3287 15.0426 24.4738 16.8151 24.895 19.0888C25.4688 22.1826 22.5788 25.5413 19.09 24.8951C17.07 24.5201 15.3738 22.7676 15.0738 20.7251C14.6688 17.9613 16.9338 15.0876 19.9038 15.0213C19.9463 15.0213 19.9887 15.0213 20.0325 15.0213ZM19.9838 17.5213C18.3588 17.5363 17.01 19.4576 17.7525 21.0451C18.2825 22.1801 19.7625 22.7751 20.9363 22.2951C22.2063 21.7763 22.8537 20.0951 22.1937 18.8463C21.7837 18.0676 20.9425 17.5413 20.0487 17.5213C20.0275 17.5213 20.005 17.5213 19.9838 17.5213ZM12.5825 12.5276C13.4075 12.5313 14.2338 12.5763 15.0538 12.6651C15.3275 12.6951 16.165 13.0763 16.2425 13.7801C16.3213 14.4963 15.665 15.2151 14.9137 15.1638C13.365 15.0563 11.7375 14.9901 10.1312 15.1601C10.1312 15.1601 9.49 15.1638 9.13 14.8138C8.48125 14.1851 8.795 12.8288 9.82 12.6801C10.7012 12.5513 11.6538 12.5263 12.5825 12.5276Z" fill="#001476"/>
</g>
<defs>
<clipPath id="clip0_918_6356">
<rect width="40" height="40" fill="white"/>
</clipPath>
</defs>
</svg>
