<svg width="64" height="64" viewBox="0 0 64 64" fill="none" xmlns="http://www.w3.org/2000/svg">
<path d="M26.6302 18.2695C26.3758 19.0714 25.9295 19.7992 25.3302 20.3895L24.5402 21.1795L16.3402 29.3895L11.1202 24.1795L8.16016 21.2695V56.8495H62.3002V18.2695H26.6302ZM59.3902 53.9395H11.0702V48.4195L13.3202 44.6595L20.0702 33.3395C20.4104 32.7874 20.8863 32.3316 21.4526 32.0154C22.0188 31.6992 22.6566 31.5332 23.3052 31.5332C23.9537 31.5332 24.5915 31.6992 25.1577 32.0154C25.724 32.3316 26.1999 32.7874 26.5402 33.3395L28.7202 36.9995L33.3002 44.6795L35.2302 47.9195L37.1602 44.6795L41.7402 36.9995L43.9202 33.3595C44.2604 32.8074 44.7363 32.3516 45.3026 32.0354C45.8688 31.7192 46.5066 31.5532 47.1552 31.5532C47.8037 31.5532 48.4415 31.7192 49.0077 32.0354C49.574 32.3516 50.0499 32.8074 50.3902 33.3595L57.1402 44.6795L59.3902 48.4395V53.9395Z" fill="#FFE0E1"/>
<path d="M59.3898 21.1797V48.4197L57.1398 44.6597L50.3898 33.3397C50.0496 32.7876 49.5736 32.3317 49.0074 32.0155C48.4411 31.6994 47.8034 31.5334 47.1548 31.5334C46.5063 31.5334 45.8685 31.6994 45.3023 32.0155C44.736 32.3317 44.2601 32.7876 43.9198 33.3397L41.7398 36.9997L37.1598 44.6797L35.2298 47.8997L33.2998 44.6597L28.7198 36.9997L26.5398 33.3597C26.1996 32.8076 25.7236 32.3517 25.1574 32.0355C24.5911 31.7194 23.9534 31.5534 23.3048 31.5534C22.6563 31.5534 22.0185 31.7194 21.4523 32.0355C20.886 32.3517 20.4101 32.8076 20.0698 33.3597L13.3198 44.6597L11.0698 48.4197V24.1797L16.2898 29.3897L24.4898 21.1797H59.3898Z" fill="#71C2FF"/>
<path d="M38.8398 53.9395H11.0698V48.4195L13.3198 44.6595L20.0698 33.3395C20.4101 32.7874 20.886 32.3316 21.4523 32.0154C22.0185 31.6992 22.6563 31.5332 23.3048 31.5332C23.9534 31.5332 24.5911 31.6992 25.1574 32.0154C25.7236 32.3316 26.1996 32.7874 26.5398 33.3395L28.7198 36.9995L33.2998 44.6795L35.2298 47.9195L38.8398 53.9395Z" fill="#00D0A0"/>
<path d="M59.39 48.419V53.939H38.84L35.23 47.939L37.16 44.6991L41.74 36.9991L43.92 33.3591C44.2602 32.8069 44.7362 32.3511 45.3024 32.0349C45.8687 31.7187 46.5064 31.5527 47.155 31.5527C47.8035 31.5527 48.4413 31.7187 49.0075 32.0349C49.5738 32.3511 50.0497 32.8069 50.39 33.3591L57.14 44.6791L59.39 48.419Z" fill="#00D0A0"/>
<path d="M33.3002 44.6596L28.7202 36.9996C30.6625 35.7626 32.9175 35.1055 35.2202 35.1055C37.523 35.1055 39.7779 35.7626 41.7202 36.9996L37.1402 44.6796L35.2302 47.8996L33.3002 44.6596Z" fill="#FFD32C"/>
<path d="M26.6302 18.2704C26.3758 19.0723 25.9296 19.8001 25.3302 20.3904L24.5402 21.1804L16.3402 29.3904L11.1202 24.1804L8.16024 21.2704L7.29024 20.3904C6.78411 19.8896 6.38283 19.293 6.10983 18.6354C5.83684 17.9778 5.69759 17.2724 5.70024 16.5604C5.69604 15.481 6.01366 14.4248 6.61253 13.5268C7.2114 12.6287 8.06435 11.9295 9.06245 11.5184C10.0606 11.1074 11.1585 11.0031 12.2162 11.219C13.2738 11.4349 14.2431 11.9611 15.0002 12.7304L15.8902 13.6304C15.9499 13.6921 16.0214 13.7412 16.1004 13.7747C16.1794 13.8082 16.2644 13.8255 16.3502 13.8255C16.4361 13.8255 16.521 13.8082 16.6001 13.7747C16.6791 13.7412 16.7506 13.6921 16.8102 13.6304L17.7002 12.7304C18.5569 11.8432 19.691 11.2752 20.9146 11.1207C22.1382 10.9663 23.3779 11.2345 24.4282 11.881C25.4785 12.5275 26.2764 13.5135 26.6896 14.6756C27.1028 15.8376 27.1066 17.106 26.7002 18.2704H26.6302Z" fill="#FF95D6"/>
<path d="M24.6302 16.2695C24.3758 17.0714 23.9295 17.7992 23.3302 18.3895L22.5402 19.1795L14.3402 27.3895L9.07016 22.1795L6.16016 19.2695V54.8495H60.3002V16.2695H24.6302ZM57.3902 51.9395H9.07016V46.4195L11.3202 42.6595L18.0702 31.3395C18.4104 30.7874 18.8863 30.3316 19.4526 30.0154C20.0188 29.6992 20.6566 29.5332 21.3052 29.5332C21.9537 29.5332 22.5915 29.6992 23.1577 30.0154C23.724 30.3316 24.1999 30.7874 24.5402 31.3395L26.7202 34.9995L31.3002 42.6795L33.2302 45.9195L35.1602 42.6795L39.7402 34.9995L41.9202 31.3595C42.2604 30.8074 42.7363 30.3516 43.3026 30.0354C43.8688 29.7192 44.5066 29.5532 45.1552 29.5532C45.8037 29.5532 46.4415 29.7192 47.0077 30.0354C47.574 30.3516 48.0499 30.8074 48.3902 31.3595L55.1402 42.6795L57.3902 46.4395V51.9395Z" stroke="#212121" stroke-width="1.5" stroke-linecap="round" stroke-linejoin="round"/>
<path d="M57.3901 46.9197C57.3038 46.9202 57.2189 46.8983 57.1435 46.8563C57.0682 46.8142 57.005 46.7534 56.9601 46.6797L48.0001 31.5897C47.7042 31.1121 47.2912 30.7181 46.8003 30.4448C46.3095 30.1715 45.7569 30.0281 45.1951 30.0281C44.6333 30.0281 44.0808 30.1715 43.5899 30.4448C43.0991 30.7181 42.6861 31.1121 42.3901 31.5897L33.6601 46.1497C33.6174 46.2238 33.5563 46.2857 33.4828 46.3295C33.4092 46.3733 33.3257 46.3974 33.2401 46.3997C33.1542 46.3995 33.0698 46.3761 32.9959 46.3321C32.922 46.2882 32.8613 46.2252 32.8201 46.1497L24.1201 31.5897C23.8242 31.1121 23.4112 30.7181 22.9203 30.4448C22.4295 30.1715 21.877 30.0281 21.3151 30.0281C20.7533 30.0281 20.2008 30.1715 19.7099 30.4448C19.2191 30.7181 18.8061 31.1121 18.5101 31.5897L9.51013 46.6797C9.45402 46.7743 9.36829 46.8477 9.26621 46.8887C9.16413 46.9296 9.05141 46.9357 8.94549 46.9061C8.83957 46.8765 8.74637 46.8128 8.68032 46.7249C8.61427 46.6369 8.57906 46.5297 8.58013 46.4197V22.1797C8.57863 22.0793 8.6074 21.9807 8.66269 21.8969C8.71798 21.8131 8.79724 21.7478 8.89013 21.7097C8.98292 21.6747 9.08365 21.6665 9.18088 21.686C9.2781 21.7054 9.36792 21.7517 9.44013 21.8197L14.3201 26.7097L22.1901 18.8297C22.2867 18.7357 22.4154 18.6821 22.5501 18.6797H57.3901C57.5219 18.6822 57.6476 18.7357 57.7409 18.829C57.8341 18.9222 57.8876 19.0479 57.8901 19.1797V46.4197C57.8912 46.5296 57.8553 46.6367 57.7882 46.7238C57.7211 46.8108 57.6267 46.8728 57.5201 46.8997L57.3901 46.9197ZM21.3001 28.9997C22.0314 28.9864 22.7534 29.1639 23.3952 29.5146C24.037 29.8653 24.5763 30.3771 24.9601 30.9997L33.2301 44.8397L41.5001 31.0797C41.8834 30.4529 42.4213 29.935 43.0621 29.5757C43.703 29.2164 44.4254 29.0277 45.1601 29.0277C45.8949 29.0277 46.6173 29.2164 47.2581 29.5757C47.899 29.935 48.4368 30.4529 48.8201 31.0797L56.8901 44.6097V19.6797H22.7401L14.7401 27.7397C14.6814 27.7998 14.6085 27.8441 14.5281 27.8686C14.4477 27.8931 14.3624 27.8969 14.2801 27.8797C14.1665 27.8709 14.0598 27.8212 13.9801 27.7397L9.57013 23.3797V44.6097L17.6401 31.0797C18.014 30.4423 18.549 29.9145 19.1915 29.5494C19.8339 29.1843 20.5612 28.9947 21.3001 28.9997Z" fill="#212121"/>
<path d="M36.8398 52.4394H9.06982C8.93722 52.4394 8.81004 52.3867 8.71627 52.2929C8.6225 52.1992 8.56982 52.072 8.56982 51.9394V46.4194C8.57281 46.3285 8.59676 46.2395 8.63982 46.1594L17.6398 31.0794C18.0231 30.4525 18.561 29.9347 19.2018 29.5754C19.8427 29.216 20.5651 29.0273 21.2998 29.0273C22.0345 29.0273 22.757 29.216 23.3978 29.5754C24.0387 29.9347 24.5765 30.4525 24.9598 31.0794L37.2698 51.6894C37.3118 51.766 37.3339 51.852 37.3339 51.9394C37.3339 52.0268 37.3118 52.1127 37.2698 52.1894C37.2262 52.2649 37.1636 52.3278 37.0881 52.3716C37.0127 52.4155 36.9271 52.4388 36.8398 52.4394ZM9.56982 51.4394H35.9998L24.1098 31.5894C23.8139 31.1118 23.4009 30.7178 22.91 30.4445C22.4192 30.1712 21.8666 30.0278 21.3048 30.0278C20.743 30.0278 20.1905 30.1712 19.6996 30.4445C19.2088 30.7178 18.7958 31.1118 18.4998 31.5894L9.56982 46.5894V51.4394Z" fill="#212121"/>
<path d="M57.3901 52.4394H36.8401C36.7539 52.4389 36.6694 52.4167 36.5942 52.3747C36.519 52.3327 36.4556 52.2724 36.4101 52.1994L32.8101 46.1494C32.761 46.0734 32.7349 45.9848 32.7349 45.8944C32.7349 45.8039 32.761 45.7154 32.8101 45.6394L41.5001 31.0794C41.8833 30.4525 42.4212 29.9347 43.0621 29.5754C43.7029 29.216 44.4253 29.0273 45.1601 29.0273C45.8948 29.0273 46.6172 29.216 47.2581 29.5754C47.8989 29.9347 48.4368 30.4525 48.8201 31.0794L57.8201 46.1594C57.8631 46.2395 57.8871 46.3285 57.8901 46.4194V51.9394C57.8901 52.072 57.8374 52.1992 57.7436 52.2929C57.6498 52.3867 57.5227 52.4394 57.3901 52.4394ZM37.1301 51.4394H56.8901V46.5594L48.0001 31.5894C47.7041 31.1118 47.2911 30.7178 46.8003 30.4445C46.3094 30.1712 45.7569 30.0278 45.1951 30.0278C44.6332 30.0278 44.0807 30.1712 43.5899 30.4445C43.099 30.7178 42.686 31.1118 42.3901 31.5894L33.8201 45.8994L37.1301 51.4394Z" fill="#212121"/>
<path d="M33.2301 46.3993C33.1442 46.3991 33.0598 46.3758 32.9859 46.3318C32.9121 46.2878 32.8513 46.2248 32.8101 46.1493L30.8701 42.9193L26.2901 35.2393C26.2228 35.1275 26.2018 34.9938 26.2317 34.8668C26.2616 34.7397 26.34 34.6294 26.4501 34.5593C28.4752 33.2666 30.8276 32.5797 33.2301 32.5797C35.6327 32.5797 37.9851 33.2666 40.0101 34.5593C40.1203 34.6294 40.1987 34.7397 40.2286 34.8668C40.2585 34.9938 40.2375 35.1275 40.1701 35.2393L33.6601 46.1493C33.6174 46.2235 33.5563 46.2854 33.4828 46.3292C33.4092 46.3729 33.3257 46.3971 33.2401 46.3993H33.2301ZM31.7301 42.3993L33.2301 44.9193L39.0601 35.1493C37.284 34.1366 35.2747 33.604 33.2301 33.604C31.1856 33.604 29.1763 34.1366 27.4001 35.1493L31.7301 42.3993ZM14.3401 27.8893H14.2301C14.1165 27.8806 14.0099 27.8308 13.9301 27.7493L4.93015 18.7493C4.37835 18.201 3.94045 17.549 3.64162 16.8307C3.3428 16.1125 3.18896 15.3423 3.18896 14.5643C3.18896 13.7864 3.3428 13.0162 3.64162 12.298C3.94045 11.5797 4.37835 10.9277 4.93015 10.3793C6.04027 9.26978 7.54559 8.64648 9.11515 8.64648C10.6847 8.64648 12.19 9.26978 13.3001 10.3793L14.1901 11.2793C14.2032 11.296 14.22 11.3094 14.239 11.3187C14.2581 11.3279 14.279 11.3327 14.3001 11.3327C14.3213 11.3327 14.3422 11.3279 14.3613 11.3187C14.3803 11.3094 14.397 11.296 14.4101 11.2793L15.3001 10.3793C16.4103 9.26978 17.9156 8.64648 19.4851 8.64648C21.0547 8.64648 22.56 9.26978 23.6701 10.3793C24.442 11.1481 24.9839 12.117 25.2348 13.1771C25.4857 14.2371 25.4356 15.3462 25.0901 16.3793C24.8158 17.2581 24.3279 18.0552 23.6701 18.6993L14.6701 27.6993C14.6314 27.7523 14.5821 27.7965 14.5252 27.8293C14.4684 27.862 14.4054 27.8824 14.3401 27.8893ZM9.12015 9.64934C8.47415 9.6467 7.834 9.77183 7.23654 10.0175C6.63908 10.2632 6.0961 10.6246 5.63884 11.081C5.18158 11.5373 4.81907 12.0795 4.57216 12.6765C4.32525 13.2734 4.19882 13.9133 4.20015 14.5593C4.20186 15.1993 4.32995 15.8326 4.57707 16.423C4.82418 17.0133 5.18545 17.549 5.64015 17.9993L14.3101 26.6693L23.0001 17.9993C23.5459 17.4666 23.9513 16.8069 24.1801 16.0793C24.469 15.2188 24.5116 14.2946 24.3031 13.4111C24.0946 12.5276 23.6433 11.72 23.0001 11.0793C22.5412 10.6186 21.9957 10.2529 21.3951 10.0034C20.7945 9.75397 20.1505 9.62554 19.5001 9.62554C18.8498 9.62554 18.2058 9.75397 17.6052 10.0034C17.0046 10.2529 16.4591 10.6186 16.0001 11.0793L15.1201 11.9793C14.9001 12.192 14.6061 12.3108 14.3001 12.3108C13.9942 12.3108 13.7002 12.192 13.4801 11.9793L12.5901 11.0793C11.6666 10.1647 10.4199 9.65095 9.12015 9.64934Z" fill="#212121"/>
</svg>
