<svg width="70" height="70" viewBox="0 0 70 70" fill="none" xmlns="http://www.w3.org/2000/svg">
<rect width="70" height="70" rx="35" fill="#EAEEFF"/>
<path d="M37 27.0001C37 30.1651 44 33.0001 44 39.0001C44 44.0001 41 48.0001 33 48.0001C25 48.0001 22 44.0001 22 39.0001C22 33.0001 29 30.0001 29 27.0001C29 24.9931 27.353 23.3661 27 22.0001C33 20.0001 33 23.0001 39 22.0001C37.708 23.2501 37 25.0001 37 27.0001Z" stroke="#001476" stroke-width="2" stroke-miterlimit="10" stroke-linecap="round" stroke-linejoin="round"/>
<path d="M27 27H38" stroke="#001476" stroke-width="2" stroke-miterlimit="10" stroke-linecap="round" stroke-linejoin="round"/>
<path d="M24 25L27 27L23 29" stroke="#001476" stroke-width="2" stroke-miterlimit="10" stroke-linecap="round" stroke-linejoin="round"/>
<path d="M42 27L45 30L48 27" stroke="#001476" stroke-width="2" stroke-miterlimit="10" stroke-linecap="round" stroke-linejoin="round"/>
<path d="M45 22V30" stroke="#001476" stroke-width="2" stroke-miterlimit="10" stroke-linecap="round" stroke-linejoin="round"/>
<path d="M35 35H32.5C31.672 35 31 35.672 31 36.5C31 37.328 31.672 38 32.5 38H33.5C34.328 38 35 38.672 35 39.5C35 40.328 34.328 41 33.5 41H31" stroke="#001476" stroke-width="2" stroke-miterlimit="10" stroke-linecap="round" stroke-linejoin="round"/>
<path d="M33 35V33.5" stroke="#001476" stroke-width="2" stroke-miterlimit="10" stroke-linecap="round" stroke-linejoin="round"/>
<path d="M33 41V42.5" stroke="#001476" stroke-width="2" stroke-miterlimit="10" stroke-linecap="round" stroke-linejoin="round"/>
</svg>
