<svg width="100" height="60" viewBox="0 0 100 60" fill="none" xmlns="http://www.w3.org/2000/svg">
<rect width="100" height="60" fill="#0E0E2C"/>
<path fill-rule="evenodd" clip-rule="evenodd" d="M28.7604 27.0586H30.6691C30.9555 27.0586 31.08 27.293 30.9455 27.5792L27.0477 35.8889C26.0537 38.0081 23.5066 39.7419 21.3873 39.7419H13.9244C13.638 39.7419 13.5135 39.5078 13.6479 39.2213L14.7022 36.9739H20.0902C22.4383 36.9739 25.0108 35.0521 25.9873 32.9704L28.7604 27.0586Z" fill="white"/>
<path fill-rule="evenodd" clip-rule="evenodd" d="M27.4636 24.0273H29.3722C29.6586 24.0273 29.7831 24.2616 29.6486 24.5479L25.7507 32.8578C24.7566 34.9769 22.2095 36.7108 20.0904 36.7108H12.6275C12.341 36.7108 12.2166 36.4766 12.3511 36.1901L13.4052 33.9427H18.7933C21.1414 33.9427 23.7139 32.0208 24.6903 29.9393L27.4633 24.0273H27.4636Z" fill="white"/>
<path fill-rule="evenodd" clip-rule="evenodd" d="M20.6123 21H28.0752C28.3616 21 28.4861 21.2344 28.3516 21.5207L24.4539 29.8305C23.4598 31.9497 20.9128 33.6834 18.7936 33.6834H11.3306C11.0443 33.6834 10.9198 33.4491 11.0541 33.1627L14.952 24.8529C15.9461 22.7337 18.493 21 20.6123 21Z" fill="white"/>
<path d="M39.2876 32.4183V36H37.0858V25.2991H39.2876V29.9963L43.4711 25.2991H46.0692L41.7977 29.9083L46.5243 36H43.8968L40.3885 31.2734L39.2876 32.4183ZM54.1908 36H52.1358V35.0606C51.5486 35.9413 50.8293 36.3376 49.7578 36.3376C48.0697 36.3376 47.1009 35.3394 47.1009 33.5927V28.0734H49.1559V33.167C49.1559 34.1211 49.5963 34.5908 50.477 34.5908C51.4752 34.5908 52.1358 33.9743 52.1358 33.0349V28.0734H54.1908V36ZM61.1632 36V35.1927C60.6495 35.9706 59.9595 36.3376 58.9761 36.3376C58.0073 36.3376 57.0384 35.8385 56.4953 35.0752C55.9669 34.3119 55.6439 33.2257 55.6439 32.1541C55.6439 29.7615 57.0825 27.9413 58.9761 27.9413C59.9595 27.9413 60.6495 28.3083 61.1632 29.1009V25.2991H63.2183V36H61.1632ZM59.4311 29.6587C58.4036 29.6587 57.699 30.6862 57.699 32.1541C57.699 33.6073 58.4036 34.6202 59.4311 34.6202C60.4586 34.6202 61.1632 33.622 61.1632 32.1835C61.1632 30.6716 60.4733 29.6587 59.4311 29.6587ZM71.8788 35.7505V36H69.6476C69.4567 35.7651 69.4127 35.6183 69.4127 35.2073C68.6934 35.956 67.8861 36.3376 67.0054 36.3376C66.3008 36.3376 65.6109 36.0587 65.1558 35.589C64.7888 35.1927 64.598 34.6349 64.598 33.9596C64.598 32.5358 65.3613 31.7284 66.932 31.4642L67.754 31.3174C68.7668 31.156 68.7668 31.156 69.0457 31.0092C69.2659 30.8917 69.398 30.6569 69.398 30.3927C69.398 29.8642 69.0017 29.6 68.209 29.6C67.1962 29.6 66.8586 29.8642 66.7558 30.6862H64.7742C64.9063 28.8514 66.0219 27.9413 68.165 27.9413C70.3081 27.9413 71.409 28.7633 71.409 30.378V34.7817C71.409 35.1927 71.5118 35.4128 71.8788 35.7505ZM69.398 32.8147V32.2569C69.1632 32.3743 69.0751 32.4037 68.532 32.5064L67.8274 32.6385C66.976 32.8147 66.6531 33.1083 66.6531 33.7248C66.6531 34.3119 67.0788 34.6789 67.7687 34.6789C68.8109 34.6789 69.398 34.0037 69.398 32.8147ZM78.2882 36V35.1927C77.7745 35.9706 77.0845 36.3376 76.1011 36.3376C75.1323 36.3376 74.1634 35.8385 73.6203 35.0752C73.0919 34.3119 72.7689 33.2257 72.7689 32.1541C72.7689 29.7615 74.2075 27.9413 76.1011 27.9413C77.0845 27.9413 77.7745 28.3083 78.2882 29.1009V25.2991H80.3433V36H78.2882ZM76.5561 29.6587C75.5286 29.6587 74.824 30.6862 74.824 32.1541C74.824 33.6073 75.5286 34.6202 76.5561 34.6202C77.5836 34.6202 78.2882 33.622 78.2882 32.1835C78.2882 30.6716 77.5983 29.6587 76.5561 29.6587ZM89.0038 32.6826H83.69C83.7194 33.4312 83.7927 33.7835 83.9836 34.0771C84.2771 34.5174 84.7469 34.767 85.334 34.767C86.0827 34.767 86.6551 34.4 86.9047 33.7688H88.9304C88.4753 35.3248 87.0368 36.3376 85.2606 36.3376C83.0148 36.3376 81.6349 34.7817 81.6349 32.2422C81.6349 29.5853 83.0294 27.9413 85.3047 27.9413C86.9047 27.9413 88.1817 28.8073 88.7102 30.2459C88.901 30.8037 89.0184 31.5376 89.0184 32.3303C89.0184 32.433 89.0184 32.5064 89.0038 32.6826ZM83.7194 31.3174H86.8753C86.8313 30.7743 86.7432 30.4661 86.5524 30.1725C86.2588 29.7615 85.7891 29.5119 85.2753 29.5119C84.3652 29.5119 83.8515 30.1138 83.7194 31.3174Z" fill="white"/>
</svg>
