<svg width="100" height="100" viewBox="0 0 100 100" fill="none" xmlns="http://www.w3.org/2000/svg">
<rect width="100" height="100" fill="#0E0E2C"/>
<path fill-rule="evenodd" clip-rule="evenodd" d="M60.6411 29.0898H63.5042C63.9337 29.0898 64.1205 29.4414 63.9188 29.8707L58.0721 42.3354C56.581 45.5141 52.7604 48.1148 49.5815 48.1148H38.3871C37.9575 48.1148 37.7708 47.7637 37.9723 47.334L39.5538 43.9629H47.6358C51.158 43.9629 55.0168 41.0801 56.4815 37.9575L60.6411 29.0898Z" fill="white"/>
<path fill-rule="evenodd" clip-rule="evenodd" d="M58.6954 24.543H61.5584C61.9879 24.543 62.1746 24.8943 61.9729 25.3238L56.1261 37.7887C54.635 40.9674 50.8143 43.5682 47.6357 43.5682H36.4412C36.0115 43.5682 35.825 43.2168 36.0267 42.7871L37.6078 39.416H45.6899C49.2121 39.416 53.0709 36.5332 54.5355 33.4109L58.695 24.543H58.6954Z" fill="white"/>
<path fill-rule="evenodd" clip-rule="evenodd" d="M48.4185 20H59.6129C60.0424 20 60.2292 20.3515 60.0275 20.7811L54.1808 33.2458C52.6897 36.4246 48.8693 39.0252 45.6904 39.0252H34.4959C34.0664 39.0252 33.8797 38.6736 34.0812 38.2441L39.928 25.7794C41.4192 22.6006 45.2396 20 48.4185 20Z" fill="white"/>
<path d="M13.9321 67.6275V73H10.6294V56.9486H13.9321V63.9945L20.2073 56.9486H24.1046L17.6972 63.8624L24.7872 73H20.8459L15.5835 65.9101L13.9321 67.6275ZM36.2869 73H33.2044V71.5908C32.3236 72.9119 31.2447 73.5064 29.6374 73.5064C27.1053 73.5064 25.6521 72.0092 25.6521 69.389V61.1101H28.7346V68.7505C28.7346 70.1817 29.3952 70.8862 30.7163 70.8862C32.2135 70.8862 33.2044 69.9615 33.2044 68.5523V61.1101H36.2869V73ZM46.7456 73V71.789C45.9749 72.956 44.9401 73.5064 43.4648 73.5064C42.0116 73.5064 40.5584 72.7578 39.7437 71.6128C38.9511 70.4679 38.4667 68.8385 38.4667 67.2312C38.4667 63.6422 40.6245 60.9119 43.4648 60.9119C44.9401 60.9119 45.9749 61.4624 46.7456 62.6514V56.9486H49.8281V73H46.7456ZM44.1474 63.4881C42.6061 63.4881 41.5492 65.0294 41.5492 67.2312C41.5492 69.411 42.6061 70.9303 44.1474 70.9303C45.6887 70.9303 46.7456 69.433 46.7456 67.2752C46.7456 65.0073 45.7107 63.4881 44.1474 63.4881ZM62.8189 72.6257V73H59.4721C59.1858 72.6477 59.1198 72.4275 59.1198 71.811C58.0409 72.9339 56.8299 73.5064 55.5088 73.5064C54.4519 73.5064 53.417 73.0881 52.7345 72.3835C52.184 71.789 51.8978 70.9523 51.8978 69.9394C51.8978 67.8037 53.0427 66.5927 55.3987 66.1963L56.6317 65.9761C58.151 65.7339 58.151 65.7339 58.5693 65.5138C58.8996 65.3376 59.0978 64.9853 59.0978 64.589C59.0978 63.7963 58.5033 63.4 57.3143 63.4C55.795 63.4 55.2886 63.7963 55.1345 65.0294H52.162C52.3601 62.2771 54.0335 60.9119 57.2482 60.9119C60.4629 60.9119 62.1143 62.145 62.1143 64.567V71.1725C62.1143 71.789 62.2684 72.1193 62.8189 72.6257ZM59.0978 68.222V67.3853C58.7455 67.5615 58.6134 67.6055 57.7987 67.7596L56.7418 67.9578C55.4647 68.222 54.9803 68.6624 54.9803 69.5872C54.9803 70.4679 55.6189 71.0183 56.6537 71.0183C58.217 71.0183 59.0978 70.0055 59.0978 68.222ZM72.4331 73V71.789C71.6624 72.956 70.6276 73.5064 69.1523 73.5064C67.6991 73.5064 66.2459 72.7578 65.4312 71.6128C64.6386 70.4679 64.1542 68.8385 64.1542 67.2312C64.1542 63.6422 66.312 60.9119 69.1523 60.9119C70.6276 60.9119 71.6624 61.4624 72.4331 62.6514V56.9486H75.5156V73H72.4331ZM69.8349 63.4881C68.2936 63.4881 67.2367 65.0294 67.2367 67.2312C67.2367 69.411 68.2936 70.9303 69.8349 70.9303C71.3762 70.9303 72.4331 69.433 72.4331 67.2752C72.4331 65.0073 71.3982 63.4881 69.8349 63.4881ZM88.5064 68.0239H80.5357C80.5798 69.1468 80.6899 69.6752 80.9761 70.1156C81.4165 70.7761 82.121 71.1505 83.0018 71.1505C84.1247 71.1505 84.9834 70.6 85.3577 69.6532H88.3963C87.7137 71.9872 85.5559 73.5064 82.8917 73.5064C79.5229 73.5064 77.4532 71.1725 77.4532 67.3633C77.4532 63.378 79.5449 60.9119 82.9577 60.9119C85.3577 60.9119 87.2733 62.211 88.066 64.3688C88.3522 65.2055 88.5284 66.3064 88.5284 67.4954C88.5284 67.6495 88.5284 67.7596 88.5064 68.0239ZM80.5798 65.9761H85.3137C85.2476 65.1615 85.1155 64.6991 84.8293 64.2587C84.3889 63.6422 83.6843 63.2679 82.9137 63.2679C81.5486 63.2679 80.7779 64.1706 80.5798 65.9761Z" fill="white"/>
</svg>
