<svg width="100" height="100" viewBox="0 0 100 100" fill="none" xmlns="http://www.w3.org/2000/svg">
<rect width="100" height="100" rx="50" fill="#0E0E2C"/>
<path fill-rule="evenodd" clip-rule="evenodd" d="M60.6376 30.4062H63.2854C63.6827 30.4062 63.8553 30.7314 63.6688 31.1284L58.2619 42.6556C56.8829 45.5952 53.3496 48.0004 50.4098 48.0004H40.0573C39.6601 48.0004 39.4874 47.6757 39.6737 47.2783L41.1363 44.1607H48.6104C51.8677 44.1607 55.4363 41.4948 56.7909 38.607L60.6376 30.4062Z" fill="white"/>
<path fill-rule="evenodd" clip-rule="evenodd" d="M58.838 26.2031H61.4856C61.8828 26.2031 62.0555 26.528 61.869 26.9253L56.4618 38.4527C55.0829 41.3923 51.5496 43.7975 48.61 43.7975H38.2574C37.86 43.7975 37.6875 43.4726 37.8741 43.0751L39.3362 39.9576H46.8106C50.0679 39.9576 53.6364 37.2916 54.9909 34.4041L58.8376 26.2031H58.838Z" fill="white"/>
<path fill-rule="evenodd" clip-rule="evenodd" d="M49.3341 22H59.6866C60.0838 22 60.2565 22.3251 60.07 22.7223L54.6631 34.2496C53.2841 37.1894 49.751 39.5943 46.8112 39.5943H36.4586C36.0614 39.5943 35.8887 39.2692 36.0751 38.872L41.4822 27.3448C42.8612 24.405 46.3943 22 49.3341 22Z" fill="white"/>
<path d="M20.1101 67.5229V72H17.3578V58.6239H20.1101V64.4954L25.3394 58.6239H28.5872L23.2477 64.3853L29.156 72H25.8716L21.4862 66.0917L20.1101 67.5229ZM38.7391 72H36.1703V70.8257C35.4364 71.9266 34.5373 72.422 33.1978 72.422C31.0877 72.422 29.8767 71.1743 29.8767 68.9908V62.0917H32.4455V68.4587C32.4455 69.6514 32.996 70.2385 34.0969 70.2385C35.3446 70.2385 36.1703 69.4679 36.1703 68.2936V62.0917H38.7391V72ZM47.4546 72V70.9908C46.8124 71.9633 45.95 72.422 44.7207 72.422C43.5097 72.422 42.2987 71.7982 41.6198 70.844C40.9592 69.8899 40.5555 68.5321 40.5555 67.1927C40.5555 64.2018 42.3537 61.9266 44.7207 61.9266C45.95 61.9266 46.8124 62.3853 47.4546 63.3761V58.6239H50.0234V72H47.4546ZM45.2895 64.0734C44.0051 64.0734 43.1244 65.3578 43.1244 67.1927C43.1244 69.0092 44.0051 70.2752 45.2895 70.2752C46.5739 70.2752 47.4546 69.0275 47.4546 67.2294C47.4546 65.3394 46.5922 64.0734 45.2895 64.0734ZM60.8491 71.6881V72H58.0601C57.8215 71.7064 57.7665 71.5229 57.7665 71.0092C56.8674 71.945 55.8582 72.422 54.7573 72.422C53.8766 72.422 53.0142 72.0734 52.4454 71.4862C51.9867 70.9908 51.7481 70.2936 51.7481 69.4495C51.7481 67.6697 52.7023 66.6606 54.6656 66.3303L55.6931 66.1468C56.9591 65.945 56.9591 65.945 57.3078 65.7615C57.583 65.6147 57.7481 65.3211 57.7481 64.9908C57.7481 64.3303 57.2527 64 56.2619 64C54.9958 64 54.5738 64.3303 54.4454 65.3578H51.9683C52.1335 63.0642 53.528 61.9266 56.2069 61.9266C58.8858 61.9266 60.2619 62.9541 60.2619 64.9725V70.4771C60.2619 70.9908 60.3903 71.2661 60.8491 71.6881ZM57.7481 68.0183V67.3211C57.4546 67.4679 57.3445 67.5046 56.6656 67.633L55.7848 67.7982C54.7206 68.0183 54.3169 68.3853 54.3169 69.156C54.3169 69.8899 54.8491 70.3486 55.7114 70.3486C57.0142 70.3486 57.7481 69.5046 57.7481 68.0183ZM68.8609 72V70.9908C68.2187 71.9633 67.3563 72.422 66.1269 72.422C64.9159 72.422 63.7049 71.7982 63.026 70.844C62.3655 69.8899 61.9618 68.5321 61.9618 67.1927C61.9618 64.2018 63.76 61.9266 66.1269 61.9266C67.3563 61.9266 68.2187 62.3853 68.8609 63.3761V58.6239H71.4297V72H68.8609ZM66.6957 64.0734C65.4113 64.0734 64.5306 65.3578 64.5306 67.1927C64.5306 69.0092 65.4113 70.2752 66.6957 70.2752C67.9801 70.2752 68.8609 69.0275 68.8609 67.2294C68.8609 65.3394 67.9985 64.0734 66.6957 64.0734ZM82.2553 67.8532H75.6131C75.6498 68.789 75.7415 69.2294 75.9801 69.5963C76.347 70.1468 76.9342 70.4587 77.6681 70.4587C78.6039 70.4587 79.3195 70 79.6315 69.211H82.1636C81.5948 71.156 79.7966 72.422 77.5764 72.422C74.7691 72.422 73.0443 70.4771 73.0443 67.3028C73.0443 63.9817 74.7874 61.9266 77.6315 61.9266C79.6315 61.9266 81.2278 63.0092 81.8883 64.8073C82.1269 65.5046 82.2737 66.422 82.2737 67.4128C82.2737 67.5413 82.2737 67.633 82.2553 67.8532ZM75.6498 66.1468H79.5948C79.5397 65.4679 79.4296 65.0826 79.1911 64.7156C78.8241 64.2018 78.237 63.8899 77.5948 63.8899C76.4571 63.8899 75.8149 64.6422 75.6498 66.1468Z" fill="white"/>
</svg>
