<svg width="90" height="90" viewBox="0 0 90 90" fill="none" xmlns="http://www.w3.org/2000/svg">
<rect width="90" height="90" rx="20" fill="white"/>
<g clip-path="url(#clip0_2077_17308)">
<path d="M40 22.5H27.5C24.75 22.5 22.5 24.75 22.5 27.5V62.5C22.5 65.25 24.75 67.5 27.5 67.5H40V70C40 71.375 41.125 72.5 42.5 72.5C43.875 72.5 45 71.375 45 70V20C45 18.625 43.875 17.5 42.5 17.5C41.125 17.5 40 18.625 40 20V22.5ZM40 60H27.5L40 45V60ZM62.5 22.5H50V27.5H60C61.375 27.5 62.5 28.625 62.5 30V60L50 45V67.5H62.5C65.25 67.5 67.5 65.25 67.5 62.5V27.5C67.5 24.75 65.25 22.5 62.5 22.5Z" fill="#451484"/>
</g>
<defs>
<clipPath id="clip0_2077_17308">
<rect width="60" height="60" fill="white" transform="translate(15 15)"/>
</clipPath>
</defs>
</svg>
