<svg width="120" height="120" viewBox="0 0 120 120" fill="none" xmlns="http://www.w3.org/2000/svg">
<path d="M89.2842 56.6831H23.8136L7.44604 89.4183H105.652L89.2842 56.6831Z" stroke="black" stroke-width="3" stroke-miterlimit="10" stroke-linecap="round" stroke-linejoin="round"/>
<path d="M105.652 89.418H7.44604V116.016H105.652V89.418Z" stroke="black" stroke-width="3" stroke-miterlimit="10" stroke-linecap="round" stroke-linejoin="round"/>
<path d="M81.7048 102.717C81.7048 105.29 79.6198 107.375 77.0461 107.375C75.5224 107.375 74.1701 106.645 73.3193 105.512C72.7357 104.734 72.3874 103.765 72.3874 102.717C72.3874 101.669 72.7355 100.7 73.3193 99.9214C74.1703 98.7889 75.5224 98.0581 77.0461 98.0581C79.62 98.0581 81.7048 100.143 81.7048 102.717ZM40.7088 102.717C40.7088 103.765 40.3613 104.733 39.7772 105.512C38.9283 106.645 37.5743 107.375 36.0504 107.375C33.4786 107.375 31.3917 105.29 31.3917 102.717C31.3917 100.143 33.4786 98.0581 36.0504 98.0581C37.5743 98.0581 38.9283 98.7889 39.7772 99.9214C40.3613 100.7 40.7088 101.669 40.7088 102.717Z" stroke="black" stroke-width="3" stroke-miterlimit="10" stroke-linecap="round" stroke-linejoin="round"/>
<path d="M72.3877 102.717C72.3877 103.765 72.7357 104.733 73.3196 105.512H39.7772C40.361 104.734 40.7089 103.765 40.7089 102.717C40.7089 101.669 40.3613 100.7 39.7772 99.9214H73.3193C72.7357 100.7 72.3877 101.669 72.3877 102.717Z" stroke="black" stroke-width="3" stroke-miterlimit="10" stroke-linecap="round" stroke-linejoin="round"/>
<path d="M60.2649 56.6831H23.8137V76.8832H89.045V56.6831H83.6616" stroke="black" stroke-width="3" stroke-miterlimit="10" stroke-linecap="round" stroke-linejoin="round"/>
<path d="M88.8483 76.8828H56.3309H23.8137L19.6829 89.4179H56.3309H92.979L88.8483 76.8828Z" stroke="black" stroke-width="3" stroke-miterlimit="10" stroke-linecap="round" stroke-linejoin="round"/>
<path d="M19.6507 49.9646L17.0278 44.2056" stroke="black" stroke-width="3" stroke-miterlimit="10" stroke-linecap="round" stroke-linejoin="round"/>
<path d="M23.49 48.2158L25.0582 44.0249" stroke="black" stroke-width="3" stroke-miterlimit="10" stroke-linecap="round" stroke-linejoin="round"/>
<path d="M15.8115 51.7132L11.6206 50.145" stroke="black" stroke-width="3" stroke-miterlimit="10" stroke-linecap="round" stroke-linejoin="round"/>
<path d="M38.2425 71.9079C38.2237 71.9079 38.2048 71.9074 38.1858 71.9065C37.3188 71.8652 36.4739 71.7565 35.6744 71.5837C35.0419 71.4471 34.6397 70.8234 34.7766 70.1909C34.9134 69.5583 35.5369 69.1563 36.1694 69.2932C36.8433 69.4388 37.5591 69.5304 38.2971 69.5655C38.9435 69.5962 39.4427 70.1454 39.4118 70.7918C39.3823 71.4192 38.8641 71.9079 38.2425 71.9079ZM42.9005 71.5275C42.3513 71.5275 41.861 71.1396 41.7518 70.5804C41.6273 69.9452 42.0415 69.3295 42.6766 69.2053C43.3814 69.0675 44.1145 68.8896 44.8551 68.677C45.4774 68.4977 46.1264 68.8577 46.305 69.48C46.4836 70.102 46.1241 70.7513 45.502 70.9298C44.6965 71.1609 43.8975 71.3548 43.1269 71.5057C43.0509 71.5202 42.9752 71.5275 42.9005 71.5275ZM31.6582 69.7495C31.4212 69.7495 31.1819 69.6778 30.975 69.529C30.2716 69.0232 29.6226 68.4377 29.0463 67.789C28.6165 67.3052 28.6603 66.5644 29.1441 66.1343C29.6278 65.7045 30.3687 65.7485 30.7985 66.232C31.2605 66.7521 31.7801 67.2211 32.3435 67.6263C32.869 68.0041 32.9885 68.7363 32.6107 69.262C32.3817 69.5801 32.0226 69.7495 31.6582 69.7495ZM27.9848 64.0221C27.4015 64.0221 26.8962 63.5869 26.8233 62.993C26.7216 62.1659 26.6489 61.3533 26.6076 60.5782C26.5732 59.9318 27.0691 59.3801 27.7155 59.3456C28.3573 59.3084 28.9137 59.8071 28.9481 60.4533C28.9868 61.1747 29.0545 61.9329 29.1494 62.7068C29.2284 63.3492 28.7719 63.934 28.1294 64.013C28.0809 64.0191 28.0324 64.0221 27.9848 64.0221ZM27.9574 57.0138C27.9005 57.0138 27.8428 57.0096 27.7847 57.0012C27.1444 56.9067 26.7021 56.3109 26.7966 55.6706C26.9236 54.8107 27.1055 53.9859 27.3373 53.2191C27.5243 52.5996 28.1787 52.2485 28.7979 52.4363C29.4176 52.6235 29.768 53.2774 29.5807 53.8969C29.3819 54.5543 29.2254 55.2661 29.1152 56.013C29.0292 56.5952 28.5288 57.0138 27.9574 57.0138ZM73.0615 54.4875C73.0284 54.4875 72.9954 54.4861 72.9619 54.4833C72.2072 54.4198 71.392 54.3138 70.5389 54.1683C69.9009 54.0593 69.472 53.4539 69.581 52.8159C69.69 52.178 70.2937 51.7481 70.9336 51.858C71.7211 51.9926 72.4697 52.0901 73.1583 52.148C73.8033 52.2021 74.2821 52.7688 74.2277 53.4138C74.1764 54.0251 73.6643 54.4875 73.0615 54.4875ZM77.7159 54.2088C77.1944 54.2088 76.7189 53.8582 76.5823 53.3299C76.4203 52.7034 76.7969 52.0641 77.4234 51.9021C78.1052 51.7259 78.7207 51.4695 79.253 51.1402C79.8028 50.7996 80.5254 50.9693 80.8662 51.5196C81.2069 52.0699 81.037 52.7923 80.4867 53.1328C79.7541 53.5866 78.9209 53.936 78.0105 54.1713C77.9119 54.1966 77.8132 54.2088 77.7159 54.2088ZM66.1657 53.148C66.0642 53.148 65.9613 53.1347 65.8584 53.107C65.1441 52.9134 64.3976 52.7004 63.5756 52.4552C62.9555 52.2703 62.6027 51.6176 62.7874 50.9974C62.9723 50.3773 63.6241 50.0241 64.2455 50.2092C65.0482 50.4485 65.7764 50.6564 66.4716 50.8446C67.0962 51.0138 67.4653 51.6574 67.2963 52.2823C67.1545 52.8042 66.6818 53.148 66.1657 53.148ZM59.4377 51.1031C59.3184 51.1031 59.1973 51.0848 59.0777 51.0462L56.8469 50.3252C56.231 50.1265 55.8926 49.466 56.0913 48.8503C56.2901 48.2344 56.9505 47.8957 57.5662 48.0947L59.7973 48.8156C60.413 49.0144 60.7514 49.6748 60.5527 50.2908C60.3928 50.787 59.9327 51.1031 59.4377 51.1031ZM30.6375 50.6252C30.3682 50.6252 30.0977 50.5329 29.8769 50.3445C29.3848 49.924 29.3266 49.1843 29.7471 48.6923C30.3122 48.0309 30.9586 47.4352 31.6687 46.9214C32.1928 46.5422 32.9257 46.6594 33.3049 47.1839C33.6844 47.7082 33.5667 48.4409 33.0424 48.8201C32.4827 49.2251 31.9734 49.6941 31.5291 50.2144C31.2975 50.4858 30.9684 50.6252 30.6375 50.6252ZM82.7709 49.7334C82.623 49.7334 82.4728 49.7053 82.3275 49.6458C82.0034 49.5131 81.7709 49.2523 81.6642 48.9457C81.3827 48.8482 81.1029 48.7388 80.8256 48.618C80.2324 48.3593 79.9612 47.6688 80.2198 47.0754C80.4783 46.4822 81.1692 46.2105 81.7622 46.4695C81.9019 46.5305 82.0418 46.5874 82.1824 46.6409C82.2431 46.4346 82.2998 46.2312 82.3526 46.0317C82.518 45.4059 83.1586 45.0321 83.7851 45.1983C84.4109 45.3637 84.784 46.005 84.6185 46.6308C84.5491 46.8928 84.4739 47.1605 84.3928 47.4316C84.6319 47.6913 84.7514 48.0555 84.6853 48.4301C84.5887 48.9776 84.1263 49.3687 83.5938 49.3969C83.3749 49.6118 83.0784 49.7334 82.7709 49.7334ZM52.7304 48.9792C52.6191 48.9792 52.5061 48.9633 52.3941 48.9298C51.5993 48.6921 50.8706 48.4823 50.1659 48.2885C49.5417 48.117 49.1751 47.472 49.3467 46.8478C49.5183 46.2239 50.163 45.8573 50.7874 46.0287C51.5088 46.2272 52.2539 46.4416 53.0655 46.6842C53.6857 46.8698 54.038 47.5228 53.8526 48.1427C53.7007 48.6509 53.2348 48.9792 52.7304 48.9792ZM88.0976 48.81C87.6724 48.81 87.2623 48.5777 87.0544 48.1734C86.7586 47.5978 86.9855 46.8914 87.5611 46.5956C88.1182 46.3095 88.6256 45.9159 89.0695 45.4259C89.5041 44.9463 90.2449 44.9091 90.7249 45.3438C91.2047 45.7784 91.2412 46.5195 90.8069 46.9992C90.173 47.6991 89.4415 48.2646 88.6326 48.6804C88.4608 48.7683 88.2778 48.81 88.0976 48.81ZM45.9267 47.1987C45.8533 47.1987 45.7791 47.1916 45.7043 47.1773C44.9639 47.0351 44.2155 46.9223 43.4801 46.8422C42.8367 46.7721 42.3719 46.1937 42.442 45.5503C42.5123 44.907 43.091 44.4431 43.7339 44.5123C44.5324 44.5995 45.3441 44.7216 46.1463 44.8758C46.7819 44.9979 47.1982 45.6122 47.0761 46.2478C46.9685 46.8087 46.4775 47.1987 45.9267 47.1987ZM36.6119 47.1581C36.0813 47.1581 35.6006 46.7955 35.4729 46.2567C35.3234 45.627 35.7126 44.9953 36.3424 44.8458C37.1229 44.6604 37.9551 44.5256 38.8165 44.445C39.4577 44.3829 40.0322 44.858 40.0924 45.5025C40.1529 46.1468 39.6794 46.7182 39.0349 46.7784C38.2821 46.849 37.5581 46.9659 36.8836 47.126C36.7926 47.148 36.7015 47.1581 36.6119 47.1581ZM77.5617 45.9504C77.2205 45.9504 76.8823 45.802 76.6505 45.5163C76.0296 44.7499 75.5894 43.9493 75.3424 43.1365L75.3213 43.0652C75.139 42.4444 75.4943 41.793 76.1154 41.6105C76.7365 41.4281 77.3878 41.7839 77.5699 42.4045L77.5851 42.4554C77.7436 42.9771 78.0417 43.5103 78.4713 44.0407C78.8787 44.5437 78.8013 45.2815 78.2986 45.6891C78.0816 45.8648 77.8207 45.9504 77.5617 45.9504ZM92.0339 43.2462C91.9348 43.2462 91.8337 43.2335 91.7334 43.2068C91.1077 43.0411 90.7348 42.3998 90.9002 41.7741C91.0744 41.1159 91.211 40.3945 91.3062 39.6298C91.3863 38.9876 91.9744 38.5329 92.6137 38.6116C93.2562 38.6916 93.712 39.277 93.6321 39.9195C93.5238 40.7885 93.367 41.6142 93.1662 42.3741C93.0269 42.8988 92.5528 43.2462 92.0339 43.2462ZM84.0598 42.8712C83.4469 42.8712 82.9315 42.3947 82.8916 41.7745C82.845 41.0496 82.7027 40.428 82.4688 39.9272C82.1953 39.3408 82.4487 38.6433 83.0353 38.3698C83.6215 38.0963 84.3192 38.3496 84.593 38.9362C84.9504 39.7027 85.1651 40.6071 85.2305 41.6243C85.2722 42.2702 84.7821 42.8273 84.1364 42.8691C84.1106 42.8705 84.0851 42.8712 84.0598 42.8712ZM77.6196 39.6345C77.2969 39.6345 76.976 39.502 76.7444 39.2423C76.3137 38.7591 76.3563 38.0184 76.8394 37.5877C77.5915 36.9173 78.5041 36.4664 79.4787 36.2836C80.1155 36.1641 80.7269 36.5831 80.8465 37.2192C80.966 37.8553 80.5472 38.4677 79.9109 38.587C79.3634 38.6897 78.8264 38.9562 78.3991 39.3373C78.1755 39.5365 77.8969 39.6345 77.6196 39.6345ZM92.6977 36.3996C92.1858 36.3996 91.8937 36.165 91.7173 35.854C91.5555 35.6634 91.4531 35.4195 91.4407 35.1504C91.4346 35.0212 91.4278 34.8909 91.4201 34.7592C91.4194 34.7487 91.4187 34.7381 91.4182 34.7276C91.4079 34.5445 91.4041 34.4241 91.4041 34.3512C91.4041 33.5419 92.0116 33.1055 92.583 33.1055C93.6368 33.1055 93.7664 34.1414 93.8152 34.5312C93.837 34.7051 93.8733 35.0227 93.8733 35.1975C93.8735 35.9501 93.2759 36.3996 92.6977 36.3996Z" fill="black"/>
<path d="M97.1459 11.6016L96.7287 14.5195L95.9951 19.6547L95.0365 26.3672C95.0365 26.3672 95.0365 29.5312 91.8724 29.5312C88.7084 29.5312 88.7084 26.3672 88.7084 26.3672L87.7498 19.6547L87.0162 14.5195L86.599 11.6016C86.599 11.6016 86.599 6.32812 91.8724 6.32812C97.1459 6.32812 97.1459 11.6016 97.1459 11.6016Z" stroke="black" stroke-width="2" stroke-miterlimit="10" stroke-linecap="round" stroke-linejoin="round"/>
<path d="M87.7497 19.6547C86.1513 20.925 82.699 23.2031 78.4849 23.2031C72.6431 23.2031 71.1823 17.3625 71.1823 17.3625C71.1823 17.3625 72.6431 11.5195 78.4849 11.5195C82.1388 11.5195 85.2208 13.2328 87.0162 14.5195L87.7497 19.6547ZM112.561 17.3625C112.561 17.3625 111.101 23.2031 105.26 23.2031C101.046 23.2031 97.5937 20.925 95.9953 19.6547L96.7289 14.5195C98.5242 13.2328 101.606 11.5195 105.26 11.5195C111.101 11.5195 112.561 17.3625 112.561 17.3625Z" stroke="black" stroke-width="2" stroke-miterlimit="10" stroke-linecap="round" stroke-linejoin="round"/>
<path d="M93.9818 6.67547L95.0365 4.21875" stroke="black" stroke-width="2" stroke-miterlimit="10" stroke-linecap="round" stroke-linejoin="round"/>
<path d="M89.7631 6.67547L88.7084 4.21875" stroke="black" stroke-width="2" stroke-miterlimit="10" stroke-linecap="round" stroke-linejoin="round"/>
<path d="M95.2732 24.71H88.5586" stroke="black" stroke-width="2" stroke-miterlimit="10" stroke-linecap="round" stroke-linejoin="round"/>
<path d="M95.8543 20.6416H87.9882" stroke="black" stroke-width="2" stroke-miterlimit="10" stroke-linecap="round" stroke-linejoin="round"/>
</svg>
