<svg width="193" height="50" viewBox="0 0 193 50" fill="none" xmlns="http://www.w3.org/2000/svg">
<path d="M46.712 22.1923C46.7273 21.9149 46.7303 21.6406 46.7303 21.3601C46.7303 20.8724 46.712 20.3816 46.6754 19.903C45.8433 8.98104 35.7229 0.357422 23.3621 0.357422C10.4617 0.357422 0 9.76139 0 21.3631C0 30.2703 6.16669 37.8819 14.8696 40.9393C17.4331 41.8386 18.8384 44.5941 18.0703 47.2004L17.5611 48.9289C23.6151 45.6824 30.0714 42.753 35.7686 38.9091C40.5574 35.681 45.1513 30.9134 46.3614 25.0821H24.9014C23.2706 28.6791 19.3444 31.2121 14.7567 31.2121C9.92219 31.2121 5.81613 28.3956 4.36514 24.4877C4.09386 23.7621 3.914 22.994 3.8378 22.1954V22.1923H46.712ZM14.7567 11.5111C20.0241 11.5111 24.426 14.8551 25.4746 19.3117H4.03593C5.0876 14.8551 9.48323 11.5111 14.7567 11.5111Z" fill="#4AFFE9"/>
<path d="M55.3013 35.0236V7.86914H76.0131V13.341H61.38V18.6511H75.4034V24.0826H61.38V29.5546H76.0131V35.0264H55.3013V35.0236Z" fill="white"/>
<path d="M79.7671 35.0231V14.6378H85.4008V18.203H85.6435C86.7384 15.8917 88.9255 14.2305 92.4935 14.2305C97.8037 14.2305 100.074 17.7551 100.074 22.0946V35.0231H93.9958V23.3108C93.9958 20.4737 93.0627 19.4597 89.9828 19.4597C87.0649 19.4597 85.8081 20.3928 85.8081 23.4726V35.0231H79.7671Z" fill="white"/>
<path d="M102.585 23.594C102.585 17.9198 105.665 14.2305 111.46 14.2305C114.378 14.2305 116.689 15.3658 117.784 17.5934H117.987V14.6378H123.62V32.7551C123.62 39.403 120.093 42.321 113.529 42.321C107.164 42.321 103.599 39.5243 103.599 34.3356H109.637C109.637 36.4446 110.244 36.9704 113.731 36.9704C116.932 36.9704 117.582 36.2423 117.582 33.0788V29.9181H117.339C116.447 31.4984 114.3 32.8766 111.22 32.8766C105.584 32.8766 102.585 29.2681 102.585 23.594ZM113.084 27.8091C116.002 27.8091 117.582 26.795 117.582 24.2007V22.9844C117.582 20.39 116.042 19.3758 113.124 19.3758C109.64 19.3758 108.626 20.7136 108.626 23.5911C108.626 26.4714 109.637 27.8091 113.084 27.8091Z" fill="white"/>
<path d="M126.38 29.8363C126.38 26.6757 128.651 24.7284 132.866 24.0813L139.834 23.0267V22.3796C139.834 19.9874 138.537 19.5426 136.145 19.5426C133.672 19.5426 132.701 20.2302 132.701 22.2987V22.7436H126.906V22.2987C126.906 17.4364 130.676 14.2324 136.431 14.2324C142.429 14.2324 145.592 17.5144 145.592 22.9459V35.025H139.959V32.2689H139.716C138.621 33.7683 136.555 35.4296 132.785 35.4296C129.177 35.4296 126.38 33.5227 126.38 29.8363ZM134.81 30.807C137.283 30.807 139.837 30.1599 139.837 26.9963L134.001 27.889C132.745 28.0913 132.178 28.4957 132.178 29.348C132.175 30.443 133.028 30.807 134.81 30.807Z" fill="white"/>
<path d="M148.143 23.594C148.143 17.9198 151.223 14.2305 157.019 14.2305C159.936 14.2305 162.247 15.3658 163.343 17.5934H163.545V14.6378H169.179V32.7551C169.179 39.403 165.652 42.321 159.087 42.321C152.723 42.321 149.157 39.5243 149.157 34.3356H155.196C155.196 36.4446 155.802 36.9704 159.289 36.9704C162.49 36.9704 163.14 36.2423 163.14 33.0788V29.9181H162.897C162.004 31.4984 159.859 32.8766 156.779 32.8766C151.142 32.8766 148.143 29.2681 148.143 23.594ZM158.642 27.8091C161.56 27.8091 163.14 26.795 163.14 24.2007V22.9844C163.14 20.39 161.6 19.3758 158.683 19.3758C155.196 19.3758 154.185 20.7136 154.185 23.5911C154.182 26.4714 155.196 27.8091 158.642 27.8091Z" fill="white"/>
<path d="M171.731 24.8911C171.731 18.3647 175.623 14.2305 181.984 14.2305C188.104 14.2305 191.711 17.8794 191.711 23.1866C191.711 24.322 191.55 25.4978 191.429 26.1854H177.446C177.567 29.0226 178.703 30.158 182.026 30.158C184.457 30.158 185.513 29.6321 185.513 28.3754V28.1327H191.51V28.5371C191.51 32.8737 187.78 35.4276 181.944 35.4276C174.933 35.4304 171.731 31.3367 171.731 24.8911ZM177.486 22.499H185.876C185.997 20.39 184.62 19.217 181.783 19.217C178.864 19.217 177.729 20.3524 177.486 22.499Z" fill="white"/>
</svg>
