<svg width="90" height="90" viewBox="0 0 90 90" fill="none" xmlns="http://www.w3.org/2000/svg">
<rect width="90" height="90" rx="20" fill="white"/>
<g clip-path="url(#clip0_2055_16110)">
<path d="M65.4798 15.0034C65.4603 15.0039 65.4407 15.0048 65.4212 15.0061C65.3944 15.0089 65.3677 15.0124 65.3412 15.0167C65.3412 15.0167 60.1853 15.7397 55.9392 17.6749C54.3918 18.3801 52.9139 19.2385 51.8641 20.4369C50.8142 19.2378 49.3343 18.3804 47.7863 17.6749C43.5402 15.7397 38.3843 15.0167 38.3843 15.0167C38.3101 15.0071 38.2353 15.0035 38.1605 15.0061C37.3382 15.02 36.7152 15.7531 36.8341 16.5669C36.8341 16.5669 37.5464 21.7228 39.4816 25.9689C40.4492 28.092 41.6966 30.0949 43.7298 31.0216C44.7465 31.4849 45.9736 31.5974 47.171 31.2346C48.277 30.8996 49.357 30.1967 50.4524 29.1571V32.846C45.8434 33.5156 42.2782 37.4879 42.2782 42.2774H45.0083C45.0084 38.4955 48.0396 35.4616 51.8215 35.4616C55.6034 35.4616 58.6373 38.4955 58.6373 42.2774H61.3647C61.3647 37.4832 57.7954 33.5071 53.1799 32.8434V29.0746C54.3065 30.1631 55.4179 30.8903 56.5545 31.2346C57.752 31.5974 58.9684 31.4849 59.9851 31.0216C62.0183 30.0949 63.2657 28.092 64.2333 25.9689C66.1685 21.7228 66.8914 16.5669 66.8914 16.5669C67.018 15.7175 66.3376 14.964 65.4798 15.0034ZM40.1342 18.3195C41.695 18.6062 43.8629 18.8822 46.6491 20.1519C48.5008 20.9959 49.93 22.102 50.3619 23.0498C50.5855 23.5385 50.4622 24.102 50.4418 24.5706C50.3262 24.9523 50.0768 25.4148 49.6881 25.937L45.9832 22.2348L44.0495 24.1684L47.7544 27.8707C47.2279 28.2609 46.7599 28.5112 46.3774 28.6271C45.759 28.8145 45.3411 28.7632 44.8672 28.5472C43.9194 28.1152 42.8106 26.6834 41.9667 24.8317C40.6969 22.0455 40.4209 19.8802 40.1342 18.3195ZM63.5914 18.3195C63.3047 19.8802 63.0287 22.0455 61.7589 24.8316C60.915 26.6834 59.8062 28.1152 58.8584 28.5472C58.3845 28.7632 57.956 28.8145 57.3376 28.6271C56.9557 28.5114 56.4937 28.2597 55.9712 27.8707L59.6734 24.1684L57.7424 22.2348L54.0375 25.9397C53.6477 25.4165 53.3969 24.9529 53.2811 24.5706C53.1349 24.0394 53.3101 23.5177 53.3636 23.0498C53.7956 22.1019 55.2248 20.9959 57.0765 20.1519C59.8626 18.8822 62.0306 18.6062 63.5914 18.3195ZM70.9026 40.7166C69.9296 40.7743 69.06 41.1266 68.2844 41.5716L54.4823 49.4927C54.4946 49.363 54.5223 49.2367 54.5223 49.1039C54.5223 46.861 52.6687 45.0048 50.4259 45.0048H35.4252C35.0632 45.0056 34.7163 45.1502 34.461 45.407L24.1241 55.7519C22.6724 55.2253 20.9746 55.5268 19.8199 56.6814L14.999 61.505L16.93 63.4387L21.7536 58.6151C22.3045 58.0642 23.1257 58.0642 23.6766 58.6151L31.398 66.3259C31.9489 66.8768 31.9489 67.7087 31.398 68.2595L26.5745 73.0804L28.4975 75.0035L33.3184 70.1932C34.7315 68.78 34.8791 66.551 33.7738 64.9595L37.3589 61.3745H44.9684V58.6471H36.7969C36.4339 58.6471 36.086 58.7919 35.83 59.0493L31.8908 62.9752L26.3241 57.3979L35.9898 47.7322H50.4259C51.2049 47.7322 51.7949 48.3248 51.7949 49.1039C51.7949 49.8829 51.2049 50.4622 50.4259 50.4622H40.8826V53.1896H50.4259H53.1533C53.3934 53.1906 53.6295 53.1281 53.8378 53.0085L69.6428 43.9394C70.1778 43.6325 70.7017 43.4574 71.0624 43.436C71.4232 43.4146 71.5946 43.4514 71.8588 43.7157C72.4068 44.2637 72.4011 45.0878 71.8588 45.6387L56.7383 58.6471H47.7491V61.3745H57.2523C57.5774 61.3724 57.8909 61.2543 58.1366 61.0415L73.7099 47.6416C73.7372 47.6231 73.7639 47.6035 73.7898 47.583C75.3758 45.9971 75.3758 43.3813 73.7898 41.7953C72.9857 40.9911 71.8757 40.6589 70.9026 40.7166Z" fill="#3F44BA"/>
</g>
<defs>
<clipPath id="clip0_2055_16110">
<rect width="59.9795" height="60" fill="white" transform="translate(15 15)"/>
</clipPath>
</defs>
</svg>
