<svg width="64" height="64" viewBox="0 0 64 64" fill="none" xmlns="http://www.w3.org/2000/svg">
<g clip-path="url(#clip0_1935_18183)">
<path d="M39.2477 20.3241C39.3672 20.1181 39.4891 19.9135 39.6133 19.7103C40.7374 17.8532 42.6182 14.7427 41.7996 12.3619C41.5656 11.6816 40.9977 10.7606 39.6197 10.235C35.9847 8.84898 35.1038 7.62389 34.8288 6.55814C35.3501 6.00566 35.6982 5.31264 35.8301 4.5646C35.9621 3.81657 35.872 3.04628 35.5711 2.34882C35.2703 1.65136 34.7717 1.05727 34.1371 0.639865C33.5025 0.222464 32.7598 0 32.0002 0C31.2406 0 30.4976 0.222464 29.863 0.639865C29.2283 1.05727 28.7297 1.65136 28.4289 2.34882C28.1281 3.04628 28.038 3.81657 28.1699 4.5646C28.3018 5.31264 28.6499 6.00566 29.1712 6.55814C28.8962 7.62389 28.0147 8.84898 24.3807 10.235C23.0026 10.7606 22.4343 11.6818 22.2005 12.3619C21.3817 14.7427 23.2628 17.852 24.3867 19.7103C24.511 19.9134 24.6329 20.118 24.7523 20.324C26.6236 23.6051 25.7518 24.8481 24.4319 26.7296C22.953 28.8378 21.1127 31.4613 23.1382 37.0515C23.2159 37.2662 23.3579 37.4518 23.5448 37.583C23.7317 37.7142 23.9544 37.7846 24.1828 37.7846H30.8888V50.2289H27.5552C26.6713 50.2299 25.824 50.5815 25.199 51.2064C24.5741 51.8314 24.2226 52.6787 24.2216 53.5625V55.785C24.2216 56.0797 24.3387 56.3623 24.5471 56.5707C24.7555 56.7791 25.038 56.8962 25.3327 56.8962H38.6671C38.9618 56.8962 39.2443 56.7791 39.4526 56.5707C39.661 56.3623 39.7781 56.0797 39.7781 55.785V53.5632C39.7773 52.6793 39.426 51.8318 38.801 51.2067C38.1761 50.5816 37.3288 50.23 36.4449 50.2289H33.1113V37.7826H39.8173C40.0457 37.7826 40.2683 37.7122 40.4552 37.5811C40.6422 37.4499 40.7842 37.2643 40.8619 37.0495C42.8873 31.4593 41.047 28.8358 39.5681 26.7276C38.2486 24.8462 37.3764 23.603 39.2477 20.3222V20.3241ZM37.556 53.5632V54.6744H26.4441V53.5632C26.4444 53.2686 26.5616 52.9861 26.7699 52.7778C26.9782 52.5695 27.2609 52.4523 27.5555 52.452H36.4449C36.7395 52.4523 37.0218 52.5695 37.2301 52.7778C37.4385 52.9861 37.5556 53.2686 37.556 53.5632ZM32.0008 2.2264C32.3305 2.2264 32.6526 2.32413 32.9267 2.50728C33.2008 2.69042 33.4147 2.95073 33.5408 3.25528C33.667 3.55984 33.6999 3.89495 33.6356 4.21826C33.5713 4.54158 33.4125 4.83857 33.1794 5.07167C32.9463 5.30476 32.6493 5.46351 32.326 5.52782C32.0027 5.59213 31.6677 5.55911 31.3632 5.43296C31.0586 5.30681 30.7983 5.0932 30.6151 4.81911C30.432 4.54502 30.3342 4.22277 30.3342 3.89312C30.3347 3.45135 30.5103 3.02781 30.8226 2.71537C31.1349 2.40293 31.5584 2.22709 32.0002 2.2264H32.0008ZM39.0209 35.5619H24.9804C24.7473 34.839 24.5878 34.0944 24.5048 33.3395H29.1833C29.478 33.3395 29.7608 33.2224 29.9692 33.014C30.1776 32.8056 30.2944 32.523 30.2944 32.2283C30.2944 31.9335 30.1776 31.6509 29.9692 31.4425C29.7608 31.2341 29.478 31.117 29.1833 31.117H24.6343C24.9322 29.8887 25.5825 28.96 26.2516 28.0055C27.6581 26.0004 29.2524 23.7275 26.683 19.2225C26.5742 19.0319 26.4418 18.813 26.2885 18.5595C25.488 17.2359 23.8218 14.4817 24.3024 13.0841C24.3773 12.8662 24.5492 12.5488 25.1726 12.311C28.5611 11.0188 30.3944 9.62117 31.136 7.68434C31.7047 7.81488 32.2957 7.81488 32.8644 7.68434C33.6059 9.62166 35.4392 11.0191 38.8281 12.311C39.4517 12.5488 39.6232 12.8662 39.6983 13.0841C40.1789 14.4816 38.5129 17.2359 37.7122 18.5595C37.5589 18.8128 37.4265 19.0319 37.3176 19.2225C34.7484 23.7275 36.3425 25.9996 37.7491 28.0055C39.0379 29.8434 40.2595 31.5846 39.0199 35.5619H39.0209Z" fill="#001476"/>
<path d="M34.1824 31.1191C33.8877 31.1191 33.6049 31.2362 33.3965 31.4446C33.1881 31.653 33.0713 31.9356 33.0713 32.2304C33.0713 32.5251 33.1881 32.8077 33.3965 33.0161C33.6049 33.2245 33.8877 33.3416 34.1824 33.3416C34.3283 33.3416 34.4727 33.3128 34.6075 33.257C34.7423 33.2011 34.8648 33.1193 34.968 33.0161C35.0712 32.9129 35.153 32.7904 35.2088 32.6556C35.2647 32.5208 35.2935 32.3763 35.2935 32.2304C35.2935 32.0844 35.2647 31.94 35.2088 31.8051C35.153 31.6703 35.0712 31.5478 34.968 31.4446C34.8648 31.3415 34.7423 31.2596 34.6075 31.2037C34.4727 31.1479 34.3283 31.1191 34.1824 31.1191Z" fill="#001476"/>
</g>
<defs>
<clipPath id="clip0_1935_18183">
<rect width="64" height="64" fill="white"/>
</clipPath>
</defs>
</svg>
