<svg width="258" height="50" viewBox="0 0 258 50" fill="none" xmlns="http://www.w3.org/2000/svg">
<g clip-path="url(#clip0_1572_16395)">
<path fill-rule="evenodd" clip-rule="evenodd" d="M86.7995 12.2225H86.8958C87.3769 12.2225 87.6658 12.6175 87.6658 13.1112V36.0181C87.6658 36.4131 87.3769 36.808 86.8958 36.808C86.5108 36.808 86.1257 36.5118 86.1257 36.0181V13.0124C86.1257 12.6175 86.4146 12.2225 86.7995 12.2225ZM65.7226 13.4077H80.2552C80.7366 13.4077 81.0252 13.9013 81.0252 14.2963C81.0252 14.6912 80.7366 15.0862 80.2552 15.0862H66.4927V24.6636H78.9079C79.2928 24.6636 79.6777 24.9599 79.6777 25.4535C79.6777 25.8485 79.3891 26.2435 78.9079 26.2435H66.5887V36.1172C66.4927 36.6108 66.1076 37.0058 65.6264 37.0058C65.1452 37.0058 64.7603 36.6108 64.7603 36.1172V14.2963H64.8565C64.8565 13.8026 65.2414 13.4077 65.7226 13.4077ZM107.877 20.5166C107.877 20.0229 107.492 19.7266 107.107 19.7266C106.626 19.7266 106.337 20.1216 106.337 20.5166V30.0941C106.337 33.3524 103.739 35.9194 100.563 35.8207C97.1942 35.8207 95.2695 33.5498 95.2695 29.9952V20.5166C95.2695 20.0229 94.8844 19.7266 94.4995 19.7266C94.1145 19.7266 93.7294 20.1216 93.7294 20.5166V30.2915C93.7294 34.3397 96.2319 37.3017 100.37 37.3017C102.873 37.4006 105.279 36.0183 106.434 33.7473V36.2157C106.434 36.7094 106.819 37.0056 107.204 37.0056C107.685 37.0056 107.974 36.6107 107.974 36.2157H107.877V20.5166ZM122.506 20.6146C122.506 21.0095 122.121 21.3057 121.736 21.3057H116.443V32.2656C116.443 34.7339 117.79 35.6226 119.811 35.6226C120.485 35.6226 121.159 35.5239 121.736 35.3263C122.121 35.3263 122.41 35.6226 122.41 36.0175C122.41 36.3138 122.217 36.6099 121.928 36.7086C121.159 37.0049 120.292 37.1036 119.522 37.1036C117.02 37.1036 114.903 35.6226 114.903 32.463V21.3057H113.074C112.689 21.3057 112.304 20.9108 112.304 20.5158C112.304 20.1209 112.689 19.8247 113.074 19.8247H114.903V15.0853C114.903 14.6904 115.192 14.2954 115.576 14.2954H115.673C116.058 14.2954 116.443 14.6904 116.443 15.0853V19.8247H121.736C122.121 19.8247 122.506 20.2196 122.506 20.6146ZM134.825 21.3057C135.21 21.3057 135.595 21.0095 135.595 20.6146C135.595 20.2196 135.21 19.8247 134.825 19.8247H129.531V15.0853C129.531 14.6904 129.146 14.2954 128.762 14.2954H128.665C128.28 14.2954 127.992 14.6904 127.992 15.0853V19.8247H126.163C125.778 19.8247 125.393 20.1209 125.393 20.5158C125.393 20.9108 125.778 21.3057 126.163 21.3057H127.992V32.463C127.992 35.6226 130.109 37.1036 132.611 37.1036C133.381 37.1036 134.247 37.0049 135.017 36.7086C135.306 36.6099 135.499 36.3138 135.499 36.0175C135.499 35.6226 135.21 35.3263 134.825 35.3263C134.247 35.5239 133.574 35.6226 132.9 35.6226C130.879 35.6226 129.531 34.7339 129.531 32.2656V21.3057H134.825ZM138.483 28.3166C138.483 23.2809 141.851 19.3315 146.375 19.3315C151.09 19.3315 154.074 23.2809 154.074 28.3166C154.074 28.7114 153.689 29.1064 153.304 29.1064H140.215C140.504 33.3522 143.487 35.8205 146.759 35.8205C148.781 35.8205 150.802 34.9319 152.149 33.4509C152.245 33.3522 152.438 33.2533 152.63 33.2533C153.015 33.2533 153.4 33.6483 153.4 34.0432C153.4 34.2408 153.304 34.4382 153.112 34.6358C151.475 36.5118 149.069 37.4991 146.663 37.4004C142.236 37.4004 138.483 33.8459 138.483 28.4153V28.3166ZM140.118 27.5263C140.407 23.7742 143.006 20.9109 146.278 20.9109C150.031 20.9109 152.052 24.0705 152.245 27.5263H140.118ZM160.329 24.7623C161.388 21.899 163.986 19.8255 166.97 19.628C167.451 19.628 167.836 20.0229 167.836 20.6154C167.836 21.0103 167.547 21.504 167.066 21.504H166.97C163.409 21.899 160.329 24.5649 160.329 30.0941V36.4133C160.233 36.9069 159.944 37.2032 159.463 37.2032C159.078 37.2032 158.693 36.8082 158.693 36.4133V20.6154C158.789 20.1217 159.078 19.8255 159.559 19.8255C159.944 19.8255 160.329 20.2204 160.329 20.6154V24.7623ZM193.245 18.7395C192.09 18.7395 191.127 19.5293 190.839 20.7142L188.048 29.8967L185.257 20.7142C184.968 19.5293 183.909 18.6407 182.658 18.6407H182.369C181.118 18.6407 180.059 19.4306 179.771 20.7142L176.98 29.798L174.285 20.6155C173.996 19.5293 173.034 18.6407 171.879 18.6407H171.782C170.531 18.6407 169.569 19.7268 169.569 21.0104C169.569 21.4053 169.665 21.8003 169.761 22.1951V22.1952L174.092 34.9323C174.381 36.2159 175.44 37.1045 176.787 37.2032H176.98C178.231 37.2032 179.29 36.3146 179.674 35.031L182.465 25.9472L185.257 35.031C185.545 36.3146 186.7 37.2032 187.951 37.2032H188.144C189.491 37.2032 190.646 36.3146 190.935 34.9323L195.266 22.0965C195.363 21.8003 195.458 21.4053 195.458 21.1091V21.0104C195.458 19.7268 194.495 18.7395 193.245 18.7395ZM199.981 19.6274C201.81 19.0349 203.638 18.64 205.562 18.7387C208.257 18.7387 210.182 19.5286 211.625 20.8122C212.974 22.3919 213.648 24.4654 213.551 26.539V34.6354C213.551 36.0177 212.491 37.1038 211.145 37.1038C209.894 37.1038 208.834 36.2151 208.739 34.9315C207.391 36.4125 205.467 37.3012 203.445 37.2025C200.27 37.2025 197.478 35.2278 197.478 31.6732C197.478 27.7237 200.365 25.8477 204.504 25.8477C205.948 25.8477 207.391 26.0453 208.739 26.539V26.2427C208.739 24.0705 207.488 22.9844 204.985 22.9844C203.83 22.9844 202.676 23.0831 201.521 23.4781C201.327 23.5768 201.039 23.5768 200.847 23.5768C199.692 23.6755 198.73 22.7869 198.73 21.6021C198.73 20.7135 199.21 19.9236 199.981 19.6274ZM208.836 30.4885C208.836 32.4632 207.199 33.6481 204.89 33.5494C203.35 33.5494 202.195 32.7595 202.195 31.3771V31.2785C202.195 29.7973 203.542 28.8099 205.659 28.8099C206.719 28.8099 207.873 29.1062 208.836 29.5012V30.4885ZM228.372 20.418C228.661 19.3319 229.623 18.6407 230.681 18.6407C232.029 18.6407 233.089 19.7268 233.089 21.0104V21.1091C233.089 21.504 232.992 21.899 232.799 22.2939L227.603 35.031C227.121 36.3146 225.966 37.1045 224.715 37.2032H224.426C223.08 37.1045 222.02 36.2159 221.635 34.9323L216.245 22.1952C216.054 21.8003 215.957 21.4053 215.957 21.0104C216.054 19.6281 217.111 18.6407 218.363 18.6407C219.517 18.6407 220.48 19.4306 220.769 20.5167L224.523 30.884L228.372 20.418ZM243.676 18.5421C238.575 18.5421 235.015 22.7878 235.015 27.922V28.712C235.206 33.6488 239.344 37.4995 244.156 37.2034C246.37 37.2034 248.487 36.5121 250.219 35.0311C250.702 34.6362 250.893 34.1425 250.893 33.5501V33.4513C250.893 32.3652 250.027 31.4766 248.97 31.4766C248.584 31.4766 248.102 31.5753 247.813 31.8716C246.756 32.6615 245.504 33.1552 244.253 33.0565C242.136 33.1552 240.307 31.674 240.018 29.5019H249.931C251.182 29.403 252.145 28.317 252.048 27.0334V26.6384C252.048 22.1954 248.296 18.4433 243.676 18.5421ZM243.676 22.6884C241.653 22.6884 240.307 24.1694 239.921 26.539H247.333C247.044 24.268 245.696 22.6884 243.676 22.6884Z" fill="black"/>
<path fill-rule="evenodd" clip-rule="evenodd" d="M42.3384 3.14816C64.1191 1.3113e-05 50.1795 17.8704 43.4032 22.8703C48.0497 26.2964 52.7931 31.1111 54.826 36.574C58.6014 46.5741 49.3082 48.0555 42.3384 45.5555C34.6907 42.963 27.9144 37.4073 23.4615 30.926C22.203 30.926 20.8477 30.7407 19.5893 30.3705C22.1062 37.2222 23.1711 44.2593 22.4934 50C22.4934 38.4259 16.782 26.9444 8.55361 17.4074C5.6495 14.0741 8.65044 11.5741 11.2641 14.8148C13.0236 17.1618 14.6397 19.6042 16.1044 22.1297C18.9117 12.6852 32.8514 4.44445 42.3384 3.14816ZM39.241 20.1849C43.5002 17.6849 56.472 4.25898 44.3715 5.46268C37.4017 6.20342 28.9797 12.4071 25.4947 16.3886C30.3348 15.833 35.2719 17.8701 39.241 20.1849ZM25.3978 19.3519C28.689 19.0742 32.271 20.7408 34.9814 22.4075C32.3676 23.6113 29.4635 24.3519 26.4626 24.5371C22.0097 24.5371 21.1384 19.7223 25.3978 19.3519ZM27.2363 30.5552C31.1086 34.7218 36.4328 38.7959 42.1443 40.2775C45.4356 41.1108 49.1141 40.7404 47.7588 36.2034C46.4035 32.0367 42.9186 28.333 39.5305 25.5552C38.5624 26.2034 37.4976 26.8515 36.4328 27.3146C33.5287 28.8885 30.4309 29.9997 27.2363 30.5552Z" fill="#F5A623"/>
</g>
<defs>
<clipPath id="clip0_1572_16395">
<rect width="256.674" height="50" fill="white" transform="translate(0.560425)"/>
</clipPath>
</defs>
</svg>
