<svg width="245" height="48" viewBox="0 0 245 48" fill="none" xmlns="http://www.w3.org/2000/svg">
<path fill-rule="evenodd" clip-rule="evenodd" d="M79.4362 9.44336H79.5325C80.0137 9.44336 80.3025 9.83831 80.3025 10.332V33.2389C80.3025 33.6339 80.0137 34.0289 79.5325 34.0289C79.1476 34.0289 78.7625 33.7326 78.7625 33.2389V10.2333C78.7625 9.83831 79.0513 9.44336 79.4362 9.44336ZM58.3594 10.6285H72.8919C73.3733 10.6285 73.6619 11.1222 73.6619 11.5171C73.6619 11.912 73.3733 12.307 72.8919 12.307H59.1294V21.8844H71.5446C71.9295 21.8844 72.3144 22.1807 72.3144 22.6743C72.3144 23.0693 72.0258 23.4643 71.5446 23.4643H59.2255V33.338C59.1294 33.8317 58.7443 34.2266 58.2631 34.2266C57.7819 34.2266 57.397 33.8317 57.397 33.338V11.5171H57.4932C57.4932 11.0234 57.8782 10.6285 58.3594 10.6285ZM100.514 17.7374C100.514 17.2437 100.129 16.9475 99.744 16.9475C99.2628 16.9475 98.9739 17.3424 98.9739 17.7374V27.3149C98.9739 30.5732 96.3754 33.1402 93.1995 33.0415C89.831 33.0415 87.9062 30.7706 87.9062 27.216V17.7374C87.9062 17.2437 87.5211 16.9475 87.1362 16.9475C86.7513 16.9475 86.3662 17.3424 86.3662 17.7374V27.5123C86.3662 31.5605 88.8686 34.5225 93.0069 34.5225C95.5093 34.6214 97.9153 33.2391 99.0702 30.9682V33.4365C99.0702 33.9302 99.4553 34.2264 99.8402 34.2264C100.321 34.2264 100.61 33.8315 100.61 33.4365H100.514V17.7374ZM115.143 17.8354C115.143 18.2304 114.758 18.5265 114.373 18.5265H109.079V29.4864C109.079 31.9548 110.427 32.8434 112.448 32.8434C113.122 32.8434 113.795 32.7447 114.373 32.5471C114.758 32.5471 115.046 32.8434 115.046 33.2384C115.046 33.5346 114.854 33.8307 114.565 33.9294C113.795 34.2257 112.929 34.3244 112.159 34.3244C109.657 34.3244 107.539 32.8434 107.539 29.6838V18.5265H105.711C105.326 18.5265 104.941 18.1316 104.941 17.7367C104.941 17.3417 105.326 17.0455 105.711 17.0455H107.539V12.3061C107.539 11.9112 107.828 11.5163 108.213 11.5163H108.309C108.694 11.5163 109.079 11.9112 109.079 12.3061V17.0455H114.373C114.758 17.0455 115.143 17.4404 115.143 17.8354ZM127.462 18.5265C127.846 18.5265 128.231 18.2304 128.231 17.8354C128.231 17.4404 127.846 17.0455 127.462 17.0455H122.168V12.3061C122.168 11.9112 121.783 11.5163 121.398 11.5163H121.302C120.917 11.5163 120.628 11.9112 120.628 12.3061V17.0455H118.8C118.415 17.0455 118.03 17.3417 118.03 17.7367C118.03 18.1316 118.415 18.5265 118.8 18.5265H120.628V29.6838C120.628 32.8434 122.746 34.3244 125.248 34.3244C126.018 34.3244 126.884 34.2257 127.654 33.9294C127.943 33.8307 128.135 33.5346 128.135 33.2384C128.135 32.8434 127.846 32.5471 127.462 32.5471C126.884 32.7447 126.21 32.8434 125.537 32.8434C123.516 32.8434 122.168 31.9548 122.168 29.4864V18.5265H127.462ZM131.119 25.5375C131.119 20.5017 134.488 16.5523 139.011 16.5523C143.727 16.5523 146.711 20.5017 146.711 25.5375C146.711 25.9322 146.326 26.3272 145.941 26.3272H132.852C133.141 30.573 136.124 33.0414 139.396 33.0414C141.417 33.0414 143.438 32.1527 144.786 30.6717C144.882 30.573 145.075 30.4741 145.267 30.4741C145.652 30.4741 146.037 30.8691 146.037 31.2641C146.037 31.4617 145.941 31.659 145.748 31.8566C144.112 33.7326 141.706 34.7199 139.3 34.6212C134.873 34.6212 131.119 31.0667 131.119 25.6362V25.5375ZM132.755 24.7471C133.044 20.995 135.642 18.1318 138.915 18.1318C142.668 18.1318 144.689 21.2913 144.882 24.7471H132.755ZM152.966 21.9831C154.025 19.1198 156.623 17.0463 159.607 16.8488C160.088 16.8488 160.473 17.2438 160.473 17.8362C160.473 18.2311 160.184 18.7248 159.703 18.7248H159.607C156.046 19.1198 152.966 21.7857 152.966 27.3149V33.6341C152.87 34.1278 152.581 34.424 152.1 34.424C151.715 34.424 151.33 34.0291 151.33 33.6341V17.8362C151.426 17.3425 151.715 17.0463 152.196 17.0463C152.581 17.0463 152.966 17.4412 152.966 17.8362V21.9831ZM185.881 15.9603C184.726 15.9603 183.764 16.7502 183.475 17.935L180.684 27.1175L177.893 17.935C177.604 16.7502 176.546 15.8616 175.295 15.8616H175.006C173.755 15.8616 172.696 16.6514 172.407 17.935L169.616 27.0188L166.922 17.8363C166.633 16.7502 165.67 15.8616 164.515 15.8616H164.419C163.168 15.8616 162.206 16.9477 162.206 18.2312C162.206 18.6261 162.302 19.0211 162.398 19.4159V19.4161L166.729 32.1531C167.018 33.4367 168.077 34.3253 169.424 34.424H169.616C170.868 34.424 171.926 33.5354 172.311 32.2518L175.102 23.168L177.893 32.2518C178.182 33.5354 179.337 34.424 180.588 34.424H180.781C182.128 34.424 183.283 33.5354 183.571 32.1531L187.903 19.3174C188 19.0211 188.095 18.6261 188.095 18.33V18.2312C188.095 16.9477 187.132 15.9603 185.881 15.9603ZM192.618 16.8482C194.446 16.2558 196.275 15.8608 198.199 15.9595C200.893 15.9595 202.819 16.7494 204.262 18.033C205.61 19.6127 206.284 21.6863 206.188 23.7598V31.8563C206.188 33.2386 205.128 34.3246 203.782 34.3246C202.53 34.3246 201.471 33.436 201.376 32.1523C200.027 33.6333 198.104 34.522 196.081 34.4233C192.906 34.4233 190.115 32.4486 190.115 28.8941C190.115 24.9445 193.001 23.0686 197.141 23.0686C198.584 23.0686 200.027 23.2661 201.376 23.7598V23.4635C201.376 21.2913 200.124 20.2053 197.622 20.2053C196.467 20.2053 195.312 20.304 194.158 20.6989C193.964 20.7976 193.676 20.7976 193.484 20.7976C192.329 20.8963 191.366 20.0077 191.366 18.823C191.366 17.9343 191.847 17.1444 192.618 16.8482ZM201.473 27.7093C201.473 29.684 199.836 30.8689 197.527 30.7702C195.987 30.7702 194.832 29.9803 194.832 28.598V28.4993C194.832 27.0181 196.178 26.0308 198.296 26.0308C199.355 26.0308 200.51 26.327 201.473 26.722V27.7093ZM221.009 17.6388C221.297 16.5527 222.26 15.8616 223.318 15.8616C224.666 15.8616 225.726 16.9477 225.726 18.2312V18.33C225.726 18.7248 225.629 19.1198 225.435 19.5148L220.24 32.2518C219.757 33.5354 218.603 34.3253 217.351 34.424H217.063C215.716 34.3253 214.657 33.4367 214.271 32.1531L208.882 19.4161C208.69 19.0211 208.594 18.6261 208.594 18.2312C208.69 16.8489 209.748 15.8616 211 15.8616C212.154 15.8616 213.117 16.6514 213.405 17.7375L217.16 28.1049L221.009 17.6388ZM236.312 15.7629C231.212 15.7629 227.651 20.0086 227.651 25.1429V25.9328C227.843 30.8697 231.981 34.7203 236.793 34.4242C239.007 34.4242 241.124 33.733 242.856 32.252C243.338 31.857 243.53 31.3633 243.53 30.771V30.6721C243.53 29.5861 242.664 28.6974 241.606 28.6974C241.221 28.6974 240.739 28.7961 240.45 29.0924C239.392 29.8823 238.141 30.376 236.89 30.2773C234.772 30.376 232.944 28.8948 232.655 26.7227H242.567C243.819 26.6239 244.782 25.5378 244.685 24.2542V23.8593C244.685 19.4163 240.932 15.6642 236.312 15.7629ZM236.312 19.9092C234.29 19.9092 232.944 21.3902 232.558 23.7598H239.97C239.681 21.4889 238.333 19.9092 236.312 19.9092Z" fill="white"/>
<path fill-rule="evenodd" clip-rule="evenodd" d="M34.9749 0.369351C56.7557 -2.7788 42.8161 15.0916 36.0397 20.0915C40.6863 23.5175 45.4297 28.3322 47.4626 33.7952C51.238 43.7953 41.9448 45.2767 34.9749 42.7767C27.3273 40.1842 20.551 34.6285 16.0981 28.1471C14.8396 28.1471 13.4843 27.9619 12.2259 27.5917C14.7428 34.4434 15.8076 41.4804 15.13 47.2212C15.13 35.6471 9.41858 24.1656 1.19021 14.6286C-1.7139 11.2953 1.28704 8.79527 3.90074 12.036C5.66021 14.383 7.27631 16.8254 8.74095 19.3509C11.5483 9.90638 25.488 1.66564 34.9749 0.369351ZM31.8776 17.4061C36.1368 14.9061 49.1086 1.48017 37.0081 2.68387C30.0383 3.42461 21.6163 9.62832 18.1313 13.6098C22.9714 13.0542 27.9085 15.0913 31.8776 17.4061ZM18.0344 16.5731C21.3256 16.2954 24.9076 17.962 27.618 19.6287C25.0042 20.8325 22.1001 21.573 19.0992 21.7583C14.6463 21.7583 13.775 16.9435 18.0344 16.5731ZM19.8729 27.7764C23.7452 31.943 29.0694 36.0171 34.7809 37.4987C38.0721 38.332 41.7507 37.9616 40.3954 33.4246C39.0401 29.2579 35.5552 25.5542 32.1671 22.7764C31.199 23.4246 30.1342 24.0727 29.0694 24.5358C26.1653 26.1097 23.0675 27.2209 19.8729 27.7764Z" fill="#F5A623"/>
</svg>
