<svg width="90" height="90" viewBox="0 0 90 90" fill="none" xmlns="http://www.w3.org/2000/svg">
<rect width="90" height="90" rx="20" fill="white"/>
<path d="M66.9822 37.2578H23.8359C22.2539 37.2578 20.9595 38.5714 20.9595 40.1918V71.7749H40.1356C40.1356 72.3022 40.5671 72.7337 41.0944 72.7337H49.7237C50.251 72.7337 50.6825 72.3022 50.6825 71.7749H69.8586V40.1918C69.8586 38.5714 68.5642 37.2578 66.9822 37.2578ZM66.9822 68.8984H23.8359V40.1342H66.9822V68.8984Z" fill="#06AFFF"/>
<path d="M66.9822 40.1348H23.8359V68.899H66.9822V40.1348Z" fill="white"/>
<path d="M50.8935 68.899H23.8359V40.1348H26.6452C28.8697 46.2615 32.1584 51.8706 36.3004 56.7413C37.2209 57.8343 38.1797 58.8794 39.1768 59.8862C42.6477 63.3954 46.5788 66.4348 50.8935 68.899Z" fill="#EFEFEF"/>
<path d="M50.8934 68.8984H23.8359V40.1342H26.6452C26.2904 39.185 25.974 38.2262 25.6864 37.2578H23.8359C22.2539 37.2578 20.9595 38.5714 20.9595 40.1918V71.7749H40.1356C40.1356 72.3022 40.5671 72.7337 41.0944 72.7337H49.7237C50.251 72.7337 50.6825 72.3022 50.6825 71.7749H56.6846C54.6903 70.9311 52.7535 69.9627 50.8934 68.8984Z" fill="#0688FF"/>
<path d="M74.6523 71.7754C74.6523 73.367 73.3675 74.6518 71.7758 74.6518H19.0415C18.2456 74.6518 17.5265 74.3258 17.0088 73.8081C16.491 73.2903 16.165 72.5712 16.165 71.7754H40.1352C40.1352 72.3027 40.5667 72.7342 41.094 72.7342H49.7233C50.2506 72.7342 50.6821 72.3027 50.6821 71.7754H74.6523Z" fill="#0688FF"/>
<path d="M62.1879 20.9581L60.2703 19.9993L59.3115 16.1641L58.3527 19.9993L56.4351 20.9581L58.3527 21.9169L59.3115 24.7933L60.2703 21.9169L62.1879 20.9581Z" fill="#FCDA35"/>
<path d="M49.7235 37.2589L47.8059 36.3001L46.8471 32.4648L45.8883 36.3001L43.9707 37.2589L45.8883 38.2177L46.8471 41.0941L47.8059 38.2177L49.7235 37.2589Z" fill="#FCDA35"/>
<path d="M68.26 33.4238H53.5586V44.9295H74.6523V33.4238H69.539H68.26Z" fill="#D6795C"/>
<path d="M70.0309 44.9295H53.5586V33.4238H58.7266C61.9002 37.796 65.7163 41.6792 70.0309 44.9295Z" fill="#D99749"/>
<path d="M55.4764 30.5465C56.0059 30.5465 56.4352 30.1172 56.4352 29.5877C56.4352 29.0582 56.0059 28.6289 55.4764 28.6289C54.9469 28.6289 54.5176 29.0582 54.5176 29.5877C54.5176 30.1172 54.9469 30.5465 55.4764 30.5465Z" fill="#FCDA35"/>
<path d="M34.3826 33.4235C34.9122 33.4235 35.3414 32.9942 35.3414 32.4647C35.3414 31.9351 34.9122 31.5059 34.3826 31.5059C33.8531 31.5059 33.4238 31.9351 33.4238 32.4647C33.4238 32.9942 33.8531 33.4235 34.3826 33.4235Z" fill="#FCDA35"/>
<path d="M43.4914 25.7534C44.2857 25.7534 44.9296 25.1095 44.9296 24.3152C44.9296 23.5209 44.2857 22.877 43.4914 22.877C42.6971 22.877 42.0532 23.5209 42.0532 24.3152C42.0532 25.1095 42.6971 25.7534 43.4914 25.7534Z" fill="#FCDA35"/>
<path d="M36.3 47.8058C36.3 49.9439 34.9001 51.756 32.9633 52.3793C32.5031 52.5231 32.0141 52.5998 31.5059 52.5998C28.8596 52.5998 26.7119 50.4521 26.7119 47.8058C26.7119 46.3771 27.3351 45.0923 28.3227 44.2198C29.176 43.4719 30.2883 43.0117 31.5059 43.0117C34.1523 43.0117 36.3 45.1594 36.3 47.8058Z" fill="#D6795C"/>
<path d="M36.3 56.4355H26.7119V66.0236H36.3V56.4355Z" fill="#FACA00"/>
<path d="M51.6411 56.4355H41.0942V62.1884H51.6411V56.4355Z" fill="#FCDA35"/>
<path d="M71.7763 31.505L69.8587 30.5462L68.8999 26.7109L67.9411 30.5462L66.0234 31.505L67.9411 32.4638L68.8999 35.3402L69.8587 32.4638L71.7763 31.505Z" fill="#FCDA35"/>
<path d="M32.9633 52.3782C32.5031 52.522 32.0141 52.5987 31.5059 52.5987C28.8596 52.5987 26.7119 50.451 26.7119 47.8047C26.7119 46.3761 27.3351 45.0913 28.3227 44.2188C29.6363 47.0856 31.1895 49.8086 32.9633 52.3782Z" fill="#D99749"/>
<path d="M59.3115 25.2742C59.1054 25.2742 58.9222 25.1419 58.8561 24.9463L57.9596 22.2578L56.2203 21.3881C56.0583 21.3066 55.9557 21.1408 55.9557 20.9596C55.9557 20.7783 56.0583 20.6125 56.2203 20.531L57.9404 19.6709L58.8455 16.0505C58.952 15.6238 59.6692 15.6238 59.7765 16.0505L60.6817 19.6709L62.4018 20.531C62.5648 20.6125 62.6673 20.7783 62.6673 20.9596C62.6673 21.1408 62.5648 21.3066 62.4027 21.3881L60.6634 22.2578L59.767 24.9463C59.7008 25.1419 59.5177 25.2742 59.3115 25.2742ZM57.507 20.9596L58.5665 21.4898C58.6797 21.5473 58.7669 21.6461 58.8072 21.7669L59.3115 23.2789L59.8149 21.7669C59.8552 21.6461 59.9424 21.5473 60.0556 21.4898L61.116 20.9596L60.0565 20.4293C59.9309 20.367 59.8398 20.252 59.8053 20.1168L59.3115 18.1426L58.8177 20.1177C58.7832 20.2539 58.6921 20.368 58.5665 20.4303L57.507 20.9596ZM68.8996 35.8211C68.6934 35.8211 68.5103 35.6888 68.4442 35.4932L67.5477 32.8047L65.8084 31.935C65.6464 31.8535 65.5438 31.6877 65.5438 31.5064C65.5438 31.3252 65.6464 31.1593 65.8084 31.0778L67.5285 30.2178L68.4336 26.5973C68.54 26.1707 69.2572 26.1707 69.3646 26.5973L70.2697 30.2178L71.9898 31.0778C72.1528 31.1593 72.2554 31.3252 72.2554 31.5064C72.2554 31.6877 72.1528 31.8535 71.9908 31.935L70.2515 32.8047L69.355 35.4932C69.2889 35.6888 69.1057 35.8211 68.8996 35.8211ZM67.0951 31.5064L68.1546 32.0367C68.2677 32.0942 68.355 32.1929 68.3953 32.3138L68.8986 33.8258L69.402 32.3138C69.4423 32.1929 69.5295 32.0942 69.6427 32.0367L70.7021 31.5064L69.6427 30.9762C69.5171 30.9139 69.426 30.7988 69.3915 30.6636L68.8977 28.6885L68.4039 30.6636C68.3694 30.7998 68.2783 30.9139 68.1527 30.9762L67.0951 31.5064ZM46.847 41.5739C46.6409 41.5739 46.4578 41.4416 46.3916 41.246L45.4951 38.5575L43.7558 37.6879C43.5938 37.6064 43.4912 37.4405 43.4912 37.2593C43.4912 37.0781 43.5938 36.9122 43.7558 36.8307L45.4759 35.9706L46.3811 32.3502C46.4875 31.9235 47.2047 31.9235 47.3121 32.3502L48.2172 35.9706L49.9373 36.8307C50.1003 36.9122 50.2029 37.0781 50.2029 37.2593C50.2029 37.4405 50.1003 37.6064 49.9382 37.6879L48.199 38.5575L47.3025 41.246C47.2363 41.4416 47.0532 41.5739 46.847 41.5739ZM45.0426 37.2593L46.102 37.7895C46.2152 37.847 46.3024 37.9458 46.3427 38.0666L46.8461 39.5786L47.3494 38.0666C47.3897 37.9458 47.477 37.847 47.5901 37.7895L48.6496 37.2593L47.5901 36.7291C47.4645 36.6667 47.3734 36.5517 47.3389 36.4165L46.8451 34.4413L46.3513 36.4165C46.3168 36.5526 46.2257 36.6667 46.1001 36.7291L45.0426 37.2593Z" fill="#00000C"/>
<path d="M20.9594 72.2551C20.6948 72.2551 20.48 72.0404 20.48 71.7757V40.1898C20.48 38.3096 21.9872 36.7793 23.8406 36.7793H43.9707C44.2354 36.7793 44.4502 36.9941 44.4502 37.2587C44.4502 37.5233 44.2354 37.7381 43.9707 37.7381H23.8406C22.5165 37.7381 21.4388 38.8369 21.4388 40.1898V71.7757C21.4388 72.0404 21.224 72.2551 20.9594 72.2551ZM69.8585 72.2551C69.5939 72.2551 69.3791 72.0404 69.3791 71.7757V44.9292C69.3791 44.6645 69.5939 44.4498 69.8585 44.4498C70.1232 44.4498 70.3379 44.6645 70.3379 44.9292V71.7757C70.3379 72.0404 70.1232 72.2551 69.8585 72.2551Z" fill="#00000C"/>
<path d="M71.7781 75.1321H19.0399C17.1904 75.1321 15.686 73.6277 15.686 71.7782C15.686 71.5136 15.9008 71.2988 16.1654 71.2988L40.1356 71.2969V72.2557H16.6928C16.9152 73.3487 17.8836 74.1733 19.0399 74.1733H71.7781C72.9345 74.1733 73.9029 73.3497 74.1253 72.2576L50.6825 72.2557C50.4179 72.2557 50.2031 72.0409 50.2031 71.7763C50.2031 71.5116 50.4179 71.2969 50.6825 71.2969H74.6527C74.9173 71.2969 75.1321 71.5116 75.1321 71.7763C75.1321 73.6268 73.6277 75.1321 71.7781 75.1321Z" fill="#00000C"/>
<path d="M49.7236 73.2145H41.0944C40.3014 73.2145 39.6562 72.5692 39.6562 71.7763C39.6562 71.5116 39.8709 71.2969 40.1356 71.2969C40.4002 71.2969 40.615 71.5116 40.615 71.7763C40.615 72.04 40.8307 72.2557 41.0944 72.2557H49.7236C49.9873 72.2557 50.203 72.04 50.203 71.7763C50.203 71.5116 50.4178 71.2969 50.6824 71.2969C50.9471 71.2969 51.1618 71.5116 51.1618 71.7763C51.1618 72.5692 50.5166 73.2145 49.7236 73.2145ZM23.8358 45.4091C23.5712 45.4091 23.3564 45.1943 23.3564 44.9297V40.1357C23.3564 39.871 23.5712 39.6562 23.8358 39.6562H53.5589C53.8235 39.6562 54.0383 39.871 54.0383 40.1357C54.0383 40.4003 53.8235 40.6151 53.5589 40.6151H24.3153V44.9297C24.3153 45.1943 24.1005 45.4091 23.8358 45.4091ZM66.9822 69.3793H23.8358C23.5712 69.3793 23.3564 69.1645 23.3564 68.8999V58.353C23.3564 58.0884 23.5712 57.8736 23.8358 57.8736C24.1005 57.8736 24.3153 58.0884 24.3153 58.353V68.4205H66.5028V44.9297C66.5028 44.6651 66.7175 44.4503 66.9822 44.4503C67.2468 44.4503 67.4616 44.6651 67.4616 44.9297V68.8999C67.4616 69.1645 67.2468 69.3793 66.9822 69.3793Z" fill="#00000C"/>
<path d="M74.6524 45.4078H53.5587C53.2941 45.4078 53.0793 45.1931 53.0793 44.9284V33.4228C53.0793 33.1581 53.2941 32.9434 53.5587 32.9434H68.2601C68.5247 32.9434 68.7395 33.1581 68.7395 33.4228C68.7395 33.6874 68.5247 33.9022 68.2601 33.9022H54.0381V44.449H74.173V33.9022H69.5391C69.2745 33.9022 69.0597 33.6874 69.0597 33.4228C69.0597 33.1581 69.2745 32.9434 69.5391 32.9434H74.6524C74.9171 32.9434 75.1318 33.1581 75.1318 33.4228V44.9284C75.1318 45.1931 74.9171 45.4078 74.6524 45.4078ZM55.4763 31.0257C54.6834 31.0257 54.0381 30.3805 54.0381 29.5875C54.0381 28.7946 54.6834 28.1493 55.4763 28.1493C56.2692 28.1493 56.9145 28.7946 56.9145 29.5875C56.9145 30.3805 56.2692 31.0257 55.4763 31.0257ZM55.4763 29.1081C55.2126 29.1081 54.9969 29.3239 54.9969 29.5875C54.9969 29.8512 55.2126 30.0669 55.4763 30.0669C55.74 30.0669 55.9557 29.8512 55.9557 29.5875C55.9557 29.3239 55.74 29.1081 55.4763 29.1081ZM34.3825 33.9022C33.5896 33.9022 32.9443 33.2569 32.9443 32.464C32.9443 31.671 33.5896 31.0257 34.3825 31.0257C35.1755 31.0257 35.8208 31.671 35.8208 32.464C35.8208 33.2569 35.1755 33.9022 34.3825 33.9022ZM34.3825 31.9846C34.1189 31.9846 33.9031 32.2003 33.9031 32.464C33.9031 32.7276 34.1189 32.9434 34.3825 32.9434C34.6462 32.9434 34.8619 32.7276 34.8619 32.464C34.8619 32.2003 34.6462 31.9846 34.3825 31.9846ZM43.4912 26.2317C42.4336 26.2317 41.5736 25.3717 41.5736 24.3141C41.5736 23.2565 42.4336 22.3965 43.4912 22.3965C44.5488 22.3965 45.4088 23.2565 45.4088 24.3141C45.4088 25.3717 44.5488 26.2317 43.4912 26.2317ZM43.4912 23.3553C42.9619 23.3553 42.5324 23.7848 42.5324 24.3141C42.5324 24.8434 42.9619 25.2729 43.4912 25.2729C44.0205 25.2729 44.45 24.8434 44.45 24.3141C44.45 23.7848 44.0205 23.3553 43.4912 23.3553Z" fill="#00000C"/>
<path d="M64.1054 42.532C63.8407 42.532 63.626 42.3172 63.626 42.0526V41.0938C63.626 40.8291 63.8407 40.6143 64.1054 40.6143C64.37 40.6143 64.5848 40.8291 64.5848 41.0938V42.0526C64.5848 42.3172 64.37 42.532 64.1054 42.532ZM64.1054 37.7379C63.8407 37.7379 63.626 37.5232 63.626 37.2585V36.2997C63.626 36.0351 63.8407 35.8203 64.1054 35.8203C64.37 35.8203 64.5848 36.0351 64.5848 36.2997V37.2585C64.5848 37.5232 64.37 37.7379 64.1054 37.7379Z" fill="#00000C"/>
<path d="M64.1057 41.5737C63.3128 41.5737 62.6675 40.9284 62.6675 40.1355C62.6675 39.8708 62.8823 39.6561 63.1469 39.6561C63.4115 39.6561 63.6263 39.8708 63.6263 40.1355C63.6263 40.3991 63.842 40.6149 64.1057 40.6149C64.3694 40.6149 64.5851 40.3991 64.5851 40.1355C64.5851 39.8718 64.3694 39.6561 64.1057 39.6561C63.8411 39.6561 63.6263 39.4413 63.6263 39.1767C63.6263 38.912 63.8411 38.6973 64.1057 38.6973C64.8986 38.6973 65.5439 39.3425 65.5439 40.1355C65.5439 40.9284 64.8986 41.5737 64.1057 41.5737Z" fill="#00000C"/>
<path d="M64.1057 39.6557C63.3128 39.6557 62.6675 39.0104 62.6675 38.2175C62.6675 37.4246 63.3128 36.7793 64.1057 36.7793C64.8987 36.7793 65.5439 37.4246 65.5439 38.2175C65.5439 38.4821 65.3292 38.6969 65.0645 38.6969C64.7999 38.6969 64.5851 38.4821 64.5851 38.2175C64.5851 37.9538 64.3694 37.7381 64.1057 37.7381C63.8421 37.7381 63.6263 37.9538 63.6263 38.2175C63.6263 38.4812 63.8421 38.6969 64.1057 38.6969C64.3704 38.6969 64.5851 38.9117 64.5851 39.1763C64.5851 39.4409 64.3704 39.6557 64.1057 39.6557ZM53.5589 37.7381H49.7236C49.459 37.7381 49.2442 37.5233 49.2442 37.2587C49.2442 36.9941 49.459 36.7793 49.7236 36.7793H53.5589C53.8235 36.7793 54.0383 36.9941 54.0383 37.2587C54.0383 37.5233 53.8235 37.7381 53.5589 37.7381ZM31.5063 53.079C28.5992 53.079 26.2329 50.7127 26.2329 47.8056C26.2329 44.8985 28.5992 42.5321 31.5063 42.5321C34.4134 42.5321 36.7797 44.8985 36.7797 47.8056C36.7797 50.7127 34.4134 53.079 31.5063 53.079ZM31.5063 43.4909C29.1275 43.4909 27.1917 45.4268 27.1917 47.8056C27.1917 50.1844 29.1275 52.1202 31.5063 52.1202C33.8851 52.1202 35.8209 50.1844 35.8209 47.8056C35.8209 45.4268 33.8851 43.4909 31.5063 43.4909ZM64.1057 53.079H40.1356C39.8709 53.079 39.6562 52.8642 39.6562 52.5996C39.6562 52.335 39.8709 52.1202 40.1356 52.1202H64.1057C64.3704 52.1202 64.5851 52.335 64.5851 52.5996C64.5851 52.8642 64.3704 53.079 64.1057 53.079ZM36.3003 66.5023H26.7123C26.4476 66.5023 26.2329 66.2875 26.2329 66.0229V56.4348C26.2329 56.1702 26.4476 55.9554 26.7123 55.9554H36.3003C36.565 55.9554 36.7797 56.1702 36.7797 56.4348V66.0229C36.7797 66.2875 36.565 66.5023 36.3003 66.5023ZM27.1917 65.5435H35.8209V56.9142H27.1917V65.5435ZM51.6412 62.6671H41.0944C40.8297 62.6671 40.615 62.4523 40.615 62.1877V56.4348C40.615 56.1702 40.8297 55.9554 41.0944 55.9554H51.6412C51.9059 55.9554 52.1207 56.1702 52.1207 56.4348V62.1877C52.1207 62.4523 51.9059 62.6671 51.6412 62.6671ZM41.5738 61.7083H51.1618V56.9142H41.5738V61.7083ZM64.1057 66.5023H41.0944C40.8297 66.5023 40.615 66.2875 40.615 66.0229C40.615 65.7583 40.8297 65.5435 41.0944 65.5435H64.1057C64.3704 65.5435 64.5851 65.7583 64.5851 66.0229C64.5851 66.2875 64.3704 66.5023 64.1057 66.5023ZM64.1057 59.7907H55.4765C55.2118 59.7907 54.9971 59.5759 54.9971 59.3113C54.9971 59.0466 55.2118 58.8319 55.4765 58.8319H64.1057C64.3704 58.8319 64.5851 59.0466 64.5851 59.3113C64.5851 59.5759 64.3704 59.7907 64.1057 59.7907ZM64.1057 48.285H40.1356C39.8709 48.285 39.6562 48.0702 39.6562 47.8056C39.6562 47.5409 39.8709 47.3262 40.1356 47.3262H64.1057C64.3704 47.3262 64.5851 47.5409 64.5851 47.8056C64.5851 48.0702 64.3704 48.285 64.1057 48.285ZM23.8358 54.0378C23.5712 54.0378 23.3564 53.823 23.3564 53.5584V48.7644C23.3564 48.4998 23.5712 48.285 23.8358 48.285C24.1005 48.285 24.3153 48.4998 24.3153 48.7644V53.5584C24.3153 53.823 24.1005 54.0378 23.8358 54.0378Z" fill="#00000C"/>
</svg>
