<svg width="250" height="250" viewBox="0 0 250 250" fill="none" xmlns="http://www.w3.org/2000/svg">
<path d="M176.787 155.425L209.507 130.957C212.954 128.235 217.317 126.946 221.69 127.357C226.062 127.768 230.109 129.848 232.988 133.164L169.087 195.732C160.146 202.291 149.33 205.796 138.242 205.728L84.5996 201.807C79.6627 201.444 74.7771 203.007 70.9668 206.167L61.4844 213.867L52.4023 161.953L52.832 161.88C59.1962 155.083 67.3099 150.171 76.2827 147.682C85.2554 145.194 94.7403 145.225 103.696 147.774L107.051 148.731C112.303 150.225 117.825 150.512 123.203 149.57L153.203 144.326C157.799 143.523 162.53 144.157 166.751 146.144C170.972 148.13 174.477 151.372 176.787 155.425Z" fill="#F7CAA5"/>
<path d="M184.849 53.8037L184.932 53.9355L130.532 120.366L155.684 53.9111H184.673L184.849 53.8037Z" fill="#F4B844"/>
<path d="M156.025 53.0029L166.86 24.3799L184.849 53.8037L184.673 53.9111H155.684L156.025 53.0029Z" fill="#FEDB41"/>
<path d="M166.86 24.375V24.3799L156.025 53.0029L130.21 24.3799V24.375H166.86Z" fill="#F4B844"/>
<path d="M130.21 24.3799L156.025 53.0029L155.684 53.9111H104.849L104.556 53.1396L130.21 24.3799Z" fill="#FEDB41"/>
<path d="M155.684 53.9111L130.532 120.366L130.371 120.562L130.21 120.361L104.849 53.9111H155.684Z" fill="#FEDB41"/>
<path d="M130.21 24.375V24.3799L104.556 53.1397L93.5791 24.375H130.21Z" fill="#F4B844"/>
<path d="M130.21 120.361L75.4883 53.9355L75.5859 53.7744L75.8105 53.9111H104.849L130.21 120.361Z" fill="#F4B844"/>
<path d="M104.556 53.1397L104.849 53.9111H75.8105L75.5859 53.7744L93.5596 24.375H93.5791L104.556 53.1397Z" fill="#FEDB41"/>
<path d="M61.4844 213.867L62.5342 219.868L29.6387 225.625L17.0117 153.433L49.9072 147.681L52.4023 161.953L61.4844 213.867Z" fill="#00EFD1"/>
<path d="M26.272 226.214C26.4282 227.107 26.9326 227.901 27.6743 228.422C28.416 228.943 29.3342 229.148 30.227 228.992L63.1225 223.235C64.0153 223.079 64.8095 222.574 65.3304 221.833C65.8513 221.091 66.0564 220.173 65.9004 219.28L65.1963 215.257L73.1479 208.799C76.2752 206.196 80.2919 204.911 84.3491 205.216L137.992 209.138C138.068 209.143 138.144 209.146 138.22 209.147C138.332 209.147 138.44 209.147 138.551 209.147C150.257 209.122 161.655 205.39 171.109 198.486C171.239 198.39 171.363 198.285 171.478 198.172L235.38 135.605C236.002 134.995 236.368 134.171 236.404 133.301C236.439 132.43 236.14 131.579 235.569 130.921C232.123 126.941 227.276 124.441 222.034 123.942C216.793 123.444 211.561 124.984 207.426 128.243L177.608 150.542C174.693 146.839 170.831 143.994 166.432 142.306C162.032 140.619 157.258 140.153 152.615 140.958L122.613 146.202C117.743 147.048 112.745 146.788 107.989 145.442L104.632 144.484C96.0624 142.023 87.0161 141.729 78.3047 143.626C69.5933 145.524 61.4893 149.555 54.7197 155.357L53.2739 147.09C53.1178 146.198 52.6134 145.403 51.8717 144.882C51.13 144.361 50.2117 144.156 49.3188 144.312L16.4233 150.064C15.5304 150.22 14.7361 150.724 14.2151 151.466C13.6941 152.207 13.489 153.126 13.645 154.019L26.272 226.214ZM102.759 151.061L106.116 152.018C111.864 153.645 117.905 153.959 123.791 152.937L153.793 147.693C157.694 147.017 161.709 147.559 165.292 149.245C168.874 150.931 171.851 153.68 173.816 157.117C174.342 158.041 174.789 159.007 175.154 160.006L129.504 167.988C128.659 168.132 127.899 168.589 127.375 169.268C126.85 169.946 126.6 170.797 126.674 171.651C126.748 172.505 127.14 173.301 127.773 173.879C128.405 174.458 129.232 174.778 130.09 174.775C130.288 174.776 130.487 174.759 130.683 174.726L179.999 166.103C180.441 166.026 180.864 165.862 181.243 165.621C181.622 165.38 181.95 165.067 182.208 164.7C182.465 164.332 182.648 163.917 182.746 163.479C182.844 163.041 182.854 162.588 182.776 162.146C182.435 160.198 181.873 158.295 181.102 156.474L211.555 133.701L211.626 133.646C213.946 131.807 216.8 130.773 219.759 130.7C222.717 130.626 225.619 131.516 228.027 133.237L166.873 193.036C158.622 198.969 148.714 202.157 138.552 202.149H138.374L84.8481 198.317C79.0361 197.892 73.2861 199.74 68.811 203.473L63.8476 207.526L56.1245 163.385C62.0623 157.314 69.5322 152.963 77.7424 150.793C85.9525 148.624 94.5968 148.716 102.759 151.061ZM47.1294 151.636L58.1157 214.456L58.5771 217.09L32.417 221.669L20.9673 156.211L47.1294 151.636ZM127.547 122.504L127.708 122.727C128.025 123.126 128.426 123.449 128.883 123.674C129.34 123.898 129.842 124.018 130.351 124.024H130.371C130.877 124.019 131.375 123.904 131.831 123.685C132.286 123.466 132.688 123.15 133.008 122.758L133.169 122.551C133.169 122.548 133.174 122.54 133.176 122.537L187.576 56.1036C188.03 55.5488 188.299 54.8653 188.343 54.1497C188.388 53.4342 188.206 52.7227 187.825 52.1158L169.852 22.7403C169.555 22.2083 169.121 21.7657 168.595 21.4589C168.068 21.152 167.469 20.9922 166.86 20.9962H93.5595C92.9757 20.9924 92.4007 21.1391 91.8899 21.4221C91.3792 21.7051 90.9499 22.1148 90.6435 22.6119L72.6631 52.0118L72.5654 52.168C72.198 52.7737 72.028 53.4786 72.079 54.1851C72.13 54.8917 72.3994 55.5648 72.8501 56.1114L127.547 122.504ZM150.735 57.129L130.358 110.97L109.814 57.129H150.735ZM111.495 50.293L130.225 29.2969L149.161 50.293H111.495ZM158.045 57.129H177.734L141.123 101.838L158.045 57.129ZM160.633 50.293L167.586 31.9195L178.819 50.293H160.633ZM154.814 46.5924L137.891 27.8321H161.914L154.814 46.5924ZM105.746 46.71L98.542 27.8321H122.585L105.746 46.71ZM92.8589 31.8736L99.8882 50.293H81.5981L92.8589 31.8736ZM102.497 57.129L119.573 101.873L82.7148 57.129H102.497Z" fill="#083863"/>
</svg>
