<svg width="90" height="90" viewBox="0 0 90 90" fill="none" xmlns="http://www.w3.org/2000/svg">
<rect width="90" height="90" rx="20" fill="white"/>
<path d="M58.1202 52.8766L66.1514 46.8709C66.9974 46.2028 68.0684 45.8863 69.1417 45.9872C70.215 46.088 71.2082 46.5985 71.915 47.4126L56.2301 62.7703C54.0355 64.3801 51.3808 65.2403 48.6591 65.2236L35.4923 64.2612C34.2805 64.1723 33.0813 64.5559 32.1461 65.3315L29.8186 67.2216L27.5894 54.479L27.6948 54.461C29.2569 52.7927 31.2485 51.5869 33.4509 50.9761C35.6533 50.3653 37.9814 50.3731 40.1797 50.9985L41.0031 51.2335C42.2922 51.6003 43.6475 51.6708 44.9677 51.4396L52.3314 50.1524C53.4593 49.9551 54.6207 50.111 55.6568 50.5985C56.6929 51.0861 57.5532 51.8817 58.1202 52.8766Z" fill="#F7CAA5"/>
<path d="M60.0988 27.9336L60.1192 27.966L46.7666 44.2717L52.9401 27.96H60.0557L60.0988 27.9336Z" fill="#F4B844"/>
<path d="M53.0243 27.7366L55.6838 20.7109L60.0991 27.9332L60.056 27.9595H52.9404L53.0243 27.7366Z" fill="#FEDB41"/>
<path d="M55.6835 20.709V20.7102L53.024 27.7358L46.6875 20.7102V20.709H55.6835Z" fill="#F4B844"/>
<path d="M46.6876 20.7109L53.0241 27.7366L52.9402 27.9595H40.4625L40.3906 27.7702L46.6876 20.7109Z" fill="#FEDB41"/>
<path d="M52.9401 27.959L46.7666 44.2707L46.727 44.3186L46.6875 44.2695L40.4624 27.959H52.9401Z" fill="#FEDB41"/>
<path d="M46.6875 20.709V20.7102L40.3905 27.7694L37.6963 20.709H46.6875Z" fill="#F4B844"/>
<path d="M46.6875 44.2698L33.2559 27.9653L33.2798 27.9258L33.335 27.9593H40.4625L46.6875 44.2698Z" fill="#F4B844"/>
<path d="M40.3905 27.7694L40.4624 27.9588H33.3349L33.2798 27.9252L37.6915 20.709H37.6963L40.3905 27.7694Z" fill="#FEDB41"/>
<path d="M29.8188 67.2204L30.0765 68.6934L22.0022 70.1064L18.9028 52.3865L26.9772 50.9746L27.5896 54.4778L29.8188 67.2204Z" fill="#00EFD1"/>
<path d="M21.1758 70.2525C21.2142 70.4716 21.338 70.6666 21.52 70.7944C21.7021 70.9223 21.9275 70.9726 22.1466 70.9343L30.221 69.5213C30.4401 69.483 30.635 69.3591 30.7629 69.1771C30.8908 68.995 30.9411 68.7697 30.9028 68.5505L30.73 67.5631L32.6817 65.9779C33.4493 65.3391 34.4353 65.0237 35.4311 65.0986L48.5979 66.0611C48.6168 66.0624 48.6353 66.0631 48.654 66.0632C48.6814 66.0632 48.708 66.0632 48.7353 66.0632C51.6086 66.0571 54.4062 65.1411 56.7267 63.4467C56.7587 63.4231 56.789 63.3973 56.8174 63.3696L72.5023 48.012C72.6551 47.8624 72.745 47.6602 72.7536 47.4465C72.7623 47.2329 72.689 47.024 72.5488 46.8625C71.703 45.8855 70.5131 45.2719 69.2266 45.1495C67.9401 45.0271 66.6559 45.4052 65.641 46.2052L58.3219 51.6784C57.6065 50.7696 56.6586 50.0712 55.5787 49.657C54.4987 49.2429 53.3269 49.1285 52.1872 49.326L44.8232 50.6131C43.6278 50.8208 42.401 50.757 41.2336 50.4267L40.4096 50.1915C38.3062 49.5875 36.0858 49.5152 33.9475 49.981C31.8093 50.4468 29.8201 51.4361 28.1585 52.8602L27.8036 50.8313C27.7653 50.6121 27.6415 50.4172 27.4594 50.2893C27.2774 50.1614 27.052 50.111 26.8328 50.1493L18.7584 51.5611C18.5393 51.5994 18.3443 51.7232 18.2164 51.9052C18.0885 52.0873 18.0382 52.3127 18.0765 52.5318L21.1758 70.2525ZM39.9499 51.8058L40.7738 52.0408C42.1849 52.4401 43.6676 52.5172 45.1124 52.2664L52.4764 50.9792C53.434 50.8132 54.4195 50.9462 55.2989 51.3601C56.1782 51.774 56.9087 52.4486 57.3912 53.2923C57.5202 53.5191 57.6301 53.7563 57.7197 54.0015L46.5146 55.9607C46.3071 55.9961 46.1206 56.1082 45.9919 56.2748C45.8633 56.4413 45.8019 56.6501 45.82 56.8598C45.8381 57.0695 45.9344 57.2647 46.0896 57.4067C46.2449 57.5487 46.4479 57.6272 46.6584 57.6266C46.7071 57.6268 46.7558 57.6228 46.8039 57.6146L58.9088 55.498C59.0174 55.479 59.1211 55.4388 59.2141 55.3797C59.3072 55.3206 59.3876 55.2438 59.4509 55.1536C59.5142 55.0634 59.5592 54.9616 59.5831 54.854C59.6071 54.7464 59.6096 54.6352 59.5905 54.5266C59.5067 54.0485 59.3688 53.5815 59.1796 53.1345L66.6544 47.5447L66.6719 47.5312C67.2412 47.08 67.9418 46.8262 68.668 46.8081C69.3942 46.79 70.1065 47.0086 70.6976 47.4309L55.6869 62.1088C53.6617 63.565 51.2299 64.3475 48.7355 64.3455H48.6919L35.5536 63.4051C34.127 63.3007 32.7157 63.7545 31.6172 64.6707L30.3989 65.6655L28.5033 54.8309C29.9607 53.3408 31.7943 52.2728 33.8095 51.7402C35.8247 51.2076 37.9465 51.2303 39.9499 51.8058ZM26.2954 51.9471L28.992 67.3665L29.1053 68.0131L22.6841 69.1369L19.8738 53.0699L26.2954 51.9471ZM46.0343 44.7966L46.0739 44.8511C46.1515 44.9491 46.25 45.0285 46.3622 45.0836C46.4744 45.1387 46.5975 45.168 46.7225 45.1694H46.7274C46.8515 45.1684 46.9738 45.14 47.0857 45.0863C47.1976 45.0326 47.2962 44.9549 47.3746 44.8588L47.4142 44.8081C47.4142 44.8073 47.4154 44.8053 47.416 44.8046L60.7687 28.4982C60.8801 28.362 60.946 28.1942 60.9569 28.0186C60.9679 27.8429 60.9234 27.6683 60.8297 27.5193L56.4181 20.309C56.3453 20.1784 56.2387 20.0698 56.1096 19.9944C55.9804 19.9191 55.8334 19.8799 55.6839 19.8809H37.6919C37.5486 19.88 37.4074 19.916 37.2821 19.9854C37.1567 20.0549 37.0513 20.1555 36.9761 20.2775L32.5627 27.4938L32.5388 27.5322C32.4486 27.6808 32.4068 27.8538 32.4194 28.0273C32.4319 28.2007 32.498 28.3659 32.6086 28.5001L46.0343 44.7966ZM51.7259 28.7498L46.7243 41.9653L41.6817 28.7498H51.7259ZM42.0942 27.0719L46.6915 21.9183L51.3394 27.0719H42.0942ZM53.5201 28.7498H58.353L49.3665 39.7239L53.5201 28.7498ZM54.1553 27.0719L55.8621 22.5621L58.6193 27.0719H54.1553ZM52.7272 26.1636L48.5731 21.5588H54.4698L52.7272 26.1636ZM40.6831 26.1925L38.9148 21.5588H44.8164L40.6831 26.1925ZM37.5199 22.5508L39.2453 27.0719H34.7559L37.5199 22.5508ZM39.8856 28.7498L44.0769 39.7324L35.03 28.7498H39.8856Z" fill="#083863"/>
</svg>
