<svg width="70" height="70" viewBox="0 0 70 70" fill="none" xmlns="http://www.w3.org/2000/svg">
<g clip-path="url(#clip0_1570_15862)">
<path fill-rule="evenodd" clip-rule="evenodd" d="M0 0H70V70H0V0Z" fill="white"/>
<path fill-rule="evenodd" clip-rule="evenodd" d="M56.7783 35.0302C56.7783 38.0858 56.1799 40.9612 54.9513 43.7771C53.783 46.4739 52.195 48.8696 50.0382 50.9069C47.9119 52.9438 45.4556 54.5914 42.6992 55.7597C39.8536 56.8982 36.8576 57.4974 33.7123 57.4974C30.5666 57.4974 27.571 56.8982 24.7253 55.7597C21.9995 54.5914 19.5428 52.9438 17.386 50.9069C15.2594 48.87 13.6114 46.4739 12.4431 43.7771C11.2149 40.9612 10.6157 38.0858 10.6157 35.0302C10.6157 31.9742 11.2149 29.0385 12.4431 26.2528C13.603 23.5639 15.2828 21.1308 17.386 19.0932C19.5428 17.0563 21.9995 15.4086 24.7253 14.2702C27.571 13.1019 30.5666 12.5027 33.7123 12.5027C36.8576 12.5027 39.8536 13.1019 42.6992 14.2702C45.4556 15.4086 47.9119 17.0559 50.0382 19.0932C52.195 21.1603 53.783 23.5567 54.9513 26.2528C56.1795 29.0385 56.7783 31.9742 56.7783 35.0302Z" fill="#BA4B3F"/>
<path fill-rule="evenodd" clip-rule="evenodd" d="M66.9637 36.1686L1.02917 51.3564L2.82678 33.2925L68.9708 18.3142L66.9637 36.1686Z" fill="#54566B"/>
<path fill-rule="evenodd" clip-rule="evenodd" d="M5.16333 34.8804C8.09906 34.6404 10.1661 34.1912 11.3043 33.592L11.4542 33.4721C12.892 33.1725 13.611 33.8916 13.5511 35.5392C13.761 38.1154 12.8622 40.0623 10.855 41.4107L8.36852 42.1293L7.94908 45.9043C8.009 46.6234 8.51814 46.8031 9.35703 46.5035L9.26696 47.6718C6.87051 47.7619 5.07327 48.2107 3.81494 49.05L3.905 47.7016C4.47406 47.6718 4.80381 47.3123 4.95343 46.6531C5.70225 40.6321 6.06177 37.2765 6.00185 36.5281C5.97207 35.8686 5.97207 35.7792 5.97207 36.2884C5.91215 36.0189 5.61255 35.9884 5.07327 36.1685L5.16333 34.8804ZM8.99787 35.2392L8.45858 40.9611C10.1062 40.4824 10.7653 38.7745 10.4058 35.9289C10.4657 35.1201 9.95659 34.8804 8.99787 35.2392ZM14.4499 32.6932C17.4455 32.4237 20.0515 31.7944 22.2388 30.836L21.8793 34.8804L20.5908 35.0301L20.6507 33.3225C20.8007 32.5737 19.9321 32.5737 18.1047 33.2325L17.6554 37.7857C18.4943 38.1154 18.9435 37.4269 19.0932 35.6892L20.082 35.4793C19.9023 36.7674 19.7523 38.415 19.6924 40.4824L18.4943 40.7214V39.2241C18.2844 38.7745 17.9852 38.715 17.5356 39.0745L16.9364 44.5262C18.4043 44.5262 19.3328 44.017 19.7523 43.0587L19.992 40.9614L21.2503 40.5721C20.9808 42.7289 20.9507 44.1666 20.9808 44.8265C16.4574 45.7253 13.7613 46.3543 12.9526 46.7734L13.0125 45.6646L14.061 44.9761L15.2594 34.3415C15.2895 33.8923 14.9895 33.7725 14.2407 33.982L14.4499 32.6932ZM30.7163 32.6336L32.0643 32.3939C32.1242 30.4467 32.2143 29.3384 32.3639 29.0987C30.3266 28.6495 28.3198 28.9788 26.3722 30.0872C23.8861 31.2257 22.4781 33.742 22.2384 37.5765C21.4896 41.0214 22.0885 43.0587 24.0956 43.7174C25.8329 44.3166 28.1695 43.7174 31.0754 41.9202L31.285 38.2654L30.027 38.5654C30.0869 40.4222 29.5778 41.5606 28.4691 42.0102C26.7317 43.0587 25.6833 42.5186 25.3238 40.3321C25.144 35.8686 25.6234 33.0233 26.8817 31.6749C28.0198 30.1471 29.1885 29.7277 30.4167 30.5963C30.7762 30.6265 30.9258 31.1955 30.7762 32.2439L30.7163 32.6336Z" fill="white"/>
<path fill-rule="evenodd" clip-rule="evenodd" d="M31.615 32.7234L36.0785 34.5806L31.2253 37.8758L31.615 32.7234Z" fill="#BA4B3F"/>
<path fill-rule="evenodd" clip-rule="evenodd" d="M35.2698 31.6449L34.0714 31.8846C34.2813 29.6377 34.3111 28.3798 34.2813 28.1397C38.2059 27.6008 41.4707 26.8818 44.0476 26.1326L43.6576 29.9969L42.3099 30.2366C42.6992 28.6786 42.5191 27.9 41.7107 27.7802L40.6623 28.05L39.6139 38.3251C39.6734 39.5834 40.1528 39.9727 41.2012 39.4331L41.1111 40.6318C37.5769 40.9608 35.4198 41.4108 34.671 42.0696L34.7309 40.7212C35.7797 40.7212 36.3186 40.2723 36.4682 39.4331L37.4571 28.8885C36.6178 28.5889 36.0194 28.9786 35.6301 30.027L35.4202 31.435L35.2698 31.6449Z" fill="white"/>
<path fill-rule="evenodd" clip-rule="evenodd" d="M44.856 31.0457C44.1072 31.3453 43.7473 32.3937 43.7473 34.2211L45.8445 33.8318L45.9637 32.1243C45.9942 30.9862 45.6049 30.6263 44.856 31.0457ZM40.9612 36.5878C41.0215 33.6822 41.5604 31.9743 42.5493 31.4953C43.4176 30.327 44.856 29.8778 46.893 30.0274C48.4505 30.2969 48.9597 31.735 48.3605 34.3711L43.7473 35.3295L43.5679 37.7263C43.5077 38.535 44.0473 38.7152 45.0957 38.385C45.7545 38.2354 46.1441 37.3366 46.2938 35.7791L48.091 35.4791C48.091 36.468 47.9414 37.0672 47.6116 37.3366C47.0132 38.7743 45.5152 39.5838 43.1184 39.7334C41.3207 39.5838 40.6017 38.5347 40.9612 36.5878ZM54.4418 31.585L55.7902 31.2255C55.8498 29.6977 55.9398 28.7989 56.0895 28.5294L56.149 28.4996C54.0823 27.9306 52.4343 28.2298 51.087 29.3985C49.8585 30.1473 49.1997 32.0346 49.1997 35.0898C48.8998 36.9175 49.499 37.8759 51.0565 37.9362C52.7041 37.9362 54.1426 37.427 55.2811 36.468L55.3406 33.8318L54.0525 34.1914C54.1426 35.4791 53.8426 36.2886 53.1835 36.5878C52.1053 37.2168 51.5962 36.7672 51.6855 35.2699C51.8358 32.0941 52.1946 30.2969 52.7942 29.8477C53.0339 29.2786 53.4827 29.0989 54.2319 29.3385C54.4418 29.4882 54.5319 29.9374 54.5014 30.7465L54.4418 31.585ZM56.149 28.4996C56.2986 28.2897 56.3291 28.2897 56.2391 28.5294L56.149 28.4996ZM64.4776 29.3385L64.1181 33.3227C63.8784 34.0715 64.1181 34.3413 64.8669 34.1314L64.8364 35.1799C62.4403 35.5394 60.9721 35.8386 60.5225 36.1389L60.5828 34.97C61.2415 35.0898 61.5716 34.6707 61.5418 33.8318L61.8709 28.829C61.9312 27.7806 61.4816 27.6306 60.5225 28.4397C60.1935 28.3497 59.924 29.3985 59.8339 31.5251L59.5347 34.5807C59.4744 35.0302 59.7439 35.1799 60.2835 35.0898L60.2232 36.1687C58.3359 36.2283 56.928 36.5878 56.0292 37.2171L56.0895 35.839C56.5383 36.0787 56.8383 35.839 56.9883 34.97L58.1268 24.6052C58.1863 24.156 58.0367 24.006 57.6474 24.156L57.2879 24.096L57.3482 22.9877C58.7859 22.9576 59.9244 22.6583 60.793 22.2087L60.0442 28.0504C60.9728 26.8822 62.1712 26.4326 63.5189 26.7322C64.4173 26.5822 64.7165 27.4512 64.4776 29.3385Z" fill="white"/>
</g>
<defs>
<clipPath id="clip0_1570_15862">
<rect width="70" height="70" fill="white"/>
</clipPath>
</defs>
</svg>
