<svg width="60" height="60" viewBox="0 0 60 60" fill="none" xmlns="http://www.w3.org/2000/svg">
<g clip-path="url(#clip0_1570_15893)">
<path fill-rule="evenodd" clip-rule="evenodd" d="M0 0H60V60H0V0Z" fill="white"/>
<path fill-rule="evenodd" clip-rule="evenodd" d="M22.2142 20.0505H2.37575C1.55305 20.0505 0.882568 20.7363 0.882568 21.559V38.3958C0.882568 39.2185 1.55305 39.9042 2.37575 39.9042H22.2142C23.0369 39.9042 23.7074 39.2185 23.7074 38.3958V21.559C23.7074 20.7363 23.0369 20.0505 22.2142 20.0505ZM24.4691 39.9497H24.5908V39.188H24.8653V39.0815H24.1948V39.188H24.4691V39.9497ZM24.987 39.9497H25.1243V39.2029L25.4138 39.9497H25.5358L25.825 39.2029V39.9497H25.947V39.0815H25.749L25.4748 39.8127L25.2003 39.0815H24.987V39.9497Z" fill="black"/>
<path fill-rule="evenodd" clip-rule="evenodd" d="M5.84937 29.7411H7.41881L7.78456 28.4307C7.96728 27.7602 8.28727 27.5317 8.95775 27.5317C9.15572 27.5317 9.36894 27.5622 9.56723 27.6229L9.85671 26.5565C9.71975 26.5107 9.56723 26.4955 9.30825 26.4955C8.89674 26.4955 8.37878 26.7392 8.10424 27.0745H8.08898L8.22626 26.587H6.70257L5.84937 29.7411ZM11.2739 27.806C11.3957 27.4707 11.6699 27.2727 12.0966 27.2727C12.4929 27.2727 12.6909 27.471 12.6909 27.6995C12.6909 27.73 12.6756 27.7758 12.6756 27.806H11.2739ZM12.4014 28.8269C12.3251 28.9337 12.1271 29.0554 11.7767 29.0554C11.2892 29.0554 11.1367 28.7659 11.1367 28.4307H14.0776C14.1539 28.248 14.1539 28.0497 14.1539 27.8822C14.1539 26.8917 13.0569 26.4955 12.1427 26.4955C11.1217 26.4955 9.6743 26.9829 9.6743 28.4304C9.6743 29.1924 10.2533 29.832 11.7163 29.832C13.4989 29.832 13.8037 29.0398 13.9104 28.8266L12.4014 28.8269ZM15.8905 28.8422C15.8905 28.6137 16.1494 28.5069 16.4084 28.4917C16.6826 28.4612 16.9874 28.4462 17.2314 28.3395C17.1399 28.812 16.9267 29.1167 16.3935 29.1167C16.1494 29.1164 15.8905 29.0554 15.8905 28.8422ZM16.3477 27.5317C16.4389 27.3032 16.6525 27.2117 16.9724 27.2117C17.2162 27.2117 17.4752 27.2724 17.4752 27.486C17.4752 27.8822 16.7589 27.8365 16.3172 27.8517C15.1288 27.928 14.3213 28.1412 14.3213 28.9791C14.3213 29.5886 14.946 29.8323 15.662 29.8323C16.1192 29.8323 16.6525 29.6954 16.9267 29.4364H16.9419C16.9419 29.5432 16.9572 29.6499 17.0029 29.7411H18.5419C18.4809 29.6042 18.5114 29.7106 18.4809 29.4669C18.4809 29.2537 18.9683 27.8368 18.9683 27.349C18.9683 26.5717 17.7189 26.4958 16.9724 26.4958C15.967 26.4958 15.1135 26.6938 14.8698 27.532L16.3477 27.5317ZM19.1056 29.7411H20.6747L21.8635 25.3833H20.2788L19.1056 29.7411Z" fill="white"/>
<path fill-rule="evenodd" clip-rule="evenodd" d="M21.239 36.7196H13.468L22.1684 31.8743L21.9247 36.0802C21.9094 36.4301 21.6047 36.7196 21.239 36.7196ZM15.2202 33.6725C15.1134 33.886 13.5443 36.5518 13.4527 36.7196H3.35096C2.98521 36.7196 2.68047 36.4301 2.66522 36.0799L1.82727 21.7264C1.79676 21.3759 2.071 21.0864 2.43674 21.0864H22.1532C22.5189 21.0864 22.7779 21.3759 22.7626 21.7264L22.6254 24.1186C20.6295 23.1131 17.8258 22.4881 14.7327 22.4881C8.65321 22.4881 3.71639 24.9107 3.71639 27.8971C3.71639 30.8682 8.65321 33.2149 14.7327 33.2149L14.9154 33.1997C15.2357 33.2457 15.2964 33.5047 15.2202 33.6725ZM50.1433 30.1828L47.5376 30.7926C44.3228 31.5543 41.1686 33.7942 40.8337 39.4622L58.7217 39.4774V35.8819H46.3034C46.8827 34.8914 47.3552 34.5104 48.6196 34.221L53.5259 33.185C55.1408 32.9715 57.6702 32.0573 58.6152 30.1828H50.1433ZM59.1179 28.5221C59.1027 28.2324 59.1027 28.2324 59.0874 28.0496C58.9044 23.8138 54.1503 23.2196 50.5084 23.1738C47.0041 23.1281 42.0676 23.2959 41.4886 28.5221H47.2173C47.4763 26.5564 49.1979 26.5259 51.2243 26.6175C52.1843 26.6629 53.2514 26.9985 53.4185 27.9432C53.4646 28.1564 53.4951 28.3544 53.4033 28.5221H59.1179Z" fill="#467BBD"/>
<path fill-rule="evenodd" clip-rule="evenodd" d="M31.1275 30.1674C31.0668 30.5029 31.0363 30.9138 31.0363 31.3256C31.0363 34.2662 32.4688 35.8354 35.3176 35.8354C37.1918 35.8354 38.1216 35.0279 38.5324 33.8242H36.1711V30.1674H44.3993V31.6453C42.3421 32.8643 40.7577 34.9825 40.4069 38.5783C39.0513 39.5078 37.2528 39.8427 34.5559 39.8427C30.5336 39.8427 25.0483 38.7455 25.0483 31.386C25.0483 30.9751 25.0636 30.5484 25.1093 30.1671L31.1275 30.1674ZM37.9233 28.5372C37.725 27.8515 37.2982 27.4555 36.8266 27.1966C36.2776 26.9068 35.623 26.8156 34.8606 26.8156C33.3986 26.8156 32.2251 27.364 31.5851 28.5372H25.429C26.6175 23.9204 30.8078 22.793 34.5406 22.793C38.3653 22.793 40.971 23.4482 42.5706 24.8807C41.7784 25.7034 41.1534 26.9071 40.971 28.5375L37.9233 28.5372Z" fill="#467BBD"/>
</g>
<defs>
<clipPath id="clip0_1570_15893">
<rect width="60" height="60" fill="white"/>
</clipPath>
</defs>
</svg>
