<svg width="80" height="65" viewBox="0 0 80 65" fill="none" xmlns="http://www.w3.org/2000/svg">
<rect width="80" height="65" fill="black"/>
<path fill-rule="evenodd" clip-rule="evenodd" d="M47.6729 45.2937V51.3648L46.0258 53V45.2941H35.4205V41.8292C34.1645 41.9124 33.0763 41.5243 32.1273 40.7758C31.0387 39.9167 30.3968 38.5861 30.3409 37.0614C30.2293 34.5665 32.1828 32.1827 34.7227 31.6834C35.8112 31.4893 36.844 31.7111 37.5972 32.321C38.295 32.8477 38.6858 33.7071 38.7137 34.6493C38.7974 35.9522 37.9601 37.4214 36.3416 37.9759L35.3926 36.5898C36.509 36.3403 37.1227 35.4258 37.0948 34.7051C37.0669 34.2338 36.8715 33.846 36.5645 33.5962C36.2016 33.2635 35.6438 33.1807 35.0573 33.2913C33.2713 33.6239 31.9036 35.2872 31.9595 37.006C32.0153 38.0317 32.4615 38.9188 33.1597 39.5006C33.9412 40.1104 34.9739 40.3322 36.0342 40.1382C38.937 39.5837 41.1978 36.8116 41.1978 33.8183C41.1978 31.7115 40.3601 29.965 38.937 29.0228C37.346 28.0248 35.2809 28.0248 32.9922 28.9951L32.8526 29.0505V27.3041L32.9364 27.2763C33.7734 26.9714 34.611 26.7496 35.4201 26.6665V16.049C31.9598 18.3777 29.2803 22.2861 27.8289 27.0816C27.5219 28.135 27.187 29.2162 26.9916 30.297C26.7962 29.2158 26.4613 28.1347 26.1546 27.0816C24.7311 22.3415 22.052 18.4331 18.6189 16.1045V51.17L17 52.8056V13.0277C21.1309 14.996 24.8707 19.2925 26.9916 24.781C29.1128 19.2648 32.8805 14.9405 37.0669 13V26.6661C38.0717 26.8047 38.9928 27.1374 39.8022 27.6637C41.756 28.8835 42.8442 31.1567 42.8442 33.8176V41.3299L41.1978 41.9397V38.6408C40.1368 40.0543 38.7695 41.1077 37.1227 41.5513V43.6581H46.0537V32.9582C46.0537 27.9132 43.4021 23.3672 39.3274 21.3713L39.9693 19.8743C43.1516 21.399 45.6633 24.448 46.8631 28.2736C48.0912 24.448 50.575 21.399 53.7565 19.8743L54.3985 21.3713C50.3241 23.3672 47.6729 27.9132 47.6729 32.9582V43.6585H61.5434L55.9898 30.1864L52.0267 39.6943H56.5201L55.906 41.3572H49.5709L55.9898 25.8896L64 45.2934L47.6729 45.2937Z" fill="white"/>
</svg>
