<svg width="90" height="90" viewBox="0 0 90 90" fill="none" xmlns="http://www.w3.org/2000/svg">
<rect width="90" height="90" rx="20" fill="white"/>
<path d="M55.3125 42.7875C55.3125 52.7531 49.5844 51.6469 49.5844 57.1875H40.4156C40.4156 51.6469 34.6875 52.7531 34.6875 42.7875C34.6875 32.8219 45 32.8125 45 32.8125C45 32.8125 55.3125 32.8125 55.3125 42.7875Z" fill="#FFB600"/>
<path d="M40.3125 57.1875H49.6875V60H40.3125V57.1875Z" fill="#9E6828"/>
<path d="M40.3125 60H49.6875V62.8125H40.3125V60Z" fill="#FFB600"/>
<path d="M46.8746 65.6256H43.1246L40.3121 62.8131H49.6871L46.8746 65.6256ZM43.4621 49.6881H43.3121C43.1469 49.661 42.992 49.5903 42.8634 49.4831C42.7348 49.3759 42.6372 49.2363 42.5809 49.0787L41.1371 45.1131L40.134 46.5006L38.6152 45.3943L40.659 42.5818C40.7594 42.4443 40.8954 42.3368 41.0523 42.2707C41.2092 42.2047 41.3811 42.1826 41.5496 42.2068C41.7182 42.2307 41.877 42.3001 42.0092 42.4074C42.1413 42.5148 42.2417 42.6561 42.2996 42.8162L43.7809 46.8756L45.8059 44.4006C45.8869 44.3 45.9879 44.2173 46.1024 44.1576C46.217 44.0979 46.3426 44.0625 46.4715 44.0537C46.5976 44.0455 46.724 44.0628 46.8433 44.1047C46.9625 44.1466 47.072 44.2122 47.1652 44.2975L48.7496 45.76L50.2309 45.085L51.0184 46.7912L48.9746 47.7287C48.8063 47.8073 48.6184 47.8341 48.4348 47.8058C48.2512 47.7774 48.0801 47.6951 47.9434 47.5693L46.6309 46.36L44.1934 49.3412C44.1051 49.45 43.9936 49.5376 43.8671 49.5976C43.7406 49.6576 43.6022 49.6886 43.4621 49.6881ZM44.0621 51.5631H45.9371V57.1881H44.0621V51.5631Z" fill="#9E6828"/>
<path d="M24.375 42.1875H29.0625V44.0625H24.375V42.1875ZM60.9375 42.1875H65.625V44.0625H60.9375V42.1875ZM29.3391 57.4594L32.6541 54.1453L33.9797 55.4709L30.6647 58.7859L29.3391 57.4594ZM56.0213 30.78L59.3353 27.4659L60.6609 28.7916L57.3469 32.1056L56.0213 30.78ZM29.3362 28.7859L30.6619 27.4603L33.9759 30.7744L32.6503 32.1009L29.3362 28.7859ZM56.0156 55.4766L57.3403 54.1509L60.6553 57.465L59.3297 58.7916L56.0156 55.4766ZM44.0625 22.5H45.9375V27.1875H44.0625V22.5Z" fill="#F9D178"/>
</svg>
