<svg xmlns="http://www.w3.org/2000/svg" enable-background="new 0 0 512 512" viewBox="0 0 512 512"><path fill="none" d="M401.7,91.9c-13.3,0-24.1,10.8-24.1,24.1c0,13.3,10.8,24.1,24.1,24.1c13.3,0,24.1-10.8,24.1-24.1
		C425.8,102.7,415,91.9,401.7,91.9z"/><circle cx="256" cy="256" r="113" fill="none"/><path fill="#020202" d="M399.5,19.5h-287C59.2,19.5,16,62.7,16,116v280c0,53.3,43.2,96.5,96.5,96.5h287c53.3,0,96.5-43.2,96.5-96.5
		V116C496,62.7,452.8,19.5,399.5,19.5z M256,369c-62.4,0-113-50.6-113-113s50.6-113,113-113s113,50.6,113,113S318.4,369,256,369z
		 M401.7,140.1c-13.3,0-24.1-10.8-24.1-24.1c0-13.3,10.8-24.1,24.1-24.1c13.3,0,24.1,10.8,24.1,24.1
		C425.8,129.3,415,140.1,401.7,140.1z"/></svg>