<svg width="20" height="21" viewBox="0 0 20 21" fill="none" xmlns="http://www.w3.org/2000/svg">
<path d="M13.3333 6.95117C14.6593 6.95117 15.9311 7.47796 16.8688 8.41564C17.8065 9.35332 18.3333 10.6251 18.3333 11.9512V17.7845H14.9999V11.9512C14.9999 11.5091 14.8243 11.0852 14.5118 10.7727C14.1992 10.4601 13.7753 10.2845 13.3333 10.2845C12.8912 10.2845 12.4673 10.4601 12.1547 10.7727C11.8422 11.0852 11.6666 11.5091 11.6666 11.9512V17.7845H8.33325V11.9512C8.33325 10.6251 8.86004 9.35332 9.79772 8.41564C10.7354 7.47796 12.0072 6.95117 13.3333 6.95117Z" stroke="#001476" stroke-width="1.5" stroke-linecap="round" stroke-linejoin="round"/>
<path d="M5.00008 7.78418H1.66675V17.7842H5.00008V7.78418Z" stroke="#001476" stroke-width="1.5" stroke-linecap="round" stroke-linejoin="round"/>
<path d="M3.33341 5.28451C4.25389 5.28451 5.00008 4.53831 5.00008 3.61784C5.00008 2.69736 4.25389 1.95117 3.33341 1.95117C2.41294 1.95117 1.66675 2.69736 1.66675 3.61784C1.66675 4.53831 2.41294 5.28451 3.33341 5.28451Z" stroke="#001476" stroke-width="1.5" stroke-linecap="round" stroke-linejoin="round"/>
</svg>
