<svg width="29" height="29" viewBox="0 0 29 29" fill="none" xmlns="http://www.w3.org/2000/svg">
<g clip-path="url(#clip0_613_3553)">
<path d="M12.9636 9.42816L14.7313 7.66039C15.1182 7.27348 15.5776 6.96656 16.0831 6.75717C16.5886 6.54777 17.1304 6.44 17.6776 6.44C18.2248 6.44 18.7666 6.54777 19.2721 6.75717C19.7777 6.96656 20.237 7.27348 20.6239 7.66039C21.0108 8.0473 21.3177 8.50663 21.5271 9.01215C21.7365 9.51767 21.8443 10.0595 21.8443 10.6067C21.8443 11.1538 21.7365 11.6957 21.5271 12.2012C21.3177 12.7067 21.0108 13.166 20.6239 13.5529L18.8561 15.3207M15.3206 18.8562L13.5528 20.624C13.1659 21.0109 12.7066 21.3178 12.2011 21.5272C11.6955 21.7366 11.1537 21.8444 10.6065 21.8444C9.50148 21.8444 8.44167 21.4054 7.66027 20.624C6.87887 19.8426 6.43988 18.7828 6.43988 17.6777C6.43988 16.5727 6.87887 15.5129 7.66027 14.7315L9.42803 12.9637" stroke="#252525" stroke-width="1.5" stroke-linecap="round" stroke-linejoin="round"/>
<path d="M11.7852 16.5L16.4992 11.786" stroke="#252525" stroke-width="1.5" stroke-linecap="round" stroke-linejoin="round"/>
</g>
<defs>
<clipPath id="clip0_613_3553">
<rect width="20" height="20" fill="white" transform="translate(0 14.1426) rotate(-45)"/>
</clipPath>
</defs>
</svg>
