<svg width="40" height="40" viewBox="0 0 40 40" fill="none" xmlns="http://www.w3.org/2000/svg">
<path d="M33.75 12.5H6.25C5.25544 12.5 4.30161 12.8951 3.59835 13.5983C2.89509 14.3016 2.5 15.2554 2.5 16.25V28.75C2.5 29.7446 2.89509 30.6984 3.59835 31.4017C4.30161 32.1049 5.25544 32.5 6.25 32.5H33.75C34.7446 32.5 35.6984 32.1049 36.4017 31.4017C37.1049 30.6984 37.5 29.7446 37.5 28.75V16.25C37.5 15.2554 37.1049 14.3016 36.4017 13.5983C35.6984 12.8951 34.7446 12.5 33.75 12.5ZM35 28.75C35 29.0815 34.8683 29.3995 34.6339 29.6339C34.3995 29.8683 34.0815 30 33.75 30H6.25C5.91848 30 5.60054 29.8683 5.36612 29.6339C5.1317 29.3995 5 29.0815 5 28.75V16.25C5 15.9185 5.1317 15.6005 5.36612 15.3661C5.60054 15.1317 5.91848 15 6.25 15H33.75C34.0815 15 34.3995 15.1317 34.6339 15.3661C34.8683 15.6005 35 15.9185 35 16.25V28.75Z" fill="white"/>
<path d="M20 16.25C18.7639 16.25 17.5555 16.6166 16.5277 17.3033C15.4999 17.9901 14.6988 18.9662 14.2258 20.1082C13.7527 21.2503 13.6289 22.5069 13.8701 23.7193C14.1112 24.9317 14.7065 26.0453 15.5806 26.9194C16.4547 27.7935 17.5683 28.3888 18.7807 28.6299C19.9931 28.8711 21.2497 28.7473 22.3918 28.2742C23.5338 27.8012 24.5099 27.0001 25.1967 25.9723C25.8834 24.9445 26.25 23.7361 26.25 22.5C26.25 20.8424 25.5915 19.2527 24.4194 18.0806C23.2473 16.9085 21.6576 16.25 20 16.25ZM20 26.25C19.2583 26.25 18.5333 26.0301 17.9166 25.618C17.2999 25.206 16.8193 24.6203 16.5355 23.9351C16.2516 23.2498 16.1774 22.4958 16.3221 21.7684C16.4667 21.041 16.8239 20.3728 17.3483 19.8483C17.8728 19.3239 18.541 18.9667 19.2684 18.8221C19.9958 18.6774 20.7498 18.7516 21.4351 19.0355C22.1203 19.3193 22.706 19.7999 23.118 20.4166C23.5301 21.0333 23.75 21.7583 23.75 22.5C23.75 23.4946 23.3549 24.4484 22.6517 25.1517C21.9484 25.8549 20.9946 26.25 20 26.25ZM10 17.5H8.75C8.41848 17.5 8.10054 17.6317 7.86612 17.8661C7.6317 18.1005 7.5 18.4185 7.5 18.75C7.5 19.0815 7.6317 19.3995 7.86612 19.6339C8.10054 19.8683 8.41848 20 8.75 20H10C10.3315 20 10.6495 19.8683 10.8839 19.6339C11.1183 19.3995 11.25 19.0815 11.25 18.75C11.25 18.4185 11.1183 18.1005 10.8839 17.8661C10.6495 17.6317 10.3315 17.5 10 17.5ZM31.25 25H30C29.6685 25 29.3505 25.1317 29.1161 25.3661C28.8817 25.6005 28.75 25.9185 28.75 26.25C28.75 26.5815 28.8817 26.8995 29.1161 27.1339C29.3505 27.3683 29.6685 27.5 30 27.5H31.25C31.5815 27.5 31.8995 27.3683 32.1339 27.1339C32.3683 26.8995 32.5 26.5815 32.5 26.25C32.5 25.9185 32.3683 25.6005 32.1339 25.3661C31.8995 25.1317 31.5815 25 31.25 25ZM8.75 10H31.25C31.5815 10 31.8995 9.8683 32.1339 9.63388C32.3683 9.39946 32.5 9.08152 32.5 8.75C32.5 8.41848 32.3683 8.10054 32.1339 7.86612C31.8995 7.6317 31.5815 7.5 31.25 7.5H8.75C8.41848 7.5 8.10054 7.6317 7.86612 7.86612C7.6317 8.10054 7.5 8.41848 7.5 8.75C7.5 9.08152 7.6317 9.39946 7.86612 9.63388C8.10054 9.8683 8.41848 10 8.75 10Z" fill="white"/>
</svg>
