<svg width="90" height="90" viewBox="0 0 90 90" fill="none" xmlns="http://www.w3.org/2000/svg">
<rect width="90" height="90" rx="20" fill="white"/>
<path d="M33.8236 57.0681L30.5591 56.2949L31.3814 59.6208C31.814 61.3724 32.7046 62.9774 33.9619 64.2714C35.2192 65.5654 36.7979 66.5017 38.5364 66.9845L42.2979 68.0215L41.3836 64.4317C40.9211 62.6285 39.971 60.9875 38.6374 59.6886C37.3039 58.3896 35.6384 57.483 33.8236 57.0681ZM49.4345 64.4317L48.5202 68.0215L52.2818 66.9845C54.0202 66.5017 55.599 65.5654 56.8563 64.2714C58.1136 62.9774 59.0042 61.3724 59.4368 59.6208L60.2591 56.2949L56.9945 57.0681C55.1798 57.483 53.5143 58.3896 52.1807 59.6886C50.8472 60.9875 49.8971 62.6285 49.4345 64.4317Z" fill="#50B792"/>
<path d="M47.6796 63.9841L46.2682 69.5068V56.1848L52.7727 54.3868C54.8194 53.8158 56.6778 52.7116 58.1581 51.1871C59.6383 49.6627 60.6874 47.7726 61.198 45.71L62.7198 39.5245L56.5834 40.9359C54.4421 41.4283 52.4781 42.5015 50.9072 44.0378C49.3363 45.574 48.2195 47.5136 47.6796 49.6434L46.2682 55.1661V40.8868C49.0157 40.7331 51.629 39.6485 53.6779 37.8116C55.7268 35.9746 57.0891 33.4947 57.5407 30.7802C57.9091 28.6127 57.6822 26.3857 56.8841 24.337C56.2736 22.7621 55.3417 21.3317 54.1479 20.1367C52.954 18.9418 51.5244 18.0087 49.95 17.3968C48.5446 16.8452 47.0477 16.5642 45.538 16.5684C44.8594 16.57 44.1821 16.6274 43.513 16.7402C40.5936 17.2301 37.953 18.7673 36.0854 21.064C34.2179 23.3607 33.2516 26.2593 33.3675 29.2172C33.4834 32.1751 34.6735 34.9893 36.7149 37.1329C38.7564 39.2764 41.5093 40.6023 44.458 40.8623V54.8041L43.1386 49.6434C42.5982 47.5128 41.4805 45.5727 39.9084 44.0364C38.3364 42.5001 36.3711 41.4273 34.2286 40.9359L28.0923 39.5245L29.6141 45.71C30.1252 47.7733 31.1752 49.6639 32.6566 51.1884C34.138 52.7129 35.9976 53.8167 38.0455 54.3868L44.4457 56.1541V69.1509L43.1386 63.9841C42.5978 61.8543 41.4799 59.9151 39.9078 58.3799C38.3358 56.8447 36.3706 55.7729 34.2286 55.2827L28.0923 53.8652L29.6141 60.0568C30.1256 62.1193 31.1758 64.0089 32.6572 65.5324C34.1386 67.0558 35.9981 68.1585 38.0455 68.7275L44.4457 70.5009V74.2502H46.2682V70.5255L52.7727 68.7275C54.819 68.1575 56.6772 67.0545 58.1575 65.5311C59.6377 64.0077 60.687 62.1186 61.198 60.0568L62.7198 53.8652L56.5834 55.2827C54.4426 55.7739 52.4787 56.8461 50.9078 58.3813C49.3369 59.9164 48.2199 61.8551 47.6796 63.9841ZM60.2591 41.9484L59.4368 45.2805C59.0048 47.0323 58.1144 48.6376 56.857 49.9317C55.5996 51.2258 54.0205 52.1619 52.2818 52.6441L48.5202 53.6873L49.4346 50.0975C49.8958 48.2937 50.8455 46.6519 52.1793 45.3528C53.5131 44.0537 55.1792 43.1475 56.9946 42.7339L60.2591 41.9484ZM38.5364 52.638C36.7977 52.1558 35.2186 51.2196 33.9612 49.9256C32.7038 48.6315 31.8134 47.0262 31.3814 45.2743L30.5591 41.9484L33.8236 42.7032C35.639 43.1168 37.3052 44.023 38.6389 45.3221C39.9727 46.6212 40.9224 48.263 41.3836 50.0668L42.298 53.6566L38.5364 52.638ZM38.5364 66.9848C36.798 66.502 35.2192 65.5657 33.9619 64.2717C32.7046 62.9777 31.814 61.3727 31.3814 59.6211L30.5591 56.2952L33.8236 57.0684C35.6384 57.4833 37.3039 58.3899 38.6374 59.6889C39.971 60.9878 40.9211 62.6288 41.3836 64.432L42.298 68.0218L38.5364 66.9848ZM49.2934 19.0843C51.6334 19.9923 53.5647 21.7182 54.729 23.9418C55.8933 26.1654 56.2117 28.7358 55.625 31.1763C55.0384 33.6167 53.5865 35.7616 51.5387 37.2131C49.491 38.6645 46.9863 39.324 44.4893 39.0693C41.9923 38.8146 39.6724 37.6628 37.9599 35.8278C36.2474 33.9927 35.2586 31.5988 35.1769 29.0902C35.0951 26.5815 35.9259 24.1284 37.5153 22.1857C39.1047 20.243 41.3446 18.9427 43.8198 18.5259C44.3881 18.4377 44.9629 18.3986 45.538 18.4093C46.8209 18.398 48.0947 18.6269 49.2934 19.0843ZM60.2591 56.2952L59.4368 59.6211C59.0042 61.3727 58.1136 62.9777 56.8563 64.2717C55.599 65.5657 54.0202 66.502 52.2818 66.9848L48.5202 68.0218L49.4346 64.432C49.8971 62.6288 50.8472 60.9878 52.1808 59.6889C53.5143 58.3899 55.1798 57.4833 56.9946 57.0684L60.2591 56.2952Z" fill="#333333"/>
<path d="M33.8236 42.7023L30.5591 41.9475L31.3814 45.2796C31.8134 47.0314 32.7038 48.6368 33.9612 49.9308C35.2186 51.2249 36.7976 52.1611 38.5364 52.6432L42.2979 53.6864L41.3836 50.0966C40.9273 48.2871 39.9798 46.6389 38.6457 45.3341C37.3116 44.0292 35.6428 43.1184 33.8236 42.7023ZM49.4345 50.0905L48.5202 53.6803L52.2818 52.6371C54.0205 52.1549 55.5996 51.2188 56.857 49.9247C58.1144 48.6306 59.0048 47.0253 59.4368 45.2735L60.2591 41.9414L56.9945 42.6962C55.1754 43.1123 53.5066 44.0231 52.1725 45.3279C50.8384 46.6328 49.8909 48.281 49.4345 50.0905Z" fill="#50B792"/>
<path d="M35.1736 28.7418C35.1736 31.4906 36.2655 34.1268 38.2092 36.0705C40.1529 38.0142 42.7891 39.1062 45.5379 39.1062C48.2867 39.1062 50.9229 38.0142 52.8666 36.0705C54.8103 34.1268 55.9022 31.4906 55.9022 28.7418C55.8925 25.9989 54.7964 23.3715 52.854 21.4348C50.9115 19.4981 48.2809 18.4098 45.5379 18.4082C44.962 18.4077 44.3871 18.457 43.8197 18.5555C41.4043 18.9515 39.2085 20.1936 37.6246 22.0596C36.0407 23.9257 35.1719 26.2942 35.1736 28.7418ZM46.8327 19.838V21.4764C47.8166 21.6292 48.7169 22.1192 49.3795 22.8624C50.0422 23.6056 50.426 24.556 50.4654 25.5509H48.6245C48.6245 24.25 47.3972 23.1946 45.8386 23.1946C44.28 23.1946 43.0527 24.25 43.0527 25.5509C43.0527 26.8518 44.28 27.9012 45.8386 27.9012C48.2379 28.1221 50.134 29.9691 50.134 32.1966C50.1019 33.1501 49.7607 34.0672 49.1619 34.8099C48.5631 35.5526 47.7392 36.0805 46.8143 36.3141V37.615H44.9734V36.535C42.5188 36.3632 40.5613 34.5039 40.5613 32.2396H42.4022C42.4022 33.6264 43.7277 34.7493 45.36 34.7493C46.9922 34.7493 48.3177 33.6264 48.3177 32.2396C48.3177 30.8528 47.0106 29.7237 45.409 29.7237C44.3329 29.6654 43.3168 29.2092 42.5582 28.4438C41.7995 27.6783 41.3525 26.6582 41.3038 25.5816C41.3396 24.5686 41.7325 23.6008 42.413 22.8496C43.0936 22.0983 44.0179 21.6119 45.0225 21.4764V19.838H46.8327Z" fill="#FECB37"/>
<path d="M41.2733 25.557C41.3226 26.6386 41.774 27.6629 42.539 28.4291C43.3041 29.1952 44.3277 29.6482 45.4092 29.699C47.0415 29.699 48.367 30.822 48.367 32.2027C48.367 33.5833 47.0108 34.737 45.4092 34.737C43.8076 34.737 42.4515 33.614 42.4515 32.2272H40.6106C40.6106 34.5038 42.5558 36.3631 45.0226 36.5227V37.6333H46.8635V36.3447C47.7885 36.1111 48.6124 35.5832 49.2112 34.8405C49.81 34.0978 50.1512 33.1807 50.1833 32.2272C50.1833 29.9997 48.2995 28.1527 45.8879 27.9318C44.3538 27.9318 43.102 26.8763 43.102 25.5815C43.102 24.2868 44.3292 23.2252 45.8879 23.2252C47.4465 23.2252 48.6738 24.2806 48.6738 25.5815H50.5147C50.4803 24.574 50.0926 23.6106 49.4195 22.8601C48.7464 22.1096 47.8308 21.6197 46.8329 21.4763V19.8379H44.992V21.4763C43.9914 21.611 43.0703 22.0939 42.3902 22.8401C41.7102 23.5863 41.3148 24.5482 41.2733 25.557Z" fill="#333333"/>
</svg>
