<svg width="250" height="250" viewBox="0 0 250 250" fill="none" xmlns="http://www.w3.org/2000/svg">
<path d="M77.8 172.5L64.5 169.35L67.85 182.9C69.6125 190.036 73.2408 196.575 78.3632 201.847C83.4855 207.119 89.9176 210.933 97 212.9L112.325 217.125L108.6 202.5C106.716 195.154 102.845 188.468 97.4118 183.176C91.9788 177.884 85.1935 174.19 77.8 172.5ZM141.4 202.5L137.675 217.125L153 212.9C160.082 210.933 166.515 207.119 171.637 201.847C176.759 196.575 180.388 190.036 182.15 182.9L185.5 169.35L172.2 172.5C164.806 174.19 158.021 177.884 152.588 183.176C147.155 188.468 143.284 195.154 141.4 202.5Z" fill="#50B792"/>
<path d="M134.25 200.675L128.5 223.175V168.9L155 161.575C163.338 159.248 170.91 154.75 176.94 148.539C182.971 142.328 187.245 134.628 189.325 126.225L195.525 101.025L170.525 106.775C161.801 108.781 153.799 113.153 147.4 119.412C141 125.671 136.45 133.573 134.25 142.25L128.5 164.75V106.575C139.694 105.949 150.34 101.53 158.688 94.0461C167.035 86.5622 172.585 76.459 174.425 65.3999C175.926 56.5691 175.001 47.4965 171.75 39.1499C169.263 32.7336 165.466 26.9058 160.602 22.0376C155.739 17.1695 149.914 13.3679 143.5 10.8749C137.774 8.62778 131.676 7.48269 125.525 7.49995C122.76 7.50628 120.001 7.74041 117.275 8.19995C105.381 10.1956 94.6231 16.4582 87.0146 25.8151C79.4062 35.1721 75.4694 46.9815 75.9415 59.0321C76.4136 71.0827 81.2622 82.548 89.5793 91.281C97.8964 100.014 109.112 105.416 121.125 106.475V163.275L115.75 142.25C113.548 133.57 108.994 125.665 102.59 119.407C96.1853 113.148 88.1783 108.777 79.45 106.775L54.45 101.025L60.65 126.225C62.7324 134.631 67.0099 142.334 73.0452 148.544C79.0805 154.755 86.657 159.252 95 161.575L121.075 168.775V221.725L115.75 200.675C113.547 191.998 108.992 184.098 102.587 177.843C96.1827 171.588 88.1764 167.222 79.45 165.225L54.45 159.45L60.65 184.675C62.7339 193.078 67.0124 200.776 73.0478 206.983C79.0831 213.189 86.6588 217.682 95 220L121.075 227.225V242.5H128.5V227.325L155 220C163.336 217.678 170.907 213.184 176.938 206.978C182.968 200.771 187.243 193.075 189.325 184.675L195.525 159.45L170.525 165.225C161.803 167.226 153.802 171.594 147.402 177.849C141.002 184.103 136.451 192.001 134.25 200.675ZM185.5 110.9L182.15 124.475C180.39 131.612 176.762 138.152 171.64 143.424C166.517 148.697 160.084 152.511 153 154.475L137.675 158.725L141.4 144.1C143.279 136.751 147.148 130.062 152.582 124.77C158.016 119.477 164.804 115.785 172.2 114.1L185.5 110.9ZM97 154.45C89.9163 152.486 83.483 148.672 78.3603 143.399C73.2376 138.127 69.61 131.587 67.8499 124.45L64.4999 110.9L77.8 113.975C85.1959 115.66 91.9839 119.352 97.4177 124.645C102.852 129.937 106.721 136.626 108.6 143.975L112.325 158.6L97 154.45ZM97 212.9C89.9175 210.933 83.4854 207.118 78.3631 201.847C73.2408 196.575 69.6124 190.036 67.8499 182.9L64.4999 169.35L77.8 172.5C85.1935 174.19 91.9787 177.884 97.4117 183.176C102.845 188.468 106.716 195.153 108.6 202.5L112.325 217.125L97 212.9ZM140.825 17.7499C150.358 21.4493 158.226 28.4806 162.97 37.5397C167.713 46.5988 169.01 57.0708 166.62 67.0134C164.23 76.9561 158.315 85.6945 149.973 91.6078C141.63 97.5211 131.426 100.208 121.253 99.1702C111.08 98.1324 101.628 93.4402 94.6513 85.964C87.6746 78.4878 83.6461 68.735 83.313 58.5146C82.9799 48.2942 86.3649 38.2997 92.84 30.3852C99.3152 22.4706 108.441 17.173 118.525 15.4749C120.84 15.1154 123.182 14.9565 125.525 14.9999C130.752 14.9537 135.941 15.8864 140.825 17.7499ZM185.5 169.35L182.15 182.9C180.388 190.036 176.759 196.575 171.637 201.847C166.514 207.118 160.082 210.933 153 212.9L137.675 217.125L141.4 202.5C143.284 195.153 147.155 188.468 152.588 183.176C158.021 177.884 164.806 174.19 172.2 172.5L185.5 169.35Z" fill="#333333"/>
<path d="M77.8 113.975L64.5 110.9L67.85 124.475C69.6101 131.612 73.2376 138.152 78.3603 143.425C83.483 148.697 89.9164 152.511 97 154.475L112.325 158.725L108.6 144.1C106.741 136.728 102.881 130.013 97.4454 124.697C92.0102 119.381 85.2114 115.67 77.8 113.975ZM141.4 144.075L137.675 158.7L153 154.45C160.084 152.486 166.517 148.672 171.64 143.4C176.762 138.127 180.39 131.587 182.15 124.45L185.5 110.875L172.2 113.95C164.789 115.645 157.99 119.356 152.555 124.672C147.119 129.988 143.259 136.703 141.4 144.075Z" fill="#50B792"/>
<path d="M83.3001 57.1C83.3001 68.2988 87.7488 79.0389 95.6675 86.9576C103.586 94.8763 114.326 99.325 125.525 99.325C136.724 99.325 147.464 94.8763 155.383 86.9576C163.301 79.0389 167.75 68.2988 167.75 57.1C167.71 45.925 163.245 35.2208 155.331 27.3305C147.418 19.4402 136.7 15.0066 125.525 15C123.179 14.9979 120.837 15.1986 118.525 15.6C108.685 17.2136 99.7385 22.2737 93.2855 29.8762C86.8325 37.4787 83.2932 47.1281 83.3001 57.1ZM130.8 20.825V27.5C134.809 28.1227 138.476 30.1187 141.176 33.1467C143.876 36.1747 145.44 40.0465 145.6 44.1H138.1C138.1 38.8 133.1 34.5 126.75 34.5C120.4 34.5 115.4 38.8 115.4 44.1C115.4 49.4 120.4 53.675 126.75 53.675C136.525 54.575 144.25 62.1 144.25 71.175C144.119 75.0594 142.729 78.796 140.29 81.8217C137.85 84.8474 134.493 86.9982 130.725 87.95V93.25H123.225V88.85C113.225 88.15 105.25 80.575 105.25 71.35H112.75C112.75 77 118.15 81.575 124.8 81.575C131.45 81.575 136.85 77 136.85 71.35C136.85 65.7 131.525 61.1 125 61.1C120.616 60.8626 116.476 59.0042 113.385 55.8857C110.295 52.7672 108.473 48.6112 108.275 44.225C108.421 40.0978 110.022 36.1551 112.794 33.0944C115.567 30.0336 119.332 28.052 123.425 27.5V20.825H130.8Z" fill="#FECB37"/>
<path d="M108.15 44.125C108.351 48.5316 110.19 52.7045 113.307 55.826C116.423 58.9475 120.594 60.7927 125 61C131.65 61 137.05 65.575 137.05 71.2C137.05 76.825 131.525 81.525 125 81.525C118.475 81.525 112.95 76.95 112.95 71.3H105.45C105.45 80.575 113.375 88.15 123.425 88.7999V93.325H130.925V88.075C134.693 87.1231 138.05 84.9723 140.49 81.9466C142.929 78.921 144.319 75.1844 144.45 71.3C144.45 62.225 136.775 54.7 126.95 53.8C120.7 53.8 115.6 49.5 115.6 44.225C115.6 38.95 120.6 34.625 126.95 34.625C133.3 34.625 138.3 38.925 138.3 44.225H145.8C145.66 40.1201 144.08 36.1953 141.338 33.1377C138.596 30.08 134.865 28.0843 130.8 27.5V20.825H123.3V27.5C119.224 28.0488 115.471 30.016 112.7 33.0562C109.93 36.0964 108.319 40.0153 108.15 44.125Z" fill="#333333"/>
</svg>
