<svg width="70" height="70" viewBox="0 0 70 70" fill="none" xmlns="http://www.w3.org/2000/svg">
<rect width="70" height="70" rx="35" fill="#EAEEFF"/>
<path d="M45.5943 37.6005C45.5895 37.5917 45.5815 37.5861 45.5767 37.5781C45.5551 37.5389 45.5239 37.5085 45.4959 37.4741C45.4607 37.4301 45.4271 37.3853 45.3839 37.3509C45.3527 37.3253 45.3167 37.3093 45.2815 37.2885C45.2297 37.2561 45.1741 37.23 45.1159 37.2109C45.1007 37.2061 45.0895 37.1949 45.0743 37.1909C45.0463 37.1837 45.0199 37.1909 44.9927 37.1869C44.8851 37.1696 44.775 37.1764 44.6703 37.2069C44.6487 37.2133 44.6263 37.2101 44.6047 37.2189L40.0871 38.9053C39.8884 38.9796 39.7274 39.1297 39.6394 39.3227C39.5514 39.5158 39.5437 39.7358 39.6179 39.9345C39.6922 40.1332 39.8424 40.2943 40.0354 40.3823C40.2284 40.4703 40.4484 40.478 40.6471 40.4037L43.5975 39.3029C42.1223 42.7413 38.7839 45.0301 35.0079 45.0301C30.7375 45.0301 27.0031 42.0813 25.9279 37.8589C25.902 37.7571 25.8562 37.6613 25.7933 37.5771C25.7303 37.493 25.6514 37.422 25.561 37.3684C25.4707 37.3147 25.3706 37.2793 25.2666 37.2643C25.1626 37.2493 25.0566 37.255 24.9547 37.2809C24.8529 37.3069 24.7571 37.3526 24.673 37.4156C24.5888 37.4785 24.5179 37.5574 24.4642 37.6478C24.4105 37.7382 24.3752 37.8382 24.3602 37.9423C24.3452 38.0463 24.3508 38.1523 24.3767 38.2541C25.6327 43.1853 30.0039 46.6301 35.0071 46.6301C39.4047 46.6301 43.2943 43.9853 45.0335 40.0069L46.4679 42.7941C46.5159 42.8877 46.5819 42.9708 46.662 43.0388C46.7422 43.1068 46.835 43.1583 46.9351 43.1903C47.0352 43.2224 47.1407 43.2343 47.2455 43.2255C47.3502 43.2167 47.4522 43.1872 47.5455 43.1389C47.639 43.0909 47.7221 43.0249 47.7901 42.9447C47.858 42.8646 47.9095 42.7718 47.9416 42.6717C47.9737 42.5716 47.9858 42.4662 47.9771 42.3615C47.9684 42.2568 47.9392 42.1548 47.8911 42.0613L45.5943 37.6005ZM35.0063 25.8285C39.1375 25.8285 42.7375 28.5373 43.9655 32.5693C44.0306 32.7683 44.171 32.9338 44.3567 33.0304C44.5424 33.127 44.7585 33.147 44.9588 33.0861C45.159 33.0251 45.3274 32.8882 45.4278 32.7045C45.5283 32.5209 45.5527 32.3052 45.4959 32.1037C44.0615 27.3933 39.8455 24.2285 35.0063 24.2285C30.7911 24.2285 27.0551 26.6269 25.2111 30.3549L23.9015 27.6045C23.8572 27.5085 23.7942 27.4222 23.7162 27.3507C23.6382 27.2792 23.5469 27.2238 23.4474 27.1878C23.3479 27.1519 23.2422 27.136 23.1366 27.1411C23.0309 27.1462 22.9273 27.1723 22.8317 27.2177C22.7362 27.2632 22.6506 27.3271 22.58 27.4059C22.5093 27.4846 22.455 27.5766 22.4201 27.6765C22.3852 27.7763 22.3705 27.8821 22.3768 27.9878C22.3831 28.0934 22.4103 28.1967 22.4567 28.2917L24.5543 32.6949C24.5575 32.7021 24.5631 32.7069 24.5663 32.7133C24.5759 32.7317 24.5895 32.7469 24.6007 32.7653C24.6523 32.8506 24.7196 32.9253 24.7991 32.9853C24.8687 33.0373 24.9439 33.0805 25.0263 33.1077C25.0327 33.1101 25.0375 33.1157 25.0447 33.1173L25.0503 33.1181C25.1238 33.1402 25.2 33.1515 25.2767 33.1517H25.2791C25.3502 33.1516 25.421 33.1419 25.4895 33.1229L30.0479 31.8653C30.1492 31.8374 30.2439 31.7898 30.3267 31.7252C30.4095 31.6607 30.4788 31.5804 30.5307 31.4891C30.5825 31.3977 30.6158 31.2971 30.6287 31.1929C30.6416 31.0887 30.6339 30.9829 30.6059 30.8817C30.578 30.7805 30.5304 30.6858 30.4658 30.6029C30.4013 30.5201 30.321 30.4508 30.2297 30.399C30.1384 30.3472 30.0377 30.3139 29.9335 30.301C29.8293 30.288 29.7236 30.2958 29.6223 30.3237L26.5983 31.1581C28.1599 27.9181 31.3767 25.8285 35.0063 25.8285Z" fill="#001476"/>
</svg>
