<svg width="90" height="90" viewBox="0 0 90 90" fill="none" xmlns="http://www.w3.org/2000/svg">
<rect width="90" height="90" rx="20" fill="white"/>
<g clip-path="url(#clip0_2055_16100)">
<path fill-rule="evenodd" clip-rule="evenodd" d="M16.7627 33.3395V22.3309C16.7627 21.3079 17.5959 20.4746 18.6189 20.4746H33.7385V23.5662L33.5925 23.5207C33.1583 23.3852 32.7048 23.3151 32.2498 23.3151C29.7737 23.3151 27.758 25.3309 27.758 27.8069C27.758 30.283 29.7737 32.2987 32.2498 32.2987C32.7048 32.2987 33.1583 32.2286 33.5922 32.0927L33.7384 32.0469V35.1957H27.9972C27.6702 35.1957 27.3748 35.3886 27.2427 35.6877L24.158 42.6642L21.0741 35.6877C20.9418 35.3885 20.6461 35.1957 20.319 35.1957H18.6188C17.5959 35.1957 16.7627 34.3625 16.7627 33.3395ZM56.2627 30.6509C56.2627 30.333 56.0789 30.0431 55.7918 29.9067C55.5036 29.7698 55.1634 29.8105 54.9158 30.0118C54.4044 30.4277 53.7838 30.6491 53.1243 30.6491C51.5579 30.6491 50.2829 29.3735 50.2829 27.807C50.2829 26.2404 51.5575 24.9651 53.1243 24.9651C53.7838 24.9651 54.4044 25.1865 54.9158 25.6024C55.1634 25.8037 55.5036 25.8444 55.7918 25.7075C56.0786 25.5712 56.2627 25.2808 56.2627 24.9632V20.4746H71.3811C72.404 20.4746 73.2373 21.3078 73.2373 22.3309V33.3395C73.2373 34.3624 72.4041 35.1957 71.3811 35.1957H69.6811C69.354 35.1957 69.0581 35.3886 68.9259 35.6877L65.842 42.6642L62.7575 35.6877C62.6253 35.3886 62.33 35.1957 62.0029 35.1957H56.2629L56.2627 30.6509ZM68.7259 53.3046C68.7259 54.285 68.4563 55.3141 67.8882 56.1216C67.4165 56.7921 66.7089 57.3313 65.8591 57.3313C65.0094 57.3313 64.3019 56.792 63.8305 56.1216C63.2623 55.314 62.9929 54.285 62.9929 53.3046C62.9929 51.4023 63.9404 50.2884 65.8592 50.2884C67.778 50.2885 68.7259 51.4019 68.7259 53.3046ZM47.8663 53.3046C47.8663 54.285 47.5968 55.3141 47.0288 56.1216C46.5573 56.7922 45.8498 57.3313 45 57.3313C44.1501 57.3313 43.4427 56.7922 42.9711 56.1216C42.4031 55.314 42.1337 54.2848 42.1337 53.3046C42.1337 51.4023 43.0811 50.2884 45 50.2884C46.9188 50.2885 47.8663 51.4024 47.8663 53.3046ZM27.0072 53.3046C27.0072 54.285 26.7377 55.3141 26.1696 56.1216C25.6979 56.7921 24.9903 57.3313 24.1404 57.3313C23.2906 57.3313 22.5832 56.792 22.1117 56.1216C21.5436 55.314 21.2741 54.285 21.2741 53.3046C21.2741 51.4023 22.2215 50.2884 24.1404 50.2884C26.0594 50.2885 27.0072 51.4019 27.0072 53.3046Z" fill="#406B95"/>
<path fill-rule="evenodd" clip-rule="evenodd" d="M73.1251 69.1746C73.1251 69.3034 73.0163 69.4124 72.8875 69.4124H71.2725V64.6114C71.2725 64.0934 70.8529 63.6743 70.3349 63.6743C69.8174 63.6743 69.3977 64.0934 69.3977 64.6114V69.4124H62.3216V64.6114C62.3216 64.0934 61.9025 63.6743 61.3846 63.6743C60.8666 63.6743 60.447 64.0934 60.447 64.6114V69.4124H58.8319C58.7031 69.4124 58.5941 69.3036 58.5941 69.1746V62.898C58.5941 61.4931 60.1013 60.8098 61.3656 60.4852C62.829 60.1093 64.3163 59.9201 65.8173 59.9201C67.3222 59.9201 68.8398 60.1091 70.3608 60.4873C71.393 60.7428 73.1251 61.3968 73.1251 62.8979V69.1746ZM65.8594 50.4016C67.1161 50.4016 68.6138 50.9052 68.6138 53.3052C68.6138 55.426 67.3527 57.2195 65.8594 57.2195C64.3666 57.2195 63.1056 55.426 63.1056 53.3052C63.1055 50.9051 64.6032 50.4016 65.8594 50.4016ZM70.813 58.668C69.981 58.4611 69.1516 58.3069 68.3229 58.2024C69.6226 57.1769 70.4884 55.365 70.4884 53.3051C70.4884 51.3878 69.7398 50.2843 69.1106 49.6949C68.2935 48.9309 67.1695 48.5262 65.8593 48.5262C64.5496 48.5262 63.4255 48.9309 62.6089 49.6949C61.9792 50.2843 61.2307 51.3878 61.2307 53.3051C61.2307 55.3606 62.0932 57.1686 63.388 58.1963C62.5526 58.2996 61.7228 58.4577 60.8989 58.669C58.2424 59.3519 56.7188 60.8932 56.7188 62.898V69.1746C56.7188 70.3396 57.6669 71.2877 58.8318 71.2877H72.8872C74.0521 71.2877 75.0002 70.3395 75.0002 69.1746V62.898C75.0004 60.8695 73.4734 59.3275 70.813 58.668ZM52.266 69.1746C52.266 69.3034 52.1571 69.4124 52.0276 69.4124H50.4127V64.6114C50.4127 64.0934 49.9936 63.6743 49.4756 63.6743C48.9575 63.6743 48.538 64.0934 48.538 64.6114V69.4124H41.4625V64.6114C41.4625 64.0934 41.0428 63.6743 40.5248 63.6743C40.0068 63.6743 39.5877 64.0934 39.5877 64.6114V69.4124H37.9723C37.8435 69.4124 37.7345 69.3036 37.7345 69.1746V62.898C37.7345 61.4931 39.2416 60.8098 40.506 60.4852C41.97 60.1093 43.4566 59.9201 44.9582 59.9201C46.4625 59.9201 47.9802 60.1091 49.5016 60.4873C50.5338 60.7428 52.266 61.3968 52.266 62.8979V69.1746ZM45.0002 50.4016C46.2564 50.4016 47.7541 50.9052 47.7541 53.3052C47.7541 55.426 46.4936 57.2195 45.0002 57.2195C43.5069 57.2195 42.2464 55.426 42.2464 53.3052C42.2464 50.9051 43.7441 50.4016 45.0002 50.4016ZM49.9539 58.668C49.1218 58.4611 48.292 58.3069 47.4638 58.2024C48.763 57.1769 49.6288 55.365 49.6288 53.3051C49.6288 51.3878 48.8802 50.2843 48.251 49.6949C47.4345 48.9309 46.3105 48.5262 45.0001 48.5262C43.6898 48.5262 42.5659 48.9309 41.7493 49.6949C41.1202 50.2843 40.3716 51.3878 40.3716 53.3051C40.3716 55.3606 41.2341 57.1686 42.5289 58.1963C41.6934 58.2996 40.8636 58.4577 40.0398 58.669C37.3827 59.3519 35.8596 60.8932 35.8596 62.898V69.1746C35.8596 70.3396 36.8078 71.2877 37.9721 71.2877H52.0276C53.193 71.2877 54.1406 70.3395 54.1406 69.1746V62.898C54.1407 60.8695 52.6148 59.3275 49.9539 58.668ZM31.4064 69.1746C31.4064 69.3034 31.2975 69.4124 31.1686 69.4124H29.5538V64.6114C29.5538 64.0934 29.1341 63.6743 28.6161 63.6743C28.0986 63.6743 27.679 64.0934 27.679 64.6114V69.4124H20.6029V64.6114C20.6029 64.0934 20.1832 63.6743 19.6657 63.6743C19.1476 63.6743 18.7281 64.0934 18.7281 64.6114V69.4124H17.1131C16.9843 69.4124 16.8754 69.3036 16.8754 69.1746V62.898C16.8754 61.4931 18.3819 60.8098 19.6468 60.4852C21.1103 60.1093 22.5975 59.9201 24.0986 59.9201C25.6035 59.9201 27.1211 60.1091 28.642 60.4873C29.6742 60.7428 31.4064 61.3968 31.4064 62.8979V69.1746ZM24.1406 50.4016C25.3972 50.4016 26.895 50.9052 26.895 53.3052C26.895 55.426 25.6339 57.2195 24.1406 57.2195C22.6479 57.2195 21.3868 55.426 21.3868 53.3052C21.3868 50.9051 22.8845 50.4016 24.1406 50.4016ZM29.0943 58.668C28.2622 58.4611 27.4323 58.3069 26.6041 58.2024C27.9039 57.1769 28.7696 55.365 28.7696 53.3051C28.7696 51.3878 28.0206 50.2843 27.3914 49.6949C26.5748 48.9309 25.4509 48.5262 24.1405 48.5262C22.8308 48.5262 21.7068 48.9309 20.8902 49.6949C20.261 50.2843 19.5118 51.3878 19.5118 53.3051C19.5118 55.3606 20.3743 57.1686 21.6691 58.1963C20.8338 58.2996 20.0039 58.4577 19.1802 58.669C16.5237 59.3519 15 60.8932 15 62.898V69.1746C15 70.3396 15.9482 71.2877 17.113 71.2877H31.1685C32.3333 71.2877 33.2816 70.3395 33.2816 69.1746V62.898C33.2817 60.8695 31.7558 59.3275 29.0943 58.668ZM73.1251 33.34C73.1251 34.3008 72.3423 35.0837 71.3814 35.0837H69.6813C69.3098 35.0837 68.9732 35.3027 68.8233 35.6427L65.8423 42.3866L62.8607 35.6427C62.7108 35.3027 62.3747 35.0837 62.0032 35.0837H56.3756V30.6515C56.3756 30.2904 56.1671 29.9604 55.8404 29.8056C55.5131 29.6496 55.1266 29.6968 54.8453 29.925C54.3544 30.3248 53.7589 30.537 53.1247 30.537C51.6204 30.537 50.3958 29.3118 50.3958 27.8075C50.3958 26.3025 51.6204 25.0779 53.1247 25.0779C53.7588 25.0779 54.3543 25.2903 54.8453 25.6899C55.1266 25.9182 55.5131 25.9652 55.8404 25.8093C56.1671 25.6545 56.3756 25.3239 56.3756 24.9634V20.5877H71.3815C72.3423 20.5877 73.1252 21.3705 73.1252 22.3314V33.34H73.1251ZM48.8393 35.0837H54.5006V32.2006C54.0578 32.3393 53.5934 32.4118 53.1246 32.4118C50.5863 32.4118 48.5203 30.3457 48.5203 27.8075C48.5203 25.2693 50.5863 23.2032 53.1246 23.2032C53.5935 23.2032 54.0579 23.2756 54.5006 23.4137V20.5877H35.5009V24.9636C35.5009 25.324 35.2924 25.6546 34.9651 25.8094C34.6384 25.9653 34.2519 25.9183 33.9705 25.69C33.4796 25.2903 32.8842 25.078 32.25 25.078C30.7457 25.078 29.5211 26.3027 29.5211 27.8076C29.5211 29.3119 30.7457 30.5371 32.25 30.5371C32.8841 30.5371 33.4795 30.3248 33.9705 29.9252C34.252 29.6968 34.6384 29.6498 34.9651 29.8057C35.2924 29.9605 35.5009 30.2905 35.5009 30.6516V35.0839H41.1612C41.5327 35.0839 41.8689 35.3028 42.0192 35.6429L45.0002 42.3866L47.9813 35.6427C48.1317 35.3028 48.4678 35.0837 48.8393 35.0837ZM27.9974 35.0837C27.6258 35.0837 27.2897 35.3027 27.1399 35.6427L24.1583 42.3866L21.1772 35.6427C21.0268 35.3027 20.6906 35.0837 20.3191 35.0837H18.6191C17.6582 35.0837 16.8754 34.3009 16.8754 33.34V22.3314C16.8754 21.3705 17.6582 20.5877 18.6191 20.5877H33.6261V23.4139C33.1833 23.2757 32.7189 23.2033 32.25 23.2033C29.7118 23.2033 27.6457 25.2693 27.6457 27.8076C27.6457 30.3457 29.7117 32.4119 32.25 32.4119C32.7189 32.4119 33.1833 32.3395 33.6261 32.2007V35.0839H27.9974V35.0837ZM71.3814 18.7129H18.6191C16.6233 18.7129 15 20.3366 15 22.3314V33.34C15 35.3358 16.6232 36.9585 18.6191 36.9585H19.7088L23.3009 45.0845C23.4506 45.4229 23.7868 45.6423 24.1583 45.6423C24.5298 45.6423 24.8665 45.4229 25.0164 45.0845L28.6084 36.9585H40.5509L44.1423 45.0845C44.2927 45.4229 44.6289 45.6423 45.0004 45.6423C45.372 45.6423 45.708 45.4229 45.8584 45.0845L49.4498 36.9585H61.3923L64.9843 45.0845C65.1342 45.4229 65.4709 45.6423 65.8424 45.6423C66.2139 45.6423 66.5501 45.4229 66.6998 45.0845L70.2918 36.9585H71.3815C73.3773 36.9585 75.0006 35.3358 75.0006 33.34V22.3314C75.0004 20.3366 73.3772 18.7129 71.3814 18.7129Z" fill="#00316A"/>
</g>
<defs>
<clipPath id="clip0_2055_16100">
<rect width="60" height="60" fill="white" transform="translate(15 15)"/>
</clipPath>
</defs>
</svg>
