<svg width="24" height="25" viewBox="0 0 24 25" fill="none" xmlns="http://www.w3.org/2000/svg">
<g clip-path="url(#clip0_884_5881)">
<path d="M18 10.5C18 8.9087 17.3679 7.38258 16.2426 6.25736C15.1174 5.13214 13.5913 4.5 12 4.5C10.4087 4.5 8.88258 5.13214 7.75736 6.25736C6.63214 7.38258 6 8.9087 6 10.5V18.5H18V10.5ZM20 19.167L20.4 19.7C20.4557 19.7743 20.4896 19.8626 20.498 19.9551C20.5063 20.0476 20.4887 20.1406 20.4472 20.2236C20.4057 20.3067 20.3419 20.3765 20.2629 20.4253C20.1839 20.4741 20.0929 20.5 20 20.5H4C3.90714 20.5 3.81612 20.4741 3.73713 20.4253C3.65815 20.3765 3.59431 20.3067 3.55279 20.2236C3.51126 20.1406 3.49368 20.0476 3.50202 19.9551C3.51036 19.8626 3.54429 19.7743 3.6 19.7L4 19.167V10.5C4 8.37827 4.84286 6.34344 6.34315 4.84315C7.84344 3.34285 9.87827 2.5 12 2.5C14.1217 2.5 16.1566 3.34285 17.6569 4.84315C19.1571 6.34344 20 8.37827 20 10.5V19.167ZM9.5 21.5H14.5C14.5 22.163 14.2366 22.7989 13.7678 23.2678C13.2989 23.7366 12.663 24 12 24C11.337 24 10.7011 23.7366 10.2322 23.2678C9.76339 22.7989 9.5 22.163 9.5 21.5Z" fill="#0B0B0B"/>
</g>
<defs>
<clipPath id="clip0_884_5881">
<rect width="24" height="24" fill="white" transform="translate(0 0.5)"/>
</clipPath>
</defs>
</svg>
