<svg width="197" height="35" viewBox="0 0 197 35" fill="none" xmlns="http://www.w3.org/2000/svg">
<path d="M193.033 3.33984H166.709C165.825 3.33984 165.072 4.09289 165.072 5.00963V7.98905C165.072 8.90579 165.825 9.65883 166.709 9.65883H193.033C193.95 9.65883 194.67 8.90579 194.703 7.98905V5.04237C194.703 4.09288 193.95 3.33984 193.033 3.33984ZM193.033 19.874H166.709C166.284 19.874 165.858 20.0377 165.563 20.3651C165.236 20.6925 165.072 21.0854 165.072 21.5438V24.5232C165.072 25.4399 165.825 26.193 166.709 26.193H193.033C193.95 26.193 194.67 25.4727 194.703 24.5232V21.5438C194.67 20.5943 193.95 19.874 193.033 19.874ZM181.541 28.1247H166.709C166.284 28.1247 165.858 28.2884 165.563 28.6158C165.269 28.9432 165.072 29.3361 165.072 29.7945V32.7739C165.072 33.6906 165.825 34.4437 166.709 34.4437H181.508C182.425 34.4437 183.145 33.6906 183.145 32.8066V29.8272C183.178 28.845 182.458 28.0919 181.541 28.1247ZM194.703 11.5905H166.709C166.284 11.5905 165.858 11.7542 165.563 12.0817C165.269 12.4091 165.072 12.802 165.072 13.2603V16.2398C165.072 17.1565 165.825 17.9095 166.709 17.9095H194.67C195.587 17.9095 196.307 17.1565 196.307 16.2398V13.2603C196.34 12.3436 195.587 11.6233 194.703 11.5905Z" fill="#00C3F7"/>
<path d="M16.966 10.0187C16.1475 9.16745 15.198 8.51263 14.1175 8.05426C13.0371 7.59589 11.8911 7.3667 10.7125 7.3667C9.56654 7.33396 8.45335 7.59588 7.40564 8.087C6.71808 8.41441 6.09601 8.87278 5.57215 9.42938V8.90552C5.57215 8.64359 5.47393 8.38167 5.31023 8.18522C5.14652 7.98878 4.8846 7.85781 4.58993 7.85781H0.95569C0.693763 7.85781 0.431836 7.95603 0.268131 8.18522C0.0716861 8.38167 -0.0265365 8.64359 0.00620441 8.90552V33.3957C0.00620441 33.6576 0.104427 33.9196 0.268131 34.116C0.464577 34.3124 0.693763 34.4107 0.95569 34.4107H4.68815C4.95008 34.4107 5.17926 34.3124 5.37571 34.116C5.57215 33.9523 5.70312 33.6904 5.67038 33.3957V25.014C6.19423 25.6034 6.88179 26.029 7.63483 26.2909C8.61706 26.6511 9.63202 26.8475 10.6797 26.8475C11.8584 26.8475 13.0371 26.6183 14.1175 26.16C15.198 25.7016 16.1802 25.0468 16.9987 24.1955C17.85 23.3115 18.5048 22.2638 18.9632 21.1179C19.487 19.841 19.7162 18.4659 19.6835 17.0907C19.7162 15.7156 19.4543 14.3405 18.9632 13.0309C18.4721 11.9504 17.8172 10.9027 16.966 10.0187ZM13.6264 18.8915C13.43 19.4153 13.1353 19.8737 12.7424 20.2993C11.9894 21.1179 10.9089 21.5762 9.79573 21.5762C9.23913 21.5762 8.68254 21.478 8.15868 21.2161C7.66757 20.9869 7.2092 20.6922 6.81631 20.2993C6.42342 19.9065 6.12875 19.4153 5.9323 18.8915C5.50667 17.7783 5.50667 16.5669 5.9323 15.4537C6.12875 14.9298 6.45616 14.4715 6.81631 14.0786C7.2092 13.6857 7.66757 13.3583 8.15868 13.1291C8.68254 12.8999 9.23913 12.7689 9.79573 12.7689C10.3851 12.7689 10.9089 12.8672 11.4655 13.1291C11.9566 13.3583 12.415 13.6529 12.7751 14.0458C13.168 14.4387 13.43 14.8971 13.6592 15.421C14.052 16.5669 14.0193 17.7783 13.6264 18.8915ZM39.6881 7.89055H35.9884C35.7265 7.89055 35.4646 7.98878 35.3009 8.18522C35.1044 8.38167 35.0062 8.64359 35.0062 8.93826V9.39663C34.5478 8.84004 33.9585 8.41441 33.3364 8.11974C32.3215 7.62863 31.2083 7.39944 30.0951 7.39944C27.705 7.39944 25.4459 8.34893 23.7433 10.0187C22.8593 10.9027 22.1718 11.9504 21.7134 13.0964C21.1896 14.3732 20.9276 15.7484 20.9604 17.1562C20.9276 18.5313 21.1896 19.9065 21.7134 21.2161C22.2045 22.362 22.8593 23.4097 23.7433 24.2937C25.4131 25.9963 27.705 26.9457 30.0623 26.9457C31.1755 26.9785 32.2887 26.7166 33.3037 26.2254C33.9258 25.898 34.5478 25.4724 35.0062 24.9486V25.4397C35.0062 25.7016 35.1044 25.9635 35.3009 26.16C35.4973 26.3237 35.7265 26.4546 35.9884 26.4546H39.6881C39.9501 26.4546 40.212 26.3564 40.3757 26.16C40.5722 25.9635 40.6704 25.7016 40.6704 25.4397V8.971C40.6704 8.70907 40.5722 8.44715 40.4085 8.2507C40.212 8.02152 39.9501 7.89055 39.6881 7.89055ZM34.6788 18.8915C34.4824 19.4153 34.1877 19.8737 33.7948 20.2993C33.4019 20.6922 32.9763 21.0196 32.4852 21.2488C31.4374 21.7399 30.226 21.7399 29.1783 21.2488C28.6872 21.0196 28.2288 20.6922 27.836 20.2993C27.4431 19.9065 27.1484 19.4153 26.9519 18.8915C26.5591 17.7783 26.5591 16.5669 26.9519 15.4537C27.1484 14.9298 27.4431 14.5042 27.836 14.0786C28.2288 13.6857 28.6545 13.3583 29.1783 13.1291C30.226 12.638 31.4374 12.638 32.4524 13.1291C32.9435 13.3583 33.4019 13.6529 33.7621 14.0458C34.1222 14.4387 34.4169 14.8971 34.6461 15.421C35.1044 16.5669 35.1044 17.7783 34.6788 18.8915ZM76.5544 16.6651C76.0305 16.2067 75.4085 15.8138 74.7536 15.5519C74.0661 15.2573 73.313 15.0608 72.5927 14.8971L69.777 14.3405C69.0567 14.2095 68.5329 14.0131 68.2709 13.7839C68.0418 13.6202 67.878 13.3583 67.878 13.0636C67.878 12.7689 68.0417 12.507 68.4019 12.2778C68.893 12.0159 69.4169 11.8849 69.9735 11.9177C70.6938 11.9177 71.4141 12.0814 72.0689 12.3433C72.7237 12.638 73.3458 12.9327 73.9351 13.3255C74.7536 13.8494 75.4739 13.7512 75.965 13.1618L77.3074 11.623C77.5693 11.3611 77.7003 11.0337 77.733 10.6735C77.7003 10.2806 77.5039 9.95323 77.2092 9.6913C76.6526 9.20019 75.7359 8.67633 74.5244 8.15248C73.313 7.62862 71.7742 7.3667 69.9735 7.3667C68.8603 7.33396 67.7798 7.49766 66.7321 7.82507C65.8481 8.11974 64.9968 8.54537 64.2438 9.10197C63.5563 9.62582 63.0324 10.2806 62.6395 11.0664C62.2794 11.8195 62.0829 12.638 62.0829 13.4565C62.0829 14.9953 62.5413 16.2395 63.458 17.1562C64.3748 18.073 65.5862 18.695 67.0923 18.9897L70.0389 19.6445C70.661 19.7428 71.3158 19.9392 71.9052 20.2339C72.2326 20.3648 72.429 20.6922 72.429 21.0524C72.429 21.3798 72.2653 21.6745 71.9052 21.9364C71.545 22.1983 70.9557 22.362 70.1699 22.362C69.3841 22.362 68.5656 22.1983 67.8453 21.8382C67.1577 21.5108 66.5357 21.0851 65.9463 20.594C65.6844 20.3976 65.4225 20.2339 65.0951 20.1029C64.7677 20.0047 64.342 20.1029 63.9164 20.4631L62.3121 21.6745C61.8537 22.0019 61.6245 22.5585 61.7555 23.0823C61.8537 23.6389 62.2794 24.1628 63.0979 24.7849C65.1278 26.16 67.5506 26.8803 70.0062 26.8148C71.1521 26.8148 72.2981 26.6838 73.3785 26.3564C74.328 26.0617 75.212 25.6361 75.9978 25.0468C76.7181 24.5229 77.3074 23.8354 77.7003 23.0168C78.0932 22.2311 78.2896 21.3798 78.2896 20.4958C78.3224 19.71 78.1587 18.9242 77.8313 18.2039C77.5039 17.6801 77.0782 17.1235 76.5544 16.6651ZM92.7284 21.1506C92.5647 20.8559 92.27 20.6595 91.9099 20.594C91.5824 20.594 91.2223 20.6922 90.9604 20.8887C90.502 21.1833 89.9781 21.3471 89.4543 21.3798C89.2906 21.3798 89.0941 21.3471 88.9304 21.3143C88.734 21.2816 88.5703 21.1833 88.4393 21.0524C88.2756 20.8887 88.1446 20.6922 88.0464 20.4958C87.9155 20.1684 87.85 19.841 87.8827 19.5136V12.8017H92.6629C92.9576 12.8017 93.2195 12.6707 93.4159 12.4743C93.6124 12.2778 93.7433 12.0486 93.7433 11.754V8.90552C93.7433 8.61085 93.6451 8.34892 93.4159 8.18522C93.2195 7.98878 92.9576 7.89055 92.6956 7.89055H87.8827V3.30683C87.8827 3.0449 87.7845 2.75023 87.5881 2.58653C87.3916 2.42282 87.1624 2.3246 86.9005 2.29186H83.168C82.9061 2.29186 82.6442 2.39008 82.4477 2.58653C82.2513 2.78297 82.1203 3.0449 82.1203 3.30683V7.89055H79.9922C79.7302 7.89055 79.4683 7.98878 79.2719 8.21796C79.1082 8.41441 79.0099 8.67633 79.0099 8.93826V11.7867C79.0099 12.0486 79.1082 12.3106 79.2719 12.507C79.4356 12.7362 79.6975 12.8344 79.9922 12.8344H82.1203V20.8232C82.0876 21.7727 82.284 22.7222 82.6769 23.5734C83.0371 24.2937 83.4954 24.9158 84.1175 25.4397C84.7069 25.9308 85.3944 26.2909 86.1475 26.4874C86.9005 26.7166 87.6863 26.8475 88.4721 26.8475C89.487 26.8475 90.5347 26.6838 91.517 26.3564C92.4337 26.0617 93.2522 25.5379 93.907 24.8503C94.3327 24.4247 94.3654 23.7371 94.038 23.246L92.7284 21.1506ZM112.962 7.89055H109.263C109.001 7.89055 108.771 7.98878 108.575 8.18522C108.379 8.38167 108.28 8.64359 108.28 8.93826V9.39663C107.822 8.84004 107.265 8.41441 106.611 8.11974C105.596 7.62863 104.482 7.39944 103.369 7.39944C100.979 7.39944 98.72 8.34893 97.0174 10.0187C96.1334 10.9027 95.4459 11.9504 94.9875 13.0964C94.4636 14.3732 94.2017 15.7484 94.2345 17.1235C94.2017 18.4986 94.4636 19.8737 94.9875 21.1834C95.4459 22.3293 96.1662 23.377 97.0174 24.261C98.6872 25.9635 100.946 26.913 103.336 26.913C104.45 26.9457 105.563 26.6838 106.578 26.2254C107.233 25.898 107.822 25.4724 108.28 24.9486V25.4397C108.28 25.7016 108.379 25.9635 108.575 26.1272C108.771 26.3237 109.001 26.4219 109.263 26.4219H112.962C113.519 26.4219 113.944 25.9963 113.944 25.4397V8.971C113.944 8.70907 113.846 8.44715 113.683 8.2507C113.519 8.02152 113.257 7.89055 112.962 7.89055ZM107.986 18.8915C107.789 19.4153 107.495 19.8737 107.102 20.2993C106.709 20.6922 106.283 21.0196 105.792 21.2488C105.268 21.478 104.712 21.609 104.122 21.609C103.533 21.609 103.009 21.478 102.485 21.2488C101.994 21.0196 101.536 20.6922 101.143 20.2993C100.75 19.9065 100.455 19.4153 100.292 18.8915C99.8986 17.7783 99.8986 16.5669 100.292 15.4537C100.488 14.9298 100.783 14.4715 101.143 14.0786C101.536 13.6857 101.994 13.3583 102.485 13.1291C103.009 12.8999 103.566 12.7689 104.122 12.7689C104.679 12.7689 105.235 12.8672 105.792 13.1291C106.283 13.3583 106.709 13.6529 107.102 14.0458C107.495 14.4387 107.789 14.8971 107.986 15.421C108.411 16.5341 108.411 17.7783 107.986 18.8915ZM133.262 20.8887L131.133 19.2516C130.741 18.9242 130.348 18.826 130.02 18.957C129.726 19.0879 129.464 19.2844 129.234 19.5136C128.776 20.0702 128.219 20.5613 127.63 20.9869C126.975 21.3471 126.288 21.5435 125.567 21.478C124.716 21.478 123.93 21.2488 123.243 20.7577C122.555 20.2666 122.031 19.6118 121.77 18.7933C121.573 18.2367 121.475 17.6801 121.475 17.1235C121.475 16.5341 121.573 15.9776 121.77 15.3882C121.966 14.8644 122.228 14.406 122.621 14.0131C123.014 13.6202 123.439 13.2928 123.93 13.0964C124.454 12.8672 125.011 12.7362 125.6 12.7362C126.321 12.7035 127.041 12.8999 127.663 13.2601C128.285 13.6529 128.809 14.1441 129.267 14.7334C129.464 14.9626 129.726 15.159 130.02 15.29C130.348 15.421 130.741 15.3227 131.133 14.9953L133.262 13.391C133.524 13.2273 133.72 12.9654 133.818 12.6707C133.949 12.3433 133.916 11.9832 133.72 11.6885C132.901 10.4116 131.788 9.36389 130.446 8.61085C129.038 7.82507 127.368 7.39944 125.502 7.39944C124.192 7.39944 122.883 7.66136 121.639 8.15248C120.46 8.64359 119.412 9.33115 118.528 10.2152C117.644 11.0992 116.924 12.1469 116.433 13.3255C115.418 15.7811 115.418 18.5313 116.433 20.9869C116.924 22.1328 117.611 23.2133 118.528 24.0645C120.394 25.898 122.883 26.8803 125.502 26.8803C127.368 26.8803 129.038 26.4546 130.446 25.6688C131.788 24.9158 132.934 23.8681 133.753 22.5585C133.916 22.2638 133.949 21.9037 133.851 21.609C133.72 21.3471 133.524 21.0851 133.262 20.8887ZM152.972 24.7194L147.111 16.1413L152.12 9.5276C152.35 9.23293 152.448 8.8073 152.317 8.44715C152.219 8.18522 151.989 7.92329 151.367 7.92329H147.406C147.176 7.92329 146.947 7.98877 146.751 8.087C146.489 8.21796 146.292 8.4144 146.161 8.64359L142.167 14.2423H141.218V1.01497C141.218 0.753042 141.119 0.491111 140.923 0.294666C140.727 0.0982206 140.497 0 140.235 0H136.536C136.274 0 136.012 0.0982206 135.815 0.294666C135.619 0.491111 135.521 0.720301 135.521 1.01497V25.4069C135.521 25.7016 135.619 25.9308 135.815 26.1272C136.012 26.3237 136.274 26.4219 136.536 26.4219H140.235C140.497 26.4219 140.759 26.3237 140.923 26.1272C141.119 25.9308 141.218 25.6689 141.218 25.4069V18.957H142.265L146.62 25.6361C146.882 26.1272 147.373 26.4219 147.897 26.4219H152.055C152.677 26.4219 152.939 26.1272 153.07 25.8653C153.234 25.4724 153.201 25.0468 152.972 24.7194ZM60.7078 7.89055H56.5497C56.2223 7.89055 55.9276 7.98878 55.6984 8.21796C55.502 8.41441 55.371 8.64359 55.3055 8.90552L52.2279 20.2993H51.4749L48.2008 8.90552C48.1353 8.67633 48.0371 8.44715 47.8734 8.21796C47.6769 7.98878 47.415 7.85781 47.1203 7.85781H42.8968C42.3402 7.85781 42.0128 8.02152 41.849 8.41441C41.7508 8.74181 41.7508 9.10197 41.849 9.42938L47.0876 25.4724C47.1858 25.7016 47.284 25.9635 47.4805 26.1272C47.6769 26.3237 47.9716 26.4219 48.2663 26.4219H50.4926L50.2962 26.9457L49.8051 28.4191C49.6414 28.8775 49.3795 29.2703 48.9866 29.565C48.6264 29.8269 48.2008 29.9906 47.7424 29.9579C47.3495 29.9579 46.9894 29.8597 46.6292 29.7287C46.2691 29.565 45.9417 29.3686 45.647 29.1394C45.3851 28.9429 45.0577 28.8447 44.6975 28.8447H44.6648C44.2719 28.8775 43.9117 29.0739 43.7153 29.4341L42.4056 31.3658C41.8818 32.217 42.1765 32.7409 42.5039 33.0355C43.2242 33.6904 44.0427 34.1815 44.9594 34.4761C45.9744 34.8363 47.0221 35 48.0698 35C49.9688 35 51.5404 34.4762 52.7518 33.4612C53.9959 32.348 54.9454 30.9074 55.4038 29.2703L61.4936 9.42938C61.6245 9.06923 61.6573 8.70908 61.5263 8.38167C61.4936 8.15248 61.2644 7.89055 60.7078 7.89055Z" fill="white"/>
</svg>
