<svg width="170" height="30" viewBox="0 0 170 30" fill="none" xmlns="http://www.w3.org/2000/svg">
<path d="M24.6577 2.86328H2.09459C1.33687 2.86328 0.691406 3.50875 0.691406 4.29453V6.84831C0.691406 7.63409 1.33687 8.27956 2.09459 8.27956H24.6577C25.4435 8.27956 26.0609 7.63409 26.089 6.84831V4.32259C26.089 3.50874 25.4435 2.86328 24.6577 2.86328ZM24.6577 17.0354H2.09459C1.72976 17.0354 1.36493 17.1757 1.11236 17.4564C0.831724 17.737 0.691406 18.0738 0.691406 18.4666V21.0204C0.691406 21.8062 1.33687 22.4517 2.09459 22.4517H24.6577C25.4435 22.4517 26.0609 21.8343 26.089 21.0204V18.4666C26.0609 17.6528 25.4435 17.0354 24.6577 17.0354ZM14.8074 24.1074H2.09459C1.72976 24.1074 1.36493 24.2478 1.11236 24.5284C0.859788 24.809 0.691406 25.1458 0.691406 25.5387V28.0925C0.691406 28.8783 1.33687 29.5237 2.09459 29.5237H14.7793C15.5651 29.5237 16.1825 28.8783 16.1825 28.1205V25.5667C16.2106 24.7248 15.5932 24.0794 14.8074 24.1074ZM26.089 9.93531H2.09459C1.72976 9.93531 1.36493 10.0756 1.11236 10.3563C0.859788 10.6369 0.691406 10.9737 0.691406 11.3666V13.9203C0.691406 14.7061 1.33687 15.3516 2.09459 15.3516H26.0609C26.8467 15.3516 27.4641 14.7061 27.4641 13.9203V11.3666C27.4922 10.5808 26.8467 9.96337 26.089 9.93531Z" fill="#00C3F7"/>
<path d="M52.3284 8.58747C51.6268 7.85781 50.813 7.29654 49.8869 6.90365C48.9608 6.51076 47.9785 6.31431 46.9683 6.31431C45.986 6.28625 45.0319 6.51076 44.1338 6.93171C43.5445 7.21235 43.0113 7.60524 42.5623 8.08232V7.6333C42.5623 7.40879 42.4781 7.18428 42.3378 7.0159C42.1974 6.84752 41.9729 6.73527 41.7204 6.73527H38.6053C38.3808 6.73527 38.1563 6.81946 38.016 7.0159C37.8476 7.18428 37.7634 7.40879 37.7915 7.6333V28.6249C37.7915 28.8494 37.8756 29.0739 38.016 29.2423C38.1843 29.4107 38.3808 29.4949 38.6053 29.4949H41.8045C42.0291 29.4949 42.2255 29.4107 42.3939 29.2423C42.5623 29.102 42.6745 28.8775 42.6465 28.6249V21.4406C43.0955 21.9457 43.6848 22.3106 44.3303 22.5351C45.1722 22.8438 46.0422 23.0122 46.9402 23.0122C47.9505 23.0122 48.9608 22.8157 49.8869 22.4228C50.813 22.0299 51.6549 21.4687 52.3565 20.739C53.0861 19.9813 53.6474 19.0833 54.0403 18.101C54.4893 17.0065 54.6857 15.8279 54.6577 14.6492C54.6857 13.4705 54.4612 12.2919 54.0403 11.1693C53.6193 10.2432 53.0581 9.34518 52.3284 8.58747ZM49.4659 16.1927C49.2975 16.6417 49.045 17.0346 48.7082 17.3994C48.0627 18.101 47.1366 18.4939 46.1825 18.4939C45.7054 18.4939 45.2283 18.4097 44.7793 18.1852C44.3583 17.9888 43.9654 17.7362 43.6287 17.3994C43.2919 17.0627 43.0393 16.6417 42.871 16.1927C42.5061 15.2385 42.5061 14.2002 42.871 13.246C43.0393 12.797 43.32 12.4041 43.6287 12.0674C43.9654 11.7306 44.3583 11.45 44.7793 11.2535C45.2283 11.0571 45.7054 10.9448 46.1825 10.9448C46.6876 10.9448 47.1366 11.029 47.6137 11.2535C48.0347 11.45 48.4276 11.7025 48.7363 12.0393C49.073 12.3761 49.2975 12.7689 49.494 13.218C49.8307 14.2002 49.8027 15.2385 49.4659 16.1927ZM71.8045 6.76333H68.6334C68.4089 6.76333 68.1843 6.84752 68.044 7.0159C67.8756 7.18428 67.7915 7.40879 67.7915 7.66137V8.05426C67.3986 7.57717 66.8934 7.21235 66.3602 6.95978C65.4902 6.53882 64.5361 6.34238 63.5819 6.34238C61.5333 6.34238 59.5969 7.15622 58.1376 8.58747C57.3799 9.34518 56.7905 10.2432 56.3976 11.2254C55.9486 12.3199 55.7241 13.4986 55.7522 14.7053C55.7241 15.884 55.9486 17.0627 56.3976 18.1852C56.8186 19.1674 57.3799 20.0655 58.1376 20.8232C59.5688 22.2825 61.5333 23.0964 63.5538 23.0964C64.508 23.1244 65.4622 22.8999 66.3321 22.479C66.8654 22.1983 67.3986 21.8335 67.7915 21.3845V21.8054C67.7915 22.0299 67.8756 22.2544 68.044 22.4228C68.2124 22.5631 68.4089 22.6754 68.6334 22.6754H71.8045C72.0291 22.6754 72.2536 22.5912 72.3939 22.4228C72.5623 22.2544 72.6465 22.0299 72.6465 21.8054V7.68943C72.6465 7.46492 72.5623 7.24041 72.422 7.07203C72.2536 6.87558 72.0291 6.76333 71.8045 6.76333ZM67.5108 16.1927C67.3424 16.6417 67.0899 17.0346 66.7531 17.3994C66.4163 17.7362 66.0515 18.0168 65.6306 18.2133C64.7325 18.6342 63.6942 18.6342 62.7961 18.2133C62.3752 18.0168 61.9823 17.7362 61.6455 17.3994C61.3088 17.0627 61.0562 16.6417 60.8878 16.1927C60.551 15.2385 60.551 14.2002 60.8878 13.246C61.0562 12.797 61.3088 12.4322 61.6455 12.0674C61.9823 11.7306 62.3471 11.45 62.7961 11.2535C63.6942 10.8326 64.7325 10.8326 65.6025 11.2535C66.0234 11.45 66.4163 11.7025 66.725 12.0393C67.0337 12.3761 67.2863 12.7689 67.4828 13.218C67.8756 14.2002 67.8756 15.2385 67.5108 16.1927ZM103.404 14.2844C102.955 13.8915 102.422 13.5547 101.861 13.3302C101.271 13.0776 100.626 12.9093 100.008 12.7689L97.595 12.2919C96.9776 12.1796 96.5286 12.0112 96.3041 11.8148C96.1076 11.6745 95.9673 11.45 95.9673 11.1974C95.9673 10.9448 96.1076 10.7203 96.4163 10.5239C96.8373 10.2993 97.2863 10.1871 97.7634 10.2152C98.3808 10.2152 98.9982 10.3555 99.5595 10.58C100.121 10.8326 100.654 11.0851 101.159 11.4219C101.861 11.8709 102.478 11.7867 102.899 11.2816L104.05 9.96258C104.274 9.73807 104.386 9.45744 104.414 9.14874C104.386 8.81198 104.218 8.53134 103.965 8.30683C103.488 7.88588 102.703 7.43686 101.664 6.98784C100.626 6.53882 99.3069 6.31431 97.7634 6.31431C96.8092 6.28625 95.8831 6.42657 94.9851 6.7072C94.2274 6.95977 93.4977 7.3246 92.8523 7.80169C92.2629 8.2507 91.8139 8.81198 91.4771 9.4855C91.1684 10.131 91.0001 10.8326 91.0001 11.5341C91.0001 12.8531 91.393 13.9196 92.1787 14.7053C92.9645 15.4911 94.0029 16.0243 95.2938 16.2769L97.8195 16.8382C98.3527 16.9224 98.914 17.0907 99.4191 17.3433C99.6998 17.4556 99.8682 17.7362 99.8682 18.0449C99.8682 18.3255 99.7278 18.5781 99.4191 18.8026C99.1104 19.0271 98.6053 19.1674 97.9318 19.1674C97.2582 19.1674 96.5567 19.0271 95.9393 18.7184C95.3499 18.4378 94.8167 18.073 94.3116 17.652C94.0871 17.4836 93.8626 17.3433 93.5819 17.2311C93.3013 17.1469 92.9365 17.2311 92.5716 17.5398L91.1965 18.5781C90.8036 18.8588 90.6072 19.3358 90.7194 19.7848C90.8036 20.2619 91.1684 20.7109 91.87 21.2442C93.61 22.4228 95.6867 23.0402 97.7915 22.9841C98.7737 22.9841 99.7559 22.8718 100.682 22.5912C101.496 22.3386 102.254 21.9738 102.927 21.4687C103.544 21.0196 104.05 20.4303 104.386 19.7287C104.723 19.0552 104.892 18.3255 104.892 17.5678C104.92 16.8943 104.779 16.2208 104.499 15.6034C104.218 15.1544 103.853 14.6773 103.404 14.2844ZM117.268 18.1291C117.127 17.8765 116.875 17.7081 116.566 17.652C116.285 17.652 115.977 17.7362 115.752 17.9046C115.359 18.1572 114.91 18.2975 114.461 18.3255C114.321 18.3255 114.153 18.2975 114.012 18.2694C113.844 18.2414 113.704 18.1572 113.591 18.0449C113.451 17.9046 113.339 17.7362 113.255 17.5678C113.142 17.2872 113.086 17.0066 113.114 16.7259V10.9729H117.211C117.464 10.9729 117.689 10.8606 117.857 10.6922C118.025 10.5239 118.138 10.3274 118.138 10.0748V7.6333C118.138 7.38073 118.053 7.15622 117.857 7.0159C117.689 6.84752 117.464 6.76333 117.24 6.76333H113.114V2.83443C113.114 2.60992 113.03 2.35734 112.862 2.21702C112.693 2.07671 112.497 1.99252 112.272 1.96445H109.073C108.849 1.96445 108.624 2.04864 108.456 2.21702C108.287 2.38541 108.175 2.60992 108.175 2.83443V6.76333H106.351C106.126 6.76333 105.902 6.84752 105.733 7.04397C105.593 7.21235 105.509 7.43686 105.509 7.66137V10.1029C105.509 10.3274 105.593 10.5519 105.733 10.7203C105.874 10.9167 106.098 11.0009 106.351 11.0009H108.175V17.8485C108.147 18.6623 108.315 19.4761 108.652 20.2058C108.961 20.8232 109.354 21.3564 109.887 21.8054C110.392 22.2264 110.981 22.5351 111.627 22.7035C112.272 22.8999 112.946 23.0122 113.619 23.0122C114.489 23.0122 115.387 22.8718 116.229 22.5912C117.015 22.3386 117.717 21.8896 118.278 21.3003C118.643 20.9355 118.671 20.3461 118.39 19.9252L117.268 18.1291ZM134.611 6.76333H131.44C131.215 6.76333 131.019 6.84752 130.85 7.0159C130.682 7.18428 130.598 7.40879 130.598 7.66137V8.05426C130.205 7.57717 129.728 7.21235 129.167 6.95978C128.297 6.53882 127.342 6.34238 126.388 6.34238C124.34 6.34238 122.403 7.15622 120.944 8.58747C120.186 9.34518 119.597 10.2432 119.204 11.2254C118.755 12.3199 118.53 13.4986 118.559 14.6773C118.53 15.8559 118.755 17.0346 119.204 18.1572C119.597 19.1394 120.214 20.0374 120.944 20.7951C122.375 22.2544 124.312 23.0683 126.36 23.0683C127.314 23.0964 128.269 22.8718 129.139 22.479C129.7 22.1983 130.205 21.8335 130.598 21.3845V21.8054C130.598 22.0299 130.682 22.2544 130.85 22.3948C131.019 22.5631 131.215 22.6473 131.44 22.6473H134.611C135.088 22.6473 135.453 22.2825 135.453 21.8054V7.68943C135.453 7.46492 135.369 7.24041 135.228 7.07203C135.088 6.87558 134.863 6.76333 134.611 6.76333ZM130.345 16.1927C130.177 16.6417 129.924 17.0346 129.588 17.3994C129.251 17.7362 128.886 18.0168 128.465 18.2133C128.016 18.4097 127.539 18.522 127.034 18.522C126.529 18.522 126.08 18.4097 125.631 18.2133C125.21 18.0168 124.817 17.7362 124.48 17.3994C124.143 17.0627 123.891 16.6417 123.75 16.1927C123.414 15.2385 123.414 14.2002 123.75 13.246C123.919 12.797 124.171 12.4041 124.48 12.0674C124.817 11.7306 125.21 11.45 125.631 11.2535C126.08 11.0571 126.557 10.9448 127.034 10.9448C127.511 10.9448 127.988 11.029 128.465 11.2535C128.886 11.45 129.251 11.7025 129.588 12.0393C129.924 12.3761 130.177 12.7689 130.345 13.218C130.71 14.1721 130.71 15.2385 130.345 16.1927ZM152.01 17.9046L150.186 16.5014C149.849 16.2208 149.513 16.1366 149.232 16.2488C148.979 16.3611 148.755 16.5295 148.559 16.7259C148.166 17.203 147.689 17.624 147.183 17.9888C146.622 18.2975 146.033 18.4659 145.415 18.4097C144.686 18.4097 144.012 18.2133 143.423 17.7923C142.834 17.3714 142.385 16.8101 142.16 16.1085C141.992 15.6314 141.907 15.1543 141.907 14.6773C141.907 14.1721 141.992 13.695 142.16 13.1899C142.328 12.7409 142.553 12.348 142.89 12.0112C143.226 11.6745 143.591 11.3938 144.012 11.2254C144.461 11.029 144.938 10.9167 145.443 10.9167C146.061 10.8887 146.678 11.0571 147.211 11.3658C147.745 11.7025 148.194 12.1235 148.587 12.6286C148.755 12.8251 148.979 12.9935 149.232 13.1057C149.513 13.218 149.849 13.1338 150.186 12.8531L152.01 11.478C152.235 11.3377 152.403 11.1132 152.487 10.8606C152.6 10.58 152.572 10.2713 152.403 10.0187C151.702 8.92423 150.747 8.02619 149.597 7.38073C148.39 6.7072 146.959 6.34238 145.359 6.34238C144.237 6.34238 143.114 6.56688 142.048 6.98784C141.037 7.40879 140.139 7.99813 139.382 8.75585C138.624 9.51356 138.007 10.4116 137.586 11.4219C136.716 13.5267 136.716 15.884 137.586 17.9888C138.007 18.971 138.596 19.8971 139.382 20.6268C140.981 22.1983 143.114 23.0402 145.359 23.0402C146.959 23.0402 148.39 22.6754 149.597 22.0019C150.747 21.3564 151.73 20.4584 152.431 19.3358C152.572 19.0833 152.6 18.7746 152.515 18.522C152.403 18.2975 152.235 18.073 152.01 17.9046ZM168.905 21.188L163.881 13.8354L168.175 8.16651C168.371 7.91394 168.456 7.54911 168.343 7.24041C168.259 7.0159 168.063 6.79139 167.53 6.79139H164.134C163.937 6.79139 163.741 6.84752 163.573 6.93171C163.348 7.04397 163.18 7.21235 163.067 7.40879L159.644 12.2077H158.83V0.869974C158.83 0.645465 158.746 0.420952 158.577 0.252571C158.409 0.0841891 158.212 0 157.988 0H154.817C154.592 0 154.368 0.0841891 154.199 0.252571C154.031 0.420952 153.947 0.617401 153.947 0.869974V21.7774C153.947 22.0299 154.031 22.2264 154.199 22.3948C154.368 22.5631 154.592 22.6473 154.817 22.6473H157.988C158.212 22.6473 158.437 22.5631 158.577 22.3948C158.746 22.2264 158.83 22.0019 158.83 21.7774V16.2488H159.728L163.46 21.9738C163.685 22.3948 164.106 22.6473 164.555 22.6473H168.119C168.652 22.6473 168.877 22.3948 168.989 22.1703C169.129 21.8335 169.101 21.4687 168.905 21.188ZM89.8214 6.76333H86.2573C85.9767 6.76333 85.7241 6.84752 85.5277 7.04397C85.3593 7.21235 85.247 7.40879 85.1909 7.6333L82.5529 17.3994H81.9075L79.1011 7.6333C79.045 7.43686 78.9608 7.24041 78.8205 7.04397C78.6521 6.84752 78.4276 6.73527 78.175 6.73527H74.5548C74.0777 6.73527 73.7971 6.87558 73.6567 7.21235C73.5726 7.49298 73.5726 7.80169 73.6567 8.08232L78.1469 21.8335C78.2311 22.0299 78.3153 22.2544 78.4837 22.3948C78.6521 22.5631 78.9046 22.6473 79.1572 22.6473H81.0655L80.8972 23.0964L80.4762 24.3592C80.3359 24.7521 80.1114 25.0889 79.7746 25.3414C79.4659 25.5659 79.1011 25.7063 78.7082 25.6782C78.3714 25.6782 78.0627 25.594 77.754 25.4818C77.4453 25.3414 77.1647 25.1731 76.9121 24.9766C76.6876 24.8082 76.407 24.724 76.0983 24.724H76.0702C75.7335 24.7521 75.4248 24.9205 75.2564 25.2292L74.1338 26.8849C73.6848 27.6146 73.9374 28.0636 74.218 28.3162C74.8354 28.8775 75.537 29.2984 76.3228 29.551C77.1928 29.8597 78.0908 30 78.9888 30C80.6165 30 81.9636 29.551 83.0019 28.681C84.0684 27.7269 84.8822 26.492 85.2751 25.0889L90.4949 8.08232C90.6072 7.77362 90.6352 7.46492 90.523 7.18429C90.4949 6.98784 90.2985 6.76333 89.8214 6.76333Z" fill="white"/>
</svg>
