<svg width="281" height="50" viewBox="0 0 281 50" fill="none" xmlns="http://www.w3.org/2000/svg">
<path d="M40.1778 4.77081H2.57252C1.30966 4.77081 0.233887 5.84659 0.233887 7.15622V11.4125C0.233887 12.7222 1.30966 13.7979 2.57252 13.7979H40.1778C41.4874 13.7979 42.5164 12.7222 42.5632 11.4125V7.20299C42.5632 5.84658 41.4874 4.77081 40.1778 4.77081ZM40.1778 28.391H2.57252C1.96448 28.391 1.35643 28.6249 0.935477 29.0926C0.46775 29.5603 0.233887 30.1216 0.233887 30.7764V35.0327C0.233887 36.3424 1.30966 37.4181 2.57252 37.4181H40.1778C41.4874 37.4181 42.5164 36.3891 42.5632 35.0327V30.7764C42.5164 29.42 41.4874 28.391 40.1778 28.391ZM23.7605 40.1777H2.57252C1.96448 40.1777 1.35643 40.4116 0.935477 40.8793C0.514523 41.3471 0.233887 41.9083 0.233887 42.5631V46.8195C0.233887 48.1291 1.30966 49.2049 2.57252 49.2049H23.7138C25.0234 49.2049 26.0524 48.1291 26.0524 46.8662V42.6099C26.0992 41.2067 25.0702 40.131 23.7605 40.1777ZM42.5632 16.5575H2.57252C1.96448 16.5575 1.35643 16.7914 0.935477 17.2591C0.514523 17.7268 0.233887 18.2881 0.233887 18.9429V23.1993C0.233887 24.5089 1.30966 25.5847 2.57252 25.5847H42.5164C43.826 25.5847 44.855 24.5089 44.855 23.1993V18.9429C44.9018 17.6333 43.826 16.6043 42.5632 16.5575Z" fill="#00C3F7"/>
<path d="M86.2957 14.3124C85.1264 13.0964 83.77 12.1609 82.2265 11.5061C80.683 10.8513 79.0459 10.5239 77.3621 10.5239C75.7251 10.4771 74.1348 10.8513 72.6381 11.5529C71.6559 12.0206 70.7672 12.6754 70.0188 13.4705V12.7222C70.0188 12.348 69.8785 11.9738 69.6446 11.6932C69.4108 11.4125 69.0366 11.2254 68.6156 11.2254H63.4239C63.0497 11.2254 62.6755 11.3658 62.4416 11.6932C62.161 11.9738 62.0207 12.348 62.0675 12.7222V47.7081C62.0675 48.0823 62.2078 48.4565 62.4416 48.7371C62.7223 49.0178 63.0497 49.1581 63.4239 49.1581H68.756C69.1301 49.1581 69.4575 49.0178 69.7382 48.7371C70.0188 48.5033 70.2059 48.1291 70.1591 47.7081V35.7343C70.9075 36.5762 71.8897 37.1843 72.9655 37.5585C74.3687 38.073 75.8186 38.3536 77.3154 38.3536C78.9992 38.3536 80.683 38.0262 82.2265 37.3714C83.77 36.7166 85.1732 35.7811 86.3425 34.565C87.5586 33.3022 88.494 31.8054 89.1488 30.1684C89.8972 28.3442 90.2246 26.3798 90.1778 24.4153C90.2246 22.4509 89.8504 20.4864 89.1488 18.6155C88.4473 17.072 87.5118 15.5753 86.2957 14.3124ZM81.5249 26.9878C81.2443 27.7362 80.8233 28.391 80.262 28.9991C79.1863 30.1684 77.6428 30.8232 76.0525 30.8232C75.2574 30.8232 74.4622 30.6829 73.7139 30.3087C73.0123 29.9813 72.3574 29.5603 71.7962 28.9991C71.2349 28.4378 70.8139 27.7362 70.5333 26.9878C69.9253 25.3976 69.9253 23.667 70.5333 22.0767C70.8139 21.3284 71.2817 20.6735 71.7962 20.1123C72.3574 19.551 73.0123 19.0833 73.7139 18.7559C74.4622 18.4284 75.2574 18.2413 76.0525 18.2413C76.8944 18.2413 77.6428 18.3817 78.4379 18.7559C79.1395 19.0833 79.7943 19.5042 80.3088 20.0655C80.8701 20.6268 81.2443 21.2816 81.5717 22.0299C82.1329 23.667 82.0862 25.3976 81.5249 26.9878ZM118.756 11.2722H113.471C113.096 11.2722 112.722 11.4125 112.488 11.6932C112.208 11.9738 112.067 12.348 112.067 12.7689V13.4238C111.413 12.6286 110.571 12.0206 109.682 11.5996C108.232 10.898 106.642 10.5706 105.052 10.5706C101.637 10.5706 98.4098 11.927 95.9777 14.3124C94.7148 15.5753 93.7326 17.072 93.0777 18.7091C92.3294 20.5332 91.9552 22.4977 92.002 24.5089C91.9552 26.4733 92.3294 28.4378 93.0777 30.3087C93.7793 31.9457 94.7148 33.4425 95.9777 34.7053C98.3631 37.1375 101.637 38.4939 105.005 38.4939C106.595 38.5407 108.185 38.1665 109.635 37.4649C110.524 36.9972 111.413 36.3892 112.067 35.6408V36.3424C112.067 36.7166 112.208 37.0907 112.488 37.3714C112.769 37.6052 113.096 37.7923 113.471 37.7923H118.756C119.13 37.7923 119.504 37.652 119.738 37.3714C120.019 37.0907 120.159 36.7166 120.159 36.3424V12.8157C120.159 12.4415 120.019 12.0674 119.785 11.7867C119.504 11.4593 119.13 11.2722 118.756 11.2722ZM111.6 26.9878C111.319 27.7362 110.898 28.391 110.337 28.9991C109.776 29.5603 109.168 30.0281 108.466 30.3555C106.969 31.0571 105.239 31.0571 103.742 30.3555C103.04 30.0281 102.386 29.5603 101.824 28.9991C101.263 28.4378 100.842 27.7362 100.561 26.9878C100 25.3976 100 23.667 100.561 22.0767C100.842 21.3284 101.263 20.7203 101.824 20.1123C102.386 19.551 102.994 19.0833 103.742 18.7559C105.239 18.0543 106.969 18.0543 108.419 18.7559C109.121 19.0833 109.776 19.5042 110.29 20.0655C110.805 20.6268 111.226 21.2816 111.553 22.0299C112.208 23.667 112.208 25.3976 111.6 26.9878ZM171.422 23.8073C170.674 23.1525 169.785 22.5912 168.85 22.217C167.867 21.7961 166.791 21.5154 165.762 21.2816L161.74 20.4864C160.711 20.2993 159.963 20.0187 159.589 19.6913C159.261 19.4574 159.027 19.0833 159.027 18.6623C159.027 18.2413 159.261 17.8672 159.776 17.5398C160.477 17.1656 161.226 16.9785 162.021 17.0253C163.05 17.0253 164.079 17.2591 165.014 17.6333C165.95 18.0543 166.838 18.4752 167.68 19.0365C168.85 19.7849 169.879 19.6445 170.58 18.8026L172.498 16.6043C172.872 16.2301 173.059 15.7624 173.106 15.2479C173.059 14.6866 172.778 14.2189 172.357 13.8447C171.562 13.1431 170.253 12.3948 168.522 11.6464C166.792 10.898 164.593 10.5239 162.021 10.5239C160.43 10.4771 158.887 10.7109 157.39 11.1787C156.127 11.5996 154.911 12.2077 153.835 13.0028C152.853 13.7512 152.105 14.6866 151.544 15.8092C151.029 16.8849 150.748 18.0543 150.748 19.2236C150.748 21.4219 151.403 23.1993 152.713 24.5089C154.023 25.8185 155.753 26.7072 157.905 27.1282L162.114 28.0636C163.003 28.2039 163.938 28.4846 164.78 28.9055C165.248 29.0926 165.529 29.5603 165.529 30.0748C165.529 30.5426 165.295 30.9635 164.78 31.3377C164.266 31.7119 163.424 31.9457 162.301 31.9457C161.179 31.9457 160.009 31.7119 158.98 31.1974C157.998 30.7297 157.11 30.1216 156.268 29.42C155.893 29.1394 155.519 28.9055 155.052 28.7184C154.584 28.5781 153.976 28.7184 153.368 29.2329L151.076 30.9635C150.421 31.4313 150.094 32.2264 150.281 32.9747C150.421 33.7699 151.029 34.5182 152.198 35.4069C155.098 37.3714 158.56 38.4004 162.067 38.3068C163.705 38.3068 165.342 38.1197 166.885 37.652C168.241 37.2311 169.504 36.623 170.627 35.7811C171.656 35.0327 172.498 34.0505 173.059 32.8812C173.62 31.7586 173.901 30.5426 173.901 29.2797C173.948 28.1572 173.714 27.0346 173.246 26.0056C172.778 25.2573 172.17 24.4621 171.422 23.8073ZM194.528 30.2152C194.294 29.7942 193.873 29.5136 193.358 29.42C192.891 29.42 192.376 29.5603 192.002 29.841C191.347 30.2619 190.599 30.4958 189.85 30.5426C189.617 30.5426 189.336 30.4958 189.102 30.449C188.821 30.4023 188.588 30.2619 188.4 30.0748C188.167 29.841 187.98 29.5603 187.839 29.2797C187.652 28.812 187.559 28.3443 187.605 27.8765V18.2881H194.434C194.855 18.2881 195.229 18.101 195.51 17.8204C195.791 17.5398 195.978 17.2123 195.978 16.7914V12.7222C195.978 12.3012 195.837 11.927 195.51 11.6932C195.229 11.4125 194.855 11.2722 194.481 11.2722H187.605V4.72404C187.605 4.34986 187.465 3.9289 187.184 3.69504C186.904 3.46118 186.576 3.32086 186.202 3.27409H180.87C180.496 3.27409 180.122 3.4144 179.841 3.69504C179.56 3.97568 179.373 4.34986 179.373 4.72404V11.2722H176.333C175.959 11.2722 175.585 11.4125 175.304 11.7399C175.07 12.0206 174.93 12.3948 174.93 12.7689V16.8382C174.93 17.2123 175.07 17.5865 175.304 17.8672C175.538 18.1946 175.912 18.3349 176.333 18.3349H179.373V29.7474C179.327 31.1038 179.607 32.4602 180.168 33.6763C180.683 34.7053 181.338 35.594 182.226 36.3424C183.068 37.044 184.051 37.5585 185.126 37.8391C186.202 38.1665 187.325 38.3536 188.447 38.3536C189.897 38.3536 191.394 38.1197 192.797 37.652C194.107 37.2311 195.276 36.4827 196.212 35.5005C196.82 34.8924 196.866 33.9102 196.399 33.2086L194.528 30.2152ZM223.433 11.2722H218.148C217.774 11.2722 217.446 11.4125 217.166 11.6932C216.885 11.9738 216.745 12.348 216.745 12.7689V13.4238C216.09 12.6286 215.295 12.0206 214.359 11.5996C212.909 10.898 211.319 10.5706 209.729 10.5706C206.314 10.5706 203.087 11.927 200.655 14.3124C199.392 15.5753 198.41 17.072 197.755 18.7091C197.007 20.5332 196.632 22.4977 196.679 24.4621C196.632 26.4266 197.007 28.391 197.755 30.2619C198.41 31.899 199.439 33.3957 200.655 34.6586C203.04 37.0907 206.268 38.4472 209.682 38.4472C211.272 38.4939 212.863 38.1197 214.313 37.4649C215.248 36.9972 216.09 36.3892 216.745 35.6408V36.3424C216.745 36.7166 216.885 37.0907 217.166 37.3246C217.446 37.6052 217.774 37.7456 218.148 37.7456H223.433C224.228 37.7456 224.836 37.1375 224.836 36.3424V12.8157C224.836 12.4415 224.696 12.0674 224.462 11.7867C224.228 11.4593 223.854 11.2722 223.433 11.2722ZM216.324 26.9878C216.043 27.7362 215.622 28.391 215.061 28.9991C214.5 29.5603 213.892 30.0281 213.19 30.3555C212.442 30.6829 211.646 30.87 210.805 30.87C209.963 30.87 209.214 30.6829 208.466 30.3555C207.764 30.0281 207.11 29.5603 206.548 28.9991C205.987 28.4378 205.566 27.7362 205.332 26.9878C204.771 25.3976 204.771 23.667 205.332 22.0767C205.613 21.3284 206.034 20.6735 206.548 20.1123C207.11 19.551 207.764 19.0833 208.466 18.7559C209.214 18.4284 210.009 18.2413 210.805 18.2413C211.6 18.2413 212.395 18.3817 213.19 18.7559C213.892 19.0833 214.5 19.5042 215.061 20.0655C215.622 20.6268 216.043 21.2816 216.324 22.0299C216.932 23.6202 216.932 25.3976 216.324 26.9878ZM252.432 29.841L249.392 27.5023C248.831 27.0346 248.27 26.8943 247.802 27.0814C247.381 27.2685 247.007 27.5491 246.679 27.8765C246.024 28.6717 245.229 29.3733 244.387 29.9813C243.452 30.4958 242.47 30.7764 241.441 30.6829C240.225 30.6829 239.102 30.3555 238.12 29.6539C237.138 28.9523 236.389 28.0168 236.015 26.8475C235.734 26.0524 235.594 25.2572 235.594 24.4621C235.594 23.6202 235.734 22.8251 236.015 21.9832C236.296 21.2348 236.67 20.58 237.231 20.0187C237.792 19.4574 238.4 18.9897 239.102 18.7091C239.85 18.3817 240.646 18.1946 241.487 18.1946C242.516 18.1478 243.545 18.4284 244.434 18.9429C245.323 19.5042 246.071 20.2058 246.726 21.0477C247.007 21.3751 247.381 21.6558 247.802 21.8429C248.27 22.0299 248.831 21.8896 249.392 21.4219L252.432 19.13C252.806 18.8962 253.087 18.522 253.227 18.101C253.415 17.6333 253.368 17.1188 253.087 16.6979C251.918 14.8737 250.328 13.377 248.41 12.3012C246.399 11.1787 244.013 10.5706 241.347 10.5706C239.476 10.5706 237.605 10.9448 235.828 11.6464C234.144 12.348 232.647 13.3302 231.385 14.5931C230.122 15.8559 229.093 17.3527 228.391 19.0365C226.941 22.5444 226.941 26.4733 228.391 29.9813C229.093 31.6183 230.075 33.1618 231.385 34.3779C234.051 36.9972 237.605 38.4004 241.347 38.4004C244.013 38.4004 246.399 37.7923 248.41 36.6698C250.328 35.594 251.965 34.0973 253.134 32.2264C253.368 31.8054 253.415 31.2909 253.274 30.87C253.087 30.4958 252.806 30.1216 252.432 29.841ZM280.589 35.3134L272.217 23.0589L279.373 13.6109C279.701 13.1899 279.841 12.5819 279.654 12.0674C279.514 11.6932 279.186 11.319 278.298 11.319H272.638C272.311 11.319 271.983 11.4125 271.703 11.5529C271.328 11.7399 271.048 12.0206 270.861 12.348L265.154 20.3461H263.798V1.44996C263.798 1.07577 263.658 0.701587 263.377 0.420951C263.096 0.140315 262.769 0 262.395 0H257.11C256.735 0 256.361 0.140315 256.081 0.420951C255.8 0.701587 255.66 1.029 255.66 1.44996V36.2956C255.66 36.7166 255.8 37.044 256.081 37.3246C256.361 37.6052 256.735 37.7456 257.11 37.7456H262.395C262.769 37.7456 263.143 37.6052 263.377 37.3246C263.658 37.044 263.798 36.6698 263.798 36.2956V27.0814H265.295L271.516 36.623C271.89 37.3246 272.591 37.7456 273.34 37.7456H279.28C280.168 37.7456 280.543 37.3246 280.73 36.9504C280.964 36.3892 280.917 35.7811 280.589 35.3134ZM148.784 11.2722H142.844C142.376 11.2722 141.955 11.4125 141.628 11.7399C141.347 12.0206 141.16 12.348 141.067 12.7222L136.67 28.9991H135.594L130.917 12.7222C130.823 12.3948 130.683 12.0674 130.449 11.7399C130.168 11.4125 129.794 11.2254 129.373 11.2254H123.34C122.545 11.2254 122.077 11.4593 121.843 12.0206C121.703 12.4883 121.703 13.0028 121.843 13.4705L129.327 36.3891C129.467 36.7166 129.607 37.0907 129.888 37.3246C130.168 37.6052 130.589 37.7456 131.01 37.7456H134.191L133.91 38.4939L133.209 40.5987C132.975 41.2535 132.601 41.8148 132.039 42.2357C131.525 42.6099 130.917 42.8438 130.262 42.797C129.701 42.797 129.186 42.6567 128.672 42.4696C128.157 42.2357 127.69 41.9551 127.269 41.6277C126.894 41.3471 126.427 41.2067 125.912 41.2067H125.865C125.304 41.2535 124.79 41.5341 124.509 42.0486L122.638 44.8082C121.89 46.0243 122.311 46.7727 122.778 47.1936C123.807 48.1291 124.977 48.8307 126.286 49.2516C127.736 49.7661 129.233 50 130.73 50C133.443 50 135.688 49.2516 137.418 47.8017C139.196 46.2114 140.552 44.1534 141.207 41.8148L149.907 13.4705C150.094 12.956 150.14 12.4415 149.953 11.9738C149.907 11.6464 149.579 11.2722 148.784 11.2722Z" fill="#011B33"/>
</svg>
