<svg width="70" height="70" viewBox="0 0 70 70" fill="none" xmlns="http://www.w3.org/2000/svg">
<rect width="70" height="70" rx="35" fill="#EAEEFF"/>
<path d="M34.5 34.037C38.5223 34.037 41.8134 30.7982 41.8134 26.7236C41.8134 22.7012 38.5223 19.4102 34.5 19.4102C30.4776 19.4102 27.1865 22.7012 27.1865 26.7236C27.1865 30.7982 30.5298 34.037 34.5 34.037ZM34.5 27.246C33.194 27.246 32.097 26.149 32.097 24.843C32.097 23.6937 32.8806 22.7534 33.9776 22.4922V21.6564C33.9776 21.3952 34.1865 21.134 34.5 21.134C34.7611 21.134 35.0223 21.3952 35.0223 21.6564V22.4922C36.0671 22.7534 36.9029 23.6937 36.9029 24.843C36.9029 25.1042 36.694 25.3654 36.3806 25.3654C36.1194 25.3654 35.8582 25.1042 35.8582 24.843C35.8582 24.1116 35.2835 23.537 34.5522 23.4848H34.5C33.7686 23.4848 33.194 24.1116 33.194 24.843C33.194 25.5743 33.8209 26.2012 34.5522 26.2012C35.8582 26.2012 36.9552 27.2982 36.9552 28.6042C36.9552 29.7534 36.1194 30.746 34.9701 30.9549V31.7908C34.9701 32.1042 34.7089 32.3131 34.4477 32.3131C34.1865 32.3131 33.9253 32.1042 33.9253 31.7908V30.9027C32.8806 30.6415 32.1492 29.7012 32.1492 28.6042C32.1492 28.343 32.3582 28.0818 32.6716 28.0818C32.9328 28.0818 33.194 28.343 33.194 28.6042C33.194 29.3355 33.8209 29.9624 34.5522 29.9624C35.2835 29.9624 35.9104 29.3355 35.9104 28.6042C35.9104 27.8728 35.2313 27.246 34.5 27.246Z" fill="#001476"/>
<path d="M46.6716 32.1565L41.9179 30.5371C41.8656 30.5893 41.7089 30.955 41.3955 31.4252C41.5 31.4774 41.4477 31.4252 44.8955 32.6267L34.5 36.1789L24.1044 32.6267C27.6567 31.3729 27.5522 31.4774 27.6044 31.4252C27.3432 31.0595 27.082 30.5893 27.0298 30.5371L22.2761 32.1565C22.1194 32.2088 22.0149 32.3132 21.9626 32.4699L34.5 36.8058L46.985 32.5222C46.9328 32.3655 46.8283 32.2088 46.6716 32.1565Z" fill="#001476"/>
<path d="M33.5074 37.5892L21.0746 33.3057L18.6194 36.3878L30.3731 40.7236L33.5074 37.5892Z" fill="#001476"/>
<path d="M30.3209 41.8213L21.4403 38.5303V47.2542L33.9776 51.59V38.6348L30.8955 41.7168C30.7388 41.8213 30.5299 41.8736 30.3209 41.8213ZM38.1045 41.7168L35.0224 38.6348V51.59L47.6119 47.2542V38.5303L38.6791 41.8213C38.4702 41.8736 38.2612 41.8213 38.1045 41.7168Z" fill="#001476"/>
<path d="M47.9254 33.3057L35.4403 37.5892L38.6269 40.7236L47.9254 37.2758L50.3806 36.3878L47.9254 33.3057Z" fill="#001476"/>
</svg>
