<svg width="70" height="70" viewBox="0 0 70 70" fill="none" xmlns="http://www.w3.org/2000/svg">
<rect width="70" height="70" rx="35" fill="#EAEEFF"/>
<path d="M45.3125 34.0625H24.6875C24.1691 34.0625 23.75 34.4825 23.75 35V46.25C23.75 46.7675 24.1691 47.1875 24.6875 47.1875H45.3125C45.8309 47.1875 46.25 46.7675 46.25 46.25V35C46.25 34.4825 45.8309 34.0625 45.3125 34.0625ZM41.6947 45.3125H28.3053C27.965 43.9991 26.9384 42.9725 25.625 42.6322V38.6169C26.9384 38.2775 27.965 37.2509 28.3053 35.9375H41.6956C42.0359 37.2509 43.0625 38.2775 44.3759 38.6178V42.6331C43.0616 42.9725 42.035 43.9991 41.6947 45.3125Z" fill="#001476"/>
<path d="M37.8126 40.6245C37.8126 42.1752 36.5507 43.437 35.0001 43.437C33.4494 43.437 32.1876 42.1752 32.1876 40.6245C32.1876 39.0739 33.4494 37.812 35.0001 37.812C36.5507 37.812 37.8126 39.0739 37.8126 40.6245ZM39.6163 26.9211C39.4719 27.2708 39.1288 27.4995 38.7501 27.4995H36.8751V30.312C36.8751 31.348 36.036 32.187 35.0001 32.187C33.9641 32.187 33.1251 31.348 33.1251 30.312V27.4995H31.2501C30.8713 27.4995 30.5282 27.2708 30.3838 26.9211C30.2385 26.5705 30.3191 26.1673 30.5872 25.8992L34.3372 22.1492C34.7029 21.7836 35.2972 21.7836 35.6629 22.1492L39.4129 25.8992C39.681 26.1673 39.7616 26.5705 39.6163 26.9211Z" fill="#001476"/>
</svg>
