<svg width="70" height="70" viewBox="0 0 70 70" fill="none" xmlns="http://www.w3.org/2000/svg">
<rect width="70" height="70" rx="35" fill="#EAEEFF"/>
<path d="M54.5912 39.3059C54.2114 38.6718 52.6516 36.7895 48.527 39.1916L41.2278 43.4431C40.852 43.6618 40.4622 43.8154 40.0537 43.9044C40.2072 43.6669 40.3268 43.3958 40.4076 43.0943C40.7781 41.7113 39.9558 40.2674 38.5356 39.807C38.5086 39.7984 38.4811 39.7915 38.4533 39.7863C36.3542 39.4077 34.283 38.6589 32.6189 38.0574C32.0408 37.8484 31.4947 37.6509 31.0307 37.5005C29.1676 36.896 27.4835 37.645 26.0817 38.4573L20.6357 41.6126L20.2337 40.9023C20.0102 40.5073 19.6452 40.2227 19.2059 40.101C18.7666 39.9791 18.3071 40.0353 17.9122 40.2588L15.8641 41.4179C15.0467 41.8805 14.758 42.922 15.2206 43.7394L21.2417 54.3782C21.4652 54.7731 21.8302 55.0577 22.2695 55.1794C22.4215 55.2215 22.5758 55.2423 22.7289 55.2423C23.0188 55.2423 23.3048 55.1677 23.5632 55.0215L25.6112 53.8624C26.0061 53.6389 26.2907 53.2739 26.4125 52.8346C26.5343 52.3952 26.4782 51.9357 26.2546 51.541L25.5042 50.215L26.7652 49.4871L36.1216 51.9941C36.6479 52.1351 37.1645 52.2056 37.6699 52.2056C38.6776 52.2055 39.6409 51.9256 40.5475 51.3676L53.7939 43.211C54.9931 42.4728 55.3731 40.6114 54.5912 39.3059ZM25.2005 52.4988C25.1852 52.5553 25.1589 52.6082 25.1231 52.6544C25.0872 52.7006 25.0426 52.7393 24.9917 52.7682L22.9437 53.9272C22.8927 53.956 22.8366 53.9744 22.7785 53.9813C22.7204 53.9883 22.6615 53.9836 22.6052 53.9676C22.5488 53.9524 22.4959 53.9261 22.4496 53.8903C22.4034 53.8544 22.3647 53.8098 22.3359 53.7589L16.3149 43.12C16.2568 43.017 16.2419 42.8952 16.2735 42.7813C16.3051 42.6673 16.3806 42.5706 16.4835 42.5123L18.5315 41.3532C18.5976 41.3157 18.6723 41.2961 18.7482 41.296C18.7888 41.296 18.8296 41.3016 18.87 41.3128C18.9264 41.3281 18.9793 41.3544 19.0255 41.3902C19.0718 41.4261 19.1104 41.4707 19.1393 41.5216L25.1603 52.1605C25.189 52.2114 25.2074 52.2675 25.2143 52.3256C25.2212 52.3837 25.2165 52.4426 25.2005 52.4988ZM53.1346 42.1403L39.8882 50.2968C38.833 50.9463 37.6754 51.1087 36.4471 50.7796L26.839 48.2051C26.7593 48.1836 26.6761 48.1782 26.5942 48.1889C26.5124 48.1997 26.4334 48.2266 26.3619 48.2679L24.8848 49.1207L21.2549 42.7071L26.712 39.5454C27.9324 38.8382 29.2535 38.246 30.6426 38.6968C31.0868 38.8407 31.5986 39.0258 32.1912 39.24C33.8882 39.8535 35.9972 40.6159 38.1847 41.0158C38.9579 41.2851 39.3902 42.0321 39.1928 42.7689C38.9524 43.6659 38.243 43.8354 37.6315 43.7978C36.4347 43.5648 35.3588 43.2596 34.2313 42.9399C33.7465 42.8024 33.2452 42.6602 32.718 42.519C32.5569 42.4759 32.3853 42.4985 32.2409 42.5818C32.0965 42.6652 31.9911 42.8026 31.9479 42.9636C31.9048 43.1247 31.9274 43.2964 32.0108 43.4408C32.0941 43.5852 32.2315 43.6906 32.3926 43.7337C32.9108 43.8726 33.4076 44.0135 33.888 44.1497C34.9609 44.454 35.9879 44.7454 37.1253 44.9792C37.183 45.0052 37.2443 45.0223 37.3071 45.03C37.3594 45.0365 37.4113 45.0418 37.4629 45.0462C37.7049 45.0925 37.9475 45.1351 38.1908 45.1741C39.5437 45.3905 40.7441 45.1797 41.8605 44.5298L49.1598 40.2784C51.271 39.0488 52.8981 38.9269 53.5123 39.9521C53.9362 40.6598 53.7455 41.764 53.1346 42.1403ZM19.0147 43.2118C19.0286 43.3068 19.0236 43.4036 19.0001 43.4967C18.9765 43.5898 18.9349 43.6773 18.8775 43.7543C18.8201 43.8313 18.7482 43.8963 18.6657 43.9455C18.5832 43.9947 18.4919 44.0271 18.3969 44.041C18.3019 44.0549 18.205 44.0499 18.1119 44.0264C18.0188 44.0029 17.9313 43.9612 17.8543 43.9038C17.7773 43.8465 17.7123 43.7745 17.6632 43.692C17.614 43.6096 17.5815 43.5182 17.5676 43.4232C17.5396 43.2313 17.5889 43.0361 17.7048 42.8806C17.8207 42.7251 17.9935 42.622 18.1854 42.594C18.3773 42.5659 18.5725 42.6153 18.728 42.7311C18.8835 42.847 18.9866 43.0199 19.0147 43.2118ZM32.0959 27.0704C32.0582 26.9096 32.0854 26.7403 32.1715 26.5994C32.2576 26.4584 32.3957 26.3569 32.556 26.317C32.7163 26.277 32.8859 26.3017 33.0281 26.3858C33.1704 26.4698 33.2738 26.6065 33.3161 26.7662C33.5274 27.6143 34.3966 27.8954 35.0787 27.88C35.6719 27.8658 36.2249 27.6604 36.4877 27.3565C36.6339 27.1874 36.6881 26.9929 36.6579 26.7444C36.6078 26.3323 36.3634 25.8287 34.905 25.5892C32.8392 25.25 32.3571 24.1804 32.3165 23.3428C32.2601 22.1837 33.0648 21.2138 34.319 20.9293C34.3363 20.9254 34.354 20.9221 34.3715 20.9185V20.4688C34.3715 20.302 34.4377 20.1421 34.5556 20.0242C34.6736 19.9063 34.8335 19.84 35.0003 19.84C35.167 19.84 35.327 19.9063 35.4449 20.0242C35.5628 20.1421 35.629 20.302 35.629 20.4688V20.9127C36.4655 21.0772 37.2711 21.5914 37.6855 22.5785C37.7501 22.7322 37.7509 22.9053 37.6879 23.0597C37.6248 23.2141 37.503 23.3371 37.3493 23.4017C37.1955 23.4662 37.0224 23.467 36.868 23.404C36.7136 23.3409 36.5906 23.2191 36.5261 23.0653C36.1693 22.2158 35.3009 21.9961 34.5971 22.1557C34.0811 22.2728 33.5409 22.6301 33.5725 23.2818C33.5835 23.5063 33.6124 24.1025 35.1087 24.3483C36.8183 24.6289 37.7595 25.3841 37.9062 26.5929C37.9791 27.1929 37.8175 27.7414 37.4389 28.1792C37.0319 28.6497 36.3774 28.9745 35.6291 29.0908V29.5201C35.6291 29.6869 35.5629 29.8468 35.4449 29.9647C35.327 30.0827 35.1671 30.1489 35.0003 30.1489C34.8336 30.1489 34.6736 30.0827 34.5557 29.9647C34.4378 29.8468 34.3716 29.6869 34.3716 29.5201V29.081C33.2344 28.8745 32.3585 28.1239 32.0959 27.0704ZM35.0003 32.775C39.2904 32.775 42.7808 29.2847 42.7808 24.9945C42.7808 20.7044 39.2904 17.214 35.0003 17.214C30.7101 17.214 27.2198 20.7044 27.2198 24.9945C27.2198 29.2847 30.7101 32.775 35.0003 32.775ZM35.0003 18.4716C38.597 18.4716 41.5232 21.3977 41.5232 24.9945C41.5232 28.5913 38.597 31.5174 35.0003 31.5174C31.4035 31.5174 28.4773 28.5913 28.4773 24.9945C28.4773 21.3977 31.4035 18.4716 35.0003 18.4716ZM35.0003 34.9891C40.5113 34.9891 44.9948 30.5056 44.9948 24.9945C44.9948 19.4835 40.5113 15 35.0003 15C29.4893 15 25.0058 19.4835 25.0058 24.9945C25.0058 30.5055 29.4893 34.9891 35.0003 34.9891ZM35.0003 16.2576C39.8179 16.2576 43.7372 20.177 43.7372 24.9945C43.7372 29.8121 39.8179 33.7315 35.0003 33.7315C30.1826 33.7315 26.2633 29.8121 26.2633 24.9945C26.2633 20.177 30.1826 16.2576 35.0003 16.2576Z" fill="#001476"/>
</svg>
