<svg width="24" height="25" viewBox="0 0 24 25" fill="none" xmlns="http://www.w3.org/2000/svg">
<path d="M18 8.39453C19.6569 8.39453 21 7.05139 21 5.39453C21 3.73768 19.6569 2.39453 18 2.39453C16.3431 2.39453 15 3.73768 15 5.39453C15 7.05139 16.3431 8.39453 18 8.39453Z" stroke="black" stroke-width="1.8" stroke-linecap="round" stroke-linejoin="round"/>
<path d="M6 15.3945C7.65685 15.3945 9 14.0514 9 12.3945C9 10.7377 7.65685 9.39453 6 9.39453C4.34315 9.39453 3 10.7377 3 12.3945C3 14.0514 4.34315 15.3945 6 15.3945Z" stroke="black" stroke-width="1.8" stroke-linecap="round" stroke-linejoin="round"/>
<path d="M18 22.3945C19.6569 22.3945 21 21.0514 21 19.3945C21 17.7377 19.6569 16.3945 18 16.3945C16.3431 16.3945 15 17.7377 15 19.3945C15 21.0514 16.3431 22.3945 18 22.3945Z" stroke="black" stroke-width="1.8" stroke-linecap="round" stroke-linejoin="round"/>
<path d="M8.58984 13.9043L15.4198 17.8843" stroke="black" stroke-width="1.8" stroke-linecap="round" stroke-linejoin="round"/>
<path d="M15.4098 6.9043L8.58984 10.8843" stroke="black" stroke-width="1.8" stroke-linecap="round" stroke-linejoin="round"/>
</svg>
