<svg width="40" height="40" viewBox="0 0 40 40" fill="none" xmlns="http://www.w3.org/2000/svg">
<path d="M13.3329 18.333H26.6662C26.9124 18.3314 27.1551 18.2752 27.377 18.1686C27.5989 18.062 27.7945 17.9075 27.9495 17.7164C28.1125 17.5289 28.2314 17.3074 28.2978 17.0681C28.3641 16.8287 28.3761 16.5776 28.3329 16.333L26.6662 7.99969C26.5883 7.61756 26.3788 7.27486 26.0743 7.03123C25.7698 6.78761 25.3895 6.65849 24.9995 6.66635H14.9995C14.6096 6.65849 14.2293 6.78761 13.9248 7.03123C13.6202 7.27486 13.4108 7.61756 13.3329 7.99969L11.6662 16.333C11.6185 16.5751 11.6252 16.8248 11.6857 17.064C11.7462 17.3033 11.8591 17.5261 12.0162 17.7164C12.1748 17.9119 12.3757 18.069 12.6038 18.1758C12.8318 18.2826 13.0811 18.3364 13.3329 18.333ZM16.3662 9.99969H23.6329L24.6329 14.9997H15.3662L16.3662 9.99969ZM36.6662 22.9997C36.5883 22.6176 36.3788 22.2749 36.0743 22.0312C35.7698 21.7876 35.3895 21.6585 34.9995 21.6664H24.9995C24.6096 21.6585 24.2293 21.7876 23.9248 22.0312C23.6202 22.2749 23.4108 22.6176 23.3329 22.9997L21.6662 31.333C21.6185 31.5751 21.6252 31.8248 21.6857 32.064C21.7462 32.3033 21.8591 32.5261 22.0162 32.7164C22.1748 32.9119 22.3757 33.069 22.6038 33.1758C22.8318 33.2826 23.0811 33.3364 23.3329 33.333H36.6662C36.9124 33.3314 37.1551 33.2752 37.377 33.1686C37.5989 33.062 37.7945 32.9075 37.9495 32.7164C38.1125 32.5289 38.2314 32.3074 38.2978 32.0681C38.3641 31.8287 38.3761 31.5776 38.3329 31.333L36.6662 22.9997ZM25.3662 29.9997L26.3662 24.9997H33.6329L34.6329 29.9997H25.3662ZM14.9995 21.6664H4.99954C4.60963 21.6585 4.22931 21.7876 3.92478 22.0312C3.62025 22.2749 3.41079 22.6176 3.33288 22.9997L1.66621 31.333C1.6185 31.5751 1.62515 31.8248 1.68568 32.064C1.74621 32.3033 1.8591 32.5261 2.01621 32.7164C2.17483 32.9119 2.37571 33.069 2.60375 33.1758C2.8318 33.2826 3.08108 33.3364 3.33288 33.333H16.6662C16.9124 33.3314 17.1551 33.2752 17.377 33.1686C17.5989 33.062 17.7945 32.9075 17.9495 32.7164C18.1125 32.5289 18.2314 32.3074 18.2978 32.0681C18.3641 31.8287 18.3761 31.5776 18.3329 31.333L16.6662 22.9997C16.5883 22.6176 16.3788 22.2749 16.0743 22.0312C15.7698 21.7876 15.3895 21.6585 14.9995 21.6664ZM5.36621 29.9997L6.36621 24.9997H13.6329L14.6329 29.9997H5.36621Z" fill="#001476"/>
</svg>
