<svg width="64" height="64" viewBox="0 0 64 64" fill="none" xmlns="http://www.w3.org/2000/svg">
<path fill-rule="evenodd" clip-rule="evenodd" d="M18.9939 41.3494L19.0013 41.3507C20.8054 41.7159 22.2158 43.1264 22.5811 44.9305L22.5823 44.9379C23.0179 47.0936 21.8605 49.2556 19.8231 50.0848L9.73535 54.1964L13.847 44.1086C14.6774 42.0713 16.8381 40.9126 18.9939 41.3494Z" fill="#B4CBEA"/>
<path fill-rule="evenodd" clip-rule="evenodd" d="M22.5799 44.9299C22.3972 44.0266 21.9518 43.2208 21.3261 42.5977L9.74029 54.1835L9.73535 54.1958L19.8231 50.0842C21.8605 49.2537 23.0179 47.0931 22.5823 44.9373L22.5799 44.9299Z" fill="#79A1D5"/>
<path fill-rule="evenodd" clip-rule="evenodd" d="M24.5791 39.3512C26.3252 41.0973 27.585 43.1482 28.3896 45.3323C33.7981 43.511 38.8809 40.4581 43.19 36.149C50.5457 28.7933 54.2711 19.1867 54.3834 9.54688C44.7436 9.65917 35.137 13.3846 27.7812 20.7403C23.4722 25.0494 20.4193 30.1334 18.598 35.5407C20.7821 36.3465 22.833 37.6051 24.5791 39.3512Z" fill="#F4F8F8"/>
<path fill-rule="evenodd" clip-rule="evenodd" d="M24.575 39.3475L24.5787 39.3512C26.3248 41.0973 27.5847 43.1482 28.3892 45.3323C33.7978 43.511 38.8806 40.4581 43.1896 36.149C50.5454 28.7933 54.2708 19.1867 54.3831 9.54688C54.3806 9.54688 54.3781 9.54688 54.3757 9.54688L24.575 39.3475Z" fill="#DBE7F6"/>
<path fill-rule="evenodd" clip-rule="evenodd" d="M24.5123 39.42C23.4166 38.3243 22.1974 37.4333 20.9103 36.709L19.7158 38.8598C20.8067 39.4768 21.8383 40.2369 22.7675 41.1661C23.6967 42.0953 24.4556 43.1269 25.0738 44.2178L27.2123 43.0294C26.4904 41.7387 25.6081 40.5158 24.5123 39.42ZM20.0132 41.9843L20.0169 41.9855C20.9881 42.1817 21.747 42.9406 21.9432 43.9117L21.9444 43.9154C22.1789 45.0754 21.5557 46.239 20.4587 46.687L15.028 48.9007L17.2417 43.47C17.6897 42.373 18.8533 41.7498 20.0132 41.9843Z" fill="#DBE7F6"/>
<path fill-rule="evenodd" clip-rule="evenodd" d="M52.2841 21.6189C53.6316 17.7134 54.3362 13.6338 54.3831 9.54688C50.2962 9.59377 46.2166 10.2984 42.3111 11.6459L52.2841 21.6189Z" fill="#B4CBEA"/>
<path d="M42.1446 27.8936C43.8312 26.207 43.8312 23.4724 42.1445 21.7857C40.4578 20.0991 37.7232 20.0992 36.0366 21.7858C34.35 23.4725 34.35 26.2071 36.0367 27.8937C37.7234 29.5804 40.458 29.5803 42.1446 27.8936Z" fill="#B4CBEA"/>
<path fill-rule="evenodd" clip-rule="evenodd" d="M21.9444 43.9126C21.8457 43.4252 21.6051 42.9921 21.267 42.6552L15.0341 48.8881L15.0292 48.9004L20.4599 46.6866C21.5569 46.2399 22.1801 45.0763 21.9456 43.9163L21.9444 43.9126ZM24.5062 39.416L22.7613 41.1609C22.7613 41.1609 22.765 41.1633 22.7662 41.1658C23.6954 42.095 24.4543 43.1266 25.0725 44.2174L27.211 43.0291C26.4892 41.7396 25.6081 40.518 24.5111 39.421C24.5099 39.4185 24.5086 39.4172 24.5062 39.416Z" fill="#B4CBEA"/>
<path fill-rule="evenodd" clip-rule="evenodd" d="M42.1409 21.7818L36.0339 27.8888L36.0376 27.8925C37.7245 29.5793 40.459 29.5793 42.1458 27.8925C43.8327 26.2056 43.8327 23.4711 42.1458 21.7843L42.1409 21.7818ZM47.294 16.6287L52.2842 21.6189C53.6317 17.7134 54.3363 13.6338 54.3832 9.54688C54.3808 9.54688 54.3783 9.54688 54.3758 9.54688L47.294 16.6287Z" fill="#0688FF"/>
<path fill-rule="evenodd" clip-rule="evenodd" d="M24.765 24.1387C20.6595 24.1387 16.5541 25.7046 13.421 28.8377C11.6404 30.6183 10.3842 32.7173 9.61664 34.9471C12.5807 33.4651 15.9914 33.1936 19.1208 34.124C20.4658 30.5936 22.3378 27.2212 24.765 24.1387Z" fill="#0688FF"/>
<path fill-rule="evenodd" clip-rule="evenodd" d="M39.9332 39.3047C39.9332 43.4101 38.3673 47.5156 35.2342 50.6487C33.4536 52.4293 31.3546 53.6855 29.1248 54.453C30.6068 51.489 30.8782 48.0783 29.9478 44.9489C33.477 43.6039 36.8507 41.7319 39.9332 39.3047Z" fill="#0688FF"/>
<path d="M25.0736 44.8339C24.8589 44.8339 24.6491 44.7216 24.5356 44.5217C23.9161 43.4284 23.1745 42.4462 22.3304 41.6021C21.4864 40.7581 20.5041 40.0165 19.4108 39.397C19.1159 39.2304 19.011 38.8565 19.1764 38.5604L20.3709 36.4096C20.4498 36.2652 20.5843 36.1603 20.7423 36.1159C20.899 36.0702 21.0693 36.09 21.2124 36.1714C22.613 36.9599 23.8692 37.9064 24.9465 38.9836C26.0126 40.0498 26.9554 41.3085 27.7488 42.7263C27.8278 42.8694 27.8488 43.0385 27.8031 43.1964C27.7575 43.3544 27.6526 43.4877 27.5094 43.5666L25.371 44.755C25.2772 44.8093 25.1748 44.8339 25.0736 44.8339ZM20.5461 38.6357C21.5259 39.2428 22.418 39.9461 23.2029 40.7297C23.9877 41.5133 24.6898 42.4055 25.2969 43.3865L26.3606 42.7954C25.6918 41.6947 24.9243 40.7075 24.074 39.8573C23.2152 38.9984 22.2305 38.2272 21.1421 37.5621L20.5461 38.6357Z" fill="#0E0E2C"/>
<path d="M28.3891 45.9488C28.1374 45.9488 27.9017 45.7945 27.8104 45.5453C27.0021 43.35 25.7681 41.4127 24.143 39.7875C22.5191 38.1636 20.5817 36.9284 18.3852 36.1189C18.0718 36.0029 17.9077 35.6598 18.0138 35.3427C19.9363 29.6331 23.0768 24.5713 27.3452 20.303C34.5615 13.0866 44.1619 9.04658 54.3768 8.92812C54.5199 8.92195 54.7025 8.99105 54.8198 9.10828C54.937 9.2255 55.0024 9.38592 54.9999 9.55128C54.8815 19.7674 50.8414 29.3665 43.6263 36.5829C39.3567 40.8524 34.2962 43.9929 28.5866 45.9155C28.5212 45.9389 28.4533 45.9488 28.3891 45.9488ZM25.0142 38.9151C26.6258 40.5267 27.8807 42.4221 28.7482 44.5544C34.0482 42.6787 38.7583 39.7061 42.7527 35.7117C49.5889 28.8754 53.4809 19.8279 53.7524 10.1757C44.1002 10.4471 35.0539 14.3391 28.2164 21.1766C24.2232 25.171 21.2493 29.8799 19.3737 35.1811C21.5097 36.0498 23.4038 37.3035 25.0142 38.9151Z" fill="#0E0E2C"/>
<path d="M52.3325 22.115C52.1745 22.115 52.0166 22.0545 51.8957 21.9348L41.9942 12.0334C41.7536 11.7927 41.7536 11.4016 41.9942 11.1609C42.2348 10.9203 42.626 10.9203 42.8666 11.1609L52.7681 21.0624C53.0087 21.303 53.0087 21.6942 52.7681 21.9348C52.6472 22.0545 52.4892 22.115 52.3325 22.115ZM9.61699 35.5592C9.47015 35.5592 9.32577 35.5074 9.20978 35.4062C9.02098 35.2408 8.95187 34.978 9.03332 34.7411C9.86749 32.32 11.1965 30.1852 12.9845 28.396C16.1312 25.2493 20.3144 23.5168 24.7641 23.5168C24.9998 23.5168 25.2157 23.6513 25.3194 23.8648C25.4231 24.0783 25.3959 24.33 25.2491 24.5151C22.923 27.4692 21.0548 30.7738 19.6961 34.3388C19.5802 34.6411 19.2519 34.7991 18.9434 34.7102C15.9165 33.8094 12.7019 34.0895 9.89217 35.4938C9.80579 35.5382 9.71077 35.5592 9.61699 35.5592ZM23.482 24.8038C19.8455 25.1012 16.4656 26.6597 13.8569 29.2696C12.5452 30.5813 11.4988 32.0979 10.7374 33.7872C13.2955 32.8469 16.0756 32.7013 18.7472 33.3775C19.9676 30.3086 21.5558 27.4322 23.482 24.8038ZM29.125 55.0685C28.9498 55.0685 28.7807 54.9944 28.661 54.8587C28.4957 54.6699 28.4611 54.3996 28.5734 54.1763C29.9789 51.3665 30.2566 48.152 29.357 45.1238C29.2657 44.8141 29.4273 44.4858 29.7284 44.3711C33.2946 43.0112 36.5992 41.143 39.5509 38.8182C39.7372 38.6713 39.989 38.6442 40.2024 38.7478C40.4159 38.8515 40.5504 39.0662 40.5504 39.3031C40.5504 43.7528 38.8179 47.9373 35.6713 51.0827C33.8845 52.8695 31.7497 54.1985 29.3261 55.0351C29.2607 55.0586 29.1929 55.0685 29.125 55.0685ZM30.6909 45.32C31.3671 47.9916 31.2215 50.7705 30.2812 53.3298C31.973 52.5672 33.4871 51.522 34.7988 50.2103C37.4075 47.6016 38.966 44.2218 39.2646 40.5865C36.6362 42.5115 33.7598 44.1008 30.6909 45.32ZM39.0919 29.7706C37.8283 29.7706 36.5647 29.2894 35.6022 28.3269C33.6772 26.4018 33.6772 23.2712 35.6022 21.3462C37.4655 19.4817 40.7183 19.4804 42.5828 21.3462C44.5078 23.2712 44.5078 26.4018 42.5828 28.3269C41.6191 29.2894 40.3555 29.7706 39.0919 29.7706ZM39.0919 21.134C38.1022 21.134 37.173 21.519 36.4734 22.2186C35.0308 23.6624 35.0308 26.0107 36.4734 27.4544C37.9159 28.897 40.2641 28.897 41.7091 27.4544C43.1517 26.0107 43.1517 23.6624 41.7091 22.2186C41.0095 21.519 40.0803 21.134 39.0919 21.134ZM9.73545 54.8106C9.57503 54.8106 9.41708 54.7476 9.29862 54.6304C9.1234 54.4552 9.0691 54.1911 9.16412 53.9616L13.2757 43.8738C14.2173 41.565 16.6741 40.252 19.1162 40.7419C19.1248 40.7432 19.1347 40.7456 19.1433 40.7481L19.1507 40.7493C21.1757 41.1578 22.77 42.7521 23.1858 44.8042C23.6819 47.2549 22.364 49.7117 20.0552 50.652L9.96867 54.7649C9.89217 54.7957 9.81319 54.8106 9.73545 54.8106ZM18.0858 41.8723C16.5026 41.8723 15.0342 42.8261 14.4172 44.339L10.8596 53.0694L19.5888 49.5106C21.3497 48.7937 22.3529 46.9205 21.9765 45.0572C21.6594 43.4851 20.4427 42.2696 18.8793 41.9537L18.8718 41.9525C18.609 41.8969 18.3462 41.8723 18.0858 41.8723Z" fill="#0E0E2C"/>
<path d="M15.0292 49.5175C14.8688 49.5175 14.7108 49.4545 14.5924 49.3373C14.4171 49.1621 14.3629 48.898 14.4579 48.6685L16.6716 43.2377C17.2294 41.8692 18.6904 41.0906 20.1354 41.3806C21.3719 41.6422 22.3035 42.5837 22.5491 43.7905C22.8415 45.2442 22.0604 46.7015 20.6932 47.2593L15.2624 49.473C15.1872 49.5026 15.1082 49.5175 15.0292 49.5175ZM19.5246 42.5529C18.7867 42.5529 18.1018 42.9971 17.8143 43.7029L16.1546 47.7763L20.2267 46.1166C21.0473 45.7822 21.5162 44.9085 21.3398 44.0386C21.1917 43.3056 20.6241 42.738 19.8948 42.5911H19.8911C19.7677 42.5652 19.6455 42.5529 19.5246 42.5529Z" fill="#0E0E2C"/>
</svg>
