<svg width="90" height="90" viewBox="0 0 90 90" fill="none" xmlns="http://www.w3.org/2000/svg">
<rect width="90" height="90" rx="20" fill="white"/>
<path d="M56.25 50.625C56.2489 52.608 55.7984 54.565 54.9324 56.3489C54.0664 58.1329 52.8074 59.6974 51.25 60.925V59.375C51.2512 57.2194 50.397 55.1515 48.875 53.625C47.9772 52.7349 46.8866 52.0634 45.6875 51.6625C46.249 51.2593 46.7063 50.7281 47.0215 50.1129C47.3367 49.4977 47.5007 48.8162 47.5 48.125V46.875C47.4935 45.7167 47.0304 44.6077 46.2114 43.7887C45.3923 42.9696 44.2833 42.5066 43.125 42.5C41.9647 42.5 40.8519 42.9609 40.0314 43.7814C39.211 44.6019 38.75 45.7147 38.75 46.875V48.125C38.7494 48.8162 38.9134 49.4977 39.2286 50.1129C39.5438 50.7281 40.0011 51.2593 40.5625 51.6625C38.9428 52.2008 37.5336 53.2356 36.5352 54.62C35.5367 56.0044 34.9996 57.6681 35 59.375V60.925C33.19 59.4916 31.7906 57.6056 30.9433 55.4578C30.0959 53.3101 29.8307 50.9766 30.1745 48.6935C30.5182 46.4103 31.4587 44.2584 32.9009 42.4554C34.343 40.6523 36.2357 39.262 38.3875 38.425C39.8946 37.8219 41.5018 37.5081 43.125 37.5C46.606 37.5 49.9444 38.8828 52.4058 41.3442C54.8672 43.8056 56.25 47.144 56.25 50.625Z" fill="#F8D770"/>
<path d="M35 60.9621V59.3746C34.9995 57.6677 35.5367 56.004 36.5351 54.6196C37.5336 53.2352 38.9427 52.2004 40.5625 51.6621C41.306 52.2065 42.2035 52.5 43.125 52.5C44.0465 52.5 44.944 52.2065 45.6875 51.6621C46.8865 52.063 47.9772 52.7345 48.875 53.6246C50.397 55.1511 51.2512 57.219 51.25 59.3746V60.9246" stroke="#231F20" stroke-width="2.5" stroke-linecap="round" stroke-linejoin="round"/>
<path d="M28.75 35C32.2018 35 35 32.2018 35 28.75C35 25.2982 32.2018 22.5 28.75 22.5C25.2982 22.5 22.5 25.2982 22.5 28.75C22.5 32.2018 25.2982 35 28.75 35Z" stroke="#231F20" stroke-width="2.5" stroke-linecap="round" stroke-linejoin="round"/>
<path d="M62.5 32.5C65.2614 32.5 67.5 30.2614 67.5 27.5C67.5 24.7386 65.2614 22.5 62.5 22.5C59.7386 22.5 57.5 24.7386 57.5 27.5C57.5 30.2614 59.7386 32.5 62.5 32.5Z" stroke="#231F20" stroke-width="2.5" stroke-linecap="round" stroke-linejoin="round"/>
<path d="M25 67.5C26.3807 67.5 27.5 66.3807 27.5 65C27.5 63.6193 26.3807 62.5 25 62.5C23.6193 62.5 22.5 63.6193 22.5 65C22.5 66.3807 23.6193 67.5 25 67.5Z" stroke="#231F20" stroke-width="2.5" stroke-linecap="round" stroke-linejoin="round"/>
<path d="M63.75 67.5C65.8211 67.5 67.5 65.8211 67.5 63.75C67.5 61.6789 65.8211 60 63.75 60C61.6789 60 60 61.6789 60 63.75C60 65.8211 61.6789 67.5 63.75 67.5Z" stroke="#231F20" stroke-width="2.5" stroke-linecap="round" stroke-linejoin="round"/>
<path d="M38.3875 38.3875L33.75 33.75" stroke="#231F20" stroke-width="2.5" stroke-linecap="round" stroke-linejoin="round"/>
<path d="M58.75 31.25L51.25 38.75" stroke="#231F20" stroke-width="2.5" stroke-linecap="round" stroke-linejoin="round"/>
<path d="M32.1625 57.8379L27.5 62.5004" stroke="#231F20" stroke-width="2.5" stroke-linecap="round" stroke-linejoin="round"/>
<path d="M61.0998 61.1008L55.3623 55.3633" stroke="#231F20" stroke-width="2.5" stroke-linecap="round" stroke-linejoin="round"/>
<path d="M47.5 46.875V48.125C47.5 49.2853 47.0391 50.3981 46.2186 51.2186C45.3981 52.0391 44.2853 52.5 43.125 52.5C41.9647 52.5 40.8519 52.0391 40.0314 51.2186C39.2109 50.3981 38.75 49.2853 38.75 48.125V46.875C38.75 45.7147 39.2109 44.6019 40.0314 43.7814C40.8519 42.9609 41.9647 42.5 43.125 42.5C44.2833 42.5066 45.3923 42.9696 46.2113 43.7887C47.0304 44.6077 47.4934 45.7167 47.5 46.875Z" stroke="#231F20" stroke-width="2.5" stroke-linecap="round" stroke-linejoin="round"/>
<path d="M35 60.9621V59.3746C34.9995 57.6677 35.5367 56.004 36.5351 54.6196C37.5336 53.2352 38.9427 52.2004 40.5625 51.6621C41.306 52.2065 42.2035 52.5 43.125 52.5C44.0465 52.5 44.944 52.2065 45.6875 51.6621C46.8865 52.063 47.9772 52.7345 48.875 53.6246C50.397 55.1511 51.2512 57.219 51.25 59.3746V60.9246" stroke="#231F20" stroke-width="2.5" stroke-linecap="round" stroke-linejoin="round"/>
</svg>
