<svg width="40" height="40" viewBox="0 0 40 40" fill="none" xmlns="http://www.w3.org/2000/svg">
<path d="M35.8622 31.724C35.4964 31.724 35.1456 31.5787 34.8869 31.32C34.6282 31.0613 34.4829 30.7105 34.4829 30.3447V17.9309C34.4829 17.1709 33.865 16.5516 33.1036 16.5516H6.89672C6.13534 16.5516 5.51741 17.1709 5.51741 17.9309V30.3447C5.51741 30.7105 5.37209 31.0613 5.11342 31.32C4.85475 31.5787 4.50392 31.724 4.1381 31.724C3.77228 31.724 3.42145 31.5787 3.16278 31.32C2.90411 31.0613 2.75879 30.7105 2.75879 30.3447V17.9309C2.75879 15.6495 4.61534 13.793 6.89672 13.793H33.1036C35.385 13.793 37.2415 15.6495 37.2415 17.9309V30.3447C37.2415 30.7105 37.0962 31.0613 36.8376 31.32C36.5789 31.5787 36.2281 31.724 35.8622 31.724Z" fill="#001476"/>
<path d="M35.8622 31.724C35.4964 31.724 35.1456 31.5787 34.8869 31.32C34.6282 31.0613 34.4829 30.7105 34.4829 30.3447V17.9309C34.4829 17.1709 33.865 16.5516 33.1036 16.5516H6.89672C6.13534 16.5516 5.51741 17.1709 5.51741 17.9309V30.3447C5.51741 30.7105 5.37209 31.0613 5.11342 31.32C4.85475 31.5787 4.50392 31.724 4.1381 31.724C3.77228 31.724 3.42145 31.5787 3.16278 31.32C2.90411 31.0613 2.75879 30.7105 2.75879 30.3447V17.9309C2.75879 15.6495 4.61534 13.793 6.89672 13.793H33.1036C35.385 13.793 37.2415 15.6495 37.2415 17.9309V30.3447C37.2415 30.7105 37.0962 31.0613 36.8376 31.32C36.5789 31.5787 36.2281 31.724 35.8622 31.724Z" fill="#001476"/>
<path d="M35.8622 20.6898C35.4964 20.6898 35.1456 20.5445 34.8869 20.2858C34.6282 20.0272 34.4829 19.6763 34.4829 19.3105V6.89672C34.4829 6.13672 33.865 5.51741 33.1036 5.51741H6.89672C6.13534 5.51741 5.51741 6.13672 5.51741 6.89672V19.3105C5.51741 19.6763 5.37209 20.0272 5.11342 20.2858C4.85475 20.5445 4.50392 20.6898 4.1381 20.6898C3.77228 20.6898 3.42145 20.5445 3.16278 20.2858C2.90411 20.0272 2.75879 19.6763 2.75879 19.3105V6.89672C2.75879 4.61534 4.61534 2.75879 6.89672 2.75879H33.1036C35.385 2.75879 37.2415 4.61534 37.2415 6.89672V19.3105C37.2415 19.6763 37.0962 20.0272 36.8376 20.2858C36.5789 20.5445 36.2281 20.6898 35.8622 20.6898Z" fill="#001476"/>
<path d="M35.8622 26.2064C35.4964 26.2064 35.1456 26.0611 34.8869 25.8024C34.6282 25.5438 34.4829 25.1929 34.4829 24.8271V12.4133C34.4829 11.6533 33.865 11.034 33.1036 11.034H6.89672C6.13534 11.034 5.51741 11.6533 5.51741 12.4133V24.8271C5.51741 25.1929 5.37209 25.5438 5.11342 25.8024C4.85475 26.0611 4.50392 26.2064 4.1381 26.2064C3.77228 26.2064 3.42145 26.0611 3.16278 25.8024C2.90411 25.5438 2.75879 25.1929 2.75879 24.8271V12.4133C2.75879 10.1319 4.61534 8.27539 6.89672 8.27539H33.1036C35.385 8.27539 37.2415 10.1319 37.2415 12.4133V24.8271C37.2415 25.1929 37.0962 25.5438 36.8376 25.8024C36.5789 26.0611 36.2281 26.2064 35.8622 26.2064Z" fill="#001476"/>
<path d="M33.1036 37.2416H6.89672C4.61534 37.2416 2.75879 35.385 2.75879 33.1037V23.4485C2.75879 21.1671 4.61534 19.3105 6.89672 19.3105H12.414C14.6953 19.3105 16.5519 21.1671 16.5519 23.4485C16.5519 24.2085 17.1698 24.8278 17.9312 24.8278H22.0691C22.8305 24.8278 23.4484 24.2085 23.4484 23.4485C23.4484 21.1671 25.305 19.3105 27.5864 19.3105H33.1036C35.385 19.3105 37.2415 21.1671 37.2415 23.4485V33.1037C37.2415 35.385 35.385 37.2416 33.1036 37.2416ZM6.89672 22.0692C6.13534 22.0692 5.51741 22.6885 5.51741 23.4485V33.1037C5.51741 33.8637 6.13534 34.483 6.89672 34.483H33.1036C33.865 34.483 34.4829 33.8637 34.4829 33.1037V23.4485C34.4829 22.6885 33.865 22.0692 33.1036 22.0692H27.5864C26.825 22.0692 26.2071 22.6885 26.2071 23.4485C26.2071 25.7299 24.3505 27.5864 22.0691 27.5864H17.9312C15.6498 27.5864 13.7933 25.7299 13.7933 23.4485C13.7933 22.6885 13.1753 22.0692 12.414 22.0692H6.89672Z" fill="#001476"/>
</svg>
