<svg width="70" height="70" viewBox="0 0 70 70" fill="none" xmlns="http://www.w3.org/2000/svg">
<rect width="70" height="70" rx="35" fill="#EAEEFF"/>
<path d="M35.43 34.9071C36.1586 34.2764 36.743 33.4964 37.1436 32.6199C37.5441 31.7435 37.7514 30.7911 37.7514 29.8275C37.7514 28.0167 37.0321 26.2801 35.7517 24.9997C34.4713 23.7193 32.7347 23 30.9239 23C29.1132 23 27.3766 23.7193 26.0962 24.9997C24.8158 26.2801 24.0965 28.0167 24.0965 29.8275C24.0965 30.7911 24.3038 31.7435 24.7043 32.6199C25.1048 33.4964 25.6892 34.2764 26.4178 34.9071C24.5063 35.7726 22.8846 37.1704 21.7464 38.9333C20.6083 40.6962 20.002 42.7495 20 44.8478C20 45.21 20.1439 45.5573 20.3999 45.8134C20.656 46.0695 21.0033 46.2133 21.3655 46.2133C21.7276 46.2133 22.075 46.0695 22.331 45.8134C22.5871 45.5573 22.731 45.21 22.731 44.8478C22.731 42.6749 23.5942 40.591 25.1306 39.0546C26.6671 37.5181 28.751 36.6549 30.9239 36.6549C33.0968 36.6549 35.1807 37.5181 36.7172 39.0546C38.2537 40.591 39.1169 42.6749 39.1169 44.8478C39.1169 45.21 39.2607 45.5573 39.5168 45.8134C39.7729 46.0695 40.1202 46.2133 40.4824 46.2133C40.8445 46.2133 41.1918 46.0695 41.4479 45.8134C41.704 45.5573 41.8478 45.21 41.8478 44.8478C41.8458 42.7495 41.2395 40.6962 40.1014 38.9333C38.9633 37.1704 37.3415 35.7726 35.43 34.9071ZM30.9239 33.9239C30.1137 33.9239 29.3217 33.6837 28.648 33.2335C27.9744 32.7834 27.4493 32.1436 27.1393 31.3951C26.8292 30.6466 26.7481 29.8229 26.9062 29.0283C27.0642 28.2336 27.4544 27.5037 28.0273 26.9308C28.6002 26.3579 29.3301 25.9678 30.1247 25.8097C30.9194 25.6516 31.743 25.7328 32.4916 26.0428C33.2401 26.3529 33.8799 26.8779 34.33 27.5516C34.7801 28.2252 35.0204 29.0172 35.0204 29.8275C35.0204 30.9139 34.5888 31.9559 33.8206 32.7241C33.0523 33.4923 32.0104 33.9239 30.9239 33.9239ZM44.2238 34.3609C45.0977 33.3768 45.6685 32.1612 45.8676 30.8602C46.0667 29.5593 45.8855 28.2286 45.3459 27.0282C44.8063 25.8278 43.9313 24.809 42.8262 24.0943C41.7211 23.3797 40.4329 22.9996 39.1169 23C38.7547 23 38.4074 23.1439 38.1513 23.3999C37.8952 23.656 37.7514 24.0033 37.7514 24.3655C37.7514 24.7276 37.8952 25.075 38.1513 25.331C38.4074 25.5871 38.7547 25.731 39.1169 25.731C40.2033 25.731 41.2453 26.1626 42.0135 26.9308C42.7817 27.699 43.2133 28.741 43.2133 29.8275C43.2114 30.5447 43.0212 31.2488 42.6618 31.8694C42.3023 32.4901 41.7862 33.0055 41.1651 33.3641C40.9627 33.4809 40.7936 33.6476 40.674 33.8485C40.5545 34.0493 40.4885 34.2775 40.4824 34.5111C40.4766 34.7429 40.5301 34.9723 40.6376 35.1778C40.7451 35.3833 40.9031 35.5579 41.0968 35.6854L41.6294 36.0404L41.8069 36.136C43.4528 36.9167 44.8414 38.1515 45.8091 39.6949C46.7768 41.2384 47.2832 43.0262 47.2688 44.8478C47.2688 45.21 47.4127 45.5573 47.6688 45.8134C47.9249 46.0695 48.2722 46.2133 48.6343 46.2133C48.9965 46.2133 49.3438 46.0695 49.5999 45.8134C49.856 45.5573 49.9998 45.21 49.9998 44.8478C50.011 42.7524 49.4862 40.6889 48.4752 38.8534C47.4643 37.0179 46.0008 35.4715 44.2238 34.3609Z" fill="#001476"/>
</svg>
