<svg width="90" height="90" viewBox="0 0 90 90" fill="none" xmlns="http://www.w3.org/2000/svg">
<rect width="90" height="90" rx="20" fill="white"/>
<path d="M42.5438 61.2638H19.2306C17.6436 61.2638 16.4626 59.7875 16.8316 58.2374L19.5013 46.8946C19.7596 45.7874 20.7561 45 21.888 45H39.8742C41.0183 45 42.0148 45.7874 42.2731 46.8946L44.9305 58.2374C45.2995 59.7875 44.1308 61.2638 42.5438 61.2638Z" fill="#F5C560"/>
<path opacity="0.3" d="M41.5114 45.6274H38.9402C32.4199 45.6274 26.3548 47.928 21.5937 51.8278C20.0067 53.1196 18.5674 54.5959 17.3125 56.2198L19.5024 46.8946C19.7607 45.7874 20.7572 45 21.8891 45H39.8752C40.4903 45 41.0685 45.2338 41.5114 45.6274Z" fill="white"/>
<path opacity="0.1" d="M42.5438 61.2638H19.2306C17.6436 61.2638 16.4626 59.7875 16.8316 58.2374L16.9424 57.7823H37.672C39.259 57.7823 40.4277 56.3059 40.0587 54.7558L37.7704 45H39.8742C41.0183 45 42.0148 45.7874 42.2731 46.8946L44.9305 58.2374C45.2995 59.7875 44.1308 61.2638 42.5438 61.2638Z" fill="#010101"/>
<path d="M70.7801 61.2638H47.467C45.88 61.2638 44.6989 59.7875 45.068 58.2374L47.7377 46.8946C47.996 45.7874 48.9925 45 50.1243 45H68.1105C69.2546 45 70.2511 45.7874 70.5094 46.8946L73.1668 58.2374C73.5358 59.7875 72.3671 61.2638 70.7801 61.2638Z" fill="#F5C560"/>
<path opacity="0.3" d="M69.7458 45.6274H67.1746C60.6543 45.6274 54.5892 47.928 49.8281 51.8278C48.2411 53.1196 46.8017 54.5959 45.5469 56.2198L47.7367 46.8946C47.9951 45.7874 48.9915 45 50.1234 45H68.1096C68.7247 45 69.3029 45.2338 69.7458 45.6274Z" fill="white"/>
<path opacity="0.1" d="M70.7801 61.2638H47.467C45.88 61.2638 44.6989 59.7875 45.068 58.2374L45.1787 57.7823H65.9083C67.4954 57.7823 68.6641 56.3059 68.295 54.7558L66.0068 45H68.1105C69.2546 45 70.2511 45.7874 70.5094 46.8946L73.1668 58.2374C73.5358 59.7875 72.3671 61.2638 70.7801 61.2638Z" fill="#010101"/>
<path d="M56.6629 45.0001H33.3498C31.7628 45.0001 30.5817 43.5238 30.9508 41.9738L33.6205 30.6309C33.8788 29.5237 34.8753 28.7363 36.0071 28.7363H53.9933C55.1374 28.7363 56.1339 29.5237 56.3922 30.6309L59.0496 41.9738C59.4187 43.5238 58.2499 45.0001 56.6629 45.0001Z" fill="#F5C560"/>
<path opacity="0.3" d="M55.6286 29.3638H53.0574C46.5371 29.3638 40.472 31.6643 35.7109 35.5642C34.1239 36.8559 32.6846 38.3322 31.4297 39.9562L33.6196 30.6309C33.8779 29.5237 34.8744 28.7363 36.0062 28.7363H53.9924C54.6075 28.7363 55.1857 28.9701 55.6286 29.3638Z" fill="white"/>
<path opacity="0.1" d="M56.6629 45.0001H33.3498C31.7628 45.0001 30.5817 43.5238 30.9508 41.9738L31.0615 41.5186H51.7911C53.3782 41.5186 54.5469 40.0423 54.1778 38.4922L51.8896 28.7363H53.9933C55.1374 28.7363 56.1339 29.5237 56.3922 30.6309L59.0496 41.9738C59.4187 43.5238 58.2499 45.0001 56.6629 45.0001Z" fill="#010101"/>
<path d="M74.3123 57.9701L71.6549 46.6276C71.2694 44.9772 69.8121 43.8243 68.1105 43.8243H60.0413C60.295 43.1544 60.3655 42.4245 60.1946 41.7063L57.5372 30.3639C57.1518 28.7135 55.6944 27.5605 53.9929 27.5605H36.0069C34.3387 27.5605 32.8526 28.7399 32.4746 30.3621L29.8058 41.7023C29.6341 42.4225 29.7052 43.1537 29.961 43.8243H21.8893C20.2211 43.8243 18.735 45.0037 18.357 46.6259L15.6881 57.9661C15.429 59.053 15.6778 60.1789 16.3706 61.0555C17.0662 61.9361 18.1088 62.4411 19.2319 62.4411H42.5447C43.4751 62.4411 44.3371 62.0775 45.0035 61.4568C45.6722 62.0777 46.5358 62.4411 47.4672 62.4411H70.78C71.899 62.4411 72.9376 61.9384 73.6299 61.0624C74.3226 60.1852 74.5708 59.057 74.3123 57.9701ZM32.3345 43.3332C32.0909 43.0253 32.0036 42.6295 32.0955 42.244L34.7661 30.8987C34.8988 30.3277 35.421 29.9135 36.0069 29.9135H53.9929C54.5857 29.9135 55.1125 30.3282 55.2463 30.8998L57.9049 42.2469C57.9968 42.6329 57.9095 43.0316 57.6659 43.3401C57.4229 43.648 57.057 43.8243 56.6624 43.8243C47.8494 43.8243 41.0795 43.8243 33.3495 43.8243C32.9508 43.8243 32.5809 43.6451 32.3345 43.3332ZM45.0021 53.3824L43.4196 46.6276C43.383 46.4713 43.3283 46.3241 43.2732 46.1773H46.7391C46.6835 46.3237 46.6285 46.4707 46.5923 46.6259L45.0021 53.3824ZM42.5447 60.0881H19.2319C18.8332 60.0881 18.4633 59.9089 18.2168 59.597C17.9732 59.2891 17.8859 58.8933 17.9778 58.5078L20.6485 47.1624C20.7812 46.5914 21.3033 46.1773 21.8893 46.1773C28.1199 46.1773 33.6553 46.1773 39.8753 46.1773C40.4681 46.1773 40.9949 46.592 41.1287 47.1636L43.7873 58.5107C43.9797 59.3189 43.3748 60.0881 42.5447 60.0881ZM71.7836 59.6038C71.5406 59.9118 71.1746 60.0881 70.78 60.0881H47.4672C46.6411 60.0881 46.0186 59.3237 46.2131 58.5078L48.8838 47.1624C49.0164 46.5914 49.5386 46.1773 50.1246 46.1773C56.3422 46.1773 61.8787 46.1773 68.1105 46.1773C68.7034 46.1773 69.2301 46.592 69.364 47.1636L72.0225 58.5107C72.1144 58.8967 72.0271 59.2954 71.7836 59.6038Z" fill="#2A3D66"/>
<path d="M26.6399 35.7601L24.6684 36.4232C24.6146 36.4411 24.5668 36.4889 24.5489 36.5427L23.8857 38.5142C23.8259 38.6875 23.575 38.6875 23.5153 38.5142L22.8521 36.5427C22.8342 36.4889 22.7864 36.4411 22.7326 36.4232L20.7611 35.7601C20.5878 35.7003 20.5878 35.4494 20.7611 35.3896L22.7326 34.7265C22.7864 34.7085 22.8342 34.6607 22.8521 34.607L23.5153 32.6354C23.575 32.4622 23.8259 32.4622 23.8857 32.6354L24.5489 34.607C24.5668 34.6607 24.6146 34.7085 24.6684 34.7265L26.6399 35.3896C26.8131 35.4494 26.8131 35.7003 26.6399 35.7601ZM25.3173 67.1659L23.3458 67.8291C23.292 67.847 23.2442 67.8948 23.2263 67.9486L22.5632 69.9201C22.5034 70.0933 22.2525 70.0933 22.1927 69.9201L21.5296 67.9486C21.5116 67.8948 21.4638 67.847 21.4101 67.8291L19.4385 67.1659C19.2653 67.1061 19.2653 66.8552 19.4385 66.7955L21.4101 66.1323C21.4639 66.1144 21.5117 66.0666 21.5296 66.0129L22.1928 64.0413C22.2525 63.868 22.5034 63.868 22.5632 64.0413L23.2263 66.0129C23.2443 66.0666 23.292 66.1144 23.3458 66.1323L25.3174 66.7955C25.4906 66.8552 25.4906 67.1061 25.3173 67.1659ZM68.1111 37.8671L66.1396 38.5303C66.0858 38.5482 66.038 38.596 66.0201 38.6498L65.357 40.6213C65.2972 40.7946 65.0463 40.7946 64.9865 40.6213L64.3234 38.6498C64.3054 38.596 64.2576 38.5482 64.2039 38.5303L62.2323 37.8671C62.0591 37.8074 62.0591 37.5565 62.2323 37.4967L64.2039 36.8335C64.2576 36.8156 64.3054 36.7678 64.3234 36.7141L64.9865 34.7425C65.0463 34.5693 65.2972 34.5693 65.357 34.7425L66.0201 36.7141C66.038 36.7678 66.0858 36.8156 66.1396 36.8335L68.1111 37.4967C68.2844 37.5565 68.2844 37.8074 68.1111 37.8671ZM47.7838 70.3521L45.8122 71.0152C45.7584 71.0331 45.7107 71.0809 45.6927 71.1347L45.0296 73.1063C44.9698 73.2795 44.7189 73.2795 44.6592 73.1063L43.996 71.1347C43.9781 71.0809 43.9303 71.0331 43.8765 71.0152L41.9049 70.3521C41.7317 70.2923 41.7317 70.0414 41.9049 69.9817L43.8765 69.3185C43.9303 69.3006 43.9781 69.2528 43.996 69.199L44.6592 67.2274C44.7189 67.0542 44.9698 67.0542 45.0296 67.2274L45.6927 69.199C45.7107 69.2528 45.7584 69.3006 45.8122 69.3185L47.7838 69.9817C47.957 70.0414 47.957 70.2923 47.7838 70.3521ZM57.0158 20.0202L55.0443 20.6833C54.9905 20.7013 54.9427 20.7491 54.9248 20.8028L54.2616 22.7744C54.2019 22.9476 53.9509 22.9476 53.8912 22.7744L53.228 20.8028C53.2101 20.7491 53.1623 20.7013 53.1086 20.6833L51.137 20.0202C50.9637 19.9604 50.9637 19.7095 51.137 19.6498L53.1086 18.9866C53.1623 18.9687 53.2101 18.9209 53.228 18.8671L53.8912 16.8956C53.9509 16.7223 54.2019 16.7223 54.2616 16.8956L54.9248 18.8671C54.9427 18.9209 54.9905 18.9687 55.0443 18.9866L57.0158 19.6498C57.189 19.7095 57.189 19.9604 57.0158 20.0202ZM68.06 67.1659L66.0885 67.8291C66.0347 67.847 65.9869 67.8948 65.969 67.9486L65.3058 69.9201C65.2461 70.0933 64.9952 70.0933 64.9354 69.9201L64.2722 67.9486C64.2543 67.8948 64.2065 67.847 64.1528 67.8291L62.1812 67.1659C62.008 67.1061 62.008 66.8552 62.1812 66.7955L64.1528 66.1323C64.2065 66.1144 64.2543 66.0666 64.2722 66.0129L64.9354 64.0413C64.9952 63.868 65.2461 63.868 65.3058 64.0413L65.969 66.0129C65.9869 66.0666 66.0347 66.1144 66.0885 66.1323L68.06 66.7955C68.2333 66.8552 68.2333 67.1061 68.06 67.1659ZM72.1777 24.4208L70.2061 25.084C70.1523 25.1019 70.1046 25.1497 70.0866 25.2035L69.4235 27.175C69.3637 27.3482 69.1128 27.3482 69.0531 27.175L68.3899 25.2035C68.372 25.1497 68.3242 25.1019 68.2704 25.084L66.2988 24.4208C66.1256 24.361 66.1256 24.1101 66.2988 24.0504L68.2704 23.3872C68.3242 23.3693 68.372 23.3215 68.3899 23.2677L69.0531 21.2962C69.1128 21.1229 69.3637 21.1229 69.4235 21.2962L70.0866 23.2677C70.1046 23.3215 70.1523 23.3693 70.2061 23.3872L72.1777 24.0504C72.3509 24.1101 72.3509 24.361 72.1777 24.4208ZM34.8695 22.3542L32.6068 23.1153C32.5451 23.1358 32.4903 23.1907 32.4697 23.2524L31.7086 25.5151C31.64 25.7139 31.3521 25.7139 31.2835 25.5151L30.5224 23.2524C30.5019 23.1907 30.447 23.1358 30.3853 23.1153L28.1226 22.3542C27.9238 22.2856 27.9238 21.9977 28.1226 21.9291L30.3853 21.168C30.447 21.1474 30.5019 21.0926 30.5224 21.0309L31.2835 18.7682C31.3521 18.5694 31.64 18.5694 31.7086 18.7682L32.4697 21.0309C32.4903 21.0926 32.5451 21.1475 32.6068 21.168L34.8695 21.9291C35.0683 21.9977 35.0683 22.2856 34.8695 22.3542Z" fill="#F4BA42"/>
</svg>
