<svg xmlns="http://www.w3.org/2000/svg" enable-background="new 0 0 512 512" viewBox="0 0 512 512" id="education-growth"><polygon fill="#d7e9ff" points="456.651 34.457 456.651 288.556 55.351 288.556 55.351 34.457 88.053 5.001 88.053 34.457 423.949 34.457 423.949 5.001"></polygon><path fill="#fff" d="M256.001 40.093v248.463c0-19.382-15.71-35.093-35.093-35.093H88.053V5.001h132.856C240.291 5.001 256.001 20.711 256.001 40.093zM256.001 40.093v248.463c0-19.382 15.71-35.093 35.093-35.093H423.95V5.001H291.093C271.711 5.001 256.001 20.711 256.001 40.093z"></path><path fill="#d7e9ff" d="M162.554 348.003c0 0 5.258 36.471 31.053 56.083 25.839 19.644 62.387 14.958 62.387 14.958s-5.257-36.471-31.096-56.115C199.103 343.317 162.554 348.003 162.554 348.003zM349.47 313.737c0 0-5.258 36.471-31.053 56.083-25.839 19.644-62.387 14.958-62.387 14.958s5.257-36.471 31.096-56.115C312.922 309.051 349.47 313.737 349.47 313.737z"></path><path fill="#94c1ff" d="M338.85,506.999H173.143c8.331-38.183,42.241-66.647,82.881-66.647C296.609,440.352,330.519,468.816,338.85,506.999z"></path><path fill="#116fff" d="M460,30.737l-32.71-29.45c-0.906-0.821-2.194-1.287-3.342-1.287H291.094c-15.088,0-28.252,8.382-35.093,20.73c-6.841-12.348-20.003-20.73-35.092-20.73H88.053c-0.012,0-0.023,0.003-0.036,0.004c-1.239,0.008-2.475,0.533-3.305,1.283l-32.711,29.45c-1.05,0.95-1.65,2.3-1.65,3.72v253.96c-0.069,2.842,2.266,5.139,5,5.139h195.672v94.391c-5.005-10.103-12.365-20.839-23.098-28.999c-27.114-20.612-64.43-16.105-66.006-15.903c-1.329,0.17-2.534,0.867-3.345,1.933c-0.81,1.066-1.159,2.414-0.969,3.74c0.227,1.571,5.863,38.734,32.977,59.349c18.628,14.162,42.032,16.488,55.406,16.488c1.894,0,3.586-0.047,5.035-0.113v11.069c-40.501,2.267-74.212,31.213-82.766,70.424c-0.323,1.478,0.041,3.024,0.99,4.201c0.949,1.179,2.38,1.865,3.894,1.865h165.708c1.514,0,2.945-0.685,3.894-1.865c0.949-1.178,1.313-2.723,0.99-4.201c-8.331-38.19-41.228-68.095-82.712-70.424v-45.332c1.445,0.066,3.129,0.112,5.014,0.112c13.375,0,36.78-2.328,55.406-16.488c27.114-20.615,32.75-57.778,32.977-59.349c0.191-1.326-0.158-2.674-0.969-3.74c-0.811-1.066-2.016-1.763-3.345-1.933c-1.575-0.201-38.892-4.71-66.006,15.903c-10.718,8.148-18.073,18.867-23.077,28.956v-60.083h195.627c2.76,0,5-2.24,5-5V34.457C461.65,33.037,461.05,31.687,460,30.737z M428.95,16.237l22.7,20.45v239.175l-22.702-24.366C428.948,241.764,428.95,26.235,428.95,16.237z M90.227,258.465h130.683c14.889,0,27.279,10.871,29.668,25.092H66.819L90.227,258.465z M421.773,258.465l23.379,25.092H261.424c2.39-14.22,14.78-25.092,29.669-25.092H421.773z M291.094,10.001h127.854v238.464H291.094c-11.976,0-22.741,5.277-30.093,13.626V40.093C261.001,23.5,274.501,10.001,291.094,10.001z M93.053,10.001h127.857c16.593,0,30.092,13.499,30.092,30.092v221.999c-7.353-8.35-18.118-13.626-30.092-13.626H93.053V10.001z M83.052,16.237c0,9.929,0.002,224.803,0.002,235.257l-22.702,24.333V36.688L83.052,16.237z M168.594,352.588c10.697-0.393,35.056,0.468,53.278,14.322c14.401,10.948,22.027,27.818,25.821,39.543l-35.954-27.334c-2.198-1.671-5.336-1.244-7.007,0.954c-1.671,2.198-1.244,5.335,0.954,7.007l35.981,27.356c-12.296-0.509-30.58-3.34-45.033-14.327C178.467,386.294,171.091,363,168.594,352.588z M332.385,501.999H179.607c10.19-33.575,41.131-56.647,76.415-56.647C291.25,445.353,322.193,468.415,332.385,501.999z M290.153,332.644c18.167-13.813,42.595-14.687,53.285-14.311c-2.48,10.403-9.824,33.654-28.048,47.509c-14.401,10.948-32.691,13.783-45.005,14.306l35.953-27.334c2.198-1.672,2.625-4.809,0.954-7.007c-1.673-2.198-4.809-2.625-7.007-0.954l-35.953,27.334C268.128,360.458,275.753,343.591,290.153,332.644z"></path><path fill="#116fff" d="M281.608 45.493h116.71c2.762 0 5-2.238 5-5 0-2.762-2.238-5-5-5h-116.71c-2.762 0-5 2.238-5 5C276.608 43.255 278.847 45.493 281.608 45.493zM281.608 80.984h116.71c2.762 0 5-2.238 5-5 0-2.762-2.238-5-5-5h-116.71c-2.762 0-5 2.239-5 5C276.608 78.745 278.847 80.984 281.608 80.984zM281.608 116.477h116.71c2.762 0 5-2.238 5-5 0-2.762-2.238-5-5-5h-116.71c-2.762 0-5 2.238-5 5C276.609 114.239 278.847 116.477 281.608 116.477zM281.608 151.968h116.71c2.762 0 5-2.239 5-5s-2.238-5-5-5h-116.71c-2.762 0-5 2.238-5 5S278.847 151.968 281.608 151.968zM281.608 187.46h116.71c2.762 0 5-2.238 5-5s-2.238-5-5-5h-116.71c-2.762 0-5 2.238-5 5C276.608 185.222 278.847 187.46 281.608 187.46zM281.608 222.952h58.358c2.762 0 5-2.238 5-5s-2.238-5-5-5h-58.358c-2.762 0-5 2.238-5 5S278.847 222.952 281.608 222.952zM151.624 45.493h40.798c2.762 0 5-2.238 5-5 0-2.762-2.238-5-5-5h-40.798c-2.762 0-5 2.238-5 5C146.624 43.255 148.862 45.493 151.624 45.493zM113.668 80.984h116.709c2.762 0 5-2.238 5-5 0-2.762-2.238-5-5-5H113.668c-2.762 0-5 2.239-5 5C108.668 78.745 110.906 80.984 113.668 80.984zM113.668 116.477h116.709c2.762 0 5-2.238 5-5 0-2.762-2.238-5-5-5H113.668c-2.762 0-5 2.238-5 5C108.668 114.239 110.906 116.477 113.668 116.477zM113.668 151.968h116.709c2.762 0 5-2.239 5-5s-2.238-5-5-5H113.668c-2.762 0-5 2.238-5 5S110.906 151.968 113.668 151.968zM113.668 187.46h116.709c2.762 0 5-2.238 5-5s-2.238-5-5-5H113.668c-2.762 0-5 2.238-5 5S110.906 187.46 113.668 187.46zM172.027 212.952h-58.359c-2.762 0-5 2.238-5 5s2.238 5 5 5h58.359c2.762 0 5-2.238 5-5S174.789 212.952 172.027 212.952z"></path></svg>