<svg xmlns="http://www.w3.org/2000/svg" viewBox="0 0 25 25" id="family"><path d="M5.3,15.419H6.686a2,2,0,0,0,2-2V11.364a2,2,0,0,0-2-2H5.3a2,2,0,0,0-2,2v2.055A2,2,0,0,0,5.3,15.419Zm-1-4.055a1,1,0,0,1,1-1H6.686a1,1,0,0,1,1,1v2.055a1,1,0,0,1-1,1H5.3a1,1,0,0,1-1-1Zm5.01,6.524a.5.5,0,0,1-.7-.1,1.862,1.862,0,0,0-1.5-.749H4.876A1.879,1.879,0,0,0,3,18.916v.924a7.794,7.794,0,0,0,2.991.423,11.272,11.272,0,0,0,1.9-.118.5.5,0,0,1,.168.986,12.135,12.135,0,0,1-2.066.132,8.085,8.085,0,0,1-3.71-.649A.5.5,0,0,1,2,20.164V18.916A2.879,2.879,0,0,1,4.876,16.04h2.23a2.851,2.851,0,0,1,2.3,1.148A.5.5,0,0,1,9.307,17.888ZM23,18.916v1.248a.5.5,0,0,1-.281.45,8.085,8.085,0,0,1-3.71.649,12.135,12.135,0,0,1-2.066-.132.5.5,0,0,1-.409-.577.507.507,0,0,1,.577-.409,11.272,11.272,0,0,0,1.9.118A7.794,7.794,0,0,0,22,19.84v-.924a1.879,1.879,0,0,0-1.876-1.876h-2.23a1.862,1.862,0,0,0-1.5.749.5.5,0,1,1-.8-.6,2.851,2.851,0,0,1,2.3-1.148h2.23A2.879,2.879,0,0,1,23,18.916ZM12.012,12.331a1.7,1.7,0,0,0-1.7,1.7V15.52a1.7,1.7,0,0,0,1.7,1.7h.976a1.7,1.7,0,0,0,1.7-1.7V14.031a1.7,1.7,0,0,0-1.7-1.7Zm1.676,1.7V15.52a.7.7,0,0,1-.7.7h-.976a.7.7,0,0,1-.7-.7V14.031a.7.7,0,0,1,.7-.7h.976A.7.7,0,0,1,13.688,14.031Zm-.331,3.762H11.643a2.33,2.33,0,0,0-2.329,2.328v.96a.5.5,0,0,0,.282.45,6.318,6.318,0,0,0,2.9.51,6.318,6.318,0,0,0,2.9-.51.5.5,0,0,0,.282-.45v-.96A2.33,2.33,0,0,0,13.357,17.793Zm1.329,2.96a5.959,5.959,0,0,1-2.186.288,5.959,5.959,0,0,1-2.186-.288v-.632a1.33,1.33,0,0,1,1.329-1.328h1.714a1.33,1.33,0,0,1,1.329,1.328Zm1.628-7.334a2,2,0,0,0,2,2H19.7a2,2,0,0,0,2-2V11.364a2,2,0,0,0-2-2H18.314a2,2,0,0,0-2,2Zm1-2.055a1,1,0,0,1,1-1H19.7a1,1,0,0,1,1,1v2.055a1,1,0,0,1-1,1H18.314a1,1,0,0,1-1-1ZM11.47,9.576a2,2,0,0,0,2.06,0c2.579-1.544,2.964-3.215,2.964-4.073a2.383,2.383,0,0,0-2.247-2.544,2.758,2.758,0,0,0-1.747.625,2.758,2.758,0,0,0-1.747-.625A2.383,2.383,0,0,0,8.506,5.5C8.506,6.361,8.891,8.032,11.47,9.576Zm-.717-5.617a1.778,1.778,0,0,1,1.348.625.518.518,0,0,0,.8,0,1.8,1.8,0,0,1,1.346-.622A1.4,1.4,0,0,1,15.494,5.5c0,1.1-.9,2.272-2.477,3.216a1.023,1.023,0,0,1-1.034,0C10.409,7.775,9.506,6.6,9.506,5.5A1.4,1.4,0,0,1,10.753,3.959Z"></path></svg>