<svg xmlns="http://www.w3.org/2000/svg" width="16" height="16" id="human"><path d="M11 2C9.35 2 8 3.35 8 5c0 .931.439 1.755 1.11 2.307a6.237 6.237 0 0 0-1.131.488C7.87 6.24 6.58 5 5 5 3.35 5 2 6.35 2 8c0 .936.443 1.763 1.12 2.314A6.424 6.424 0 0 0 .114 12.36L0 12.498v2.488h10V12.49l-.115-.138c-.103-.124-.216-.236-.326-.352H16V9.49l-.115-.138a6.76 6.76 0 0 0-.526-.567 6.367 6.367 0 0 0-2.466-1.48A2.982 2.982 0 0 0 14 5c0-1.65-1.35-3-3-3zm0 1c1.11 0 2 .89 2 2 0 1.11-.89 2-2 2-1.11 0-2-.89-2-2 0-1.11.89-2 2-2zM5 6c1.11 0 2 .89 2 2 0 1.11-.89 2-2 2-1.11 0-2-.89-2-2 0-1.11.89-2 2-2zm6.188 1.996c.01 0 .02.004.03.004h-.099c.023 0 .046-.005.069-.004zm-.688.04V10h1V8.037c1.13.111 2.243.584 3.166 1.47.117.114.226.237.334.36V11H8.36a6.231 6.231 0 0 0-1.473-.69c.38-.311.69-.707.883-1.167a5.25 5.25 0 0 1 2.73-1.108zm-6 2.985V13h1v-1.979c1.131.113 2.243.6 3.166 1.487.117.113.226.236.334.36v1.118H1v-1.084c.965-1.108 2.208-1.75 3.5-1.88z" color="#000" font-family="sans-serif" font-weight="400" overflow="visible" style="line-height:normal;text-indent:0;text-align:start;text-decoration-line:none;text-decoration-style:solid;text-decoration-color:#000;text-transform:none;block-progression:tb;white-space:normal;isolation:auto;mix-blend-mode:normal;solid-color:#000;solid-opacity:1"></path></svg>