<svg xmlns="http://www.w3.org/2000/svg" enable-background="new 0 0 60 60" viewBox="0 0 60 60" id="health"><path fill="#fff" d="M50,60H10C4.477,60,0,55.523,0,50V10C0,4.477,4.477,0,10,0h40c5.523,0,10,4.477,10,10v40
		C60,55.523,55.523,60,50,60z"></path><path fill="#ff6684" d="M30,53.5c-4.913,0-9.896-0.456-14.808-1.354c-3.769-0.689-6.649-3.569-7.338-7.338
		C6.956,39.899,6.5,34.917,6.5,30c0-4.911,0.456-9.894,1.354-14.809c0.688-3.769,3.569-6.649,7.338-7.338
		c9.824-1.796,19.791-1.796,29.615,0c0.768,0.141,1.513,0.377,2.217,0.705c0.501,0.232,0.719,0.827,0.486,1.328
		c-0.232,0.5-0.827,0.721-1.328,0.485c-0.551-0.255-1.134-0.441-1.734-0.55c-9.588-1.754-19.309-1.754-28.896,0
		c-2.942,0.538-5.192,2.787-5.73,5.73C8.944,20.348,8.5,25.209,8.5,30c0,4.796,0.444,9.657,1.321,14.448
		c0.538,2.943,2.788,5.193,5.73,5.73c9.588,1.754,19.309,1.754,28.896,0c2.942-0.538,5.192-2.787,5.73-5.73
		C51.056,39.652,51.5,34.791,51.5,30c0-4.796-0.444-9.657-1.321-14.448c-0.198-1.083-0.648-2.118-1.303-2.992
		c-0.331-0.442-0.24-1.069,0.202-1.4c0.442-0.331,1.069-0.239,1.399,0.202c0.839,1.121,1.415,2.446,1.668,3.831
		C53.044,20.101,53.5,25.083,53.5,30c0,4.911-0.456,9.894-1.354,14.809c-0.688,3.769-3.569,6.649-7.338,7.338
		C39.896,53.044,34.913,53.5,30,53.5z"></path><path fill="#ffbdcc" d="M30,49.5c-4.673,0-9.413-0.434-14.088-1.289c-2.118-0.387-3.736-2.005-4.123-4.123
		c-1.71-9.349-1.71-18.829,0-28.177c0.387-2.118,2.005-3.736,4.122-4.123C20.587,10.934,25.327,10.5,30,10.5
		s9.413,0.434,14.088,1.289c2.118,0.387,3.736,2.005,4.123,4.123c1.71,9.349,1.71,18.829,0,28.177
		c-0.387,2.118-2.005,3.736-4.122,4.123C39.413,49.066,34.673,49.5,30,49.5z"></path><path fill="#fff" d="M46,20c0-3.314-2.686-6-6-6c-2.088,0-3.925,1.068-5,2.686C33.925,15.068,32.088,14,30,14
			c-3.314,0-6,2.686-6,6c0,1.806,0.802,3.422,2.065,4.522h-0.008l8.286,7.231h0.019C34.536,31.901,34.754,32,35,32
			s0.464-0.099,0.638-0.246h0.019l8.286-7.231h-0.008C45.198,23.422,46,21.806,46,20z"></path><path fill="#ff6684" d="M35,33c-0.412,0-0.807-0.13-1.149-0.378c-0.06-0.033-0.115-0.071-0.165-0.115l-8.286-7.231
			c-0.029-0.026-0.058-0.053-0.083-0.081C23.843,23.866,23,21.979,23,20c0-3.86,3.141-7,7-7c1.903,0,3.695,0.768,5,2.103
			C36.305,13.768,38.097,13,40,13c3.859,0,7,3.14,7,7c0,1.98-0.843,3.866-2.316,5.195c-0.026,0.028-0.054,0.055-0.083,0.081
			l-8.286,7.231c-0.055,0.048-0.114,0.089-0.178,0.124C35.797,32.873,35.407,33,35,33z M34.896,30.91
			c0.039,0.024,0.077,0.052,0.112,0.082c0.007-0.005,0.014-0.011,0.021-0.016l8.171-7.131c0.024-0.026,0.051-0.052,0.078-0.076
			C44.372,22.815,45,21.442,45,20c0-2.757-2.243-5-5-5c-1.679,0-3.236,0.837-4.167,2.239c-0.371,0.558-1.295,0.558-1.666,0
			C33.236,15.837,31.679,15,30,15c-2.757,0-5,2.243-5,5c0,1.442,0.628,2.815,1.722,3.768c0.028,0.024,0.054,0.049,0.078,0.076
			L34.896,30.91z"></path></svg>