<svg xmlns="http://www.w3.org/2000/svg" viewBox="0 0 20 20" id="industry"><path fill-rule="evenodd" d="M6 5c.7 0 .7 1 0 1s-.7-1 0-1zM13 5H8c-.3 0-.5.2-.5.5s.2.5.5.5h5c.3 0 .5-.2.5-.5S13.3 5 13 5zM8.5 5h2c-.7 0-.7-1-.1-1h.6c.3 0 .5-.2.5-.5S11.3 3 11 3H6c-.3 0-.5.2-.5.5s.2.5.5.5h2.5c.6 0 .6 1 0 1zM14 3h-1c-.3 0-.5.2-.5.5s.2.5.5.5h1c.3 0 .5-.2.5-.5S14.3 3 14 3z" clip-rule="evenodd"></path><path fill="none" stroke="#000" stroke-miterlimit="10" d="m5 11 .2-3.1c0-.2.2-.3.4-.3h1.6c.2 0 .4.1.4.3l.1 3.1"></path><path fill="none" stroke="#000" stroke-miterlimit="10" d="m15.9 10-1.8 1.3c-.2.2-.6 0-.6-.3v-.8c0-.3-.4-.5-.6-.3l-1.8 1.3c-.2.2-.6 0-.6-.3V10c0-.3-.3-.5-.6-.3l-2 1.3H5c-.3 0-.5.2-.5.5V17c0 .3.2.5.5.5h11.1c.2 0 .4-.2.4-.4v-6.9c0-.3-.4-.4-.6-.2z"></path><path d="M9.5 13h1v1h-1zM11.5 13h1v1h-1zM13.5 13h1v1h-1zM9.5 15h1v1h-1zM11.5 15h1v1h-1zM13.5 15h1v1h-1z"></path></svg>