<svg xmlns="http://www.w3.org/2000/svg" width="400" height="400" id="finance-growth"><path fill="#0CC" d="M378.229 386.719c0-98.453-79.796-178.248-178.229-178.248-98.434 0-178.229 79.795-178.229 178.248h356.458z" opacity=".4"></path><path fill="#0CC" d="M224.951 140.625S210.887 49.219 365.576 56.25c0 0-49.218 175.781-140.625 84.375zm-51.198-56.25s7.03-98.438-133.595-63.281c0 0 56.287 140.625 133.595 63.281z"></path><path fill="#474668" d="M276.085 174.471c-18.509 0-37.496-9.603-56.438-28.543a7.501 7.501 0 0 1-2.109-4.163c-.186-1.208-4.297-29.872 17.65-55.451 21.604-25.182 59.922-37.95 113.886-37.95 5.431 0 11.098.132 16.843.394a7.5 7.5 0 0 1 6.882 9.515c-1.33 4.744-33.268 116.198-96.714 116.198zm-43.92-37.274c15.341 14.783 30.106 22.274 43.92 22.274 26.47 0 47.225-27.859 59.975-51.229 9.373-17.182 15.901-34.571 19.375-44.816-2.15-.041-4.273-.062-6.359-.062-49.389 0-83.875 11.008-102.502 32.717-14.266 16.627-14.741 34.824-14.409 41.116zM127.02 115.099h-.003c-56.658-.003-92.331-87.494-93.821-91.218a7.499 7.499 0 0 1 5.144-10.063c20.73-5.183 39.608-7.811 56.108-7.811 29.56 0 52.243 8.265 67.423 24.564 21.339 22.914 19.453 53.064 19.362 54.337a7.495 7.495 0 0 1-2.176 4.769c-16.861 16.868-34.369 25.422-52.037 25.422zM50.707 26.32c9.758 20.602 38.604 73.777 76.312 73.779 12.847 0 26.049-6.364 39.275-18.925-.149-6.926-1.871-25.946-15.515-40.501-12.23-13.049-31.183-19.665-56.331-19.665-12.967-.001-27.646 1.784-43.741 5.312z"></path><path fill="#474668" d="M269.762 113.644a7.5 7.5 0 0 0-9.487-4.744c-28.27 9.423-46.111 27.162-56.927 42.666V14.063a7.501 7.501 0 0 0-15.001 0v73.812c-8.018-10.636-20.154-22.195-38.365-31.301a7.5 7.5 0 0 0-10.062 3.354 7.497 7.497 0 0 0 3.354 10.062c35.56 17.78 43.896 45.69 45.073 50.398v203.049c0 4.144 3.358 7.5 7.5 7.5a7.5 7.5 0 0 0 7.501-7.5V183.97c2.172-6.481 17.062-45.97 61.671-60.839a7.5 7.5 0 0 0 4.743-9.487z"></path><path fill="#FFBC00" d="M131.25 365.625H65.625c-5.156 0-9.375 4.219-9.375 9.375v2.344c0 5.156 4.219 9.375 9.375 9.375h65.625c5.155 0 9.375-4.219 9.375-9.375V375c0-5.156-4.219-9.375-9.375-9.375zm0-21.094H65.625c-5.156 0-9.375 4.219-9.375 9.375v2.344c0 5.156 4.219 9.375 9.375 9.375h65.625c5.155 0 9.375-4.219 9.375-9.375v-2.344c0-5.156-4.219-9.375-9.375-9.375zm91.406 21.094h-65.625c-5.155 0-9.375 4.219-9.375 9.375v2.344c0 5.156 4.22 9.375 9.375 9.375h65.625c5.156 0 9.375-4.219 9.375-9.375V375c0-5.156-4.218-9.375-9.375-9.375zm0-21.094h-65.625c-5.155 0-9.375 4.219-9.375 9.375v2.344c0 5.156 4.22 9.375 9.375 9.375h65.625c5.156 0 9.375-4.219 9.375-9.375v-2.344c0-5.156-4.218-9.375-9.375-9.375z"></path><path fill="#FFBC00" d="M222.656 323.438h-65.625c-5.155 0-9.375 4.219-9.375 9.375v2.344c0 5.156 4.22 9.375 9.375 9.375h65.625c5.156 0 9.375-4.219 9.375-9.375v-2.344c0-5.157-4.218-9.375-9.375-9.375zm91.407 42.187h-65.625c-5.156 0-9.375 4.219-9.375 9.375v2.344c0 5.156 4.219 9.375 9.375 9.375h65.625c5.156 0 9.375-4.219 9.375-9.375V375c0-5.156-4.219-9.375-9.375-9.375zm0-21.094h-65.625c-5.156 0-9.375 4.219-9.375 9.375v2.344c0 5.156 4.219 9.375 9.375 9.375h65.625c5.156 0 9.375-4.219 9.375-9.375v-2.344c0-5.156-4.219-9.375-9.375-9.375z"></path><path fill="#FFBC00" d="M314.063 323.438h-65.625c-5.156 0-9.375 4.219-9.375 9.375v2.344c0 5.156 4.219 9.375 9.375 9.375h65.625c5.156 0 9.375-4.219 9.375-9.375v-2.344c0-5.157-4.219-9.375-9.375-9.375zm0-42.188h-65.625c-5.156 0-9.375 4.219-9.375 9.375v2.344c0 5.156 4.219 9.375 9.375 9.375h65.625c5.156 0 9.375-4.219 9.375-9.375v-2.344c0-5.156-4.219-9.375-9.375-9.375zm0 21.094h-65.625c-5.156 0-9.375 4.219-9.375 9.375v2.344c0 5.156 4.219 9.375 9.375 9.375h65.625c5.156 0 9.375-4.219 9.375-9.375v-2.344c0-5.156-4.219-9.375-9.375-9.375z"></path><path fill="#474668" d="M328.438 290.625c0-7.928-6.448-14.375-14.375-14.375h-65.625c-7.927 0-14.375 6.447-14.375 14.375v2.344a14.3 14.3 0 0 0 3.501 9.375 14.305 14.305 0 0 0-3.501 9.375v2.344a14.3 14.3 0 0 0 3.501 9.375 14.422 14.422 0 0 0-2.017 3.054c-2.345-4.761-7.234-8.054-12.892-8.054H157.03c-7.926 0-14.375 6.449-14.375 14.375v2.344c0 3.584 1.326 6.855 3.502 9.375a14.369 14.369 0 0 0-2.018 3.055c-2.345-4.762-7.234-8.055-12.891-8.055H65.625c-7.926 0-14.375 6.449-14.375 14.375v2.345c0 3.583 1.326 6.854 3.501 9.375a14.3 14.3 0 0 0-3.501 9.375v2.345c0 7.926 6.449 14.375 14.375 14.375h65.625c5.655 0 10.546-3.293 12.891-8.055 2.345 4.762 7.234 8.055 12.892 8.055h65.625c5.655 0 10.546-3.293 12.891-8.054 2.345 4.761 7.234 8.054 12.891 8.054h65.625c7.927 0 14.375-6.449 14.375-14.375V375c0-3.583-1.326-6.855-3.501-9.375a14.303 14.303 0 0 0 3.501-9.375v-2.344a14.3 14.3 0 0 0-3.501-9.375 14.305 14.305 0 0 0 3.501-9.375v-2.344a14.3 14.3 0 0 0-3.501-9.375c2.175-2.521 3.501-5.793 3.501-9.375v-2.344a14.3 14.3 0 0 0-3.501-9.375c2.175-2.521 3.501-5.793 3.501-9.375l-.002-2.343zm-84.375 0a4.38 4.38 0 0 1 4.375-4.375h65.625a4.38 4.38 0 0 1 4.375 4.375v2.344a4.38 4.38 0 0 1-4.375 4.375h-65.625a4.38 4.38 0 0 1-4.375-4.375v-2.344zm74.375 21.094v2.344a4.38 4.38 0 0 1-4.375 4.375h-65.625a4.38 4.38 0 0 1-4.375-4.375v-2.344a4.38 4.38 0 0 1 4.375-4.375h65.625a4.38 4.38 0 0 1 4.375 4.375zm0 21.094v2.344a4.38 4.38 0 0 1-4.375 4.375h-65.625a4.38 4.38 0 0 1-4.375-4.375v-2.344a4.38 4.38 0 0 1 4.375-4.375h65.625a4.38 4.38 0 0 1 4.375 4.375zm0 21.093v2.344a4.38 4.38 0 0 1-4.375 4.375h-65.625a4.38 4.38 0 0 1-4.375-4.375v-2.344a4.38 4.38 0 0 1 4.375-4.375h65.625a4.38 4.38 0 0 1 4.375 4.375zm-84.907 11.719a14.33 14.33 0 0 0 2.018-3.053 14.415 14.415 0 0 0 2.017 3.053 14.365 14.365 0 0 0-2.017 3.053 14.484 14.484 0 0 0-2.018-3.053zm-91.407 0a14.328 14.328 0 0 0 2.017-3.055 14.369 14.369 0 0 0 2.018 3.055 14.294 14.294 0 0 0-2.018 3.055 14.328 14.328 0 0 0-2.017-3.055zm10.532-9.375v-2.344a4.38 4.38 0 0 1 4.375-4.375h65.625a4.38 4.38 0 0 1 4.375 4.375v2.344a4.38 4.38 0 0 1-4.375 4.375h-65.625a4.38 4.38 0 0 1-4.375-4.375zm84.908-11.719a14.365 14.365 0 0 0-2.017 3.053 14.381 14.381 0 0 0-2.018-3.053 14.381 14.381 0 0 0 2.018-3.053 14.415 14.415 0 0 0 2.017 3.053zm-84.908-11.718a4.38 4.38 0 0 1 4.375-4.375h65.625a4.38 4.38 0 0 1 4.375 4.375v2.344a4.38 4.38 0 0 1-4.375 4.375h-65.625a4.38 4.38 0 0 1-4.375-4.375v-2.344zM61.25 353.906a4.38 4.38 0 0 1 4.375-4.375h65.625a4.38 4.38 0 0 1 4.375 4.375v2.344a4.38 4.38 0 0 1-4.375 4.375H65.625a4.38 4.38 0 0 1-4.375-4.375v-2.344zm74.375 23.438a4.38 4.38 0 0 1-4.375 4.375H65.625a4.38 4.38 0 0 1-4.375-4.375V375a4.38 4.38 0 0 1 4.375-4.375h65.625a4.38 4.38 0 0 1 4.375 4.375v2.344zm91.406 0a4.38 4.38 0 0 1-4.375 4.375h-65.625a4.38 4.38 0 0 1-4.375-4.375V375a4.38 4.38 0 0 1 4.375-4.375h65.625a4.38 4.38 0 0 1 4.375 4.375v2.344zm91.407 0a4.38 4.38 0 0 1-4.375 4.375h-65.625a4.38 4.38 0 0 1-4.375-4.375V375a4.38 4.38 0 0 1 4.375-4.375h65.625a4.38 4.38 0 0 1 4.375 4.375v2.344z"></path><path fill="#474668" d="M386.719 394.219H14.063c-4.142 0-7.5-3.357-7.5-7.5s3.358-7.5 7.5-7.5h372.656c4.143 0 7.5 3.357 7.5 7.5s-3.357 7.5-7.5 7.5z"></path></svg>