<svg xmlns="http://www.w3.org/2000/svg" enable-background="new 0 0 68 68" viewBox="0 0 68 68" id="level-tools"><path fill="#FFF" d="M65.38325,30.8883v10.21307c0,1.02962-0.83467,1.86429-1.86429,1.86429H24.69588
			c-1.02962,0-1.86429-0.83467-1.86429-1.86429V30.8883c0-1.02962,0.83467-1.86429,1.86429-1.86429h38.82308
			C64.54858,29.02401,65.38325,29.85868,65.38325,30.8883z"></path><path fill="#8F9FFF" d="M26.66534 29.02401h-1.96946c-1.02962 0-1.86429.83467-1.86429 1.86429v10.21307c0 1.02962.83467 1.86429 1.86429 1.86429h1.96946V29.02401zM63.51896 29.02401H61.5495v13.94165h1.96946c1.02962 0 1.86429-.83467 1.86429-1.86429V30.8883C65.38325 29.85868 64.54858 29.02401 63.51896 29.02401zM49.15058 29.02401v2.37223c0 .3471-.28138.62847-.62847.62847h-8.82943c-.3471 0-.62847-.28138-.62847-.62847v-2.37223H49.15058z"></path><polygon fill="#FFF" points="55.146 47.624 55.146 57.881 9.383 57.881 9.383 14.079 19.64 14.079 19.64 47.624"></polygon><path fill="#FFF" d="M62.29714,20.84199v0.00006c0,2.10783-1.70873,3.81656-3.81656,3.81656h-26.1716l-6.73883-3.81659
			l6.73883-3.81659h26.1716C60.58841,17.02543,62.29714,18.73417,62.29714,20.84199z"></path><path fill="#8F9FFF" d="M57.0426,24.65859h1.43799c2.10783,0,3.81656-1.70873,3.81656-3.81656v-0.00001
			c0-2.10783-1.70873-3.81656-3.81656-3.81656H57.0426V24.65859z"></path><polygon fill="#8F9FFF" points="32.386 17.025 32.309 17.025 25.57 20.842 32.309 24.659 32.386 24.659"></polygon><path fill="#2A44E2" d="M29.70902 3.16894c.02344 0 .0459-.00195.06934-.00488 1.37891-.19043 2.78711-.29199 4.18555-.30078.27637-.00195.49902-.22656.49707-.50293-.00195-.27539-.22559-.49707-.5-.49707-.00098 0-.00195 0-.00293 0-1.44238.00879-2.89551.11328-4.31641.31055-.27344.03809-.46484.29004-.42676.56348C29.24906 2.98828 29.4639 3.16894 29.70902 3.16894zM37.29593 3.01367c6.57227.63281 12.85254 3.2666 17.68262 7.41406.20994.17964.5239.15715.70508-.05273.18066-.20996.15625-.52539-.05273-.70508C50.64457 5.38867 44.16703 2.6709 37.39164 2.01758c-.26563-.01172-.51855.1748-.5459.4502C36.81937 2.74219 37.02054 2.9873 37.29593 3.01367zM46.76078 62.38379c-8.51074 3.74414-18.31738 3.66797-26.23535-.20605-.24414-.11914-.54688-.01855-.66895.22949-.12109.24805-.01855.54785.22949.66895 4.16895 2.03906 8.84277 3.06055 13.58691 3.06055 4.56152 0 9.1875-.94434 13.49023-2.83691.25293-.11133.36816-.40625.25684-.65918S47.01371 62.27441 46.76078 62.38379zM5.93167 20.75293c.11718-.25.00879-.54785-.24121-.66504-.24707-.11719-.54785-.00977-.66504.24121-3.42773 7.31641-3.8457 16.04102-1.14648 23.93653.08861.26089.37415.40058.63477.31055.26074-.08887.40039-.37305.31055-.63477C2.20902 36.28906 2.61234 27.83691 5.93167 20.75293z"></path><path fill="#2A44E2" d="M63.51859,28.52441h-1.2262c-0.30005-1.46014-0.70966-2.88007-1.22321-4.25067
					c1.0426-0.7887,1.72772-2.02698,1.72772-3.43195c0-2.37988-1.93652-4.31641-4.31641-4.31641c-0.1083,0-1.90639,0-1.80371,0
					C51.45047,9.96234,43.40268,5.74023,34.37894,5.74023c-7.58624,0-14.48163,2.98804-19.59302,7.83887H9.38285
					c-0.27637,0-0.5,0.22363-0.5,0.5v7.47137c-1.91193,3.82385-3,8.12775-3,12.68585c0,4.55878,1.08722,8.8642,3,12.68842v10.95612
					c0,0.27637,0.22363,0.5,0.5,0.5h9.92004c4.37811,2.74445,9.53857,4.35059,15.07605,4.35059
					c5.53961,0,10.70288-1.60565,15.08276-4.35059h5.68481c0.27637,0,0.5-0.22363,0.5-0.5v-4.71362
					c2.49323-2.79681,4.43738-6.086,5.68066-9.70142c0.10268,0,2.29971,0,2.19141,0c1.30371,0,2.36425-1.06055,2.36425-2.36426
					V30.88867C65.88284,29.58496,64.8223,28.52441,63.51859,28.52441z M27.16507,42.46582V29.52441h11.39941v1.87207
					c0,0.62207,0.50586,1.12793,1.12793,1.12793h8.83008c0.62207,0,1.12793-0.50586,1.12793-1.12793v-1.87207h11.39941v12.94141
					H27.16507z M26.16507,42.46582h-1.46875c-0.75195,0-1.36426-0.6123-1.36426-1.36426V30.88867
					c0-0.75195,0.6123-1.36426,1.36426-1.36426h1.46875V42.46582z M39.56449,29.52441h9.08594v1.87207
					c0,0.07031-0.05762,0.12793-0.12793,0.12793h-8.83008c-0.07031,0-0.12793-0.05762-0.12793-0.12793V29.52441z M58.4805,17.52539
					c1.8291,0,3.31641,1.4873,3.31641,3.31641s-1.4873,3.31641-3.31641,3.31641H57.543v-6.63281H58.4805z M32.88675,24.1582
					v-2.81641H56.543v2.81641H32.88675z M26.585,20.84179l5.30176-3.00281v6.00562L26.585,20.84179z M56.543,17.52539v2.81641
					H32.88675v-2.81641H56.543z M6.88285,34.23633c0-3.63306,0.71375-7.10095,2-10.27832v20.55475
					C7.59739,41.33569,6.88285,37.86884,6.88285,34.23633z M34.37894,61.73145c-4.74988,0-9.21539-1.2215-13.11786-3.35059h26.23749
					C43.59525,60.50928,39.12961,61.73145,34.37894,61.73145z M54.64652,57.38086h-4.10156v-1.13965c0-0.27637-0.22363-0.5-0.5-0.5
					s-0.5,0.22363-0.5,0.5v1.13965h-5.11133v-2.78027c0-0.27637-0.22363-0.5-0.5-0.5s-0.5,0.22363-0.5,0.5v2.78027H38.3223v-1.13965
					c0-0.27637-0.22363-0.5-0.5-0.5s-0.5,0.22363-0.5,0.5v1.13965h-5.11035v-2.78027c0-0.27637-0.22363-0.5-0.5-0.5
					s-0.5,0.22363-0.5,0.5v2.78027h-5.11133v-1.13965c0-0.27637-0.22363-0.5-0.5-0.5s-0.5,0.22363-0.5,0.5v1.13965h-5.11133
					v-2.78027c0-0.27637-0.22363-0.5-0.5-0.5s-0.5,0.22363-0.5,0.5v2.78027h-5.11035v-1.13965c0-0.27637-0.22363-0.5-0.5-0.5
					s-0.5,0.22363-0.5,0.5v1.13965H9.88285v-3.40234h1.14063c0.27637,0,0.5-0.22363,0.5-0.5s-0.22363-0.5-0.5-0.5H9.88285V47.7793
					h2.78027c0.27637,0,0.5-0.22363,0.5-0.5s-0.22363-0.5-0.5-0.5H9.88285v-5.19922h1.14063c0.27637,0,0.5-0.22363,0.5-0.5
					s-0.22363-0.5-0.5-0.5H9.88285v-5.19922h2.78027c0.27637,0,0.5-0.22363,0.5-0.5s-0.22363-0.5-0.5-0.5H9.88285v-5.19922h1.14063
					c0.27637,0,0.5-0.22363,0.5-0.5s-0.22363-0.5-0.5-0.5H9.88285v-5.19922h2.78027c0.27637,0,0.5-0.22363,0.5-0.5
					s-0.22363-0.5-0.5-0.5H9.88285v-3.78809h1.14063c0.27637,0,0.5-0.22363,0.5-0.5s-0.22363-0.5-0.5-0.5H9.88285V14.5791h9.25781
					v33.04492c0,0.27637,0.22363,0.5,0.5,0.5h35.00586V57.38086z M55.64652,51.62946v-4.00543c0-0.27637-0.22363-0.5-0.5-0.5
					H20.14066V14.0791c0-0.27637-0.22363-0.5-0.5-0.5h-3.37604c4.84216-4.25159,11.17957-6.83887,18.11432-6.83887
					c8.41571,0,15.94342,3.81226,20.99048,9.78516H32.30863c-0.25097,0,0.07267-0.08923-6.98438,3.88086
					c-0.15723,0.08887-0.25391,0.25586-0.25391,0.43555s0.09668,0.34668,0.25391,0.43555
					c4.93631,2.77702,7.06609,4.06746,7.0625,3.88086c4.12488,0,20.37944,0,26.09375,0c0.61121,0,1.19104-0.13135,1.71844-0.36151
					c0.44226,1.20575,0.80042,2.45068,1.07245,3.72772c-3.67221,0-33.20327,0-36.57507,0
					c-1.30371,0-2.36426,1.06055-2.36426,2.36426v10.21289c0,1.30371,1.06055,2.36426,2.36426,2.36426
					c3.72199,0,26.83316,0,35.58014,0C59.20359,46.46002,57.62668,49.21448,55.64652,51.62946z M64.88284,41.10156
					c0,0.75195-0.6123,1.36426-1.36425,1.36426h-1.46875V29.52441h1.46875c0.75195,0,1.36425,0.6123,1.36425,1.36426V41.10156z"></path><path fill="#2A44E2" d="M33.668 32.41797c-1.96939 0-3.57422 1.61127-3.57422 3.57422 0 1.97363 1.60352 3.58008 3.57422 3.58008 1.96516 0 3.58008-1.60418 3.58008-3.58008C37.24808 34.02148 35.64164 32.41797 33.668 32.41797zM31.09378 35.99219c0-.51044.15381-.98395.41132-1.38458l3.55206 3.55206c-.40179.25836-.87689.4126-1.38916.4126C32.24906 38.57227 31.09378 37.41504 31.09378 35.99219zM35.77909 37.46753l-3.58203-3.58203c.41772-.29266.92352-.46753 1.47095-.46753 1.42285 0 2.58008 1.15527 2.58008 2.57422C36.24808 36.54144 36.07273 37.04871 35.77909 37.46753zM58.01761 35.99219c0-1.9707-1.60645-3.57422-3.58008-3.57422-1.96939 0-3.57422 1.61127-3.57422 3.57422 0 1.97363 1.60352 3.58008 3.57422 3.58008C56.40269 39.57227 58.01761 37.96809 58.01761 35.99219zM57.01761 35.99219c0 .54926-.17535 1.05652-.46899 1.47534l-3.58203-3.58203c.41772-.29266.92352-.46753 1.47095-.46753C55.86039 33.41797 57.01761 34.57324 57.01761 35.99219zM51.86332 35.99219c0-.51044.15381-.98395.41132-1.38458l3.55206 3.55206c-.40179.25836-.87689.4126-1.38916.4126C53.01859 38.57227 51.86332 37.41504 51.86332 35.99219z"></path></svg>