<svg xmlns="http://www.w3.org/2000/svg" enable-background="new 0 0 512 512" viewBox="0 0 512 512" id="insurance"><path fill="#fff" d="M480.394,230.527c-2.059-19.52-34.757-35.004-74.784-35.004c-41.346,0-74.784,16.472-74.784,36.898
			c0-20.426-33.439-36.898-74.866-36.898c-41.346,0-74.784,16.472-74.784,36.898c0-20.426-33.439-36.898-74.784-36.898
			c-40.028,0-72.725,15.484-74.784,35.004C32.594,107.561,132.746,8.069,255.959,8.069
			C379.254,8.069,479.406,107.561,480.394,230.527z"></path><path fill="#ff787d" d="M330.825,232.421c0-20.426-33.439-36.898-74.866-36.898c-41.346,0-74.784,16.472-74.784,36.898
			c0-123.872,33.521-224.353,74.784-224.353C297.304,8.069,330.825,108.55,330.825,232.421z"></path><path fill="#ffcd7e" d="M337.989 442.769c0 45.353-36.702 61.162-82.055 61.162-45.222 0-81.923-15.809-81.923-61.162 0-45.221 36.702-127.434 81.923-127.434C301.287 315.336 337.989 397.548 337.989 442.769zM275.999 276.729c8.069-2.012 15.572 5.356 12.607 13.125-5.743 15.046-18.192 25.481-32.606 25.481-14.411 0-26.858-10.431-32.602-25.473-2.969-7.774 4.541-15.149 12.615-13.136C249.345 280.05 262.673 280.053 275.999 276.729z"></path><path fill="#33226e" d="M255.963.071c-.001 0-.001 0-.002 0 0 0 0 0-.001 0-.001 0-.002 0-.003 0-127.098 0-231.331 103.354-232.35 230.393-.035 4.264 3.284 7.806 7.545 8.049 4.233.293 7.959-2.902 8.408-7.146 1.418-13.445 28.613-27.844 66.829-27.844 39.356 0 66.786 15.23 66.786 28.898 0 4.417 3.581 7.998 7.998 7.998s7.998-3.581 7.998-7.998c0-19.175 41.247-28.898 66.788-28.898 24.511.001 66.87 9.737 66.87 28.898 0 4.417 3.581 7.998 7.998 7.998s7.998-3.581 7.998-7.998c0-13.668 27.43-28.898 66.786-28.898 38.216 0 65.412 14.398 66.829 27.844.449 4.241 4.112 7.357 8.408 7.146 4.261-.242 7.58-3.784 7.545-8.049C487.374 103.427 383.105.074 255.963.071zM322.267 204.834c-17.423-12.503-44.509-17.308-66.306-17.308 0 0-.001 0-.002 0s-.001 0-.002 0c-.006 0-.012 0-.018 0-21.887.003-48.702 4.739-66.21 17.296 4.62-112.543 36.974-188.755 66.231-188.756 0 0 0 0 .001 0C285.255 16.067 317.643 92.288 322.267 204.834zM106.389 187.527c-26.536 0-49.865 6.404-64.955 16.652 12.433-94.629 86.63-170.32 180.36-185.345-28.494 34.067-44.965 109.809-48.062 186.958C158.973 194.604 134.854 187.527 106.389 187.527zM405.611 187.527c-28.465 0-52.586 7.079-67.344 18.267-3.1-77.146-19.584-152.886-48.103-186.956 93.755 15.036 167.967 90.721 180.401 185.34C455.476 193.931 432.147 187.527 405.611 187.527zM280.712 314.225c6.565-5.291 11.97-12.621 15.363-21.516 5.304-13.876-7.757-27.323-22.01-23.74h-.004c-11.981 2.987-24.134 2.984-36.115-.004-14.296-3.574-27.319 9.883-22.021 23.751 3.39 8.874 8.781 16.187 15.326 21.475-38.854 21.689-65.238 89.941-65.238 128.578 0 44.597 31.933 69.161 89.92 69.161 58.07 0 90.053-24.564 90.053-69.161C345.987 404.152 319.591 335.95 280.712 314.225zM234.076 284.484c14.555 3.636 29.312 3.64 43.859.004 1.813-.442 3.809.871 3.198 2.515-4.714 12.352-14.578 20.334-25.134 20.334-10.552 0-20.416-7.978-25.134-20.33C230.262 285.403 232.223 284.028 234.076 284.484zM255.934 495.934c-49.053 0-73.925-17.886-73.925-53.165 0-44.925 35.807-119.436 73.925-119.436 38.189 0 74.058 74.511 74.058 119.436C329.991 478.048 305.076 495.934 255.934 495.934z"></path><path fill="#33226e" d="M254.707,398.316h17.784c4.417,0,7.998-3.581,7.998-7.998s-3.581-7.998-7.998-7.998h-8.47v-2.636
				c0-4.417-3.581-7.998-7.998-7.998s-7.998,3.581-7.998,7.998v3.734c-9.52,2.89-16.515,11.648-16.515,22.102
				c0,12.789,10.407,23.197,23.197,23.197h2.585c3.972,0,7.201,3.23,7.201,7.201s-3.23,7.205-7.201,7.205h-17.784
				c-4.417,0-7.998,3.581-7.998,7.998s3.581,7.998,7.998,7.998h8.517v2.636c0,4.417,3.581,7.998,7.998,7.998
				s7.998-3.581,7.998-7.998v-3.749c9.496-2.905,16.468-11.651,16.468-22.088c0-12.789-10.407-23.197-23.197-23.197
				c-0.801,0-3.386,0-2.585,0c-3.972,0-7.201-3.23-7.201-7.201S250.736,398.316,254.707,398.316z"></path></svg>