<svg xmlns="http://www.w3.org/2000/svg" width="32" height="32" id="ads"><g stroke="#373449" transform="translate(607.75 -810.357)"><path fill="none" d="M-578.758 822.362h2"></path><rect width="9" height="7" x="-603.258" y="818.862" fill="#00d1b6" fill-opacity=".831" rx=".5" ry=".5"></rect><rect width="2" height="3" x="-605.25" y="820.862" fill="#ff5a67" stroke-linecap="round" stroke-linejoin="round" rx="0" ry="0"></rect><rect width="5" height="2" x="-601.258" y="825.862" fill="none" rx="0" ry="0"></rect><path fill="#ff5a67" d="M-597.758 827.866v8.406c0 .604-.446 1.09-1 1.09s-1-.486-1-1.09v-8.406z"></path><path fill="none" d="M-594.758 820.862h-5m5 3h-5"></path><path fill="#ff5a67" stroke-linecap="round" stroke-linejoin="round" d="m-594.258 819.362 9-4v14l-9-4z"></path><path fill="#00d1b6" fill-opacity=".831" stroke-linecap="round" stroke-linejoin="round" d="M-583.256 819.913a2.5 2.5 0 0 1 2.568 1.048 2.5 2.5 0 0 1 .02 2.774 2.5 2.5 0 0 1-2.554 1.084"></path><rect width="2" height="15" x="-585.258" y="814.862" fill="none" stroke-linecap="round" stroke-linejoin="round" rx="1" ry="1.071"></rect><path fill="none" d="m-579.637 820.24 1.414-1.413m-1.414 5.657 1.414 1.414m-19.535 3.964h2v3h-2v-3"></path></g></svg>