<svg xmlns="http://www.w3.org/2000/svg" data-name="Layer 1" viewBox="0 0 32 32" id="logistic-bill"><rect width="11.66" height="14" x="19.7" y="16.45" fill="#acd2fe" rx="1.28"></rect><path fill="#acd2fe" d="m25.53 6.07-12.44 4.51L.64 6.07l12.45-4.52 12.44 4.52z"></path><rect width="10.7" height="13.04" x="20.66" y="17.41" fill="#fff" rx=".8"></rect><rect width="2.96" height="2.96" x="22.32" y="19.62" fill="#acd2fe" rx=".1"></rect><path fill="#acd2fe" d="M1.6 21.48V7.23l11.49 4.16v15.2L1.6 21.48z"></path><path fill="#fff" d="m6.13 23.5.01-14.62 2.4.87-.01 14.81-2.4-1.06z"></path><path fill="#acd2fe" d="m14.05 11.39 11.48-4.16v9.22h-4.08a1.75 1.75 0 0 0-1.75 1.76v5.87l-5.65 2.51Z"></path><path fill="#fff" d="m2.53 6.55 11.04-4.01L24.6 6.55l-11.03 4-11.04-4z"></path><rect width="11.66" height="14" x="19.7" y="16.45" fill="none" stroke="#0229d5" stroke-dasharray="4.8 1.44 50.88 1.92" stroke-linecap="round" stroke-linejoin="round" stroke-width=".96" rx="1.28"></rect><rect width="3.92" height="3.92" x="21.36" y="18.66" fill="none" stroke="#0229d5" stroke-linecap="round" stroke-linejoin="round" stroke-width=".96" rx=".58"></rect><path fill="none" stroke="#0229d5" stroke-linecap="round" stroke-linejoin="round" stroke-width=".96" d="M26.85 18.66h2.85"></path><path fill="none" stroke="#3b81fd" stroke-linecap="round" stroke-linejoin="round" stroke-width=".96" d="M26.85 20.59h2.85"></path><path fill="none" stroke="#0229d5" stroke-linecap="round" stroke-linejoin="round" stroke-width=".96" d="M26.85 22.51h2.85"></path><path fill="none" stroke="#3b81fd" stroke-linecap="round" stroke-linejoin="round" stroke-width=".96" d="M21.36 24.43h8.34"></path><path fill="none" stroke="#0229d5" stroke-linecap="round" stroke-linejoin="round" stroke-width=".96" d="M21.36 26.36h8.34"></path><path fill="none" stroke="#3b81fd" stroke-linecap="round" stroke-linejoin="round" stroke-width=".96" d="M21.36 28.28h8.34"></path><path fill="none" stroke="#0229d5" stroke-dasharray="0 1.44 0 1.44 31.2 0" stroke-linecap="round" stroke-linejoin="round" stroke-width=".96" d="M13.09 10.58v16.27L.64 21.31V6.07l12.45 4.51z"></path><path fill="none" stroke="#0229d5" stroke-linecap="round" stroke-linejoin="round" stroke-width=".96" d="m8.53 24.82.01-15.89-3.35-1.22-.02 15.62 3.36 1.49zM25.53 6.07v10.38H21a1.27 1.27 0 0 0-1.27 1.28v6.18l-6.61 2.94V10.58Z"></path><path fill="none" stroke="#0229d5" stroke-dasharray="0 1.44 0 1.44 31.2 0" stroke-linecap="round" stroke-linejoin="round" stroke-width=".96" d="m25.53 6.07-12.44 4.51L.64 6.07l12.45-4.52 12.44 4.52z"></path></svg>