<svg xmlns="http://www.w3.org/2000/svg" width="163.839" height="163.839" fill-rule="evenodd" clip-rule="evenodd" image-rendering="optimizeQuality" shape-rendering="geometricPrecision" text-rendering="geometricPrecision" viewBox="0 0 4335 4335" id="metaverse"><path fill="#19252d" d="M2372 1208l97 326-603 0 97-326c82-274 327-274 409 0zM362 2036l-198 0c-90 0-164 74-164 165l0 0c0 90 74 164 164 164l198 0 0-329zM3972 2036l199 0c90 0 164 74 164 165l0 0c0 90-74 164-164 164l-199 0 0-329z"></path><path fill="#263845" d="M791 1506l2753 0c292,0 531,238 531,530l0 383c0,503 -411,914 -914,914l-738 0 -245 -245c-5,-6 -16,-6 -21,0l-245 245 -738 0c-503,0 -914,-411 -914,-914l0 -383c0,-292 238,-530 531,-530z"></path><path fill="#19252d" d="M791 1728l2753 0c170,0 309,139 309,308l0 383c0,381 -311,692 -692,692l-646 0 -180 -180c-92,-92 -243,-92 -335,0l-180 180 -646 0c-381,0 -692,-311 -692,-692l0 -383c0,-169 139,-308 309,-308z"></path><path fill="#35e5e5" d="M791 1797l2753 0c132,0 240,108 240,239l0 383c0,343 -280,623 -623,623l-617 0 -160 -160c-119,-119 -314,-119 -433,0l-160 160 -617 0c-343,0 -623,-280 -623,-623l0 -383c0,-131 108,-239 240,-239z"></path><circle cx="1264" cy="2419" r="291" fill="#fff"></circle><circle cx="3070" cy="2419" r="291" fill="#fff"></circle></svg>