<svg xmlns="http://www.w3.org/2000/svg" width="32" height="32" id="science"><path fill="#92d9f7" d="M9.019 14.51v-4.003l3.497-2.002 3.497 2.002v4.003l-3.497 2.002zM16.019 14.51v-4.003l3.497-2.002 3.497 2.002v4.003l-3.497 2.002z"></path><path fill="#92d9f7" d="M12.519 20.51v-4.003l3.497-2.002 3.497 2.002v4.003l-3.497 2.002z"></path><path fill="#62355c" style="line-height:normal;text-indent:0;text-align:start;text-decoration-line:none;text-decoration-style:solid;text-decoration-color:#000;text-transform:none;block-progression:tb;isolation:auto;mix-blend-mode:normal" d="M-122.543 466.402a.5.5 0 0 0-.209.938l3.252 1.861v3.711a.502.498 0 0 0 .252.432L-116 475.2v3.416l-3.246 1.858a.5.5 0 1 0 .496.867l3.246-1.858 3.252 1.86a.502.498 0 0 0 .502 0l3.254-1.86 3.244 1.858a.5.5 0 1 0 .498-.867l-3.246-1.858v-3.416l3.248-1.857a.502.498 0 0 0 .252-.432v-3.71l3.252-1.862a.5.5 0 0 0-.273-.938.5.5 0 0 0-.223.07l-3.256 1.862-3.25-1.86a.502.498 0 0 0-.502 0l-3.248 1.86-3.25-1.86a.502.498 0 0 0-.502 0l-3.248 1.86-3.256-1.861a.5.5 0 0 0-.287-.07zm7.043 1.08 2.994 1.713v3.426l-2.996 1.715-2.994-1.711v-3.43l2.996-1.713zm7 0 2.994 1.713v3.43l-2.992 1.71-2.998-1.716v-3.424l2.996-1.713zm-7 2.428c-.546 0-1 .454-1 1 0 .547.454 1 1 1s1-.453 1-1c0-.546-.454-1-1-1zm7 0c-.546 0-1 .454-1 1 0 .547.454 1 1 1s1-.453 1-1c0-.546-.454-1-1-1zm-3.5 3.576 2.994 1.713v3.426l-2.994 1.713-2.996-1.713v-3.426l2.996-1.713zm0 2.424c-.546 0-1 .454-1 1 0 .547.454 1 1 1s1-.453 1-1c0-.546-.454-1-1-1z" color="#000" font-family="sans-serif" font-weight="400" overflow="visible" transform="translate(128.011 -458.402)"></path></svg>