<svg xmlns="http://www.w3.org/2000/svg" data-name="Layer 1" viewBox="0 0 64 64" id="shipping-route"><path fill="#a5a58d" d="M51.22,17.07C56.79,17.42,61,19.04,61,21c0,2.21-5.37,4-12,4s-12-1.79-12-4c0-1.96,4.21-3.58,9.78-3.93Z"></path><path fill="#ff6b6b" d="M49,21l5.238-9.264A5.882,5.882,0,0,0,49.007,3h-.014a5.882,5.882,0,0,0-5.231,8.736Z"></path><circle cx="49" cy="9" r="2" fill="#f9c74f"></circle><path fill="#5c677d" d="M19,61H9a6,6,0,0,1-6-6V53H29l-3.6,4.8A8,8,0,0,1,19,61Z"></path><polygon fill="#7ccdf4" points="21 53 7 53 7 49 17 49 21 53"></polygon><polygon fill="#f9c74f" points="4 40.2 8.571 40.2 8.571 39 12 39 12 43.8 8.571 43.8 8.571 45 4 45 5.524 42.6 4 40.2"></polygon><polygon fill="#ff6b6b" points="33 21 29 24 29 18 33 21"></polygon><path d="M52.856,16.212l2.253-3.984a6.735,6.735,0,0,0-.046-6.775,7.049,7.049,0,0,0-12.126,0,6.738,6.738,0,0,0-.046,6.775l2.253,3.984C40.627,16.713,36,18.188,36,21c0,3.282,6.54,5,13,5s13-1.718,13-5C62,18.188,57.373,16.713,52.856,16.212Zm-8.224-4.969a4.754,4.754,0,0,1,.032-4.782,5.05,5.05,0,0,1,8.672,0,4.754,4.754,0,0,1,.032,4.782L49,18.968ZM49,24c-7.117,0-11-1.981-11-3,0-.822,2.753-2.436,8.221-2.883l1.908,3.375a1,1,0,0,0,1.742,0l1.908-3.375C57.247,18.564,60,20.178,60,21,60,22.019,56.117,24,49,24Z"></path><path d="M52 9a3 3 0 1 0-3 3A3 3 0 0 0 52 9zM48 9a1 1 0 1 1 1 1A1 1 0 0 1 48 9zM6.377 30.147l39.159 1.7a2.572 2.572 0 0 1 2.445 2.888A2.666 2.666 0 0 1 45.292 37H23.6a3.567 3.567 0 0 0-3.526 2.765A3.507 3.507 0 0 0 23.5 44H54.822a4.122 4.122 0 0 1 4.159 3.6A4.005 4.005 0 0 1 55 52H33a1 1 0 0 0 0 2H54.791a6.14 6.14 0 0 0 6.158-5.211A6.006 6.006 0 0 0 55 42H23.5a1.5 1.5 0 0 1 0-3H45.25a4.692 4.692 0 0 0 4.72-4.044 4.569 4.569 0 0 0-4.347-5.1l-39.159-1.7A2.576 2.576 0 0 1 6.621 23L28 22.046V24a1 1 0 0 0 1.6.8l4-3a1 1 0 0 0 0-1.6l-4-3A1 1 0 0 0 28 18v2.044L6.576 21a4.576 4.576 0 0 0-.2 9.147zM30 20l1.333 1L30 22z"></path><rect width="2" height="2" x="7" y="56"></rect><rect width="2" height="2" x="11" y="56"></rect><rect width="2" height="2" x="15" y="56"></rect><rect width="2" height="2" x="19" y="56"></rect><path d="M9,62H19a9.042,9.042,0,0,0,7.2-3.6l3.6-4.8A1,1,0,0,0,29,52H21.414l-3.707-3.707A1,1,0,0,0,17,48H13V39a1,1,0,0,0-1-1H8.571a1,1,0,0,0-1,1v.2H4a1,1,0,0,0-.844,1.536L4.339,42.6,3.156,44.464A1,1,0,0,0,4,46H8.571a1,1,0,0,0,1-1v-.2H11V48H7a1,1,0,0,0-1,1v3H3a1,1,0,0,0-1,1v2A7.008,7.008,0,0,0,9,62ZM8.571,42.8a1,1,0,0,0-1,1V44H5.819l.549-.864a1,1,0,0,0,0-1.073L5.82,41.2H8.571a1,1,0,0,0,1-1V40H11v2.8ZM8,50h8.586l2,2H8ZM4,54H27l-2.4,3.2A7.035,7.035,0,0,1,19,60H9a5.006,5.006,0,0,1-5-5Z"></path></svg>