<svg xmlns="http://www.w3.org/2000/svg" viewBox="0 0 64 64" id="real-estate-advertising"><g data-name="Layer 1"><path fill="#ffc03d" d="M58.67 40.17A5.86 5.86 0 0 1 52.81 46V34.3A5.87 5.87 0 0 1 58.67 40.17zM39.08 30.62a46.77 46.77 0 0 1-2.43 18.12A1.79 1.79 0 0 1 35 50H15.37a1.81 1.81 0 0 1-1.7-1.24 47.15 47.15 0 0 1-2.43-18.12 1.84 1.84 0 0 0-1.8-2H7.49A1.92 1.92 0 0 1 6 25.6 66.75 66.75 0 0 1 24.2 7.4a1.72 1.72 0 0 1 1.92 0A66.75 66.75 0 0 1 44.31 25.6a1.92 1.92 0 0 1-1.47 3h-2A1.85 1.85 0 0 0 39.08 30.62z"></path><path fill="#ffd180" d="M18.86,50H15.44a1.8,1.8,0,0,1-1.71-1.25A46.84,46.84,0,0,1,11.28,30.6a1.85,1.85,0,0,0-1.81-2h-2a1.92,1.92,0,0,1-1.48-3,67.23,67.23,0,0,1,18-18C19.56,16.22,15.57,30.12,18.86,50Z"></path><path fill="none" stroke="#293149" stroke-linecap="round" stroke-linejoin="round" stroke-width="2" d="M39.08,30.62a46.77,46.77,0,0,1-2.43,18.12A1.79,1.79,0,0,1,35,50H15.37a1.81,1.81,0,0,1-1.7-1.24,47.15,47.15,0,0,1-2.43-18.12,1.84,1.84,0,0,0-1.8-2H7.49A1.92,1.92,0,0,1,6,25.6,66.75,66.75,0,0,1,24.2,7.4a1.72,1.72,0,0,1,1.92,0A66.75,66.75,0,0,1,44.31,25.6a1.92,1.92,0,0,1-1.47,3h-2A1.85,1.85,0,0,0,39.08,30.62Z"></path><rect width="5.49" height="10.41" x="26.18" y="46.83" fill="#ffd180"></rect><path fill="#5c97e3" d="M52.81,29.43V50.91a2.36,2.36,0,0,1-2.35,2.35H48.07a2.42,2.42,0,0,1-1.35-.42l-8-5.59a2.42,2.42,0,0,0-1.35-.42H25.41a2.35,2.35,0,0,1-2.34-2.35V35.85a2.34,2.34,0,0,1,2.34-2.34H37.35a2.35,2.35,0,0,0,1.35-.43l8-5.58a2.34,2.34,0,0,1,1.35-.42h2.39A2.35,2.35,0,0,1,52.81,29.43Z"></path><path fill="#ffc03d" d="M31.67,50.62v6.62H26.18V54.42C30.12,54.6,31.67,50.62,31.67,50.62Z"></path><path fill="none" d="M58.67,40.17A5.86,5.86,0,0,1,52.81,46V34.3A5.87,5.87,0,0,1,58.67,40.17Z"></path><path fill="#4a89dc" d="M52.81,29.43V50.91a2.36,2.36,0,0,1-2.35,2.35H48.07a2.42,2.42,0,0,1-1.35-.42l-6.09-4.25c7.53-4.46,9.39-15.18,9.81-21.51h0A2.35,2.35,0,0,1,52.81,29.43Z"></path><rect width="5.49" height="10.41" x="26.18" y="46.83" fill="none" stroke="#293149" stroke-linecap="round" stroke-linejoin="round" stroke-width="2"></rect><path fill="none" stroke="#293149" stroke-linecap="round" stroke-linejoin="round" stroke-width="2" d="M52.81,29.43V50.91a2.36,2.36,0,0,1-2.35,2.35H48.07a2.42,2.42,0,0,1-1.35-.42l-8-5.59a2.42,2.42,0,0,0-1.35-.42H25.41a2.35,2.35,0,0,1-2.34-2.35V35.85a2.34,2.34,0,0,1,2.34-2.34H37.35a2.35,2.35,0,0,0,1.35-.43l8-5.58a2.34,2.34,0,0,1,1.35-.42h2.39A2.35,2.35,0,0,1,52.81,29.43Z"></path><path fill="none" stroke="#293149" stroke-linecap="round" stroke-linejoin="round" stroke-width="2" d="M58.67,40.17A5.86,5.86,0,0,1,52.81,46V34.3A5.87,5.87,0,0,1,58.67,40.17Z"></path></g></svg>