<svg xmlns="http://www.w3.org/2000/svg" viewBox="0 0 512 512" id="bio-energy"><path fill="#f0f0f0" fill-rule="evenodd" d="M283.173 465.758c10.515 0 19.112 8.596 19.112 19.112 0 10.516-8.596 19.112-19.112 19.112h-54.337c-10.516 0-19.112-8.597-19.112-19.112 0-10.516 8.596-19.112 19.112-19.112h54.337z" clip-rule="evenodd"></path><path fill="#e8e8e8" fill-rule="evenodd" d="M283.173 465.758c10.515 0 19.112 8.596 19.112 19.112 0 10.516-8.596 19.112-19.112 19.112h-27.168v-38.224h27.168z" clip-rule="evenodd"></path><path fill="#e8e8e8" fill-rule="evenodd" d="M309.011 469.758H202.999c-10.515 0-19.112-8.596-19.112-19.112 0-10.516 8.596-19.112 19.112-19.112h106.012c10.515 0 19.112 8.596 19.112 19.112 0 10.516-8.596 19.112-19.112 19.112z" clip-rule="evenodd"></path><path fill="#d9d9d9" fill-rule="evenodd" d="M309.011 469.758h-53.006v-38.224h53.006c10.515 0 19.112 8.596 19.112 19.112 0 10.516-8.596 19.112-19.112 19.112z" clip-rule="evenodd"></path><path fill="#d9d9d9" fill-rule="evenodd" d="M165.436 369.218h181.138v42.056c0 12.259-10 22.26-22.26 22.26H187.695c-12.26 0-22.26-10-22.26-22.26v-42.056z" clip-rule="evenodd"></path><path fill="#c9c9c9" fill-rule="evenodd" d="M256.005 369.218h90.569v42.056c0 12.259-10 22.26-22.26 22.26h-68.31v-64.316z" clip-rule="evenodd"></path><ellipse cx="256.005" cy="248.767" fill="#f0f0f0" fill-rule="evenodd" clip-rule="evenodd" rx="158.6" ry="158.601" transform="rotate(-45.001 256.003 248.772)"></ellipse><path fill="#e8e8e8" fill-rule="evenodd" d="M256.005 90.167c87.592 0 158.6 71.008 158.6 158.6 0 87.593-71.008 158.6-158.6 158.6v-317.2z" clip-rule="evenodd"></path><g fill-rule="evenodd" clip-rule="evenodd"><path fill="#baeb6c" d="M165.73 266.792c47.478 0 86.421 36.525 90.275 83.008a91.218 91.218 0 0 1-14.862 1.22c-47.478 0-86.42-36.525-90.275-83.008 4.837-.798 9.8-1.22 14.862-1.22z"></path><path fill="#96d629" d="M256.005 349.799a91.218 91.218 0 0 1-14.862 1.22c-47.478 0-86.42-36.525-90.275-83.008l105.137 81.788z"></path><path fill="#baeb6c" d="M346.28 266.792c-47.478 0-86.42 36.525-90.275 83.008a91.227 91.227 0 0 0 14.862 1.22c47.478 0 86.42-36.525 90.275-83.008a91.236 91.236 0 0 0-14.862-1.22z"></path><path fill="#96d629" d="M256.005 349.799a91.227 91.227 0 0 0 14.862 1.22c47.478 0 86.42-36.525 90.275-83.008l-105.137 81.788z"></path><ellipse cx="256.005" cy="212.197" fill="#baeb6c" rx="26.77" ry="61.863"></ellipse><path fill="#96d629" d="M256.005 150.334c16.476 15.483 26.77 37.469 26.77 61.863s-10.294 46.381-26.77 61.863V150.334z"></path></g><path fill-rule="evenodd" d="M62.028 250.783c0 4.416-3.581 8.001-7.997 8.001H13.218c-4.416 0-7.997-3.586-7.997-8.001a7.998 7.998 0 0 1 7.997-8.001h40.813a7.997 7.997 0 0 1 7.997 8.001zm45.504-137.16L78.668 84.764a8.01 8.01 0 0 1 0-11.313c3.132-3.123 8.19-3.123 11.313 0l28.859 28.859c3.128 3.123 3.118 8.19 0 11.313a7.979 7.979 0 0 1-5.661 2.345 7.969 7.969 0 0 1-5.647-2.345zM247.999 48.81V7.996A7.999 7.999 0 0 1 256-.001a7.998 7.998 0 0 1 8.001 7.997V48.81A7.999 7.999 0 0 1 256 56.807c-4.42-.001-8.001-3.582-8.001-7.997zm185.329 24.641a7.983 7.983 0 0 1 0 11.313l-28.849 28.859a7.994 7.994 0 0 1-5.661 2.345c-2.048 0-4.1-.783-5.657-2.345a8.01 8.01 0 0 1 0-11.313l28.859-28.859c3.118-3.124 8.19-3.124 11.308 0zm73.461 177.332c0 4.416-3.59 8.001-8.001 8.001h-40.809c-4.42 0-7.996-3.586-7.996-8.001a7.995 7.995 0 0 1 7.996-8.001h40.809a8.005 8.005 0 0 1 8.001 8.001zm-259.757 94.044a82.578 82.578 0 0 1-5.893.212c-40.03 0-74.352-29.312-81.302-68.021a81.808 81.808 0 0 1 5.893-.212c40.031 0 74.348 29.312 81.302 68.021zm17.937 0c6.949-38.709 41.271-68.021 81.311-68.021 1.949 0 3.921.071 5.879.212-6.949 38.709-41.257 68.021-81.302 68.021a81.282 81.282 0 0 1-5.888-.212zm-.967 56.34c79.339-4.171 142.6-70.031 142.6-150.384 0-83.042-67.564-150.601-150.601-150.601-83.043 0-150.601 67.559-150.601 150.601 0 80.353 63.261 146.214 142.6 150.384v-40.389c-2.288.16-4.581.26-6.86.26-24.9 0-48.669-9.308-66.927-26.198-18.163-16.8-29.283-39.582-31.326-64.153a8.01 8.01 0 0 1 6.676-8.553 99.348 99.348 0 0 1 16.168-1.326c24.891 0 48.659 9.304 66.931 26.198A98.881 98.881 0 0 1 248 305.08v-25.646c-17.05-17.305-26.769-40.875-26.769-65.219 0-25.528 10.681-50.202 29.288-67.696a8.012 8.012 0 0 1 10.964 0c18.616 17.493 29.288 42.168 29.288 67.696 0 24.344-9.719 47.914-26.769 65.219v25.646a99.202 99.202 0 0 1 15.347-18.074c18.263-16.895 42.031-26.198 66.931-26.198a99.32 99.32 0 0 1 16.159 1.326 8.008 8.008 0 0 1 6.671 8.553c-2.038 24.57-13.158 47.353-31.322 64.153-18.258 16.89-42.026 26.198-66.931 26.198-2.279 0-4.567-.099-6.855-.26v40.389zM256 264.559c-12.163-13.955-18.772-31.557-18.772-50.344 0-18.791 6.61-36.393 18.772-50.348 12.158 13.955 18.767 31.557 18.767 50.348.001 18.787-6.609 36.389-18.767 50.344zm82.571 148.728c0 7.869-6.402 14.262-14.262 14.262H187.691c-7.86 0-14.262-6.393-14.262-14.262v-17.852c24.363 13.96 52.552 21.952 82.571 21.952 30.029 0 58.217-7.992 82.571-21.938v17.838zm-29.562 48.49H202.991c-5.024 0-9.11-4.09-9.11-9.119 0-5.02 4.086-9.11 9.11-9.11h106.018c5.02 0 9.11 4.09 9.11 9.11 0 5.028-4.09 9.119-9.11 9.119zM283.17 496h-54.34c-5.02 0-9.11-4.09-9.11-9.11 0-5.034 4.09-9.11 9.11-9.11h54.34c5.02 0 9.11 4.076 9.11 9.11 0 5.019-4.09 9.11-9.11 9.11zM256 84.184c-91.86 0-166.6 74.735-166.6 166.599 0 55.005 26.807 103.867 68.026 134.226v28.279c0 14.031 9.605 25.863 22.584 29.269a25.091 25.091 0 0 0-2.133 10.101c0 13.851 11.271 25.122 25.113 25.122h2.439a24.938 24.938 0 0 0-1.712 9.11c0 13.847 11.27 25.108 25.113 25.108h54.34c13.851 0 25.108-11.261 25.108-25.108 0-3.213-.599-6.294-1.708-9.11h2.439c13.842 0 25.108-11.271 25.108-25.122 0-3.59-.76-7.001-2.128-10.101 12.978-3.406 22.579-15.238 22.579-29.269v-28.279c41.229-30.359 68.03-79.221 68.03-134.226C422.6 158.918 347.87 84.184 256 84.184z" clip-rule="evenodd"></path></svg>