<svg xmlns="http://www.w3.org/2000/svg" viewBox="0 0 64 64" id="video"><g data-name="Video Play"><path fill="#78b9eb" d="M61 56v3a2.006 2.006 0 0 1-2 2H5a2.006 2.006 0 0 1-2-2V56zM32 24a9 9 0 1 1-9 9A9 9 0 0 1 32 24zM29 38l8-5-8-5zM61 5v9H3V5A2.006 2.006 0 0 1 5 3H59A2.006 2.006 0 0 1 61 5zM25 10V7H22v3zm-7 0V7H15v3zm-7 0V7H8v3z"></path><path fill="#006df0" d="M59,2H5A3.009,3.009,0,0,0,2,5V59a3.009,3.009,0,0,0,3,3H59a3.009,3.009,0,0,0,3-3V5A3.009,3.009,0,0,0,59,2Zm1,57a1,1,0,0,1-1,1H5a1,1,0,0,1-1-1V57H60Zm0-4H4V15H60Zm0-42H4V5A1,1,0,0,1,5,4H59a1,1,0,0,1,1,1Z"></path><path fill="#006df0" d="M8 11h3a1 1 0 0 0 1-1V7a1 1 0 0 0-1-1H8A1 1 0 0 0 7 7v3A1 1 0 0 0 8 11zM9 8h1V9H9zM15 11h3a1 1 0 0 0 1-1V7a1 1 0 0 0-1-1H15a1 1 0 0 0-1 1v3A1 1 0 0 0 15 11zm1-3h1V9H16zM22 11h3a1 1 0 0 0 1-1V7a1 1 0 0 0-1-1H22a1 1 0 0 0-1 1v3A1 1 0 0 0 22 11zm1-3h1V9H23z"></path><rect width="2" height="4" x="14" y="46" fill="#006df0"></rect><rect width="2" height="4" x="17" y="46" fill="#006df0"></rect><polygon fill="#006df0" points="49 47 49 49 39 49 39 50 37 50 37 49 21 49 21 47 37 47 37 46 39 46 39 47 49 47"></polygon><path fill="#006df0" d="M32,23A10,10,0,1,0,42,33,10.016,10.016,0,0,0,32,23Zm0,18a8,8,0,1,1,8-8A8.011,8.011,0,0,1,32,41Z"></path><path fill="#006df0" d="M37.53,32.15l-8-5A1.008,1.008,0,0,0,28,28V38a.99.99,0,0,0,.52.87A.912.912,0,0,0,29,39a1.014,1.014,0,0,0,.53-.15l8-5a1,1,0,0,0,0-1.7ZM30,36.2V29.8L35.11,33Z"></path></g></svg>