<svg xmlns="http://www.w3.org/2000/svg" width="32" height="32" id="sports"><g transform="translate(-304.801 -1427.67)"><circle cx="657.054" cy="437.094" r="15.268" fill="#f37a5d" fill-rule="evenodd" transform="translate(-367.76 985.616) scale(1.04795)"></circle><g color="#000"><path stroke-linecap="round" style="isolation:auto;mix-blend-mode:normal" fill="none" stroke="#373748" stroke-linejoin="round" stroke-width="1.06" d="M838.5 1784.862h13v9h-13z" overflow="visible" transform="scale(.61523 .61468) rotate(15 -1419.91 872.08)"></path><path stroke-linecap="round" style="isolation:auto;mix-blend-mode:normal" fill="#f2f2f2" stroke="#373748" stroke-linejoin="round" stroke-width="1.06" d="M836.66 1784.862h1.84v22h-1.84z" overflow="visible" transform="scale(.61523 .61468) rotate(15 -1419.91 872.08)"></path><path style="isolation:auto;mix-blend-mode:normal" fill="#f2f2f2" d="M839 1785.362h2v2h-2z" overflow="visible" transform="scale(.61523 .61468) rotate(15 -1419.91 872.08)"></path><path fill="#373748" overflow="visible" style="isolation:auto;mix-blend-mode:normal" d="M841 1785.362h2v2h-2z" transform="scale(.61523 .61468) rotate(15 -1419.91 872.08)"></path><path style="isolation:auto;mix-blend-mode:normal" fill="#f2f2f2" d="M843 1785.362h2v2h-2z" overflow="visible" transform="scale(.61523 .61468) rotate(15 -1419.91 872.08)"></path><path fill="#373748" overflow="visible" style="isolation:auto;mix-blend-mode:normal" d="M845 1785.362h2v2h-2z" transform="scale(.61523 .61468) rotate(15 -1419.91 872.08)"></path><path style="isolation:auto;mix-blend-mode:normal" fill="#f2f2f2" d="M847 1785.362h2v2h-2z" overflow="visible" transform="scale(.61523 .61468) rotate(15 -1419.91 872.08)"></path><path fill="#373748" overflow="visible" style="isolation:auto;mix-blend-mode:normal" d="M849 1785.362h2v2h-2zM839 1787.362h2v2h-2z" transform="scale(.61523 .61468) rotate(15 -1419.91 872.08)"></path><path style="isolation:auto;mix-blend-mode:normal" fill="#f2f2f2" d="M841 1787.362h2v2h-2z" overflow="visible" transform="scale(.61523 .61468) rotate(15 -1419.91 872.08)"></path><path fill="#373748" overflow="visible" style="isolation:auto;mix-blend-mode:normal" d="M843 1787.362h2v2h-2z" transform="scale(.61523 .61468) rotate(15 -1419.91 872.08)"></path><path style="isolation:auto;mix-blend-mode:normal" fill="#f2f2f2" d="M845 1787.362h2v2h-2z" overflow="visible" transform="scale(.61523 .61468) rotate(15 -1419.91 872.08)"></path><path fill="#373748" overflow="visible" style="isolation:auto;mix-blend-mode:normal" d="M847 1787.362h2v2h-2z" transform="scale(.61523 .61468) rotate(15 -1419.91 872.08)"></path><path style="isolation:auto;mix-blend-mode:normal" fill="#f2f2f2" d="M849 1787.362h2v2h-2zM839 1789.362h2v2h-2z" overflow="visible" transform="scale(.61523 .61468) rotate(15 -1419.91 872.08)"></path><path fill="#373748" overflow="visible" style="isolation:auto;mix-blend-mode:normal" d="M841 1789.362h2v2h-2z" transform="scale(.61523 .61468) rotate(15 -1419.91 872.08)"></path><path style="isolation:auto;mix-blend-mode:normal" fill="#f2f2f2" d="M843 1789.362h2v2h-2z" overflow="visible" transform="scale(.61523 .61468) rotate(15 -1419.91 872.08)"></path><path fill="#373748" overflow="visible" style="isolation:auto;mix-blend-mode:normal" d="M845 1789.362h2v2h-2z" transform="scale(.61523 .61468) rotate(15 -1419.91 872.08)"></path><path style="isolation:auto;mix-blend-mode:normal" fill="#f2f2f2" d="M847 1789.362h2v2h-2z" overflow="visible" transform="scale(.61523 .61468) rotate(15 -1419.91 872.08)"></path><path fill="#373748" overflow="visible" style="isolation:auto;mix-blend-mode:normal" d="M849 1789.362h2v2h-2zM839 1791.362h2v2h-2z" transform="scale(.61523 .61468) rotate(15 -1419.91 872.08)"></path><path style="isolation:auto;mix-blend-mode:normal" fill="#f2f2f2" d="M841 1791.362h2v2h-2z" overflow="visible" transform="scale(.61523 .61468) rotate(15 -1419.91 872.08)"></path><path fill="#373748" overflow="visible" style="isolation:auto;mix-blend-mode:normal" d="M843 1791.362h2v2h-2z" transform="scale(.61523 .61468) rotate(15 -1419.91 872.08)"></path><path style="isolation:auto;mix-blend-mode:normal" fill="#f2f2f2" d="M845 1791.362h2v2h-2z" overflow="visible" transform="scale(.61523 .61468) rotate(15 -1419.91 872.08)"></path><path fill="#373748" overflow="visible" style="isolation:auto;mix-blend-mode:normal" d="M847 1791.362h2v2h-2z" transform="scale(.61523 .61468) rotate(15 -1419.91 872.08)"></path><path style="isolation:auto;mix-blend-mode:normal" fill="#f2f2f2" d="M849 1791.362h2v2h-2z" overflow="visible" transform="scale(.61523 .61468) rotate(15 -1419.91 872.08)"></path><path fill="none" stroke="#373748" stroke-linecap="round" style="isolation:auto;mix-blend-mode:normal" stroke-linejoin="round" stroke-width="1.06" d="M838.5 1784.862h13v9h-13z" overflow="visible" transform="matrix(-.59427 .1591 .15923 .59374 532.507 244.16)"></path><path fill="#f2f2f2" stroke="#373748" stroke-linecap="round" style="isolation:auto;mix-blend-mode:normal" stroke-linejoin="round" stroke-width="1.06" d="M836.66 1784.862h1.84v22h-1.84z" overflow="visible" transform="matrix(-.59427 .1591 .15923 .59374 532.507 244.16)"></path><path fill="#f2f2f2" overflow="visible" style="isolation:auto;mix-blend-mode:normal" d="M839 1785.362h2v2h-2z" transform="matrix(-.59427 .1591 .15923 .59374 532.507 244.16)"></path><path style="isolation:auto;mix-blend-mode:normal" fill="#373748" d="M841 1785.362h2v2h-2z" overflow="visible" transform="matrix(-.59427 .1591 .15923 .59374 532.507 244.16)"></path><path fill="#f2f2f2" overflow="visible" style="isolation:auto;mix-blend-mode:normal" d="M843 1785.362h2v2h-2z" transform="matrix(-.59427 .1591 .15923 .59374 532.507 244.16)"></path><path style="isolation:auto;mix-blend-mode:normal" fill="#373748" d="M845 1785.362h2v2h-2z" overflow="visible" transform="matrix(-.59427 .1591 .15923 .59374 532.507 244.16)"></path><path fill="#f2f2f2" overflow="visible" style="isolation:auto;mix-blend-mode:normal" d="M847 1785.362h2v2h-2z" transform="matrix(-.59427 .1591 .15923 .59374 532.507 244.16)"></path><path style="isolation:auto;mix-blend-mode:normal" fill="#373748" d="M849 1785.362h2v2h-2zM839 1787.362h2v2h-2z" overflow="visible" transform="matrix(-.59427 .1591 .15923 .59374 532.507 244.16)"></path><path fill="#f2f2f2" overflow="visible" style="isolation:auto;mix-blend-mode:normal" d="M841 1787.362h2v2h-2z" transform="matrix(-.59427 .1591 .15923 .59374 532.507 244.16)"></path><path style="isolation:auto;mix-blend-mode:normal" fill="#373748" d="M843 1787.362h2v2h-2z" overflow="visible" transform="matrix(-.59427 .1591 .15923 .59374 532.507 244.16)"></path><path fill="#f2f2f2" overflow="visible" style="isolation:auto;mix-blend-mode:normal" d="M845 1787.362h2v2h-2z" transform="matrix(-.59427 .1591 .15923 .59374 532.507 244.16)"></path><path style="isolation:auto;mix-blend-mode:normal" fill="#373748" d="M847 1787.362h2v2h-2z" overflow="visible" transform="matrix(-.59427 .1591 .15923 .59374 532.507 244.16)"></path><path fill="#f2f2f2" overflow="visible" style="isolation:auto;mix-blend-mode:normal" d="M849 1787.362h2v2h-2zM839 1789.362h2v2h-2z" transform="matrix(-.59427 .1591 .15923 .59374 532.507 244.16)"></path><path style="isolation:auto;mix-blend-mode:normal" fill="#373748" d="M841 1789.362h2v2h-2z" overflow="visible" transform="matrix(-.59427 .1591 .15923 .59374 532.507 244.16)"></path><path fill="#f2f2f2" overflow="visible" style="isolation:auto;mix-blend-mode:normal" d="M843 1789.362h2v2h-2z" transform="matrix(-.59427 .1591 .15923 .59374 532.507 244.16)"></path><path style="isolation:auto;mix-blend-mode:normal" fill="#373748" d="M845 1789.362h2v2h-2z" overflow="visible" transform="matrix(-.59427 .1591 .15923 .59374 532.507 244.16)"></path><path fill="#f2f2f2" overflow="visible" style="isolation:auto;mix-blend-mode:normal" d="M847 1789.362h2v2h-2z" transform="matrix(-.59427 .1591 .15923 .59374 532.507 244.16)"></path><path style="isolation:auto;mix-blend-mode:normal" fill="#373748" d="M849 1789.362h2v2h-2zM839 1791.362h2v2h-2z" overflow="visible" transform="matrix(-.59427 .1591 .15923 .59374 532.507 244.16)"></path><path fill="#f2f2f2" overflow="visible" style="isolation:auto;mix-blend-mode:normal" d="M841 1791.362h2v2h-2z" transform="matrix(-.59427 .1591 .15923 .59374 532.507 244.16)"></path><path style="isolation:auto;mix-blend-mode:normal" fill="#373748" d="M843 1791.362h2v2h-2z" overflow="visible" transform="matrix(-.59427 .1591 .15923 .59374 532.507 244.16)"></path><path fill="#f2f2f2" overflow="visible" style="isolation:auto;mix-blend-mode:normal" d="M845 1791.362h2v2h-2z" transform="matrix(-.59427 .1591 .15923 .59374 532.507 244.16)"></path><path style="isolation:auto;mix-blend-mode:normal" fill="#373748" d="M847 1791.362h2v2h-2z" overflow="visible" transform="matrix(-.59427 .1591 .15923 .59374 532.507 244.16)"></path><path fill="#f2f2f2" overflow="visible" style="isolation:auto;mix-blend-mode:normal" d="M849 1791.362h2v2h-2z" transform="matrix(-.59427 .1591 .15923 .59374 532.507 244.16)"></path></g></g></svg>