<svg xmlns="http://www.w3.org/2000/svg" width="100" height="100" data-name="Layer 1" id="electronic"><path d="M6.5 77.3h10.957a1.5 1.5 0 0 0 1.348-.841 11.05 11.05 0 0 1 19.852 0 1.5 1.5 0 0 0 1.348.841h10.957a1.5 1.5 0 0 0 1.5-1.5V64.243a1.5 1.5 0 0 0-.8-1.327c-10.331-5.341-10.322-20.5 0-25.832a1.5 1.5 0 0 0 .8-1.327V24.2a1.5 1.5 0 0 0-1.5-1.5H40.005a1.5 1.5 0 0 0-1.348.841 11.05 11.05 0 0 1-19.852 0 1.5 1.5 0 0 0-1.348-.841H6.5A1.5 1.5 0 0 0 5 24.2v11.557a1.5 1.5 0 0 0 .8 1.325c10.32 5.374 10.311 20.467 0 25.836a1.5 1.5 0 0 0-.8 1.325V75.8a1.5 1.5 0 0 0 1.5 1.5ZM8 65.118c11.371-6.65 11.368-23.588 0-30.236V25.7h8.556c5.152 9.322 19.2 9.319 24.35 0h8.556v9.179c-11.387 6.621-11.384 23.624 0 30.242V74.3h-8.556c-5.153-9.322-19.2-9.32-24.35 0H8Z"></path><path d="M24.129 63.941h9.2a1.5 1.5 0 0 0 1.5-1.5V37.559a1.5 1.5 0 0 0-1.5-1.5h-9.2a1.5 1.5 0 0 0-1.5 1.5v24.882a1.5 1.5 0 0 0 1.5 1.5zm1.5-24.882h6.2v21.882h-6.2zm17.434-4.583a1.5 1.5 0 0 0 1.137-.521l2.012-2.335a1.5 1.5 0 1 0-2.273-1.958L41.928 32a1.51 1.51 0 0 0 1.135 2.476zm-29.541-4.814a1.5 1.5 0 0 0-2.272 1.958l2.012 2.335A1.5 1.5 0 1 0 15.534 32zm30.417 40.676a1.5 1.5 0 0 0 2.273-1.958L44.2 66.045A1.5 1.5 0 0 0 41.928 68zm-30.677-4.293L11.25 68.38a1.5 1.5 0 0 0 2.272 1.958L15.534 68a1.5 1.5 0 0 0-2.272-1.955zM93.5 15.3H80.72a1.5 1.5 0 0 0-1.5 1.5v14.568H58.557a1.5 1.5 0 0 0-1.5 1.5v9.922h-8.426a1.5 1.5 0 0 0-1.5 1.5v11.42a1.5 1.5 0 0 0 1.5 1.5h8.426v9.922a1.5 1.5 0 0 0 1.5 1.5H79.22V83.2a1.5 1.5 0 0 0 1.5 1.5H93.5a1.5 1.5 0 0 0 1.5-1.5V16.8a1.5 1.5 0 0 0-1.5-1.5zM67.22 34.368h18.39v8.422H67.22zm0 11.422h12v8.42h-12zm-3 19.842h-4.163V57.21h4.163zm0-11.422H50.131v-8.42H64.22zm0-11.42h-4.163v-8.422h4.163zm16.5 22.84c-.009.006-13.487 0-13.5 0v-8.42h18.39v8.422c-.02-.002-4.872.004-4.89-.002zM92 81.7h-9.78V68.632h4.89a1.5 1.5 0 0 0 1.5-1.5V55.71a1.5 1.5 0 0 0-1.5-1.5h-4.89v-8.42h4.89a1.5 1.5 0 0 0 1.5-1.5V32.868a1.5 1.5 0 0 0-1.5-1.5h-4.89V18.3H92z"></path></svg>