<svg xmlns="http://www.w3.org/2000/svg" width="163.839" height="163.839" fill-rule="evenodd" clip-rule="evenodd" image-rendering="optimizeQuality" shape-rendering="geometricPrecision" text-rendering="geometricPrecision" viewBox="0 0 1707 1707" id="animal"><defs><linearGradient id="a" x1="728.244" x2="978.417" y1="49.461" y2="1657.19" gradientUnits="userSpaceOnUse"><stop offset="0" stop-color="#1e8ac6"></stop><stop offset=".302" stop-color="#834fbc"></stop><stop offset="1" stop-color="#e813b1"></stop></linearGradient></defs><path fill="url(#a)" d="M241 500c46,-51 105,-89 170,-103 84,-19 159,9 219,58 42,36 77,82 102,130 25,48 39,99 40,142 1,44 -11,81 -40,103 -55,42 -141,25 -210,12 -9,-2 -19,-4 -21,-4 -46,-9 -87,-1 -128,7 -32,6 -64,12 -101,12 -54,-1 -89,-19 -108,-50 -19,-30 -22,-72 -14,-121 12,-70 45,-135 91,-186zm637 576c61,2 102,42 120,88 6,15 10,32 10,48 1,17 -2,33 -7,47 -13,32 -41,55 -84,55 -27,0 -53,-12 -75,-31 -21,-18 -38,-43 -47,-72 -5,-14 -6,-28 -6,-42 1,-20 6,-39 16,-54 10,-16 25,-29 45,-35 9,-3 18,-4 28,-4zm202 -226c36,0 68,15 92,41 24,26 42,63 48,105 2,9 3,18 3,28 0,29 -7,59 -21,83 -14,26 -37,46 -70,52 -5,0 -11,1 -17,1 -64,0 -107,-49 -127,-109 -6,-20 -10,-41 -11,-62l0 0c-1,-21 2,-42 7,-61 13,-44 44,-77 96,-78zm418 314c17,-46 58,-86 119,-88 11,0 20,1 29,4 20,6 35,19 45,35 10,15 15,34 16,54 0,14 -2,28 -6,42 -9,29 -26,54 -47,72 -22,19 -49,31 -75,31 -44,0 -71,-23 -84,-55 -6,-14 -8,-30 -8,-47 1,-16 4,-33 11,-48zm-175 -273c25,-26 57,-41 93,-41 51,1 82,34 96,78 5,19 7,40 6,61l0 0c0,21 -4,42 -11,62 -19,60 -63,109 -127,109 -6,0 -11,-1 -17,-1 -32,-6 -55,-26 -70,-52 -14,-24 -20,-54 -20,-83 0,-10 1,-19 2,-28 7,-42 24,-79 48,-105zm-293 387c46,-51 105,-88 170,-103 83,-18 159,10 219,59 42,35 77,82 102,130 24,48 39,98 40,142 1,44 -11,81 -40,103l0 0c-55,41 -141,25 -210,12 -9,-2 -19,-4 -21,-5 -46,-8 -87,0 -128,8 -32,6 -64,12 -101,11 -54,0 -89,-18 -108,-50 -19,-30 -22,-71 -14,-121 12,-69 45,-134 91,-186zm-941 -980c62,2 102,41 120,87 6,16 10,32 10,48 1,17 -2,33 -7,47 -13,33 -41,56 -84,55 -27,0 -53,-11 -75,-30 -21,-18 -38,-43 -47,-73 -4,-13 -6,-28 -6,-42 1,-19 6,-38 16,-54 10,-16 25,-29 45,-35 9,-2 18,-4 28,-3zm202 -227c36,0 68,15 92,41 25,26 42,63 48,105 2,9 3,19 3,29 0,28 -7,58 -21,82 -14,27 -37,47 -70,52 -5,1 -11,1 -17,1 -64,0 -107,-49 -127,-108 -6,-20 -10,-42 -11,-63l0 0c-1,-21 2,-42 7,-60 13,-45 44,-78 96,-79zm418 314c17,-46 58,-85 119,-87 11,-1 20,1 29,3 20,6 35,19 45,35 10,16 15,35 16,54 0,14 -2,29 -6,42 -9,30 -26,55 -47,73 -22,19 -49,30 -75,30 -44,1 -71,-22 -84,-55 -6,-14 -8,-30 -7,-47 0,-16 3,-32 10,-48zm-175 -273c25,-26 57,-41 93,-41 51,1 82,34 96,79 5,18 7,39 7,60l0 0c-1,21 -5,43 -12,63 -19,59 -63,108 -127,108 -6,0 -11,0 -16,-1 -33,-5 -56,-25 -71,-52 -14,-24 -20,-54 -20,-82 0,-10 1,-20 2,-29 7,-42 24,-79 48,-105z"></path></svg>