<svg width="64" height="64" viewBox="0 0 64 64" fill="none" xmlns="http://www.w3.org/2000/svg">
<g clip-path="url(#clip0_2231_15290)">
<path d="M53.3334 16H10.6667V58.6667H53.3334V16ZM42.6667 29.3333H37.3334V42.6667C37.3382 44.3658 36.8018 46.0224 35.8021 47.3963C34.8023 48.7702 33.391 49.7901 31.7728 50.3082C30.1545 50.8263 28.4133 50.8157 26.8015 50.2779C25.1897 49.7401 23.7909 48.7031 22.808 47.3171C21.825 45.9312 21.3089 44.2682 21.3343 42.5692C21.3598 40.8702 21.9256 39.2235 22.9497 37.8676C23.9737 36.5117 25.4029 35.5171 27.0301 35.0279C28.6574 34.5387 30.3981 34.5803 32.0001 35.1467V24H42.6667V29.3333ZM16.0001 8H48.0001V13.3333H16.0001V8Z" fill="#0098DA"/>
</g>
<defs>
<clipPath id="clip0_2231_15290">
<rect width="64" height="64" fill="white"/>
</clipPath>
</defs>
</svg>
