<svg width="64" height="64" viewBox="0 0 64 64" fill="none" xmlns="http://www.w3.org/2000/svg">
<path d="M26.6299 18.2695C26.3755 19.0714 25.9293 19.7992 25.3299 20.3895L24.5399 21.1795L16.3399 29.3895L11.1199 24.1795L8.15991 21.2695V56.8495H62.2999V18.2695H26.6299ZM59.3899 53.9395H11.0699V48.4195L13.3199 44.6595L20.0699 33.3395C20.4102 32.7874 20.8861 32.3316 21.4523 32.0154C22.0186 31.6992 22.6564 31.5332 23.3049 31.5332C23.9535 31.5332 24.5912 31.6992 25.1575 32.0154C25.7237 32.3316 26.1996 32.7874 26.5399 33.3395L28.7199 36.9995L33.2999 44.6795L35.2299 47.9195L37.1599 44.6795L41.7399 36.9995L43.9199 33.3595C44.2602 32.8074 44.7361 32.3516 45.3023 32.0354C45.8686 31.7192 46.5064 31.5532 47.1549 31.5532C47.8035 31.5532 48.4412 31.7192 49.0075 32.0354C49.5737 32.3516 50.0496 32.8074 50.3899 33.3595L57.1399 44.6795L59.3899 48.4395V53.9395Z" fill="#FFE0E1"/>
<path d="M59.3901 21.1797V48.4197L57.1401 44.6597L50.3901 33.3397C50.0498 32.7876 49.5739 32.3317 49.0076 32.0155C48.4414 31.6994 47.8036 31.5334 47.1551 31.5334C46.5065 31.5334 45.8688 31.6994 45.3025 32.0155C44.7362 32.3317 44.2603 32.7876 43.9201 33.3397L41.7401 36.9997L37.1601 44.6797L35.2301 47.8997L33.3001 44.6597L28.7201 36.9997L26.5401 33.3597C26.1998 32.8076 25.7239 32.3517 25.1576 32.0355C24.5914 31.7194 23.9536 31.5534 23.3051 31.5534C22.6565 31.5534 22.0188 31.7194 21.4525 32.0355C20.8862 32.3517 20.4103 32.8076 20.0701 33.3597L13.3201 44.6597L11.0701 48.4197V24.1797L16.2901 29.3897L24.4901 21.1797H59.3901Z" fill="#71C2FF"/>
<path d="M38.8401 53.9395H11.0701V48.4195L13.3201 44.6595L20.0701 33.3395C20.4103 32.7874 20.8862 32.3316 21.4525 32.0154C22.0188 31.6992 22.6565 31.5332 23.3051 31.5332C23.9536 31.5332 24.5914 31.6992 25.1576 32.0154C25.7239 32.3316 26.1998 32.7874 26.5401 33.3395L28.7201 36.9995L33.3001 44.6795L35.2301 47.9195L38.8401 53.9395Z" fill="#00D0A0"/>
<path d="M59.39 48.419V53.939H38.84L35.23 47.939L37.16 44.6991L41.74 36.9991L43.92 33.3591C44.2602 32.8069 44.7362 32.3511 45.3024 32.0349C45.8687 31.7187 46.5064 31.5527 47.155 31.5527C47.8035 31.5527 48.4413 31.7187 49.0075 32.0349C49.5738 32.3511 50.0497 32.8069 50.39 33.3591L57.14 44.6791L59.39 48.419Z" fill="#00D0A0"/>
<path d="M33.3 44.6596L28.72 36.9996C30.6623 35.7626 32.9172 35.1055 35.22 35.1055C37.5227 35.1055 39.7777 35.7626 41.72 36.9996L37.14 44.6796L35.23 47.8996L33.3 44.6596Z" fill="#FFD32C"/>
<path d="M26.63 18.2704C26.3756 19.0723 25.9294 19.8001 25.33 20.3904L24.54 21.1804L16.34 29.3904L11.12 24.1804L8.15999 21.2704L7.28999 20.3904C6.78387 19.8896 6.38259 19.293 6.10959 18.6354C5.83659 17.9778 5.69735 17.2724 5.69999 16.5604C5.6958 15.481 6.01341 14.4248 6.61228 13.5268C7.21116 12.6287 8.0641 11.9295 9.06221 11.5184C10.0603 11.1074 11.1583 11.0031 12.2159 11.219C13.2735 11.4349 14.2428 11.9611 15 12.7304L15.89 13.6304C15.9497 13.6921 16.0211 13.7412 16.1002 13.7747C16.1792 13.8082 16.2642 13.8255 16.35 13.8255C16.4358 13.8255 16.5208 13.8082 16.5998 13.7747C16.6788 13.7412 16.7503 13.6921 16.81 13.6304L17.7 12.7304C18.5566 11.8432 19.6907 11.2752 20.9144 11.1207C22.138 10.9663 23.3777 11.2345 24.4279 11.881C25.4782 12.5275 26.2761 13.5135 26.6893 14.6756C27.1025 15.8376 27.1063 17.106 26.7 18.2704H26.63Z" fill="#FF95D6"/>
<path d="M24.6299 16.2695C24.3755 17.0714 23.9293 17.7992 23.3299 18.3895L22.5399 19.1795L14.3399 27.3895L9.06991 22.1795L6.15991 19.2695V54.8495H60.2999V16.2695H24.6299ZM57.3899 51.9395H9.06991V46.4195L11.3199 42.6595L18.0699 31.3395C18.4102 30.7874 18.8861 30.3316 19.4523 30.0154C20.0186 29.6992 20.6564 29.5332 21.3049 29.5332C21.9535 29.5332 22.5912 29.6992 23.1575 30.0154C23.7237 30.3316 24.1996 30.7874 24.5399 31.3395L26.7199 34.9995L31.2999 42.6795L33.2299 45.9195L35.1599 42.6795L39.7399 34.9995L41.9199 31.3595C42.2602 30.8074 42.7361 30.3516 43.3023 30.0354C43.8686 29.7192 44.5064 29.5532 45.1549 29.5532C45.8035 29.5532 46.4412 29.7192 47.0075 30.0354C47.5737 30.3516 48.0496 30.8074 48.3899 31.3595L55.1399 42.6795L57.3899 46.4395V51.9395Z" stroke="#212121" stroke-width="1.5" stroke-linecap="round" stroke-linejoin="round"/>
<path d="M57.3899 46.9197C57.3036 46.9202 57.2186 46.8983 57.1433 46.8563C57.0679 46.8142 57.0048 46.7534 56.9599 46.6797L47.9999 31.5897C47.7039 31.1121 47.291 30.7181 46.8001 30.4448C46.3092 30.1715 45.7567 30.0281 45.1949 30.0281C44.6331 30.0281 44.0806 30.1715 43.5897 30.4448C43.0988 30.7181 42.6858 31.1121 42.3899 31.5897L33.6599 46.1497C33.6171 46.2238 33.5561 46.2857 33.4825 46.3295C33.409 46.3733 33.3254 46.3974 33.2399 46.3997C33.1539 46.3995 33.0696 46.3761 32.9957 46.3321C32.9218 46.2882 32.8611 46.2252 32.8199 46.1497L24.1199 31.5897C23.8239 31.1121 23.411 30.7181 22.9201 30.4448C22.4292 30.1715 21.8767 30.0281 21.3149 30.0281C20.7531 30.0281 20.2006 30.1715 19.7097 30.4448C19.2188 30.7181 18.8058 31.1121 18.5099 31.5897L9.50989 46.6797C9.45378 46.7743 9.36804 46.8477 9.26597 46.8887C9.16389 46.9296 9.05116 46.9357 8.94524 46.9061C8.83933 46.8765 8.74612 46.8128 8.68008 46.7249C8.61403 46.6369 8.57881 46.5297 8.57989 46.4197V22.1797C8.57839 22.0793 8.60716 21.9807 8.66245 21.8969C8.71774 21.8131 8.797 21.7478 8.88989 21.7097C8.98268 21.6747 9.08341 21.6665 9.18063 21.686C9.27786 21.7054 9.36768 21.7517 9.43989 21.8197L14.3199 26.7097L22.1899 18.8297C22.2865 18.7357 22.4152 18.6821 22.5499 18.6797H57.3899C57.5217 18.6822 57.6474 18.7357 57.7406 18.829C57.8338 18.9222 57.8873 19.0479 57.8899 19.1797V46.4197C57.891 46.5296 57.8551 46.6367 57.788 46.7238C57.7209 46.8108 57.6265 46.8728 57.5199 46.8997L57.3899 46.9197ZM21.2999 28.9997C22.0311 28.9864 22.7532 29.1639 23.395 29.5146C24.0367 29.8653 24.5761 30.3771 24.9599 30.9997L33.2299 44.8397L41.4999 31.0797C41.8832 30.4529 42.421 29.935 43.0619 29.5757C43.7028 29.2164 44.4252 29.0277 45.1599 29.0277C45.8946 29.0277 46.617 29.2164 47.2579 29.5757C47.8988 29.935 48.4366 30.4529 48.8199 31.0797L56.8899 44.6097V19.6797H22.7399L14.7399 27.7397C14.6812 27.7998 14.6082 27.8441 14.5278 27.8686C14.4474 27.8931 14.3622 27.8969 14.2799 27.8797C14.1662 27.8709 14.0596 27.8212 13.9799 27.7397L9.56989 23.3797V44.6097L17.6399 31.0797C18.0137 30.4423 18.5488 29.9145 19.1912 29.5494C19.8337 29.1843 20.5609 28.9947 21.2999 28.9997Z" fill="#212121"/>
<path d="M36.8401 52.4394H9.07007C8.93746 52.4394 8.81028 52.3867 8.71652 52.2929C8.62275 52.1992 8.57007 52.072 8.57007 51.9394V46.4194C8.57305 46.3285 8.59701 46.2395 8.64007 46.1594L17.6401 31.0794C18.0234 30.4525 18.5612 29.9347 19.2021 29.5754C19.8429 29.216 20.5653 29.0273 21.3001 29.0273C22.0348 29.0273 22.7572 29.216 23.3981 29.5754C24.0389 29.9347 24.5768 30.4525 24.9601 31.0794L37.2701 51.6894C37.3121 51.766 37.3341 51.852 37.3341 51.9394C37.3341 52.0268 37.3121 52.1127 37.2701 52.1894C37.2264 52.2649 37.1638 52.3278 37.0884 52.3716C37.0129 52.4155 36.9273 52.4388 36.8401 52.4394ZM9.57007 51.4394H36.0001L24.1101 31.5894C23.8141 31.1118 23.4011 30.7178 22.9103 30.4445C22.4194 30.1712 21.8669 30.0278 21.3051 30.0278C20.7433 30.0278 20.1907 30.1712 19.6999 30.4445C19.209 30.7178 18.796 31.1118 18.5001 31.5894L9.57007 46.5894V51.4394Z" fill="#212121"/>
<path d="M57.3901 52.4394H36.8401C36.7539 52.4389 36.6694 52.4167 36.5942 52.3747C36.519 52.3327 36.4556 52.2724 36.4101 52.1994L32.8101 46.1494C32.761 46.0734 32.7349 45.9848 32.7349 45.8944C32.7349 45.8039 32.761 45.7154 32.8101 45.6394L41.5001 31.0794C41.8833 30.4525 42.4212 29.9347 43.0621 29.5754C43.7029 29.216 44.4253 29.0273 45.1601 29.0273C45.8948 29.0273 46.6172 29.216 47.2581 29.5754C47.8989 29.9347 48.4368 30.4525 48.8201 31.0794L57.8201 46.1594C57.8631 46.2395 57.8871 46.3285 57.8901 46.4194V51.9394C57.8901 52.072 57.8374 52.1992 57.7436 52.2929C57.6498 52.3867 57.5227 52.4394 57.3901 52.4394ZM37.1301 51.4394H56.8901V46.5594L48.0001 31.5894C47.7041 31.1118 47.2911 30.7178 46.8003 30.4445C46.3094 30.1712 45.7569 30.0278 45.1951 30.0278C44.6332 30.0278 44.0807 30.1712 43.5899 30.4445C43.099 30.7178 42.686 31.1118 42.3901 31.5894L33.8201 45.8994L37.1301 51.4394Z" fill="#212121"/>
<path d="M33.2299 46.3993C33.1439 46.3991 33.0596 46.3758 32.9857 46.3318C32.9118 46.2878 32.8511 46.2248 32.8099 46.1493L30.8699 42.9193L26.2899 35.2393C26.2225 35.1275 26.2016 34.9938 26.2315 34.8668C26.2613 34.7397 26.3397 34.6294 26.4499 34.5593C28.4749 33.2666 30.8274 32.5797 33.2299 32.5797C35.6324 32.5797 37.9849 33.2666 40.0099 34.5593C40.1201 34.6294 40.1985 34.7397 40.2283 34.8668C40.2582 34.9938 40.2373 35.1275 40.1699 35.2393L33.6599 46.1493C33.6171 46.2235 33.5561 46.2854 33.4825 46.3292C33.409 46.3729 33.3255 46.3971 33.2399 46.3993H33.2299ZM31.7299 42.3993L33.2299 44.9193L39.0599 35.1493C37.2838 34.1366 35.2745 33.604 33.2299 33.604C31.1853 33.604 29.176 34.1366 27.3999 35.1493L31.7299 42.3993ZM14.3399 27.8893H14.2299C14.1162 27.8806 14.0096 27.8308 13.9299 27.7493L4.9299 18.7493C4.37811 18.201 3.9402 17.549 3.64138 16.8307C3.34256 16.1125 3.18872 15.3423 3.18872 14.5643C3.18872 13.7864 3.34256 13.0162 3.64138 12.298C3.9402 11.5797 4.37811 10.9277 4.9299 10.3793C6.04003 9.26978 7.54535 8.64648 9.1149 8.64648C10.6845 8.64648 12.1898 9.26978 13.2999 10.3793L14.1899 11.2793C14.203 11.296 14.2197 11.3094 14.2388 11.3187C14.2578 11.3279 14.2787 11.3327 14.2999 11.3327C14.3211 11.3327 14.342 11.3279 14.361 11.3187C14.3801 11.3094 14.3968 11.296 14.4099 11.2793L15.2999 10.3793C16.41 9.26978 17.9153 8.64648 19.4849 8.64648C21.0545 8.64648 22.5598 9.26978 23.6699 10.3793C24.4418 11.1481 24.9836 12.117 25.2345 13.1771C25.4854 14.2371 25.4353 15.3462 25.0899 16.3793C24.8156 17.2581 24.3277 18.0552 23.6699 18.6993L14.6699 27.6993C14.6312 27.7523 14.5818 27.7965 14.525 27.8293C14.4682 27.862 14.4051 27.8824 14.3399 27.8893ZM9.1199 9.64934C8.4739 9.6467 7.83375 9.77183 7.23629 10.0175C6.63883 10.2632 6.09585 10.6246 5.63859 11.081C5.18134 11.5373 4.81882 12.0795 4.57192 12.6765C4.32501 13.2734 4.19858 13.9133 4.1999 14.5593C4.20162 15.1993 4.32971 15.8326 4.57682 16.423C4.82394 17.0133 5.18521 17.549 5.6399 17.9993L14.3099 26.6693L22.9999 17.9993C23.5457 17.4666 23.9511 16.8069 24.1799 16.0793C24.4688 15.2188 24.5113 14.2946 24.3028 13.4111C24.0943 12.5276 23.643 11.72 22.9999 11.0793C22.5409 10.6186 21.9955 10.2529 21.3949 10.0034C20.7942 9.75397 20.1503 9.62554 19.4999 9.62554C18.8495 9.62554 18.2056 9.75397 17.6049 10.0034C17.0043 10.2529 16.4589 10.6186 15.9999 11.0793L15.1199 11.9793C14.8999 12.192 14.6059 12.3108 14.2999 12.3108C13.9939 12.3108 13.6999 12.192 13.4799 11.9793L12.5899 11.0793C11.6664 10.1647 10.4197 9.65095 9.1199 9.64934Z" fill="#212121"/>
</svg>
