<svg xmlns="http://www.w3.org/2000/svg" viewBox="0 0 512 512" id="social-media-marketing"><path fill="#ffe177" fill-rule="evenodd" d="M20.799 8H195.2c7.05 0 12.8 5.749 12.8 12.799v174.402c0 7.049-5.75 12.799-12.8 12.799H20.799C13.749 208 8 202.25 8 195.201V20.799C8 13.749 13.749 8 20.799 8z" clip-rule="evenodd"></path><path fill="#ffd064" fill-rule="evenodd" d="M195.2 8c7.05 0 12.8 5.749 12.8 12.799v174.402c0 7.049-5.75 12.799-12.8 12.799H20.799C13.749 208 8 202.25 8 195.201v-.001h174.401c7.049 0 12.799-5.749 12.799-12.799V8z" clip-rule="evenodd"></path><path fill="#fe646f" fill-rule="evenodd" d="M316.799 8h174.402C498.25 8 504 13.749 504 20.799v174.402c0 7.049-5.75 12.799-12.799 12.799H316.799C309.75 208 304 202.25 304 195.201V20.799C304 13.749 309.75 8 316.799 8z" clip-rule="evenodd"></path><path fill="#fd4755" fill-rule="evenodd" d="M491.2 8c7.05 0 12.8 5.749 12.8 12.799v174.402c0 7.049-5.75 12.799-12.799 12.799H316.799C309.75 208 304 202.25 304 195.201v-.001h174.401c7.049 0 12.799-5.749 12.799-12.799V8z" clip-rule="evenodd"></path><path fill="#eceff1" fill-rule="evenodd" d="m450.304 113.567-69.644 40.209c-2.044 1.18-4.384 1.18-6.428 0-2.044-1.18-3.214-3.207-3.214-5.567V67.791c0-2.36 1.17-4.387 3.214-5.567 2.044-1.18 4.384-1.18 6.428 0l69.644 40.209c2.044 1.18 3.214 3.207 3.214 5.567 0 2.36-1.17 4.387-3.214 5.567z" clip-rule="evenodd"></path><g fill-rule="evenodd" clip-rule="evenodd"><path fill="#8ac9fe" d="M20.799 304H195.2c7.049 0 12.799 5.75 12.799 12.799v174.402C208 498.25 202.25 504 195.2 504H20.799C13.749 504 8 498.25 8 491.201V316.799C8 309.75 13.749 304 20.799 304z"></path><path fill="#60b7ff" d="M195.2 304c7.05 0 12.8 5.75 12.8 12.799v174.402c0 7.049-5.75 12.799-12.8 12.799H20.799C13.749 504 8 498.25 8 491.201v-.001h174.401c7.049 0 12.799-5.75 12.799-12.799V304z"></path><path fill="#ecba78" d="m102.917 445.654-27.886-31.458a12.775 12.775 0 0 0-17.308-1.711L8 450.166V491.2c0 7.05 5.749 12.8 12.799 12.8H195.2c7.049 0 12.799-5.75 12.799-12.799v-41.034l-36.138-48.399c-2.241-3.001-5.314-4.729-9.043-5.084-3.729-.355-7.073.763-9.84 3.287l-50.061 45.683z"></path><path fill="#e3a76f" d="M8 491.2c0 7.05 5.749 12.8 12.799 12.8H195.2c7.049 0 12.799-5.75 12.799-12.799v-41.034l-12.8-17.143v45.378c0 7.049-5.749 12.799-12.799 12.799H8z"></path></g><g fill-rule="evenodd" clip-rule="evenodd"><path fill="#6cf5c2" d="M316.799 304h174.402c7.049 0 12.799 5.75 12.799 12.799v174.402c0 7.049-5.75 12.799-12.799 12.799H316.799C309.75 504 304 498.25 304 491.201V316.799c0-7.049 5.75-12.799 12.799-12.799z"></path><path fill="#00e499" d="M491.2 304c7.05 0 12.8 5.75 12.8 12.799v174.402c0 7.049-5.75 12.799-12.799 12.799H316.799C309.75 504 304 498.25 304 491.201v-.001h174.401c7.049 0 12.799-5.75 12.799-12.799V304z"></path><circle cx="388.343" cy="449.465" r="21.908" fill="#eceff1"></circle></g><path fill-rule="evenodd" d="M389.459 466.4c-9.331 0-16.92-7.599-16.92-16.93 0-9.34 7.59-16.93 16.92-16.93 9.34 0 16.944 7.59 16.944 16.93 0 9.33-7.604 16.93-16.944 16.93zm42.35-126.301c-4.01-3.698-7.798-7.189-10.84-11.279a8.01 8.01 0 0 0-8.929-2.811 8 8 0 0 0-5.491 7.58l-.118 87.672a32.67 32.67 0 0 0-16.972-4.722c-18.151 0-32.921 14.769-32.921 32.93 0 18.151 14.769 32.93 32.921 32.93 18.161 0 32.921-14.769 32.93-32.911 0-.009.009-.009.009-.009l.123-96.177c10.92 10.109 17.656 17.647 9.038 39.638-1.609 4.108.41 8.75 4.528 10.359 4.113 1.623 8.75-.41 10.363-4.519 13.02-33.209-2.31-47.332-14.641-58.681zm64.19 153.9v-180c0-1.08-.92-2-2-2h-180c-1.08 0-2 .92-2 2v180c0 1.08.92 2 2 2h180c1.081.001 2-.919 2-2zm-1.999-198H314c-9.92 0-18 8.08-18 18.001v180c0 9.92 8.08 18.001 18 18.001h180c9.93 0 18-8.08 18-18.001V314c0-9.921-8.071-18.001-18-18.001zM72.927 358.09c0-10.029 8.18-18.199 18.199-18.199 10.024 0 18.199 8.17 18.199 18.199 0 10.019-8.175 18.199-18.199 18.199-10.02 0-18.199-8.18-18.199-18.199zM198.001 496h-180c-1.085 0-2-.92-2-2v-39.86l50.096-37.958 25.604 28.878-12.217 11.151a7.997 7.997 0 0 0-.514 11.302 7.985 7.985 0 0 0 5.91 2.609 7.968 7.968 0 0 0 5.392-2.09l72.011-65.719 37.718 50.506v41.18c0 1.081-.915 2.001-2 2.001zm-180-184.001c-1.085 0-2 .92-2 2v120.069l46.336-35.119a7.99 7.99 0 0 1 10.816 1.071l30.369 34.251 54.497-49.733a7.984 7.984 0 0 1 6.151-2.047 7.955 7.955 0 0 1 5.651 3.17l30.18 40.421V313.999c0-1.08-.915-2-2-2h-180zm180-16h-180c-9.925 0-18.001 8.08-18.001 18v180C0 503.92 8.076 512 18.001 512h180c9.925 0 17.996-8.08 17.996-18.001v-180c0-9.92-8.071-18-17.996-18zM168.434 58.002c0 4.42-3.58 8-8 8H55.568a8 8 0 0 1-8.005-8c0-4.42 3.58-8 8.005-8h104.866c4.42-.001 8 3.58 8 8zm0 49.996a7.999 7.999 0 0 1-8 8.005H55.568a8 8 0 0 1-8.005-8.005c0-4.42 3.58-8 8.005-8h104.866c4.42 0 8 3.58 8 8zm0 50.001c0 4.42-3.58 8-8 8H55.568a7.999 7.999 0 0 1-8.005-8c0-4.42 3.58-8 8.005-8h104.866a8 8 0 0 1 8 8zm31.567 40.002v-180c0-1.08-.915-2-2-2h-180c-1.085 0-2 .92-2 2v180c0 1.08.915 2 2 2h180c1.085 0 2-.92 2-2zM198.001 0h-180C8.076 0 0 8.08 0 18.001v180c0 9.92 8.076 18.001 18.001 18.001h180c9.925 0 17.996-8.08 17.996-18.001v-180C215.997 8.08 207.926 0 198.001 0zM379.02 145.49V70.511l64.931 37.487-64.931 37.492zm75.28-49.992-69.639-40.209c-4.524-2.599-9.911-2.599-14.43.009-4.523 2.599-7.212 7.283-7.212 12.491v80.422c0 5.208 2.689 9.887 7.212 12.5a14.45 14.45 0 0 0 7.217 1.948c2.472 0 4.953-.651 7.212-1.962l69.639-40.199h.009c4.51-2.608 7.208-7.288 7.208-12.5.001-5.207-2.697-9.887-7.216-12.5zm41.699 102.503v-180c0-1.08-.92-2-2-2h-180c-1.08 0-2 .92-2 2v180c0 1.08.92 2 2 2h180c1.081 0 2-.92 2-2zM494 0H314c-9.92 0-18 8.08-18 18v180c0 9.92 8.08 18.001 18 18.001h180c9.93 0 18-8.08 18-18.001V18c0-9.92-8.071-18-18-18z" clip-rule="evenodd"></path></svg>