<svg width="64" height="64" viewBox="0 0 64 64" fill="none" xmlns="http://www.w3.org/2000/svg">
<path fill-rule="evenodd" clip-rule="evenodd" d="M18.9939 41.3494L19.0013 41.3507C20.8054 41.7159 22.2158 43.1264 22.5811 44.9305L22.5823 44.9379C23.0179 47.0936 21.8605 49.2556 19.8231 50.0848L9.73535 54.1964L13.847 44.1086C14.6774 42.0713 16.8381 40.9126 18.9939 41.3494Z" fill="#B4CBEA"/>
<path fill-rule="evenodd" clip-rule="evenodd" d="M22.5799 44.9299C22.3972 44.0266 21.9518 43.2208 21.3261 42.5977L9.74029 54.1835L9.73535 54.1958L19.8231 50.0842C21.8605 49.2537 23.0179 47.0931 22.5823 44.9373L22.5799 44.9299Z" fill="#79A1D5"/>
<path fill-rule="evenodd" clip-rule="evenodd" d="M24.5793 39.3512C26.3253 41.0973 27.5852 43.1482 28.3898 45.3323C33.7983 43.511 38.8811 40.4581 43.1902 36.149C50.5459 28.7933 54.2713 19.1867 54.3836 9.54688C44.7437 9.65917 35.1372 13.3846 27.7814 20.7403C23.4724 25.0494 20.4195 30.1334 18.5981 35.5407C20.7823 36.3465 22.8332 37.6051 24.5793 39.3512Z" fill="#F4F8F8"/>
<path fill-rule="evenodd" clip-rule="evenodd" d="M24.5752 39.3475L24.5789 39.3512C26.325 41.0973 27.5849 43.1482 28.3894 45.3323C33.798 43.511 38.8807 40.4581 43.1898 36.149C50.5456 28.7933 54.271 19.1867 54.3832 9.54688C54.3808 9.54688 54.3783 9.54688 54.3758 9.54688L24.5752 39.3475Z" fill="#DBE7F6"/>
<path fill-rule="evenodd" clip-rule="evenodd" d="M24.5125 39.42C23.4167 38.3243 22.1975 37.4333 20.9105 36.709L19.716 38.8598C20.8068 39.4768 21.8384 40.2369 22.7676 41.1661C23.6968 42.0953 24.4557 43.1269 25.0739 44.2178L27.2124 43.0294C26.4905 41.7387 25.6082 40.5158 24.5125 39.42ZM20.0134 41.9843L20.0171 41.9855C20.9882 42.1817 21.7471 42.9406 21.9433 43.9117L21.9445 43.9154C22.179 45.0754 21.5558 46.239 20.4588 46.687L15.0281 48.9007L17.2418 43.47C17.6898 42.373 18.8534 41.7498 20.0134 41.9843Z" fill="#DBE7F6"/>
<path fill-rule="evenodd" clip-rule="evenodd" d="M52.2843 21.6189C53.6318 17.7134 54.3364 13.6338 54.3833 9.54688C50.2964 9.59377 46.2168 10.2984 42.3113 11.6459L52.2843 21.6189Z" fill="#B4CBEA"/>
<path d="M42.1448 27.8936C43.8314 26.207 43.8314 23.4724 42.1447 21.7857C40.458 20.0991 37.7234 20.0992 36.0368 21.7858C34.3502 23.4725 34.3502 26.2071 36.0369 27.8937C37.7236 29.5804 40.4582 29.5803 42.1448 27.8936Z" fill="#B4CBEA"/>
<path fill-rule="evenodd" clip-rule="evenodd" d="M21.9445 43.9126C21.8458 43.4252 21.6052 42.9921 21.2671 42.6552L15.0342 48.8881L15.0293 48.9004L20.46 46.6866C21.5571 46.2399 22.1802 45.0763 21.9458 43.9163L21.9445 43.9126ZM24.5063 39.416L22.7614 41.1609C22.7614 41.1609 22.7651 41.1633 22.7664 41.1658C23.6955 42.095 24.4544 43.1266 25.0727 44.2174L27.2112 43.0291C26.4893 41.7396 25.6082 40.518 24.5112 39.421C24.51 39.4185 24.5087 39.4172 24.5063 39.416Z" fill="#B4CBEA"/>
<path fill-rule="evenodd" clip-rule="evenodd" d="M42.1411 21.7818L36.0342 27.8888L36.0379 27.8925C37.7247 29.5793 40.4592 29.5793 42.1461 27.8925C43.8329 26.2056 43.8329 23.4711 42.1461 21.7843L42.1411 21.7818ZM47.2943 16.6287L52.2845 21.6189C53.632 17.7134 54.3366 13.6338 54.3835 9.54688C54.381 9.54688 54.3785 9.54688 54.3761 9.54688L47.2943 16.6287Z" fill="#0688FF"/>
<path fill-rule="evenodd" clip-rule="evenodd" d="M24.7651 24.1387C20.6596 24.1387 16.5541 25.7046 13.4211 28.8377C11.6404 30.6183 10.3842 32.7173 9.6167 34.9471C12.5807 33.4651 15.9914 33.1936 19.1208 34.124C20.4659 30.5936 22.3378 27.2212 24.7651 24.1387Z" fill="#0688FF"/>
<path fill-rule="evenodd" clip-rule="evenodd" d="M39.9332 39.3047C39.9332 43.4101 38.3673 47.5156 35.2342 50.6487C33.4536 52.4293 31.3546 53.6855 29.1248 54.453C30.6068 51.489 30.8782 48.0783 29.9478 44.9489C33.477 43.6039 36.8507 41.7319 39.9332 39.3047Z" fill="#0688FF"/>
<path d="M25.0737 44.8339C24.859 44.8339 24.6492 44.7216 24.5357 44.5217C23.9162 43.4284 23.1746 42.4462 22.3306 41.6021C21.4865 40.7581 20.5043 40.0165 19.411 39.397C19.116 39.2304 19.0111 38.8565 19.1765 38.5604L20.371 36.4096C20.45 36.2652 20.5845 36.1603 20.7424 36.1159C20.8991 36.0702 21.0694 36.09 21.2126 36.1714C22.6131 36.9599 23.8693 37.9064 24.9466 38.9836C26.0128 40.0498 26.9555 41.3085 27.749 42.7263C27.8279 42.8694 27.8489 43.0385 27.8033 43.1964C27.7576 43.3544 27.6527 43.4877 27.5096 43.5666L25.3711 44.755C25.2773 44.8093 25.1749 44.8339 25.0737 44.8339ZM20.5462 38.6357C21.526 39.2428 22.4182 39.9461 23.203 40.7297C23.9878 41.5133 24.6899 42.4055 25.297 43.3865L26.3607 42.7954C25.6919 41.6947 24.9244 40.7075 24.0742 39.8573C23.2153 38.9984 22.2306 38.2272 21.1422 37.5621L20.5462 38.6357Z" fill="#0E0E2C"/>
<path d="M28.3892 45.9488C28.1375 45.9488 27.9018 45.7945 27.8105 45.5453C27.0022 43.35 25.7683 41.4127 24.1431 39.7875C22.5192 38.1636 20.5818 36.9284 18.3854 36.1189C18.0719 36.0029 17.9078 35.6598 18.0139 35.3427C19.9365 29.6331 23.077 24.5713 27.3453 20.303C34.5616 13.0866 44.162 9.04658 54.3769 8.92812C54.52 8.92195 54.7027 8.99105 54.8199 9.10828C54.9371 9.2255 55.0025 9.38592 55.0001 9.55128C54.8816 19.7674 50.8415 29.3665 43.6264 36.5829C39.3569 40.8524 34.2963 43.9929 28.5867 45.9155C28.5213 45.9389 28.4534 45.9488 28.3892 45.9488ZM25.0143 38.9151C26.6259 40.5267 27.8808 42.4221 28.7483 44.5544C34.0483 42.6787 38.7584 39.7061 42.7528 35.7117C49.589 28.8754 53.481 19.8279 53.7525 10.1757C44.1003 10.4471 35.054 14.3391 28.2165 21.1766C24.2233 25.171 21.2494 29.8799 19.3738 35.1811C21.5098 36.0498 23.404 37.3035 25.0143 38.9151Z" fill="#0E0E2C"/>
<path d="M52.3326 22.115C52.1747 22.115 52.0167 22.0545 51.8958 21.9348L41.9943 12.0334C41.7537 11.7927 41.7537 11.4016 41.9943 11.1609C42.2349 10.9203 42.6261 10.9203 42.8667 11.1609L52.7682 21.0624C53.0088 21.303 53.0088 21.6942 52.7682 21.9348C52.6473 22.0545 52.4893 22.115 52.3326 22.115ZM9.61711 35.5592C9.47027 35.5592 9.32589 35.5074 9.2099 35.4062C9.0211 35.2408 8.95199 34.978 9.03344 34.7411C9.86761 32.32 11.1966 30.1852 12.9846 28.396C16.1313 25.2493 20.3145 23.5168 24.7642 23.5168C24.9999 23.5168 25.2159 23.6513 25.3195 23.8648C25.4232 24.0783 25.396 24.33 25.2492 24.5151C22.9231 27.4692 21.0549 30.7738 19.6963 34.3388C19.5803 34.6411 19.252 34.7991 18.9435 34.7102C15.9166 33.8094 12.7021 34.0895 9.89229 35.4938C9.80591 35.5382 9.71089 35.5592 9.61711 35.5592ZM23.4821 24.8038C19.8456 25.1012 16.4657 26.6597 13.8571 29.2696C12.5453 30.5813 11.4989 32.0979 10.7376 33.7872C13.2956 32.8469 16.0758 32.7013 18.7473 33.3775C19.9677 30.3086 21.5559 27.4322 23.4821 24.8038ZM29.1251 55.0685C28.9499 55.0685 28.7808 54.9944 28.6611 54.8587C28.4958 54.6699 28.4612 54.3996 28.5735 54.1763C29.979 51.3665 30.2567 48.152 29.3571 45.1238C29.2658 44.8141 29.4274 44.4858 29.7285 44.3711C33.2947 43.0112 36.5993 41.143 39.551 38.8182C39.7374 38.6713 39.9891 38.6442 40.2026 38.7478C40.416 38.8515 40.5506 39.0662 40.5506 39.3031C40.5506 43.7528 38.818 47.9373 35.6714 51.0827C33.8846 52.8695 31.7498 54.1985 29.3263 55.0351C29.2609 55.0586 29.193 55.0685 29.1251 55.0685ZM30.691 45.32C31.3673 47.9916 31.2217 50.7705 30.2814 53.3298C31.9732 52.5672 33.4872 51.522 34.799 50.2103C37.4076 47.6016 38.9661 44.2218 39.2647 40.5865C36.6364 42.5115 33.76 44.1008 30.691 45.32ZM39.092 29.7706C37.8284 29.7706 36.5648 29.2894 35.6023 28.3269C33.6773 26.4018 33.6773 23.2712 35.6023 21.3462C37.4656 19.4817 40.7184 19.4804 42.5829 21.3462C44.5079 23.2712 44.5079 26.4018 42.5829 28.3269C41.6192 29.2894 40.3556 29.7706 39.092 29.7706ZM39.092 21.134C38.1023 21.134 37.1731 21.519 36.4735 22.2186C35.031 23.6624 35.031 26.0107 36.4735 27.4544C37.916 28.897 40.2643 28.897 41.7093 27.4544C43.1518 26.0107 43.1518 23.6624 41.7093 22.2186C41.0096 21.519 40.0804 21.134 39.092 21.134ZM9.73557 54.8106C9.57516 54.8106 9.41721 54.7476 9.29874 54.6304C9.12352 54.4552 9.06922 54.1911 9.16424 53.9616L13.2759 43.8738C14.2174 41.565 16.6743 40.252 19.1163 40.7419C19.1249 40.7432 19.1348 40.7456 19.1434 40.7481L19.1509 40.7493C21.1758 41.1578 22.7701 42.7521 23.186 44.8042C23.682 47.2549 22.3641 49.7117 20.0554 50.652L9.9688 54.7649C9.89229 54.7957 9.81331 54.8106 9.73557 54.8106ZM18.0859 41.8723C16.5027 41.8723 15.0343 42.8261 14.4173 44.339L10.8597 53.0694L19.5889 49.5106C21.3498 48.7937 22.353 46.9205 21.9767 45.0572C21.6595 43.4851 20.4428 42.2696 18.8794 41.9537L18.872 41.9525C18.6091 41.8969 18.3463 41.8723 18.0859 41.8723Z" fill="#0E0E2C"/>
<path d="M15.0293 49.5175C14.8688 49.5175 14.7109 49.4545 14.5924 49.3373C14.4172 49.1621 14.3629 48.898 14.4579 48.6685L16.6717 43.2377C17.2294 41.8692 18.6905 41.0906 20.1355 41.3806C21.3719 41.6422 22.3036 42.5837 22.5491 43.7905C22.8416 45.2442 22.0605 46.7015 20.6932 47.2593L15.2625 49.473C15.1872 49.5026 15.1082 49.5175 15.0293 49.5175ZM19.5247 42.5529C18.7867 42.5529 18.1019 42.9971 17.8144 43.7029L16.1547 47.7763L20.2268 46.1166C21.0474 45.7822 21.5163 44.9085 21.3398 44.0386C21.1918 43.3056 20.6241 42.738 19.8949 42.5911H19.8911C19.7677 42.5652 19.6456 42.5529 19.5247 42.5529Z" fill="#0E0E2C"/>
</svg>
