<svg width="64" height="64" viewBox="0 0 64 64" fill="none" xmlns="http://www.w3.org/2000/svg">
<path d="M61.7929 46.6073C61.9458 46.4087 62.0182 46.1599 61.9959 45.9103C61.0279 37.6483 49.1439 38.3043 49.0129 46.5573C48.6599 46.8833 48.2859 47.2563 47.9999 47.6643V43.4833C54.1119 38.4393 52.4719 32.9183 47.5879 29.1903C47.417 29.0661 47.2112 28.9992 46.9999 28.9992C46.7886 28.9992 46.5828 29.0661 46.4119 29.1903C41.5099 32.9323 39.9029 38.4543 45.9999 43.4833V47.6643C45.7139 47.2563 45.3399 46.8833 44.9879 46.5573C44.8559 38.3013 32.9719 37.6513 32.0039 45.9103C31.9809 46.1603 32.0539 46.4083 32.2069 46.6073C34.2829 49.4923 39.5969 51.6073 43.9219 48.3253C45.0309 49.3693 45.6559 50.9753 45.8519 51.9993H18.1479C18.3439 50.9773 18.9699 49.3673 20.0779 48.3253C24.4129 51.6113 29.7249 49.4833 31.7929 46.6073C31.9458 46.4087 32.0182 46.1599 31.9959 45.9103C31.0279 37.6483 19.1429 38.3043 19.0129 46.5573C18.6599 46.8833 18.2859 47.2563 17.9999 47.6643V43.4833C24.1119 38.4393 22.4719 32.9183 17.5879 29.1903C17.417 29.0661 17.2112 28.9992 16.9999 28.9992C16.7886 28.9992 16.5828 29.0661 16.4119 29.1903C11.5099 32.9323 9.90292 38.4543 15.9999 43.4833V47.6643C15.7139 47.2563 15.3399 46.8833 14.9879 46.5573C14.8559 38.3013 2.97192 37.6513 2.00392 45.9103C1.98092 46.1603 2.05392 46.4083 2.20692 46.6073C4.28292 49.4923 9.59692 51.6073 13.9219 48.3253C15.0309 49.3693 15.6559 50.9753 15.8519 51.9993H5.49992C0.887917 52.1403 0.863916 58.8493 5.49992 58.9993H58.4999C63.1069 58.8593 63.1399 52.1493 58.4999 51.9993H48.1479C48.3439 50.9773 48.9699 49.3673 50.0779 48.3253C54.4129 51.6113 59.7249 49.4833 61.7929 46.6073ZM55.0929 41.9953C57.3379 41.7303 59.5969 43.4693 59.9509 45.6933C58.3529 47.6533 54.6579 48.9763 51.7369 47.0333C53.1669 46.2253 54.5529 46.0333 55.0719 45.9963C56.3789 45.8813 56.2439 43.9303 54.9279 44.0023C54.1919 44.0543 52.7809 44.2673 51.2679 45.0073C51.8329 43.3933 53.2839 42.1643 55.0929 41.9953ZM38.9279 45.9963C39.4479 46.0343 40.8329 46.2253 42.2629 47.0343C39.3389 48.9803 35.6369 47.6463 34.0489 45.6943C34.8799 41.1543 41.2469 40.6743 42.7319 45.0073C41.5852 44.4471 40.3439 44.1063 39.0719 44.0023C37.7579 43.9173 37.6199 45.8853 38.9279 45.9963ZM25.0929 41.9963C27.3409 41.7303 29.5959 43.4683 29.9509 45.6933C28.4039 47.6083 24.6239 48.9873 21.7369 47.0333C23.1669 46.2253 24.5529 46.0333 25.0719 45.9963C26.3799 45.8813 26.2439 43.9303 24.9279 44.0023C24.1919 44.0543 22.7809 44.2673 21.2679 45.0073C21.8329 43.3933 23.2839 42.1643 25.0929 41.9953V41.9963ZM8.92792 45.9963C9.44792 46.0343 10.8329 46.2253 12.2629 47.0343C9.33892 48.9803 5.63692 47.6463 4.04892 45.6943C4.88092 41.1543 11.2469 40.6743 12.7319 45.0073C11.5852 44.4471 10.3439 44.1063 9.07192 44.0023C7.75692 43.9173 7.61992 45.8853 8.92792 45.9963ZM43.9999 36.4993C43.9999 34.2373 45.9809 32.1943 46.9999 31.2933C49.9939 33.8933 51.3539 37.2393 47.9999 40.7133V37.9993C47.9999 37.7341 47.8946 37.4797 47.707 37.2922C47.5195 37.1047 47.2651 36.9993 46.9999 36.9993C46.7347 36.9993 46.4803 37.1047 46.2928 37.2922C46.1053 37.4797 45.9999 37.7341 45.9999 37.9993V40.7133C45.0399 39.6553 43.9999 38.1383 43.9999 36.4993ZM13.9999 36.4993C13.9999 34.2373 15.9809 32.1943 16.9999 31.2933C19.9939 33.8933 21.3539 37.2393 17.9999 40.7133V37.9993C17.9999 37.7341 17.8946 37.4797 17.707 37.2922C17.5195 37.1047 17.2651 36.9993 16.9999 36.9993C16.7347 36.9993 16.4803 37.1047 16.2928 37.2922C16.1053 37.4797 15.9999 37.7341 15.9999 37.9993V40.7133C15.0399 39.6553 13.9999 38.1383 13.9999 36.4993ZM58.4999 53.9993C60.4529 54.0293 60.4859 56.9623 58.4999 56.9993H5.49992C3.54692 56.9693 3.51392 54.0363 5.49992 53.9993H58.4999ZM31.9999 24.9993C35.8599 24.9993 38.9999 21.8593 38.9999 17.9993C38.6479 8.7253 25.3499 8.7283 24.9999 17.9993C24.9999 21.8593 28.1399 24.9993 31.9999 24.9993ZM31.9999 12.9993C34.7569 12.9993 36.9999 15.2423 36.9999 17.9993C36.7649 24.6163 27.2339 24.6153 26.9999 17.9993C26.9999 15.2423 29.2429 12.9993 31.9999 12.9993Z" fill="#008744"/>
<path d="M32 10C32.2653 10 32.5196 9.89464 32.7071 9.70711C32.8947 9.51957 33 9.26522 33 9V6C33 5.73478 32.8947 5.48043 32.7071 5.29289C32.5196 5.10536 32.2653 5 32 5C31.7348 5 31.4805 5.10536 31.2929 5.29289C31.1054 5.48043 31 5.73478 31 6V9C31 9.26522 31.1054 9.51957 31.2929 9.70711C31.4805 9.89464 31.7348 10 32 10ZM24.93 12.343C25.857 13.263 27.264 11.858 26.343 10.929L24.222 8.808C23.294 7.888 21.886 9.293 22.808 10.222L24.93 12.343ZM20 19H23C24.314 18.978 24.315 17.022 23 17H20C18.686 17.022 18.685 18.978 20 19ZM24.93 23.657L22.808 25.778C21.89 26.698 23.294 28.121 24.222 27.192L26.343 25.071C27.263 24.143 25.859 22.735 24.93 23.657ZM31 27V30C31.022 31.314 32.978 31.315 33 30V27C32.978 25.686 31.022 25.685 31 27ZM37.657 23.657C37.4696 23.8445 37.3642 24.0988 37.3642 24.364C37.3642 24.6292 37.4696 24.8835 37.657 25.071L39.778 27.192C39.8703 27.2875 39.9806 27.3637 40.1026 27.4161C40.2246 27.4685 40.3559 27.4961 40.4886 27.4972C40.6214 27.4984 40.7531 27.4731 40.876 27.4228C40.9989 27.3725 41.1105 27.2983 41.2044 27.2044C41.2983 27.1105 41.3726 26.9989 41.4229 26.876C41.4731 26.7531 41.4984 26.6214 41.4973 26.4886C41.4961 26.3558 41.4685 26.2246 41.4161 26.1026C41.3637 25.9806 41.2875 25.8702 41.192 25.778L39.071 23.657C38.8835 23.4695 38.6292 23.3642 38.364 23.3642C38.0989 23.3642 37.8446 23.4695 37.657 23.657ZM40 18C40 18.2652 40.1054 18.5196 40.2929 18.7071C40.4805 18.8946 40.7348 19 41 19H44C44.2653 19 44.5196 18.8946 44.7071 18.7071C44.8947 18.5196 45 18.2652 45 18C45 17.7348 44.8947 17.4804 44.7071 17.2929C44.5196 17.1054 44.2653 17 44 17H41C40.7348 17 40.4805 17.1054 40.2929 17.2929C40.1054 17.4804 40 17.7348 40 18ZM38.364 12.636C38.4954 12.6361 38.6254 12.6103 38.7468 12.56C38.8681 12.5098 38.9783 12.436 39.071 12.343L41.192 10.222C42.112 9.294 40.707 7.886 39.778 8.808L37.657 10.929C37.019 11.523 37.508 12.667 38.364 12.636Z" fill="#008744"/>
</svg>
