<svg xmlns="http://www.w3.org/2000/svg" data-name="Layer 1" viewBox="0 0 512 512" id="save"><path fill="#f7caa5" d="M349.76,410.71l70.19-33.16a32.454,32.454,0,0,1,42.89,13l-142.69,92.3a98.094,98.094,0,0,1-61.22,6.94l-98.41-27.63a36.439,36.439,0,0,0-27.04,2.96L112.9,476.13l2.77-100.37.82.02a96.306,96.306,0,0,1,100.06-7l5.89,3.05a68.738,68.738,0,0,0,29.75,7.69l57.85,1.59A43.047,43.047,0,0,1,349.76,410.71Z"></path><circle cx="261" cy="234.5" r="108.01" fill="#00efd1"></circle><polygon fill="#00acea" points="112.9 476.13 112.59 487.44 49.16 485.69 52.99 346.48 116.43 348.23 115.67 375.76 112.9 476.13"></polygon><path fill="#083863" d="M261.666,278.176a7.679,7.679,0,0,0-2.727-.1,18.07,18.07,0,0,1-16.1-18.028,8,8,0,0,0-16,0A34.017,34.017,0,0,0,252,293.008V301a8,8,0,0,0,16,0v-7.514a34.166,34.166,0,0,0-7-67.606,18.16,18.16,0,1,1,18.16-18.16,8,8,0,0,0,16,0A34.217,34.217,0,0,0,268,174.284V167a8,8,0,0,0-16,0v7.772a34.157,34.157,0,0,0,9,67.108,18.154,18.154,0,0,1,.666,36.3Z"></path><path fill="#083863" d="M261,350.51A116.01,116.01,0,1,0,144.99,234.5,116.142,116.142,0,0,0,261,350.51Zm0-216.02A100.01,100.01,0,1,1,160.99,234.5,100.123,100.123,0,0,1,261,134.49Z"></path><path fill="#083863" d="M416.442 370.359L353.8 399.953a51.177 51.177 0 0 0-43.542-26.84l-57.846-1.59a61.116 61.116 0 0 1-26.295-6.8l-5.89-3.05a103.842 103.842 0 0 0-96.17.106l.368-13.331a8 8 0 0 0-7.776-8.218l-63.44-1.75a8 8 0 0 0-8.218 7.777l-3.83 139.21a8 8 0 0 0 7.776 8.217l63.43 1.75.221 0a8 8 0 0 0 8-7.781L120.77 481l16.487-8.824a28.318 28.318 0 0 1 21.1-2.31l98.411 27.63c.172.049.346.091.522.128a105.413 105.413 0 0 0 21.616 2.227 106.711 106.711 0 0 0 44.6-9.733 8.045 8.045 0 0 0 .993-.547l142.69-92.3a8 8 0 0 0 2.619-10.654A40.4 40.4 0 0 0 416.442 370.359zM105 475.911l-.139 3.311L57.4 477.914 60.779 354.7l47.488 1.308L105 475.909zm211.292-.093a90.709 90.709 0 0 1-55.464 6.2L162.68 454.457a44.231 44.231 0 0 0-32.974 3.609l-8.429 4.511 2.262-81.929a87.94 87.94 0 0 1 89.332-4.764l5.884 3.047a77.2 77.2 0 0 0 33.215 8.586l57.851 1.59A35.115 35.115 0 0 1 342.157 413.2a34.617 34.617 0 0 1 1.024 3.867L257 414.693a8 8 0 1 0-.44 15.994l95.09 2.62.22 0a8 8 0 0 0 8-7.781 51.26 51.26 0 0 0-.774-10.38l64.275-30.366c.063-.03.127-.061.189-.093a24.426 24.426 0 0 1 27.637 3.865zM261 104a8 8 0 0 0 8-8V20a8 8 0 0 0-16 0V96A8 8 0 0 0 261 104zM321 104a8 8 0 0 0 8-8V60a8 8 0 0 0-16 0V96A8 8 0 0 0 321 104zM201 104a8 8 0 0 0 8-8V60a8 8 0 0 0-16 0V96A8 8 0 0 0 201 104z"></path></svg>