<svg xmlns="http://www.w3.org/2000/svg" enable-background="new 0 0 64 64" viewBox="0 0 64 64" id="communication"><path fill="#0D3750" d="M48.1,49.4L40.5,42H32c-2.8,0-5-2.2-5-5v-6c0-2.8,2.2-5,5-5h16c2.8,0,5,2.2,5,5v6c0,2.8-2.2,5-5,5h-0.1
				L48.1,49.4z M32,28c-1.7,0-3,1.3-3,3v6c0,1.7,1.3,3,3,3h9.3l4.7,4.6L45.8,40H48c1.7,0,3-1.3,3-3v-6c0-1.7-1.3-3-3-3H32z"></path><path fill="#0D3750" d="M46 37H34c-.6 0-1-.4-1-1s.4-1 1-1h12c.6 0 1 .4 1 1S46.6 37 46 37zM46 33h-6c-.6 0-1-.4-1-1s.4-1 1-1h6c.6 0 1 .4 1 1S46.6 33 46 33z"></path><path fill="#09F" d="M30,16H20c-5,0-9,4-9,9s4,9,9,9v6l6.1-6H30c5,0,9-4,9-9S35,16,30,16z"></path><path fill="#0D3750" d="M19,42.4V35c-5-0.5-9-4.8-9-10c0-5.5,4.5-10,10-10h10c5.5,0,10,4.5,10,10s-4.5,10-10,10h-3.5L19,42.4z
				 M20,17c-4.4,0-8,3.6-8,8s3.6,8,8,8h1v4.6l4.7-4.6H30c4.4,0,8-3.6,8-8s-3.6-8-8-8H20z"></path><circle cx="19" cy="25" r="2" fill="#0D3750"></circle><circle cx="25" cy="25" r="2" fill="#0D3750"></circle><circle cx="31" cy="25" r="2" fill="#0D3750"></circle><path fill="#FFF" d="M21,33h2c-4.4,0-8-3.6-8-8s3.6-8,8-8h-3c-4.4,0-8,3.6-8,8s3.6,8,8,8H21z"></path></svg>