<svg xmlns="http://www.w3.org/2000/svg" viewBox="0 0 64 64" id="construction"><path fill="#fff" d="M4.3 6.1c-.9 0-1.8.4-2.4 1-.6.6-.9 1.5-.9 2.4 0 1.9 1.5 3.4 3.4 3.4h3.4v39.4H63V6.1H4.3z"></path><path fill="#acd2fe" d="M10.6 51.3V11.9H5.3c-.8 0-1.4-.6-1.4-1.4 0-.5.2-.8.4-1 .3-.3.6-.5 1-.5h56.8v42.3H10.6z"></path><path fill="#acd2fe" d="M6.5 57.4c-1.7 0-3.2-1.4-3.2-3.2V14.9c.6.3 1.2.4 1.9.4h1.9v42.1h-.6z"></path><path fill="none" stroke="#0229d5" stroke-dasharray="0 3.881 39.778 3.881 52.39 0" stroke-linecap="round" stroke-linejoin="round" stroke-miterlimit="10" stroke-width="1.94" d="M7.7 12.9v45H5.6C3 57.9 1 55.8 1 53.3V9.5c0 1.9 1.5 3.4 3.4 3.4h3.3z"></path><path fill="none" stroke="#0229d5" stroke-dasharray="0 2.911 73.734 0 9.702 2.911" stroke-linecap="round" stroke-linejoin="round" stroke-miterlimit="10" stroke-width="1.94" d="M4.3 6.1c-.9 0-1.8.4-2.4 1-.6.6-.9 1.5-.9 2.4v0c0 1.9 1.5 3.4 3.4 3.4h3.4v39.4H63V6.1H4.3z"></path><path fill="#fff" d="m28.4 32.7 7.7-13.3 5.3 9.2h-5.3v4.1z"></path><path fill="#fff" d="M24.7 42.2c-3.4 0-6.2-2.8-6.2-6.2 0-3.4 2.8-6.2 6.2-6.2.6 0 1.3.1 1.8.3l-3.1 5.4h7.4v.5c.1 3.5-2.7 6.2-6.1 6.2zM39 31.6h10.7v10.7H39z"></path><path fill="none" stroke="#0229d5" stroke-linecap="round" stroke-linejoin="round" stroke-miterlimit="10" stroke-width="1.94" d="M43 29.1h-6.4v4.1H24.9l2.7-4.7 7.5-13z"></path><path fill="none" stroke="#0229d5" stroke-linecap="round" stroke-linejoin="round" stroke-miterlimit="10" stroke-width="1.94" d="M31.3 35.1c0 4.2-3.4 7.6-7.6 7.6-4.2 0-7.6-3.4-7.6-7.6s3.4-7.6 7.6-7.6c1.4 0 2.8.4 3.9 1.1l-2.7 4.6h6.2c.2.6.2 1.2.2 1.9zM36.6 29.1h13.6v13.6H36.6z"></path></svg>