<svg xmlns="http://www.w3.org/2000/svg" viewBox="0 0 16 16" id="database"><path fill="#231f20" d="M5.598 1.5a.57.57 0 0 0-.568.568v5.127c0 .443.362.805.805.805H8.03v1.5H5.71c-.939 0-1.703.77-1.703 1.719v.015l.5-.015c0-.672.54-1.219 1.203-1.219H8.03v1.25h.5V10h2.332c.664 0 1.205.547 1.205 1.227l.5-.008c0-.947-.764-1.719-1.703-1.719H8.53V8h2.195c.443 0 .805-.36.805-.805V2.068a.569.569 0 0 0-.569-.568H5.598zm.237.5h4.89c.168 0 .305.138.305.305v1.127c0 .038-.03.068-.069.068H5.598a.068.068 0 0 1-.068-.068V2.305c0-.167.137-.305.305-.305Zm-.237 2h5.363c.038 0 .069.03.069.068v1.364c0 .038-.03.066-.069.066H5.598a.066.066 0 0 1-.068-.066V4.068c0-.038.031-.068.068-.068ZM5.53 5.986c.024.003.043.014.068.014h5.363c.024 0 .045-.01.069-.014v1.21a.304.304 0 0 1-.303.304H5.835a.306.306 0 0 1-.305-.305V5.986zm-1.272 6.471c-.7 0-1.271.57-1.271 1.272 0 .7.57 1.271 1.271 1.271s1.272-.57 1.272-1.271-.57-1.272-1.272-1.272zm3.98 0A1.271 1.271 0 1 0 8.244 15a1.271 1.271 0 0 0-.004-2.543zm4.079 0c-.701 0-1.272.57-1.272 1.272 0 .7.57 1.271 1.272 1.271.7 0 1.271-.57 1.271-1.271s-.571-1.272-1.271-1.272zm-8.059.5a.773.773 0 0 1 0 1.543.772.772 0 0 1 0-1.543zm3.98 0a.773.773 0 0 1 0 1.543.771.771 0 0 1 0-1.543zm4.079 0a.773.773 0 0 1 0 1.543.772.772 0 0 1 0-1.543z"></path></svg>