<svg xmlns="http://www.w3.org/2000/svg" enable-background="new 0 0 67 67" viewBox="0 0 67 67" id="business-development"><path fill="#FFF" d="M57.05242,23.05441v28.26895c0,1.09223-0.88543,1.97766-1.97766,1.97766H11.79657
		c-1.09223,0-1.97766-0.88543-1.97766-1.97766V23.05441c0-1.09223,0.88543-1.97766,1.97766-1.97766h43.27819
		C56.16699,21.07675,57.05242,21.96218,57.05242,23.05441z"></path><rect width="5.633" height="2.21" x="13.826" y="18.867" fill="#8F9FFF"></rect><rect width="5.633" height="2.21" x="47.413" y="18.867" fill="#8F9FFF"></rect><path fill="#8F9FFF" d="M40.60164,17.27403v3.80272h-2.87748v-2.27611c0-0.62916-0.50887-1.13803-1.13808-1.13803H30.2852
		c-0.62916,0-1.13803,0.50887-1.13803,1.13803v2.27611h-2.87748v-3.80272c0-1.05479,0.8512-1.90599,1.90599-1.90599h10.51996
		C39.75043,15.36804,40.60164,16.21925,40.60164,17.27403z"></path><path fill="#FFF" d="M43.81285,41.76106c-0.27617,1.21949-0.75934,2.35843-1.41512,3.38236l1.56468,2.47345l-2.34699,2.3585
		l-2.47345-1.56468c-1.02393,0.65577-2.16287,1.13894-3.39388,1.4036l-0.64425,2.85312h-3.33637l-0.64425-2.85312
		c-1.231-0.26466-2.36995-0.74783-3.39388-1.4036l-2.47345,1.56468l-2.34699-2.3585l1.56468-2.47345
		c-0.65577-1.02393-1.13902-2.16287-1.41512-3.38236l-2.85312-0.65577v-3.32485l2.85312-0.65577
		c0.2761-1.21949,0.75934-2.35843,1.4036-3.38236l-1.55317-2.47345l2.34699-2.3585l2.47345,1.56468
		c1.02393-0.65577,2.16287-1.13895,3.39388-1.4036l0.64425-2.85312h3.33637l0.64425,2.85312
		c1.231,0.26465,2.36995,0.74783,3.39388,1.4036l2.47345-1.56468l2.34699,2.3585l-1.55317,2.47345
		c0.64426,1.02393,1.12743,2.16287,1.4036,3.38236l2.85312,0.65577v3.32485L43.81285,41.76106z"></path><path fill="#8F9FFF" d="M39.80679,40.7622c0,2.36883-1.30285,4.45139-3.22752,5.53707v13.96612
		c0,1.73713-1.41141,3.13866-3.13866,3.13866h-0.00988c-1.72725,0-3.13866-1.40153-3.13866-3.13866V46.29927
		c-1.92467-1.08568-3.22752-3.16824-3.22752-5.53707c0-2.58594,1.55948-4.81658,3.78024-5.80358v5.44828h5.18177v-5.44828
		C38.24731,35.94562,39.80679,38.17626,39.80679,40.7622z"></path><path fill="#2A44E2" d="M54.47004,53.79912h0.60004c1.37,0,2.47998-1.11005,2.47998-2.48004v-1.54999
			c2.78003-4.39001,4.39001-9.59998,4.39001-15.16998c0-15.72003-12.79004-28.5-28.5-28.5c-15.72003,0-28.5,12.77997-28.5,28.5
			c0,5.57001,1.59998,10.77002,4.38,15.15997v1.56c0,1.37,1.10999,2.48004,2.47998,2.48004h0.59998
			c4.70001,5.14996,11.26001,8.57996,18.62006,9.19c0.63995,0.57001,1.48999,0.91998,2.40997,0.91998h0.01001
			c0.92999,0,1.76996-0.34998,2.40997-0.91998C43.20008,62.37907,49.77008,58.94908,54.47004,53.79912z M5.94007,34.59911
			c0-15.16998,12.33002-27.5,27.5-27.5c15.15997,0,27.5,12.33002,27.5,27.5c0,4.77997-1.23004,9.27997-3.39001,13.20001V23.05913
			c0-1.37006-1.10999-2.48004-2.47998-2.48004h-1.52002v-1.70996c0-0.28003-0.22998-0.5-0.5-0.5h-5.64001
			c-0.26996,0-0.5,0.21997-0.5,0.5v1.70996h-5.81v-3.31c0-1.32001-1.07996-2.39996-2.39996-2.39996H28.18006
			c-1.33002,0-2.40997,1.07996-2.40997,2.39996v3.31h-5.81006v-1.70996c0-0.28003-0.22998-0.5-0.5-0.5h-5.62994
			c-0.28003,0-0.5,0.21997-0.5,0.5v1.70996h-1.53003c-1.37,0-2.47998,1.10999-2.47998,2.48004v24.73999
			C7.16004,43.87907,5.94007,39.37907,5.94007,34.59911z M52.55005,20.57908h-4.64001v-1.20996h4.64001V20.57908z
			 M29.65003,20.57908v-1.77997c0-0.35004,0.28003-0.64001,0.63-0.64001h6.31c0.35004,0,0.63,0.28998,0.63,0.64001v1.77997H29.65003
			z M36.59003,17.1591h-6.31c-0.89996,0-1.63,0.73999-1.63,1.64001v1.77997h-1.87994v-3.31
			c0-0.77002,0.62994-1.39996,1.40997-1.39996h10.52002c0.76996,0,1.39996,0.62994,1.39996,1.39996v3.31h-1.88v-1.77997
			C38.22004,17.89909,37.49006,17.1591,36.59003,17.1591z M18.96003,20.57908h-4.62994v-1.20996h4.62994V20.57908z
			 M11.49006,52.76909c-0.66998-0.14001-1.16998-0.73999-1.16998-1.45001c0-13.53617,0-15.82501,0-28.25995
			c0-0.82001,0.65997-1.48004,1.47998-1.48004c27.16978,0,36.0759,0,43.27002,0c0.82001,0,1.47998,0.66003,1.47998,1.48004
			c0,0.4225,0,28.46217,0,28.25995c0,0.71002-0.5,1.31-1.16998,1.45001h-0.01001c-0.23433,0.04692,2.73129,0.03003-18.28998,0.03003
			v-2.84003c0.71997-0.25,1.40997-0.57001,2.06-0.96002l2.20996,1.40002c0.20001,0.12,0.45001,0.09998,0.62-0.07001l2.35004-2.35999
			c0.15997-0.15997,0.19-0.41998,0.06-0.62l-1.39001-2.21002c0.54999-0.91998,0.96997-1.91998,1.23999-2.95996l2.54999-0.59003
			c0.22003-0.04999,0.39001-0.25,0.39001-0.47998V37.7791c0-0.22998-0.15997-0.42999-0.39001-0.48999l-2.54999-0.58002
			c-0.27002-1.03998-0.67999-2.02997-1.22998-2.96002l1.39001-2.20996c0.12-0.20001,0.08997-0.46002-0.07001-0.62l-2.35004-2.35999
			c-0.16998-0.17004-0.41998-0.20001-0.62-0.07001l-2.20996,1.39996c-0.93005-0.56-1.93005-0.97998-2.97003-1.22998
			l-0.58002-2.54999c-0.04999-0.23004-0.25-0.39001-0.48999-0.39001h-3.32996c-0.24005,0-0.44,0.15997-0.49005,0.39001
			l-0.57996,2.54999c-1.04004,0.25-2.04004,0.66998-2.97003,1.22998l-2.20996-1.39996c-0.19-0.13-0.45001-0.10004-0.62006,0.07001
			l-2.34998,2.35999c-0.15997,0.15997-0.19,0.41998-0.06,0.62l1.38,2.20996c-0.54999,0.93005-0.96002,1.92004-1.22998,2.96002
			l-2.55005,0.58002c-0.21997,0.06-0.38,0.26001-0.38,0.48999v3.33002c0,0.22998,0.16003,0.42999,0.38,0.47998l2.55005,0.59003
			c0.26996,1.03998,0.69,2.03998,1.23999,2.95996l-1.39001,2.21002c-0.13,0.20001-0.09998,0.46002,0.06,0.62l2.34998,2.35999
			c0.17004,0.16998,0.43005,0.19,0.62006,0.07001l2.20996-1.40002c0.65002,0.39001,1.34003,0.71002,2.06,0.96002v2.84003
			C29.68167,52.79924,12.3377,52.82066,11.49006,52.76909z M36.08008,60.26909c0,1.43255-1.16063,2.64001-2.64001,2.64001h-0.01001
			c-1.52032,0-2.64001-1.2723-2.64001-2.64001c0-5.22794,0-8.74169,0-13.96997c0-0.17999-0.08997-0.35004-0.25-0.44
			c-1.83997-1.03003-2.97998-2.98004-2.97998-5.10004c0-2.03998,1.07001-3.91998,2.77997-4.96997v4.62
			c0,0.27002,0.23004,0.5,0.5,0.5h5.19c0.27002,0,0.5-0.22998,0.5-0.5v-4.62c1.71002,1.04999,2.78003,2.92999,2.78003,4.96997
			c0,2.12-1.14001,4.07001-2.97998,5.10004c-0.15002,0.08997-0.25,0.26001-0.25,0.44
			C36.08008,56.8288,36.08008,54.59806,36.08008,60.26909z M24.89008,44.87907c-0.63-1-1.08002-2.07996-1.34003-3.22998
			c-0.04999-0.19-0.19-0.33002-0.38-0.38l-2.46002-0.56v-2.52997l2.46002-0.57001c0.19-0.04004,0.33002-0.19,0.38-0.37
			c0.25-1.14001,0.71002-2.23004,1.34003-3.23004c0.09998-0.15997,0.09998-0.37,0-0.52997l-1.35004-2.14002l1.79004-1.78998
			l2.12994,1.34998c0.17004,0.09998,0.38,0.09998,0.54004,0c1-0.64001,2.08997-1.08997,3.22998-1.33997
			c0.19-0.04004,0.34003-0.19,0.38-0.38l0.56-2.46002h2.53003l0.56,2.46002c0.03998,0.19,0.19,0.33997,0.38,0.38
			c1.13995,0.25,2.22998,0.69995,3.22998,1.33997c0.16998,0.09998,0.38,0.09998,0.53998,0l2.13-1.34998l1.79004,1.78998
			l-1.34003,2.14002c-0.10999,0.15997-0.10999,0.37,0,0.52997c0.63,1,1.08002,2.09003,1.33002,3.23004
			c0.04999,0.17999,0.19,0.32996,0.38,0.37l2.46997,0.57001v2.52997l-2.46997,0.56c-0.19,0.04999-0.33002,0.19-0.38,0.38
			c-0.25,1.15002-0.71002,2.22998-1.34003,3.22998c-0.10999,0.16003-0.10999,0.37,0,0.53003l1.35004,2.14001l-1.79004,1.78998
			l-2.13-1.34998c-0.16998-0.11005-0.37-0.11005-0.53998,0c-0.57001,0.35999-1.16998,0.66998-1.78998,0.89996V46.5891
			c2-1.25,3.22998-3.45001,3.22998-5.83002c0-2.69995-1.60004-5.15997-4.08002-6.26001
			c-0.15997-0.06995-0.33002-0.04999-0.47998,0.04004c-0.14001,0.08997-0.22003,0.25-0.22003,0.41998v4.95001h-4.19v-4.95001
			c0-0.16998-0.07996-0.33002-0.21997-0.41998c-0.15002-0.09003-0.32001-0.10999-0.47998-0.04004
			c-2.48004,1.10004-4.08002,3.56006-4.08002,6.26001c0,2.38,1.22998,4.58002,3.22998,5.83002v2.29999
			c-0.62-0.22998-1.21997-0.53998-1.78998-0.89996c-0.16003-0.10004-0.37-0.11005-0.54004,0l-2.12994,1.34998l-1.79004-1.78998
			l1.35999-2.14001C25.00006,45.24907,25.00006,45.03911,24.89008,44.87907z M13.77009,53.79912h16.01996v6.46997
			c0,0.59003,0.14001,1.14001,0.39001,1.63C23.78003,61.14909,18.05005,58.17912,13.77009,53.79912z M36.69007,61.89909
			c0.25-0.48999,0.39001-1.03998,0.39001-1.63v-6.46997h16.01996C48.83008,58.17912,43.09003,61.14909,36.69007,61.89909z"></path><path fill="#2A44E2" d="M33.44007 58.67912c-.65002 0-1.16003.52997-1.16003 1.16998 0 .64996.51001 1.15997 1.16003 1.15997.64001 0 1.14996-.51001 1.14996-1.15997C34.59003 59.20909 34.08008 58.67912 33.44007 58.67912zM64.74787 26.0236c-.07178-.26563-.34619-.42285-.61279-.35254-.26661.07129-.42481.3457-.35303.6123 3.12207 11.62696-.95264 24.61035-10.13965 32.30859-.21143.17676-.23926.49219-.06201.7041.17814.21236.49448.2388.70459.06152C63.76447 51.41521 67.96906 38.0197 64.74787 26.0236zM22.07892 63.80388c-1.5166-.6084-3.00244-1.35059-4.41602-2.20801-.23633-.1416-.54346-.06738-.68701.16895-.14307.23535-.06738.54297.16846.68652 1.45996.88477 2.99512 1.65234 4.5625 2.28027.06104.02441.12402.03613.18604.03613.19824 0 .38574-.11816.46387-.31348C22.45978 64.19743 22.33527 63.90642 22.07892 63.80388zM2.17951 36.3029c-.01953-.27539-.26123-.49414-.53418-.46289-.27539.02051-.48291.25977-.46289.53516.63867 8.91699 4.99707 17.37598 11.95801 23.20801.09375.0791.20752.11719.3208.11719.14307 0 .28467-.06055.38379-.17871.17725-.21191.14941-.52734-.06201-.7041C7.02814 53.15837 2.79914 44.95232 2.17951 36.3029zM14.40851 9.507c7.79834-5.91309 18.22803-7.79004 27.90137-5.02051.26465.07715.54248-.07813.61816-.34277.07617-.26562-.07715-.54199-.34277-.61816-9.97412-2.85645-20.73291-.91797-28.78125 5.18457-.21973.16699-.26318.48047-.09619.7002C13.87391 9.63011 14.18755 9.67422 14.40851 9.507zM46.0467 6.18571c1.02295.47461 2.02441 1.01172 2.97705 1.59668.23031.14342.54094.07394.68799-.16406.14453-.23535.0708-.54297-.16455-.6875-.98584-.60547-2.02197-1.16113-3.07959-1.65137-.25195-.11914-.54834-.00781-.66406.24316C45.68732 5.77263 45.79621 6.0695 46.0467 6.18571z"></path></svg>